<?xml version="1.0" encoding="UTF-8" standalone="no"?>
<svg
   xmlns:dc="http://purl.org/dc/elements/1.1/"
   xmlns:cc="http://creativecommons.org/ns#"
   xmlns:rdf="http://www.w3.org/1999/02/22-rdf-syntax-ns#"
   xmlns:svg="http://www.w3.org/2000/svg"
   xmlns="http://www.w3.org/2000/svg"
   xmlns:sodipodi="http://sodipodi.sourceforge.net/DTD/sodipodi-0.dtd"
   xmlns:inkscape="http://www.inkscape.org/namespaces/inkscape"
   sodipodi:docname="SEIRV.svg"
   inkscape:version="1.0 (4035a4fb49, 2020-05-01)"
   id="svg921"
   version="1.1"
   viewBox="0 0 339.72629 94.194275"
   height="94.194275mm"
   width="339.72629mm">
  <defs
     id="defs915">
    <clipPath
       id="clip0">
      <rect
         x="46"
         y="17"
         width="1335"
         height="507"
         id="rect1484" />
    </clipPath>
  </defs>
  <sodipodi:namedview
     inkscape:window-maximized="1"
     inkscape:window-y="-11"
     inkscape:window-x="-11"
     inkscape:window-height="2066"
     inkscape:window-width="3840"
     fit-margin-bottom="0"
     fit-margin-right="0"
     fit-margin-left="0"
     fit-margin-top="0"
     showgrid="false"
     inkscape:document-rotation="0"
     inkscape:current-layer="layer1"
     inkscape:document-units="mm"
     inkscape:cy="366.57637"
     inkscape:cx="756.28815"
     inkscape:zoom="0.35"
     inkscape:pageshadow="2"
     inkscape:pageopacity="0.0"
     borderopacity="1.0"
     bordercolor="#666666"
     pagecolor="#ffffff"
     id="base" />
  <metadata
     id="metadata918">
    <rdf:RDF>
      <cc:Work
         rdf:about="">
        <dc:format>image/svg+xml</dc:format>
        <dc:type
           rdf:resource="http://purl.org/dc/dcmitype/StillImage" />
        <dc:title></dc:title>
      </cc:Work>
    </rdf:RDF>
  </metadata>
  <g
     transform="translate(94.267906,-51.17667)"
     id="layer1"
     inkscape:groupmode="layer"
     inkscape:label="Ebene 1">
    <path
       style="stroke-width:0.264583"
       id="path1489"
       fill="#a6a6a6"
       d="m -26.269726,93.35919 0.05027,-1.7907 0.169069,-1.825625 0.269875,-1.806046 0.372798,-1.796521 1.025525,-3.530335 1.397265,-3.433763 1.730904,-3.327399 2.032264,-3.191405 2.316163,-3.004026 2.550318,-2.818897 2.786063,-2.584635 2.9876749,-2.349844 3.141927,-2.049754 3.2959146,-1.748975 3.4012187,-1.39745 3.4977916,-1.04259 1.7785292,-0.372666 1.792552,-0.287523 1.793081,-0.152214 1.790171,-0.06755 1.796256,0.05083 1.793082,0.169148 1.789641,0.27014 1.780646,0.373089 3.479271,1.025313 3.417358,1.380437 3.296973,1.732571 3.140869,2.032344 2.970741,2.299335 2.785269,2.550292 2.56831,2.76995 2.300817,2.972382 2.032265,3.140868 1.731433,3.294592 1.397264,3.384285 1.026055,3.481652 0.374914,1.788848 0.246327,1.970352 -1.312862,0.164042 -0.242888,-1.9431 0.009,0.05345 -0.363802,-1.736196 0.01297,0.05133 -1.008857,-3.423179 0.02328,0.06562 -1.372659,-3.323961 0.02593,0.0553 -1.703388,-3.241146 0.03043,0.05159 -2.001044,-3.092185 0.03228,0.04551 -2.265363,-2.927085 0.03784,0.04498 -2.529946,-2.728542 0.03836,0.03807 -2.745052,-2.513541 0.0418,0.03524 -2.927085,-2.265494 0.04551,0.03225 -3.092185,-2.000911 0.05159,0.03019 -3.241146,-1.703255 0.06006,0.02778 -3.357033,-1.35599 0.06085,0.02117 -3.423179,-1.008724 0.05133,0.01294 -1.736196,-0.363802 0.03678,0.0066 -1.752865,-0.264583 0.03678,0.0045 -1.752864,-0.165364 0.04339,0.0027 -1.752864,-0.04961 0.04366,-2.12e-4 -1.752865,0.06615 0.03096,-0.0019 -1.752865,0.148828 0.048683,-0.006 -1.7528645,0.281119 0.030956,-0.0057 -1.7361958,0.363803 0.053181,-0.01352 -3.4395833,1.025261 0.062442,-0.02207 -3.3403645,1.372527 0.058738,-0.02752 -3.2411458,1.719791 0.051329,-0.03032 -3.0921854,2.017448 0.04736,-0.03408 -2.9434887,2.315104 0.04101,-0.03498 -2.745052,2.546615 0.04048,-0.04114 -2.513541,2.778178 0.03334,-0.03995 -2.282031,2.959893 0.03413,-0.04842 -2.000779,3.141927 0.02884,-0.05001 -1.703388,3.274219 0.02593,-0.05609 -1.372393,3.373438 0.02249,-0.06482 -1.008856,3.472656 0.01243,-0.05001 -0.363802,1.752865 0.0066,-0.03651 -0.264583,1.769269 0.0045,-0.03678 -0.165364,1.785937 0.0026,-0.04233 -0.04974,1.769269 z M 51.112695,88.748032 49.417245,92.848544 47.154,89.03193 Z" />
    <path
       style="stroke-width:0.264583"
       id="path1491"
       fill="#a6a6a6"
       d="m 56.544856,93.35919 0.05027,-1.7907 0.169068,-1.825625 0.269875,-1.806046 0.373063,-1.796521 1.02526,-3.530335 1.397265,-3.433763 1.730904,-3.327399 2.032265,-3.191405 2.316162,-3.004026 2.550319,-2.818897 2.786062,-2.584635 2.987675,-2.349844 3.141927,-2.049754 3.295915,-1.748975 3.401218,-1.39745 3.497792,-1.04259 1.778529,-0.372666 1.792552,-0.287523 1.793082,-0.152214 1.79017,-0.06755 1.796257,0.05083 1.793081,0.169148 1.789643,0.27014 1.78065,0.373089 3.47927,1.025313 3.41735,1.380437 3.29698,1.732571 3.14087,2.032344 2.97074,2.299335 2.78527,2.550292 2.56831,2.76995 2.30081,2.972382 2.03227,3.140868 1.73143,3.294592 1.39727,3.384285 1.02605,3.481652 0.37491,1.788848 0.24633,1.970352 -1.31286,0.164042 -0.24289,-1.9431 0.009,0.05345 -0.3638,-1.736196 0.013,0.05133 -1.00886,-3.423179 0.0233,0.06562 -1.37266,-3.323961 0.0259,0.0553 -1.70339,-3.241146 0.0304,0.05159 -2.00105,-3.092185 0.0323,0.04551 -2.26536,-2.927085 0.0378,0.04498 -2.52995,-2.728542 0.0384,0.03807 -2.74505,-2.513541 0.0418,0.03524 -2.92709,-2.265494 0.0455,0.03225 -3.09219,-2.000911 0.0516,0.03019 -3.24115,-1.703255 0.0601,0.02778 -3.35703,-1.35599 0.0609,0.02117 -3.42318,-1.008724 0.0513,0.01294 -1.736193,-0.363802 0.03678,0.0066 -1.752865,-0.264583 0.03678,0.0045 -1.752864,-0.165364 0.04339,0.0027 -1.752864,-0.04961 0.04366,-2.12e-4 -1.752864,0.06615 0.03096,-0.0019 -1.752865,0.148828 0.04868,-0.006 -1.752865,0.281119 0.03096,-0.0057 -1.736195,0.363803 0.05318,-0.01352 -3.439584,1.025261 0.06244,-0.02207 -3.340364,1.372527 0.05874,-0.02752 -3.241146,1.719791 0.05133,-0.03032 -3.092185,2.017448 0.04736,-0.03408 -2.94349,2.315104 0.04101,-0.03498 -2.745052,2.546615 0.04048,-0.04114 -2.513542,2.778178 0.03334,-0.03995 -2.282031,2.959893 0.03413,-0.04842 -2.000779,3.141927 0.02884,-0.05001 -1.703388,3.274219 0.02593,-0.05609 -1.372394,3.373438 0.02249,-0.06482 -1.008856,3.472656 0.01244,-0.05001 -0.363802,1.752865 0.0066,-0.03651 -0.264583,1.769269 0.0045,-0.03678 -0.165365,1.785937 0.0026,-0.04233 -0.04974,1.769269 z m 77.382424,-4.611158 -1.69545,4.100512 -2.26325,-3.816614 z" />
    <path
       style="stroke-width:0.264583"
       id="path1493"
       fill="#a6a6a6"
       d="m 139.62402,93.35919 0.0503,-1.7907 0.16907,-1.825625 0.26988,-1.806046 0.37306,-1.796521 1.02526,-3.530335 1.39726,-3.433763 1.73091,-3.327399 2.03226,-3.191405 2.31616,-3.004026 2.55032,-2.818897 2.78607,-2.584635 2.98661,-2.349844 3.14325,-2.049754 3.29671,-1.748975 3.3999,-1.39745 3.49779,-1.04259 1.778,-0.372666 1.79387,-0.287523 1.79123,-0.152214 1.79123,-0.06755 1.79652,0.05083 1.79388,0.169148 1.78858,0.27014 1.78065,0.373089 3.47927,1.025313 3.41841,1.380437 3.29671,1.732571 3.14061,2.032344 2.97127,2.299335 2.78341,2.550292 2.56911,2.76995 2.30187,2.972382 2.032,3.140868 1.73038,3.294592 1.397,3.384285 1.02658,3.481652 0.37571,1.788848 0.24606,1.970352 -1.31233,0.164042 -0.24342,-1.9431 0.008,0.05345 -0.36248,-1.736196 0.0132,0.05133 -1.01071,-3.423179 0.0238,0.06562 -1.37318,-3.323961 0.0265,0.0553 -1.70391,-3.241146 0.0318,0.05159 -2.00025,-3.092185 0.0318,0.04551 -2.26484,-2.927085 0.0371,0.04498 -2.52942,-2.728542 0.037,0.03807 -2.74373,-2.513541 0.0397,0.03524 -2.92629,-2.265494 0.045,0.03225 -3.09034,-2.000911 0.0503,0.03019 -3.24114,-1.703255 0.0609,0.02778 -3.35756,-1.35599 0.0608,0.02117 -3.4237,-1.008724 0.0529,0.01294 -1.73831,-0.363802 0.037,0.0066 -1.75154,-0.264583 0.037,0.0045 -1.75419,-0.165364 0.045,0.0027 -1.75418,-0.04961 0.045,-2.12e-4 -1.75419,0.06615 0.0318,-0.0019 -1.75419,0.148828 0.0503,-0.006 -1.75419,0.281119 0.0317,-0.0057 -1.73566,0.363803 0.0529,-0.01352 -3.43958,1.025261 0.0635,-0.02207 -3.34169,1.372527 0.0582,-0.02752 -3.24114,1.719791 0.0529,-0.03032 -3.09298,2.017448 0.0476,-0.03408 -2.94481,2.315104 0.0423,-0.03498 -2.74558,2.546615 0.0405,-0.04114 -2.51354,2.778178 0.0333,-0.03995 -2.28204,2.959893 0.0341,-0.04842 -2.00078,3.141927 0.0288,-0.05001 -1.70339,3.274219 0.0259,-0.05609 -1.3724,3.373438 0.0225,-0.06482 -1.00885,3.472656 0.0124,-0.05001 -0.3638,1.752865 0.007,-0.03651 -0.26458,1.769269 0.005,-0.03678 -0.16537,1.785937 0.003,-0.04233 -0.0497,1.769269 z m 77.38242,-4.611158 -1.69598,4.100512 -2.26218,-3.816614 z" />
    <rect
       style="stroke-width:0.264583"
       id="rect1495"
       fill="#ffffff"
       height="11.641666"
       width="29.633333"
       y="51.17667"
       x="-2.4574914" />
    <text
       style="stroke-width:0.264583"
       y="60.172504"
       x="-2.5590913"
       id="text1501"
       font-size="9.525px"
       font-weight="400"
       font-family="'Cambria Math', 'Cambria Math_MSFontService', sans-serif">ΔS<tspan
   style="stroke-width:0.0700043"
   id="tspan1497"
   y="62.289169"
   x="7.8258042"
   font-size="6.35px">i</tspan><tspan
   style="stroke-width:0.0700043"
   id="tspan1499"
   y="60.172504"
   x="11.794555"
   font-family="Calibri, Calibri_MSFontService, sans-serif">→</tspan>E</text>
    <rect
       style="stroke-width:0.264583"
       id="rect1503"
       fill="#ffffff"
       height="11.641666"
       width="28.045834"
       y="51.17667"
       x="80.621674" />
    <text
       style="stroke-width:0.264583"
       y="60.172504"
       x="80.613205"
       id="text1507"
       font-size="9.525px"
       font-weight="400"
       font-family="'Cambria Math', 'Cambria Math_MSFontService', sans-serif">ΔE<tspan
   style="stroke-width:0.0700043"
   id="tspan1505"
   y="60.172504"
   x="93.974663"
   font-family="Calibri, Calibri_MSFontService, sans-serif">→</tspan>I</text>
    <rect
       style="stroke-width:0.264583"
       id="rect1509"
       fill="#ffffff"
       height="11.641666"
       width="28.045834"
       y="51.17667"
       x="163.70084" />
    <text
       style="stroke-width:0.264583"
       y="60.172504"
       x="163.57384"
       id="text1513"
       font-size="9.525px"
       font-weight="400"
       font-family="'Cambria Math', 'Cambria Math_MSFontService', sans-serif">ΔI<tspan
   style="stroke-width:0.0700043"
   id="tspan1511"
   y="60.172504"
   x="174.55405"
   font-family="Calibri, Calibri_MSFontService, sans-serif">→</tspan>R</text>
    <path
       style="stroke-width:0.264583"
       id="path1515"
       fill-rule="evenodd"
       fill="#ffa500"
       d="m 24.530008,92.451669 c 0,4.134908 13.3858,7.484004 29.897917,7.484004 16.512116,0 29.897916,-3.349096 29.897916,-7.484004 L 72.45187,137.35516 c -1.05701,3.99733 -1.511829,7.48401 -18.023945,7.48401 -16.512117,0 -16.942859,-3.4888 -18.001721,-7.48559 z" />
    <path
       style="stroke-width:0.264583"
       id="path1517"
       fill-opacity="0.25098"
       fill-rule="evenodd"
       fill="#ffa500"
       d="m 24.530008,92.451669 c 0,-4.091252 13.3858,-7.408333 29.897917,-7.408333 16.512116,0 29.897916,3.317081 29.897916,7.408333 0,4.093104 -13.3858,7.408333 -29.897916,7.408333 -16.512117,0 -29.897917,-3.315229 -29.897917,-7.408333 z" />
    <path
       id="path1519"
       fill-rule="evenodd"
       fill="none"
       stroke-opacity="0.501961"
       stroke-miterlimit="8"
       stroke-width="0.796332"
       stroke="#000000"
       d="m 84.459455,92.651429 c 0,4.129617 -13.385799,7.474481 -29.897916,7.474481 -16.512116,0 -29.897916,-3.344864 -29.897916,-7.474481 0,-4.127764 13.3858,-7.474479 29.897916,-7.474479 16.512117,0 29.897916,3.346715 29.897916,7.474479 z m 0,0 -11.873706,44.848461 c -1.05701,3.9923 -1.512093,7.47289 -18.02421,7.47289 -16.512116,0 -16.94471,-3.48615 -18.003573,-7.47792 L 24.663623,92.651429" />
    <text
       style="stroke-width:0.264583"
       y="137.96001"
       x="41.73798"
       id="text1521"
       font-size="51.0646px"
       font-weight="400"
       font-family="Calibri, Calibri_MSFontService, sans-serif">E</text>
    <path
       style="stroke-width:0.264583"
       id="path1523"
       fill-rule="evenodd"
       fill="#ff0000"
       d="m 104.96334,92.451669 c 0,4.134908 13.3858,7.484004 29.89792,7.484004 16.51211,0 29.89791,-3.349096 29.89791,-7.484004 L 152.8852,137.35516 c -1.05701,3.99733 -1.51183,7.48401 -18.02394,7.48401 -16.51212,0 -16.94286,-3.4888 -18.00172,-7.48559 z" />
    <path
       style="stroke-width:0.264583"
       id="path1525"
       fill-opacity="0.25098"
       fill-rule="evenodd"
       fill="#ff0000"
       d="m 104.96334,92.451669 c 0,-4.091252 13.3858,-7.408333 29.89792,-7.408333 16.51211,0 29.89791,3.317081 29.89791,7.408333 0,4.093104 -13.3858,7.408333 -29.89791,7.408333 -16.51212,0 -29.89792,-3.315229 -29.89792,-7.408333 z" />
    <path
       id="path1527"
       fill-rule="evenodd"
       fill="none"
       stroke-opacity="0.501961"
       stroke-miterlimit="8"
       stroke-width="0.796332"
       stroke="#000000"
       d="m 164.89146,92.651429 c 0,4.129617 -13.38447,7.474481 -29.89659,7.474481 -16.51211,0 -29.89791,-3.344864 -29.89791,-7.474481 0,-4.127764 13.3858,-7.474479 29.89791,-7.474479 16.51212,0 29.89659,3.346715 29.89659,7.474479 z m 0,0 -11.87238,44.848461 c -1.05701,3.9923 -1.51209,7.47289 -18.02421,7.47289 -16.51211,0 -16.94471,-3.48615 -18.00357,-7.47792 L 105.09696,92.651429" />
    <text
       style="stroke-width:0.264583"
       y="136.10793"
       x="128.41917"
       id="text1529"
       font-size="46.5667px"
       font-weight="400"
       font-family="Calibri, Calibri_MSFontService, sans-serif">I</text>
    <path
       style="stroke-width:0.264583"
       id="path1531"
       fill-rule="evenodd"
       fill="#32cd33"
       d="m 185.13209,92.451669 c 0,4.134908 13.38527,7.484004 29.89792,7.484004 16.51264,0 29.89791,-3.349096 29.89791,-7.484004 l -11.8745,44.903491 c -1.05569,3.99733 -1.51077,7.48401 -18.02341,7.48401 -16.51265,0 -16.94392,-3.4888 -18.00225,-7.48559 z" />
    <path
       style="stroke-width:0.264583"
       id="path1533"
       fill-opacity="0.25098"
       fill-rule="evenodd"
       fill="#32cd33"
       d="m 185.13209,92.451669 c 0,-4.091252 13.38527,-7.408333 29.89792,-7.408333 16.51264,0 29.89791,3.317081 29.89791,7.408333 0,4.093104 -13.38527,7.408333 -29.89791,7.408333 -16.51265,0 -29.89792,-3.315229 -29.89792,-7.408333 z" />
    <path
       id="path1535"
       fill-rule="evenodd"
       fill="none"
       stroke-opacity="0.501961"
       stroke-miterlimit="8"
       stroke-width="0.796332"
       stroke="#000000"
       d="m 245.06021,92.651429 c 0,4.129617 -13.38527,7.474481 -29.89791,7.474481 -16.51,0 -29.89792,-3.344864 -29.89792,-7.474481 0,-4.127764 13.38792,-7.474479 29.89792,-7.474479 16.51264,0 29.89791,3.346715 29.89791,7.474479 z m 0,0 -11.87185,44.848461 c -1.05833,3.9923 -1.51342,7.47289 -18.02606,7.47289 -16.51,0 -16.94392,-3.48615 -18.00225,-7.47792 L 185.26438,92.651429" />
    <text
       style="stroke-width:0.264583"
       y="136.10793"
       x="202.36705"
       id="text1537"
       font-size="46.5667px"
       font-weight="400"
       font-family="Calibri, Calibri_MSFontService, sans-serif">R</text>
    <path
       style="stroke-width:0.264583"
       id="path1539"
       fill-rule="evenodd"
       fill="#87cefa"
       d="m -55.638741,92.451669 c 0,4.114006 13.3858,7.446169 29.897917,7.446169 16.5121161,0 29.8979159,-3.332163 29.8979159,-7.446169 L -7.7168788,137.12842 c -1.0570104,3.97721 -1.5118291,7.44617 -18.0239452,7.44617 -16.512117,0 -16.942859,-3.47134 -18.001721,-7.44776 z" />
    <path
       style="stroke-width:0.264583"
       id="path1541"
       fill-rule="evenodd"
       fill="#22a9fe"
       d="m -47.701241,121.62225 c 0,3.21362 14.38619,3.12843 21.662496,3.11758 7.276041,-0.0111 21.9273433,0.16246 21.9937537,-3.18399 l -3.8049729,15.78451 c -1.0588625,4.00526 -1.514475,7.49882 -18.0562248,7.49882 -16.542014,0 -16.97355,-3.49568 -18.034264,-7.50041 z" />
    <path
       style="stroke-width:0.264583"
       id="path1543"
       fill-opacity="0.25098"
       fill-rule="evenodd"
       fill="#87cefa"
       d="m -55.638741,92.319377 c 0,-4.164277 13.3858,-7.540625 29.897917,-7.540625 16.5121161,0 29.8979159,3.376348 29.8979159,7.540625 0,4.166394 -13.3857998,7.540625 -29.8979159,7.540625 -16.512117,0 -29.897917,-3.374231 -29.897917,-7.540625 z" />
    <path
       id="path1545"
       fill-rule="evenodd"
       fill="none"
       stroke-opacity="0.501961"
       stroke-miterlimit="8"
       stroke-width="0.796332"
       stroke="#000000"
       d="m 4.2907065,92.386846 c 0,4.129617 -13.3857998,7.474479 -29.8979165,7.474479 -16.512116,0 -29.897916,-3.344862 -29.897916,-7.474479 0,-4.127764 13.3858,-7.474479 29.897916,-7.474479 16.5121167,0 29.8979165,3.346715 29.8979165,7.474479 z m 0,0 -11.8737061,44.848464 c -1.0570104,3.9923 -1.5120937,7.47289 -18.0242104,7.47289 -16.512116,0 -16.94471,-3.48615 -18.003572,-7.47792 L -55.505126,92.386846" />
    <text
       style="stroke-width:0.264583"
       y="122.085"
       x="-31.307657"
       id="text1549"
       font-size="31.75px"
       font-weight="400"
       font-family="Calibri, Calibri_MSFontService, sans-serif">S<tspan
   style="stroke-width:0.0700043"
   id="tspan1547"
   y="141.66417"
   x="-30.005201"
   font-size="21.1667px">V</tspan></text>
    <path
       style="stroke-width:0.264583"
       id="path1551"
       fill="#a6a6a6"
       d="m -51.442832,110.28449 -1.207538,0.39455 -1.174582,0.56924 -1.112847,0.67556 -1.068276,0.79114 -0.977438,0.90821 -0.90949,0.98362 -1.546883,2.19331 -1.145811,2.42149 -0.420039,1.27196 -0.285859,1.28071 -0.171998,1.30583 -0.03339,1.29561 0.110984,1.29397 0.24726,1.26249 0.401787,1.22664 0.548158,1.16302 0.681247,1.12221 0.797384,1.02815 0.890778,0.98117 0.999815,0.89159 2.164274,1.51564 2.400282,1.1336 1.271711,0.41994 1.309987,0.2924 1.614159,0.0657 0.05382,-1.32182 -1.554894,-0.0633 0.117181,0.0153 -1.219989,-0.2723 0.06333,0.0175 -1.20203,-0.39695 0.07506,0.03 -2.312808,-1.09227 0.09696,0.0563 -2.08636,-1.4611 0.06081,0.0481 -0.944783,-0.84251 0.04949,0.049 -0.850091,-0.93636 0.03294,0.0392 -0.758533,-0.97802 0.04276,0.0621 -0.643589,-1.06017 0.0329,0.0613 -0.515806,-1.09442 0.03028,0.0761 -0.376328,-1.14891 0.02053,0.0788 -0.232571,-1.18743 0.0099,0.0706 -0.104788,-1.22167 0.0022,0.0736 0.03156,-1.22396 -0.0055,0.0693 0.16362,-1.24223 -0.0102,0.0577 0.272298,-1.21999 -0.01749,0.0633 0.396949,-1.20203 -0.0302,0.0755 1.103959,-2.33307 -0.05733,0.0983 1.488764,-2.1109 -0.05488,0.0678 0.862766,-0.93309 -0.03543,0.0355 0.932086,-0.86606 -0.05657,0.047 1.014244,-0.75112 -0.05042,0.0339 1.060176,-0.64359 -0.05477,0.0298 1.10611,-0.53606 -0.08304,0.0335 1.164882,-0.38061 z m 2.880831,27.8503 3.829902,-2.24063 -4.090491,-1.71949 z" />
    <rect
       style="stroke-width:0.264583"
       id="rect1553"
       fill="#ffffff"
       height="11.641666"
       width="32.279167"
       y="117.58708"
       x="-94.267906" />
    <text
       style="stroke-width:0.264583"
       y="126.58292"
       x="-94.209541"
       id="text1561"
       font-size="9.525px"
       font-weight="400"
       font-family="'Cambria Math', 'Cambria Math_MSFontService', sans-serif">Δ<tspan
   style="stroke-width:0.264583"
   id="tspan1555"
   y="126.58292"
   x="-88.520996">S</tspan><tspan
   style="stroke-width:0.0700043"
   id="tspan1557"
   y="128.69958"
   x="-84.00985"
   font-size="6.35px">v</tspan><tspan
   style="stroke-width:0.0700043"
   id="tspan1559"
   y="126.58292"
   x="-78.652039"
   font-family="Calibri, Calibri_MSFontService, sans-serif">→</tspan>V</text>
  </g>
</svg>
