<?xml version="1.0" encoding="UTF-8" standalone="no"?>
<svg
   xmlns:dc="http://purl.org/dc/elements/1.1/"
   xmlns:cc="http://creativecommons.org/ns#"
   xmlns:rdf="http://www.w3.org/1999/02/22-rdf-syntax-ns#"
   xmlns:svg="http://www.w3.org/2000/svg"
   xmlns="http://www.w3.org/2000/svg"
   xmlns:sodipodi="http://sodipodi.sourceforge.net/DTD/sodipodi-0.dtd"
   xmlns:inkscape="http://www.inkscape.org/namespaces/inkscape"
   sodipodi:docname="SEIRV next Susceptible.svg"
   inkscape:version="1.0 (4035a4fb49, 2020-05-01)"
   id="svg903"
   version="1.1"
   viewBox="0 0 159.61386 24.150871"
   height="24.150871mm"
   width="159.61386mm">
  <defs
     id="defs897">
    <clipPath
       id="clip0">
      <rect
         x="156"
         y="177"
         width="620"
         height="95"
         id="rect1466" />
    </clipPath>
  </defs>
  <sodipodi:namedview
     fit-margin-bottom="0"
     fit-margin-right="0"
     fit-margin-left="0"
     fit-margin-top="0"
     inkscape:window-maximized="0"
     inkscape:window-y="266"
     inkscape:window-x="266"
     inkscape:window-height="1228"
     inkscape:window-width="1481"
     showgrid="false"
     inkscape:document-rotation="0"
     inkscape:current-layer="layer1"
     inkscape:document-units="mm"
     inkscape:cy="56.264567"
     inkscape:cx="370.20393"
     inkscape:zoom="0.35"
     inkscape:pageshadow="2"
     inkscape:pageopacity="0.0"
     borderopacity="1.0"
     bordercolor="#666666"
     pagecolor="#ffffff"
     id="base" />
  <metadata
     id="metadata900">
    <rdf:RDF>
      <cc:Work
         rdf:about="">
        <dc:format>image/svg+xml</dc:format>
        <dc:type
           rdf:resource="http://purl.org/dc/dcmitype/StillImage" />
        <dc:title></dc:title>
      </cc:Work>
    </rdf:RDF>
  </metadata>
  <g
     transform="translate(-7.8835434,-133.28)"
     id="layer1"
     inkscape:groupmode="layer"
     inkscape:label="Ebene 1">
    <path
       style="stroke-width:0.264583"
       id="path1471"
       fill-rule="evenodd"
       d="m 11.115958,140.78755 c 0.285221,0 0.549539,0.0193 0.792956,0.0582 0.243417,0.0386 0.512233,0.10451 0.806715,0.19764 l -0.26035,1.19513 h -0.446352 c -0.01244,-0.26353 -0.05292,-0.47043 -0.12118,-0.62072 -0.068,-0.15055 -0.165629,-0.25823 -0.292893,-0.32332 -0.127,-0.0651 -0.296069,-0.0976 -0.506942,-0.0976 -0.257439,0 -0.483658,0.0526 -0.678921,0.15822 -0.195527,0.10531 -0.344223,0.24871 -0.4466164,0.43021 -0.1023938,0.18124 -0.1534583,0.38365 -0.1534583,0.60669 0,0.23257 0.061383,0.43657 0.1836208,0.61172 0.1225019,0.17515 0.3574519,0.38206 0.7045859,0.62098 0.304006,0.21087 0.535781,0.39899 0.695324,0.56488 0.159809,0.1659 0.277548,0.34184 0.353484,0.52811 0.07593,0.186 0.114035,0.40137 0.114035,0.64638 0,0.37835 -0.09075,0.71384 -0.271991,1.007 -0.181505,0.2929 -0.437357,0.51911 -0.767557,0.67892 -0.3302,0.15955 -0.706173,0.23945 -1.1276538,0.23945 -0.2854854,0 -0.5931958,-0.0233 -0.9233958,-0.0696 -0.3302,-0.0466 -0.625475,-0.10557 -0.885825,-0.17675 l 0.2788708,-1.27899 h 0.4466167 c 0,0.37809 0.087577,0.6596 0.2627312,0.84402 0.1751542,0.18441 0.4458229,0.27675 0.8114771,0.27675 0.4217458,0 0.7535338,-0.11483 0.9953628,-0.34422 0.241829,-0.22939 0.362743,-0.54875 0.362743,-0.95806 0,-0.18917 -0.03334,-0.35586 -0.100012,-0.50006 -0.06668,-0.14393 -0.167217,-0.28204 -0.302154,-0.41381 -0.134938,-0.13176 -0.329406,-0.28284 -0.583671,-0.45349 -0.2293938,-0.15505 -0.4201584,-0.30771 -0.5720292,-0.458 -0.1521354,-0.15054 -0.27305,-0.31855 -0.3627438,-0.50482 -0.089958,-0.186 -0.1349375,-0.3937 -0.1349375,-0.6231 0,-0.36591 0.088371,-0.68844 0.2651125,-0.96731 0.1767417,-0.27914 0.4262438,-0.49451 0.7487708,-0.64664 0.3225272,-0.15187 0.6945312,-0.22781 1.1162772,-0.22781 z" />
    <text
       style="stroke-width:0.264583"
       id="text1473"
       y="146.47662"
       x="7.883543"
       font-size="6.50192px"
       font-family="Arial, Arial_MSFontService, sans-serif"
       fill-opacity="0"
       fill="#000000">𝑆</text>
    <path
       style="stroke-width:0.264583"
       id="path1475"
       fill-rule="evenodd"
       d="m 14.472991,140.1626 h 0.866775 v 0.26221 l -1.118658,2.69054 -0.392906,-0.11774 z" />
    <text
       style="stroke-width:0.264583"
       id="text1477"
       y="142.74626"
       x="13.828202"
       font-size="2.95254px"
       font-family="Arial, Arial_MSFontService, sans-serif"
       fill-opacity="0"
       fill="#000000">′</text>
    <path
       style="stroke-width:0.264583"
       id="path1479"
       fill-rule="evenodd"
       d="m 19.508012,145.1455 h 5.729817 v 0.6186 h -5.729817 z m 0,-1.93013 h 5.729817 v 0.61859 h -5.729817 z" />
    <text
       style="stroke-width:0.264583"
       id="text1481"
       y="145.44554"
       x="19.508011"
       font-size="2.54868px"
       font-family="Arial, Arial_MSFontService, sans-serif"
       fill-opacity="0"
       fill="#000000">=</text>
    <path
       style="stroke-width:0.264583"
       id="path1483"
       fill-rule="evenodd"
       d="m 31.906916,140.78755 c 0.285221,0 0.54954,0.0193 0.792956,0.0582 0.243417,0.0386 0.512234,0.10451 0.806715,0.19764 l -0.26035,1.19513 h -0.446352 c -0.01244,-0.26353 -0.05292,-0.47043 -0.120915,-0.62072 -0.06826,-0.15055 -0.165894,-0.25823 -0.293158,-0.32332 -0.127,-0.0651 -0.296069,-0.0976 -0.506942,-0.0976 -0.257439,0 -0.483658,0.0526 -0.678921,0.15822 -0.195527,0.10531 -0.344223,0.24871 -0.446616,0.43021 -0.102394,0.18124 -0.153459,0.38365 -0.153459,0.60669 0,0.23257 0.06138,0.43657 0.183621,0.61172 0.122502,0.17515 0.357452,0.38206 0.704586,0.62098 0.304006,0.21087 0.535781,0.39899 0.695325,0.56488 0.159808,0.1659 0.277547,0.34184 0.353483,0.52811 0.07594,0.186 0.114035,0.40137 0.114035,0.64638 0,0.37835 -0.09075,0.71384 -0.271991,1.007 -0.181505,0.2929 -0.437357,0.51911 -0.767557,0.67892 -0.3302,0.15955 -0.706173,0.23945 -1.127654,0.23945 -0.285485,0 -0.593196,-0.0233 -0.923396,-0.0696 -0.3302,-0.0466 -0.625475,-0.10557 -0.885825,-0.17675 l 0.278871,-1.27899 h 0.446617 c 0,0.37809 0.08758,0.6596 0.262731,0.84402 0.175154,0.18441 0.445823,0.27675 0.811477,0.27675 0.421746,0 0.753534,-0.11483 0.995363,-0.34422 0.241829,-0.22939 0.362743,-0.54875 0.362743,-0.95806 0,-0.18917 -0.03334,-0.35586 -0.100012,-0.50006 -0.06668,-0.14393 -0.167217,-0.28204 -0.302154,-0.41381 -0.134938,-0.13176 -0.329406,-0.28284 -0.583671,-0.45349 -0.229394,-0.15505 -0.420158,-0.30771 -0.572029,-0.458 -0.152136,-0.15054 -0.27305,-0.31855 -0.362744,-0.50482 -0.08996,-0.186 -0.134937,-0.3937 -0.134937,-0.6231 0,-0.36591 0.08837,-0.68844 0.265112,-0.96731 0.176742,-0.27914 0.426244,-0.49451 0.748771,-0.64664 0.322527,-0.15187 0.694531,-0.22781 1.116277,-0.22781 z" />
    <text
       style="stroke-width:0.264583"
       id="text1485"
       y="146.47662"
       x="28.674501"
       font-size="6.50192px"
       font-family="Arial, Arial_MSFontService, sans-serif"
       fill-opacity="0"
       fill="#000000">𝑆</text>
    <path
       style="stroke-width:0.264583"
       id="path1487"
       fill-rule="evenodd"
       d="m 38.74322,144.17792 h 5.729817 v 0.6186 H 38.74322 Z" />
    <text
       style="stroke-width:0.264583"
       id="text1489"
       y="144.71925"
       x="38.743221"
       font-size="0.618567px"
       font-family="Arial, Arial_MSFontService, sans-serif"
       fill-opacity="0"
       fill="#000000">−</text>
    <path
       style="stroke-width:0.264583"
       id="path1491"
       fill-rule="evenodd"
       d="m 50.143057,141.81546 -1.771914,4.65084 h 3.236912 z m -0.162718,-1.02791 h 0.688181 l 1.962679,6.1251 v 0.29766 h -5.083175 v -0.29766 z" />
    <text
       style="stroke-width:0.264583"
       id="text1493"
       y="146.40756"
       x="47.548023"
       font-size="6.42287px"
       font-family="Arial, Arial_MSFontService, sans-serif"
       fill-opacity="0"
       fill="#000000">Δ</text>
    <path
       style="stroke-width:0.264583"
       id="path1495"
       fill-rule="evenodd"
       d="m 55.617816,140.78755 c 0.235479,0 0.465666,0.0124 0.690562,0.0373 0.224631,0.0246 0.506148,0.0804 0.844021,0.16721 v 1.25598 h -0.460375 c -0.07117,-0.27305 -0.161131,-0.48525 -0.26961,-0.63738 -0.108744,-0.15187 -0.235744,-0.25797 -0.38153,-0.31856 -0.145785,-0.0603 -0.334697,-0.0908 -0.567266,-0.0908 -0.201613,0 -0.382323,0.0373 -0.541867,0.11165 -0.159808,0.0746 -0.286014,0.1868 -0.379148,0.33735 -0.09287,0.15028 -0.139435,0.3294 -0.139435,0.5371 0,0.22013 0.03942,0.40614 0.118533,0.55801 0.07911,0.15213 0.202406,0.29316 0.369888,0.42333 0.167216,0.13018 0.415395,0.27596 0.744008,0.43709 0.396875,0.19844 0.704585,0.38312 0.923131,0.55351 0.218546,0.17066 0.389202,0.36513 0.511704,0.58367 0.122502,0.21855 0.183621,0.47361 0.183621,0.76518 0,0.32543 -0.05106,0.6006 -0.153458,0.8255 -0.102394,0.22489 -0.244211,0.40772 -0.42545,0.54874 -0.181504,0.14102 -0.398463,0.24342 -0.65114,0.30692 -0.252677,0.0638 -0.529431,0.0955 -0.830262,0.0955 -0.486834,0 -1.048015,-0.0823 -1.683544,-0.24659 v -1.27423 h 0.465138 c 0.06191,0.27278 0.14552,0.48815 0.251089,0.64638 0.105304,0.15822 0.241829,0.27516 0.409311,0.3511 0.167481,0.0759 0.382852,0.11403 0.646377,0.11403 0.362743,0 0.641085,-0.0947 0.83476,-0.28363 0.19394,-0.18918 0.290777,-0.46514 0.290777,-0.82788 0,-0.23257 -0.04022,-0.4281 -0.120914,-0.58605 -0.0807,-0.15822 -0.212461,-0.30692 -0.395288,-0.44662 -0.183092,-0.13944 -0.461962,-0.30215 -0.837142,-0.48816 -0.362743,-0.17991 -0.649552,-0.35586 -0.860425,-0.52811 -0.210873,-0.17197 -0.3683,-0.35877 -0.472016,-0.56038 -0.103982,-0.20135 -0.15584,-0.42148 -0.15584,-0.6604 0,-0.34714 0.08123,-0.64876 0.244211,-0.90461 0.162718,-0.25586 0.401372,-0.4535 0.716227,-0.59293 0.314589,-0.13944 0.674952,-0.20929 1.081352,-0.20929 z" />
    <text
       style="stroke-width:0.264583"
       id="text1497"
       y="146.47266"
       x="53.520203"
       font-size="6.49727px"
       font-family="Arial, Arial_MSFontService, sans-serif"
       fill-opacity="0"
       fill="#000000">S</text>
    <path
       style="stroke-width:0.264583"
       id="path1499"
       fill-rule="evenodd"
       d="m 65.430418,142.56873 1.828006,1.77217 v 0.29766 l -1.828006,1.77192 -0.274373,-0.25586 1.065212,-1.3581 h -5.874014 v -0.6186 h 5.874014 l -1.065212,-1.35334 z m 2.882106,-1.70683 h 4.348691 v 1.40467 h -0.455877 c -0.04657,-0.15187 -0.09472,-0.28522 -0.144198,-0.40005 -0.04974,-0.11456 -0.100806,-0.21087 -0.153458,-0.28839 -0.05265,-0.0775 -0.11086,-0.13944 -0.17436,-0.18601 -0.06377,-0.0466 -0.138907,-0.0783 -0.22569,-0.0952 -0.08678,-0.0172 -0.190764,-0.0257 -0.311679,-0.0257 h -1.469496 v 2.43708 h 0.995098 c 0.136525,0 0.243417,-0.0193 0.32094,-0.0582 0.07752,-0.0386 0.141816,-0.10451 0.193145,-0.19765 0.05106,-0.0929 0.100013,-0.23865 0.14658,-0.43709 h 0.437091 v 1.78594 H 71.38222 c -0.04339,-0.186 -0.09155,-0.32623 -0.144198,-0.42095 -0.05292,-0.0945 -0.115623,-0.16193 -0.188384,-0.20241 -0.07303,-0.0402 -0.182298,-0.0603 -0.328083,-0.0603 h -0.995098 v 2.68366 h 1.446477 c 0.151871,0 0.275167,-0.0132 0.369623,-0.0397 0.09446,-0.0262 0.175948,-0.0712 0.244211,-0.13494 0.06826,-0.0635 0.128587,-0.14631 0.181239,-0.24871 0.05292,-0.10239 0.0971,-0.20849 0.132556,-0.31856 0.03572,-0.11006 0.08467,-0.27067 0.14658,-0.48127 h 0.460375 l -0.08837,1.63221 h -4.306623 v -0.22781 c 0.192352,-0.0495 0.320939,-0.10451 0.386027,-0.1651 0.06509,-0.0603 0.107685,-0.14657 0.127794,-0.25823 0.02037,-0.11139 0.03043,-0.28204 0.03043,-0.51144 v -4.02299 c 0,-0.21405 -0.0079,-0.36989 -0.02328,-0.46752 -0.01561,-0.0976 -0.04127,-0.17356 -0.07673,-0.2278 -0.03572,-0.0542 -0.08308,-0.0976 -0.141816,-0.13018 -0.059,-0.0325 -0.159809,-0.0691 -0.302419,-0.10927 z" />
    <text
       style="stroke-width:0.264583"
       id="text1501"
       y="146.41682"
       x="60.34724"
       font-size="6.34844px"
       font-family="Arial, Arial_MSFontService, sans-serif"
       fill-opacity="0"
       fill="#000000">→E</text>
    <path
       style="stroke-width:0.264583"
       id="path1503"
       fill-rule="evenodd"
       d="m 76.644782,145.1455 h 5.729817 v 0.6186 h -5.729817 z m 0,-1.93013 h 5.729817 v 0.61859 h -5.729817 z" />
    <text
       style="stroke-width:0.264583"
       id="text1505"
       y="145.44554"
       x="76.644783"
       font-size="2.54868px"
       font-family="Arial, Arial_MSFontService, sans-serif"
       fill-opacity="0"
       fill="#000000">=</text>
    <path
       style="stroke-width:0.264583"
       id="path1507"
       fill-rule="evenodd"
       d="m 89.043686,140.78755 c 0.285221,0 0.54954,0.0193 0.792956,0.0582 0.243417,0.0386 0.512234,0.10451 0.806715,0.19764 l -0.26035,1.19513 h -0.446352 c -0.01244,-0.26353 -0.05292,-0.47043 -0.121179,-0.62072 -0.068,-0.15055 -0.165629,-0.25823 -0.292894,-0.32332 -0.127,-0.0651 -0.296069,-0.0976 -0.506942,-0.0976 -0.257439,0 -0.483658,0.0526 -0.678921,0.15822 -0.195527,0.10531 -0.344222,0.24871 -0.446616,0.43021 -0.102394,0.18124 -0.153459,0.38365 -0.153459,0.60669 0,0.23257 0.06138,0.43657 0.183621,0.61172 0.122502,0.17515 0.357452,0.38206 0.704586,0.62098 0.304006,0.21087 0.535781,0.39899 0.695325,0.56488 0.159808,0.1659 0.277548,0.34184 0.353483,0.52811 0.07594,0.186 0.114035,0.40137 0.114035,0.64638 0,0.37835 -0.09075,0.71384 -0.271991,1.007 -0.181504,0.2929 -0.437356,0.51911 -0.767556,0.67892 -0.3302,0.15955 -0.706173,0.23945 -1.127655,0.23945 -0.285485,0 -0.593195,-0.0233 -0.923395,-0.0696 -0.3302,-0.0466 -0.625475,-0.10557 -0.885825,-0.17675 l 0.27887,-1.27899 h 0.446617 c 0,0.37809 0.08758,0.6596 0.262731,0.84402 0.175154,0.18441 0.445823,0.27675 0.811477,0.27675 0.421746,0 0.753534,-0.11483 0.995363,-0.34422 0.241829,-0.22939 0.362744,-0.54875 0.362744,-0.95806 0,-0.18917 -0.03334,-0.35586 -0.100013,-0.50006 -0.06668,-0.14393 -0.167217,-0.28204 -0.302154,-0.41381 -0.134938,-0.13176 -0.329406,-0.28284 -0.583671,-0.45349 -0.229394,-0.15505 -0.420158,-0.30771 -0.572029,-0.458 -0.152135,-0.15054 -0.27305,-0.31855 -0.362744,-0.50482 -0.08996,-0.186 -0.134937,-0.3937 -0.134937,-0.6231 0,-0.36591 0.08837,-0.68844 0.265112,-0.96731 0.176742,-0.27914 0.426244,-0.49451 0.748771,-0.64664 0.322527,-0.15187 0.694531,-0.22781 1.116277,-0.22781 z" />
    <text
       style="stroke-width:0.264583"
       id="text1509"
       y="146.47662"
       x="85.811272"
       font-size="6.50192px"
       font-family="Arial, Arial_MSFontService, sans-serif"
       fill-opacity="0"
       fill="#000000">𝑆</text>
    <path
       style="stroke-width:0.264583"
       id="path1511"
       fill-rule="evenodd"
       d="m 95.87999,144.17792 h 5.72982 v 0.6186 h -5.72982 z" />
    <text
       style="stroke-width:0.264583"
       id="text1513"
       y="144.71925"
       x="95.87999"
       font-size="0.618567px"
       font-family="Arial, Arial_MSFontService, sans-serif"
       fill-opacity="0"
       fill="#000000">−</text>
    <path
       style="stroke-width:0.264583"
       id="path1515"
       fill-rule="evenodd"
       d="m 110.21511,133.28 0.12542,0.35824 c -0.72549,0.23866 -1.26259,0.70459 -1.61131,1.39753 -0.34899,0.69295 -0.52335,1.56343 -0.52335,2.61144 0,1.08506 0.17436,1.97961 0.52335,2.6834 0.34872,0.70406 0.88132,1.17528 1.59755,1.41394 l -0.11166,0.35824 c -0.90857,-0.23891 -1.60469,-0.75274 -2.08835,-1.54172 -0.48366,-0.78926 -0.72549,-1.74493 -0.72549,-2.86729 0,-1.11945 0.24262,-2.07513 0.72787,-2.86729 0.48525,-0.79216 1.18057,-1.30784 2.08597,-1.54649 z" />
    <text
       style="stroke-width:0.264583"
       id="text1517"
       y="141.00002"
       x="107.40127"
       font-size="8.82272px"
       font-family="Arial, Arial_MSFontService, sans-serif"
       fill-opacity="0"
       fill="#000000">(</text>
    <path
       style="stroke-width:0.264583"
       id="path1519"
       fill-rule="evenodd"
       d="m 113.83514,133.57765 c 0.28522,0 0.54954,0.0193 0.79296,0.0582 0.24315,0.0386 0.51223,0.10451 0.80671,0.19765 l -0.26035,1.19512 h -0.44635 c -0.0124,-0.26353 -0.0529,-0.47043 -0.12118,-0.62071 -0.068,-0.15055 -0.16563,-0.25824 -0.29289,-0.32332 -0.127,-0.0651 -0.29607,-0.0976 -0.50694,-0.0976 -0.25744,0 -0.48366,0.0526 -0.67892,0.15822 -0.19553,0.1053 -0.34423,0.2487 -0.44662,0.43021 -0.10239,0.18124 -0.15346,0.38364 -0.15346,0.60669 0,0.23257 0.0611,0.43656 0.18362,0.61171 0.12251,0.17516 0.35746,0.38206 0.70459,0.62098 0.304,0.21087 0.53578,0.39899 0.69532,0.56489 0.15981,0.16589 0.27755,0.34184 0.35349,0.52811 0.0759,0.186 0.11403,0.40137 0.11403,0.64637 0,0.37836 -0.0907,0.71385 -0.27199,1.00701 -0.1815,0.29289 -0.43736,0.51911 -0.76756,0.67892 -0.3302,0.15954 -0.70617,0.23945 -1.12765,0.23945 -0.28549,0 -0.5932,-0.0233 -0.9234,-0.0696 -0.3302,-0.0466 -0.62547,-0.10557 -0.88582,-0.17674 l 0.27887,-1.279 h 0.44662 c 0,0.37809 0.0876,0.65961 0.26273,0.84402 0.17515,0.18442 0.44582,0.27676 0.81148,0.27676 0.42174,0 0.75353,-0.11483 0.99536,-0.34423 0.24183,-0.22939 0.36274,-0.54874 0.36274,-0.95805 0,-0.18918 -0.0333,-0.35587 -0.10001,-0.50006 -0.0667,-0.14394 -0.16722,-0.28205 -0.30216,-0.41381 -0.13493,-0.13176 -0.3294,-0.28284 -0.58367,-0.4535 -0.22939,-0.15504 -0.42015,-0.30771 -0.57203,-0.45799 -0.15213,-0.15055 -0.27305,-0.31856 -0.363,-0.50483 -0.0897,-0.186 -0.13468,-0.3937 -0.13468,-0.62309 0,-0.36592 0.0884,-0.68845 0.26512,-0.96732 0.17674,-0.27913 0.42624,-0.4945 0.74877,-0.64664 0.32252,-0.15187 0.69453,-0.22781 1.11627,-0.22781 z" />
    <text
       style="stroke-width:0.264583"
       id="text1521"
       y="139.26672"
       x="110.60273"
       font-size="6.50192px"
       font-family="Arial, Arial_MSFontService, sans-serif"
       fill-opacity="0"
       fill="#000000">𝑆</text>
    <path
       style="stroke-width:0.264583"
       id="path1523"
       fill-rule="evenodd"
       d="m 120.67145,136.96803 h 5.72981 v 0.61859 h -5.72981 z" />
    <text
       style="stroke-width:0.264583"
       id="text1525"
       y="137.50937"
       x="120.67145"
       font-size="0.618567px"
       font-family="Arial, Arial_MSFontService, sans-serif"
       fill-opacity="0"
       fill="#000000">−</text>
    <path
       style="stroke-width:0.264583"
       id="path1527"
       fill-rule="evenodd"
       d="m 132.4806,136.02399 c -0.14896,0 -0.29528,0.0474 -0.43948,0.14182 -0.14419,0.0947 -0.3048,0.25109 -0.48127,0.4699 -0.17675,0.21854 -0.32094,0.44265 -0.4326,0.67204 -0.11165,0.22939 -0.20637,0.52229 -0.2839,0.87895 l -0.0418,0.19526 c -0.0463,0.21722 -0.0696,0.42783 -0.0696,0.63262 0,0.245 0.0535,0.42174 0.16034,0.53022 0.10689,0.10848 0.28443,0.16272 0.53261,0.16272 0.127,0 0.24791,-0.0209 0.36274,-0.0627 0.11457,-0.0421 0.23178,-0.11086 0.3511,-0.20716 0.11933,-0.096 0.23257,-0.22225 0.33946,-0.37889 0.10716,-0.15663 0.20559,-0.34951 0.29528,-0.57917 0.09,-0.22939 0.15981,-0.47519 0.20929,-0.73713 0.0497,-0.26194 0.0746,-0.51223 0.0746,-0.75115 0,-0.32226 -0.0458,-0.56409 -0.13732,-0.72549 -0.0916,-0.16113 -0.23786,-0.24183 -0.43947,-0.24183 z m 2.54291,-2.37199 h 1.92563 l -0.0513,0.22807 c -0.13626,0.0154 -0.24262,0.0558 -0.31855,0.12092 -0.0759,0.0651 -0.12938,0.15584 -0.16034,0.27199 -0.031,0.11615 -0.0466,0.27199 -0.0466,0.46752 0,0.0463 0.005,0.186 0.014,0.41857 l 0.13017,3.40439 v 0.37201 h 0.0466 l 2.01374,-3.6322 c 0.11774,-0.21405 0.20611,-0.39767 0.26511,-0.55113 0.059,-0.15372 0.0884,-0.28919 0.0884,-0.40719 0,-0.26035 -0.15504,-0.4154 -0.46513,-0.46488 l 0.0511,-0.22807 h 1.90236 l -0.0511,0.22807 c -0.0839,0.0122 -0.16378,0.0442 -0.23971,0.0953 -0.0759,0.0511 -0.16113,0.13653 -0.25559,0.25586 -0.0947,0.11932 -0.2413,0.34951 -0.43974,0.69056 l -2.97656,5.15329 h -0.6186 l -0.31141,-5.18584 c -0.0124,-0.20161 -0.0349,-0.37438 -0.0675,-0.51858 -0.0325,-0.1442 -0.0839,-0.25664 -0.15346,-0.33708 -0.0699,-0.0807 -0.18071,-0.13176 -0.33258,-0.15346 z m -3.35677,-0.30215 h 0.26961 l -0.81836,3.25543 0.0603,0.0188 c 0.30083,-0.40323 0.58287,-0.69453 0.8464,-0.87445 0.26352,-0.17992 0.52731,-0.26988 0.79084,-0.26988 0.33787,0 0.6006,0.12886 0.78819,0.38603 0.18759,0.25744 0.28152,0.62018 0.28152,1.0885 0,0.51144 -0.10319,1.01467 -0.3093,1.50918 -0.20637,0.49451 -0.49239,0.88662 -0.85831,1.1766 -0.36565,0.28999 -0.77496,0.43498 -1.22766,0.43498 -0.41249,0 -0.77841,-0.10081 -1.09776,-0.30242 l -0.42783,0.30242 -0.29766,-0.0746 1.20465,-5.31574 c 0.0712,-0.31644 0.10689,-0.54583 0.10689,-0.68844 0,-0.13018 -0.0394,-0.22173 -0.11853,-0.27438 -0.0791,-0.0526 -0.22093,-0.0823 -0.42545,-0.0884 l 0.0558,-0.24183 z" />
    <text
       style="stroke-width:0.264583"
       id="text1529"
       y="139.23418"
       x="129.66675"
       font-size="6.72518px"
       font-family="Arial, Arial_MSFontService, sans-serif"
       fill-opacity="0"
       fill="#000000">𝑏𝑉</text>
    <path
       style="stroke-width:0.264583"
       id="path1531"
       fill-rule="evenodd"
       d="m 140.95546,133.28 c 0.90541,0.23865 1.60047,0.75433 2.08572,1.54649 0.48524,0.79216 0.72786,1.74784 0.72786,2.86729 0,1.12236 -0.24183,2.07803 -0.72548,2.86729 -0.48366,0.78898 -1.17978,1.30281 -2.0881,1.54172 l -0.11165,-0.35824 c 0.71623,-0.23866 1.24857,-0.70988 1.59755,-1.41394 0.34873,-0.70379 0.52309,-1.59834 0.52309,-2.6834 0,-1.04801 -0.17357,-1.91849 -0.5207,-2.61144 -0.3474,-0.69294 -0.8853,-1.15887 -1.61396,-1.39753 z" />
    <text
       style="stroke-width:0.264583"
       id="text1533"
       y="141.00002"
       x="140.82979"
       font-size="8.82272px"
       font-family="Arial, Arial_MSFontService, sans-serif"
       fill-opacity="0"
       fill="#000000">)</text>
    <path
       style="stroke-width:0.264583"
       id="path1535"
       fill-rule="evenodd"
       d="m 123.47683,147.23306 h 1.48378 l 1.22767,3.62321 c 0.17674,0.5207 0.31326,0.96097 0.40931,1.3208 h 0.0513 c 0.0246,-0.18918 0.0812,-0.50377 0.1696,-0.9443 0.0884,-0.44027 0.16987,-0.82471 0.24421,-1.15332 l 0.32571,-1.465 c 0.068,-0.30691 0.10212,-0.55668 0.10212,-0.74877 0,-0.14578 -0.0362,-0.24738 -0.10927,-0.30453 -0.0728,-0.0574 -0.18838,-0.0907 -0.34634,-0.10001 l 0.0511,-0.22808 h 1.62771 l -0.0511,0.22808 c -0.11774,0.0246 -0.20241,0.0526 -0.25347,0.0836 -0.0511,0.031 -0.0968,0.0775 -0.13732,0.13944 -0.0402,0.0622 -0.082,0.15901 -0.12541,0.29078 -0.0434,0.13176 -0.0976,0.3466 -0.16272,0.64426 l -1.093,4.96226 h -0.63261 l -1.35811,-3.99045 c -0.16431,-0.47731 -0.30851,-0.95329 -0.43259,-1.42769 h -0.0603 c -0.0185,0.15822 -0.0699,0.45958 -0.15346,0.90461 -0.0839,0.44476 -0.17224,0.87974 -0.26511,1.30466 l -0.40931,1.85552 c -0.0651,0.29448 -0.0976,0.53658 -0.0976,0.72549 0,0.1397 0.0349,0.23813 0.10451,0.29554 0.0699,0.0572 0.18679,0.0921 0.35136,0.10451 l -0.0513,0.22781 h -1.62772 l 0.0511,-0.22781 c 0.11801,-0.0185 0.20638,-0.0487 0.26512,-0.0907 0.059,-0.0418 0.10848,-0.10001 0.14896,-0.17436 0.0402,-0.0744 0.0775,-0.1651 0.11165,-0.27199 0.0339,-0.10689 0.0852,-0.31406 0.15346,-0.62098 l 0.79057,-3.58114 c 0.031,-0.13335 0.0558,-0.26035 0.0743,-0.38126 0.0185,-0.12091 0.0281,-0.24342 0.0281,-0.36751 0,-0.14578 -0.0365,-0.24738 -0.10928,-0.30453 -0.073,-0.0574 -0.18838,-0.0907 -0.3466,-0.10001 z" />
    <text
       style="stroke-width:0.264583"
       id="text1537"
       y="152.78799"
       x="122.25842"
       font-size="6.34844px"
       font-family="Arial, Arial_MSFontService, sans-serif"
       fill-opacity="0"
       fill="#000000">𝑁</text>
    <path
       style="stroke-width:0.264583"
       id="path1539"
       fill-rule="evenodd"
       d="m 106.47417,144.29989 h 38.1 v 0.52917 h -38.1 z" />
    <path
       style="stroke-width:0.264583"
       id="path1541"
       fill-rule="evenodd"
       d="m 152.56088,134.06131 c -0.1643,0 -0.33787,0.006 -0.5207,0.0185 l -0.59531,2.69293 h 0.54875 c 0.44952,0 0.80459,-0.0603 1.06494,-0.18124 0.26062,-0.12091 0.46673,-0.31935 0.6186,-0.59531 0.15187,-0.27596 0.22781,-0.57362 0.22781,-0.89297 0,-0.13335 -0.0124,-0.25188 -0.037,-0.35586 -0.0249,-0.10398 -0.0574,-0.18997 -0.0976,-0.25824 -0.0405,-0.068 -0.0915,-0.12858 -0.15345,-0.18124 -0.0622,-0.0526 -0.1397,-0.0984 -0.23257,-0.13731 -0.0931,-0.0386 -0.20082,-0.0667 -0.32332,-0.0836 -0.12251,-0.0172 -0.28919,-0.0257 -0.50007,-0.0257 z m -1.86504,-0.40931 h 2.06983 c 0.32861,0 0.5969,0.0196 0.8046,0.0582 0.2077,0.0386 0.38523,0.0968 0.53234,0.17436 0.14737,0.0775 0.27067,0.17754 0.36989,0.30004 0.0992,0.1225 0.17356,0.26035 0.22331,0.41381 0.0495,0.15372 0.0743,0.31723 0.0743,0.4908 0,0.47757 -0.14578,0.88371 -0.43709,1.21841 -0.29157,0.33496 -0.72099,0.58922 -1.28852,0.76279 v 0.0513 c 0.14896,0.11139 0.26908,0.24474 0.36063,0.39978 0.0913,0.15505 0.1651,0.37069 0.22093,0.64665 l 0.10689,0.53948 c 0.0341,0.17039 0.0728,0.32385 0.11615,0.46038 0.0434,0.13652 0.0955,0.245 0.15584,0.32543 0.0606,0.0807 0.12885,0.14129 0.20479,0.18151 0.0759,0.0402 0.18679,0.0728 0.33258,0.0976 l -0.0466,0.2278 h -1.28826 c -0.0992,-0.27596 -0.18758,-0.60457 -0.26511,-0.98583 l -0.20479,-0.9861 c -0.0341,-0.1704 -0.0751,-0.3138 -0.12329,-0.43022 -0.0479,-0.11615 -0.10531,-0.20611 -0.17198,-0.26961 -0.0667,-0.0635 -0.1442,-0.10557 -0.23257,-0.12567 -0.0884,-0.0201 -0.19606,-0.0302 -0.32332,-0.0302 h -0.52996 l -0.3257,1.47426 c -0.0278,0.12092 -0.0474,0.21722 -0.0582,0.2884 -0.0109,0.0714 -0.0201,0.14658 -0.0278,0.22569 -0.008,0.0788 -0.0116,0.14949 -0.0116,0.2114 0,0.0963 0.0156,0.17145 0.0466,0.22569 0.031,0.0542 0.0775,0.0937 0.13944,0.11853 0.0619,0.0249 0.16907,0.0434 0.32094,0.0558 l -0.0511,0.2278 h -1.91161 l 0.0511,-0.2278 c 0.11801,-0.0185 0.20638,-0.0487 0.26512,-0.0907 0.059,-0.0418 0.10848,-0.10002 0.14896,-0.17436 0.0402,-0.0743 0.0775,-0.1651 0.11165,-0.272 0.0341,-0.10689 0.0852,-0.31406 0.15346,-0.62097 l 0.79057,-3.58114 c 0.0683,-0.31009 0.1024,-0.55509 0.1024,-0.73475 0,-0.15213 -0.0357,-0.25744 -0.10716,-0.31644 -0.0712,-0.0587 -0.18759,-0.0929 -0.34872,-0.10213 z" />
    <text
       style="stroke-width:0.264583"
       id="text1543"
       y="139.20692"
       x="149.47743"
       font-size="6.34844px"
       font-family="Arial, Arial_MSFontService, sans-serif"
       fill-opacity="0"
       fill="#000000">𝑅</text>
    <path
       style="stroke-width:0.264583"
       id="path1545"
       fill-rule="evenodd"
       d="m 157.12547,137.92105 c -0.15663,0 -0.2876,0.041 -0.3929,0.12277 -0.10531,0.0818 -0.18865,0.20161 -0.2503,0.35931 -0.0616,0.15795 -0.1053,0.35057 -0.13097,0.57785 -0.0257,0.22727 -0.0386,0.48524 -0.0386,0.77417 0,0.33364 0.0161,0.62203 0.0487,0.86492 0.0325,0.24289 0.0828,0.44291 0.15108,0.59954 0.0685,0.1569 0.15398,0.27226 0.25717,0.34608 0.10292,0.0738 0.22595,0.11086 0.36936,0.11086 0.13441,0 0.25188,-0.0347 0.35269,-0.10425 0.1008,-0.0693 0.18415,-0.17727 0.25029,-0.32411 0.0661,-0.14658 0.11589,-0.33258 0.14949,-0.55748 0.0336,-0.22516 0.0503,-0.49106 0.0503,-0.79772 0,-0.34501 -0.0185,-0.64161 -0.0553,-0.89032 -0.037,-0.24844 -0.0892,-0.4527 -0.15611,-0.61304 -0.0672,-0.16007 -0.15187,-0.27808 -0.25373,-0.35428 -0.10187,-0.0762 -0.21881,-0.1143 -0.35111,-0.1143 z m 0.0135,-0.3257 c 0.26643,0 0.49424,0.0497 0.68368,0.14949 0.18918,0.0998 0.3437,0.24183 0.46355,0.42651 0.11959,0.18468 0.2077,0.41037 0.26353,0.6768 0.0561,0.2667 0.0841,0.5678 0.0841,0.90356 0,0.74586 -0.13229,1.30942 -0.39634,1.69121 -0.26432,0.38206 -0.64717,0.57283 -1.14882,0.57283 -0.49715,0 -0.86678,-0.18019 -1.10861,-0.54081 -0.24183,-0.36063 -0.36274,-0.90699 -0.36274,-1.6391 0,-0.38285 0.0376,-0.71437 0.11245,-0.9943 0.0751,-0.27993 0.18044,-0.51223 0.31591,-0.69691 0.13547,-0.18495 0.29607,-0.32253 0.48207,-0.41328 0.18574,-0.0907 0.38947,-0.136 0.61119,-0.136 z" />
    <text
       style="stroke-width:0.264583"
       id="text1547"
       y="141.4633"
       x="155.61734"
       font-size="4.42039px"
       font-family="Arial, Arial_MSFontService, sans-serif"
       fill-opacity="0"
       fill="#000000">0</text>
    <path
       style="stroke-width:0.264583"
       id="path1549"
       fill-rule="evenodd"
       d="m 146.88372,147.23306 h 4.85537 l -0.36275,1.63725 h -0.44635 c 0,-0.30083 -0.008,-0.52626 -0.0233,-0.67681 -0.0156,-0.15028 -0.045,-0.26511 -0.0884,-0.34422 -0.0434,-0.0788 -0.0968,-0.13335 -0.16034,-0.16272 -0.0638,-0.0294 -0.17621,-0.0442 -0.33734,-0.0442 h -0.68819 l -1.00938,4.58575 c -0.0278,0.12092 -0.0474,0.21696 -0.0582,0.2884 -0.0108,0.0714 -0.0201,0.14658 -0.0278,0.22569 -0.008,0.0788 -0.0116,0.14949 -0.0116,0.2114 0,0.0963 0.0156,0.17145 0.0466,0.22569 0.031,0.0542 0.0775,0.0937 0.13944,0.11853 0.0619,0.0249 0.16907,0.0434 0.32094,0.0558 l -0.0511,0.22781 h -1.95819 l 0.0513,-0.22781 c 0.12383,-0.0185 0.21537,-0.0434 0.27438,-0.0743 0.0587,-0.031 0.11086,-0.0791 0.15584,-0.14419 0.0447,-0.0651 0.0897,-0.16749 0.13467,-0.30692 0.045,-0.1397 0.0984,-0.35031 0.1606,-0.63262 l 0.9951,-4.55321 h -0.59055 c -0.19209,0 -0.34581,0.028 -0.46038,0.0839 -0.11483,0.0556 -0.22939,0.15954 -0.34422,0.31141 -0.11483,0.15214 -0.25426,0.40614 -0.41857,0.7628 h -0.4463 z" />
    <text
       style="stroke-width:0.264583"
       id="text1551"
       y="152.78799"
       x="146.535"
       font-size="6.34844px"
       font-family="Arial, Arial_MSFontService, sans-serif"
       fill-opacity="0"
       fill="#000000">𝑇</text>
    <path
       style="stroke-width:0.264583"
       id="path1553"
       fill-rule="evenodd"
       d="m 152.48627,152.13024 h 0.16457 l -0.49715,2.23731 c -0.0312,0.13203 -0.0532,0.23734 -0.0656,0.31565 -0.0122,0.0783 -0.0182,0.14896 -0.0182,0.21167 0,0.0849 0.0172,0.14658 0.0519,0.18468 0.0349,0.0381 0.0868,0.0571 0.15637,0.0571 0.0402,0 0.0804,-0.008 0.12092,-0.0236 0.0402,-0.0156 0.0833,-0.0402 0.12938,-0.0738 0.0458,-0.0336 0.096,-0.0767 0.15108,-0.12938 0.0548,-0.0526 0.11588,-0.11589 0.18309,-0.18971 l 0.22833,0.22146 c -0.11641,0.1188 -0.22225,0.21908 -0.3175,0.30083 -0.095,0.0818 -0.1852,0.14817 -0.2704,0.19976 -0.0849,0.0516 -0.16854,0.0884 -0.2503,0.11086 -0.0815,0.0225 -0.16827,0.0336 -0.26008,0.0336 -0.0852,0 -0.16193,-0.0156 -0.23019,-0.0471 -0.0683,-0.0312 -0.127,-0.0744 -0.17648,-0.12938 -0.0492,-0.0548 -0.0873,-0.12012 -0.11403,-0.19632 -0.027,-0.0762 -0.0405,-0.16008 -0.0405,-0.25189 0,-0.0741 0.009,-0.16589 0.027,-0.27543 0.018,-0.1098 0.041,-0.22913 0.0688,-0.35771 0.028,-0.12886 0.0587,-0.26379 0.0923,-0.40482 0.0336,-0.14102 0.0667,-0.28098 0.0992,-0.41989 0.0326,-0.13891 0.0617,-0.27279 0.0873,-0.40137 0.0257,-0.12886 0.0442,-0.2458 0.0553,-0.35111 0.005,-0.018 0.007,-0.0352 0.007,-0.0521 0,-0.0167 0,-0.0318 0,-0.0452 -0.004,-0.0873 -0.0352,-0.15108 -0.0923,-0.19156 -0.0572,-0.0402 -0.15848,-0.0627 -0.304,-0.0672 l 0.0402,-0.22833 z m 1.99152,-0.0333 c 0.16563,0 0.29395,0.0542 0.3847,0.16272 0.0908,0.10874 0.136,0.25135 0.136,0.42836 0,0.0447 -0.004,0.0918 -0.0119,0.14102 -0.008,0.0492 -0.0217,0.0963 -0.0418,0.14103 l 0.0471,0.0169 c 0.21723,-0.29792 0.43154,-0.5207 0.64321,-0.6686 0.2114,-0.14764 0.43047,-0.22146 0.65669,-0.22146 0.23733,0 0.4146,0.0638 0.53234,0.19129 0.11748,0.1278 0.17622,0.30692 0.17622,0.53737 0,0.0696 -0.0101,0.1659 -0.0302,0.28893 -0.0201,0.12329 -0.0458,0.25744 -0.0772,0.40322 -0.0312,0.14552 -0.0648,0.29501 -0.10081,0.44821 -0.0357,0.15346 -0.0693,0.29527 -0.10081,0.42492 -0.0312,0.12991 -0.0569,0.24077 -0.0773,0.33258 -0.0201,0.0918 -0.0302,0.14896 -0.0302,0.17145 0,0.0849 0.0156,0.14658 0.0471,0.18468 0.0312,0.0381 0.0817,0.0571 0.15108,0.0571 0.0426,0 0.0847,-0.008 0.12594,-0.0236 0.0415,-0.0156 0.0847,-0.0402 0.12938,-0.0738 0.0447,-0.0336 0.0939,-0.0767 0.1479,-0.12938 0.0537,-0.0526 0.11404,-0.11589 0.18124,-0.18971 l 0.23178,0.22146 c -0.10981,0.11218 -0.21035,0.20849 -0.30216,0.28893 -0.0918,0.0807 -0.18097,0.14737 -0.26723,0.20002 -0.0863,0.0524 -0.17171,0.0918 -0.25691,0.11748 -0.0852,0.0257 -0.17568,0.0386 -0.27199,0.0386 -0.0807,0 -0.15505,-0.0156 -0.22357,-0.0471 -0.0683,-0.0312 -0.127,-0.0744 -0.17622,-0.12938 -0.0492,-0.0548 -0.0873,-0.11959 -0.1143,-0.19474 -0.0267,-0.0749 -0.0402,-0.15716 -0.0402,-0.24685 0,-0.0897 0.01,-0.19421 0.0286,-0.31406 0.0191,-0.11986 0.0476,-0.25136 0.0857,-0.39476 0.0402,-0.14552 0.0778,-0.28496 0.11245,-0.41804 0.0347,-0.13335 0.0648,-0.25638 0.0908,-0.36963 0.0257,-0.11297 0.0458,-0.21378 0.0603,-0.30215 0.0145,-0.0886 0.022,-0.16192 0.022,-0.22013 0,-0.13891 -0.0265,-0.24077 -0.0791,-0.3056 -0.0526,-0.0651 -0.13705,-0.0974 -0.25347,-0.0974 -0.0672,0 -0.13943,0.0172 -0.21669,0.0518 -0.0773,0.0349 -0.15505,0.0831 -0.23336,0.14447 -0.0783,0.0617 -0.15505,0.13441 -0.23019,0.21854 -0.0749,0.0839 -0.14394,0.17331 -0.20664,0.26856 -0.0627,0.0952 -0.11801,0.19473 -0.16616,0.29897 -0.0481,0.10425 -0.0833,0.2077 -0.10583,0.31063 l -0.37624,1.68618 h -0.65828 l 0.50376,-2.18995 c 0.0291,-0.11642 0.0505,-0.22066 0.0638,-0.31247 0.0135,-0.0918 0.0204,-0.16669 0.0204,-0.2249 0,-0.16351 -0.0661,-0.24527 -0.19817,-0.24527 -0.0405,0 -0.0812,0.008 -0.12277,0.0251 -0.0413,0.0169 -0.0849,0.0421 -0.13097,0.0757 -0.0458,0.0336 -0.0958,0.0762 -0.14949,0.12753 -0.0537,0.0516 -0.1143,0.11218 -0.18124,0.1815 l -0.23177,-0.21828 c 0.11192,-0.1143 0.21431,-0.2122 0.30718,-0.29395 0.0929,-0.0818 0.1815,-0.14896 0.26538,-0.20162 0.0841,-0.0526 0.16748,-0.0913 0.25029,-0.11588 0.0828,-0.0246 0.17013,-0.0368 0.26194,-0.0368 z m 6.65771,-1.26656 c 0.1233,0 0.23177,0.006 0.32597,0.0185 0.0939,0.0124 0.18468,0.0275 0.27199,0.0455 l -0.13759,0.62468 h -0.33258 c -0.0159,-0.12779 -0.0537,-0.22119 -0.1143,-0.28046 -0.0603,-0.0593 -0.14102,-0.0892 -0.24183,-0.0892 -0.11641,0 -0.21431,0.0254 -0.29395,0.0757 -0.0794,0.0503 -0.14896,0.12647 -0.20822,0.22833 -0.0593,0.10187 -0.11034,0.2212 -0.15293,0.35772 -0.0423,0.13679 -0.0714,0.25532 -0.0873,0.35613 h 0.93054 l -0.0738,0.3728 h -0.93397 l -0.60802,2.87866 c -0.10504,0.49054 -0.27596,0.85381 -0.51223,1.09009 -0.23601,0.23627 -0.55139,0.35427 -0.94536,0.35427 -0.10318,0 -0.17806,-0.007 -0.22516,-0.0201 0.0135,-0.0561 0.0257,-0.11377 0.037,-0.17304 0.0111,-0.0593 0.0246,-0.11695 0.0402,-0.17304 0.0135,0.005 0.0325,0.007 0.0572,0.007 0.0246,0 0.0593,0 0.10398,0 0.0876,0 0.16748,-0.014 0.24024,-0.0421 0.0728,-0.028 0.13944,-0.0783 0.20003,-0.15108 0.0603,-0.0728 0.11589,-0.1725 0.16616,-0.29897 0.0503,-0.12648 0.0979,-0.28946 0.14287,-0.48869 l 0.67178,-2.98291 h -0.57785 l 0.0606,-0.2585 c 0.12303,-0.007 0.22093,-0.0145 0.29369,-0.0236 0.0728,-0.009 0.1344,-0.0286 0.18494,-0.0587 0.0503,-0.0304 0.0878,-0.0812 0.11245,-0.15293 0.12991,-0.40983 0.32517,-0.7149 0.58605,-0.91519 0.26088,-0.20055 0.60087,-0.30083 1.01944,-0.30083 z m -8.84423,-0.0537 h 0.67204 l -0.16483,0.72231 h -0.6649 z" />
    <text
       style="stroke-width:0.264583"
       id="text1555"
       y="156.10243"
       x="151.43138"
       font-size="6.08645px"
       font-family="Arial, Arial_MSFontService, sans-serif"
       fill-opacity="0"
       fill="#000000">𝑖𝑛𝑓</text>
    <path
       style="stroke-width:0.264583"
       id="path1557"
       fill-rule="evenodd"
       d="m 146.16167,144.29989 h 16.40417 v 0.52917 h -16.40417 z" />
    <path
       style="stroke-width:0.264583"
       id="path1559"
       fill-rule="evenodd"
       d="m 165.63686,140.8619 h 1.86055 l -0.0513,0.22807 c -0.11774,0.0246 -0.20214,0.0526 -0.25347,0.0836 -0.0511,0.031 -0.0968,0.0775 -0.13706,0.13943 -0.0405,0.0622 -0.0823,0.15902 -0.12568,0.29078 -0.0434,0.13176 -0.0976,0.3466 -0.16271,0.64426 l -0.79534,3.60892 c -0.0402,0.18309 -0.0667,0.32782 -0.0791,0.43497 -0.0124,0.10689 -0.0185,0.20373 -0.0185,0.29051 0,0.1397 0.0349,0.23813 0.10451,0.29554 0.0699,0.0571 0.18706,0.0921 0.35136,0.10451 l -0.0513,0.22781 h -1.86029 l 0.0511,-0.22781 c 0.11801,-0.0185 0.20638,-0.0487 0.26512,-0.0907 0.059,-0.0418 0.10848,-0.10001 0.14896,-0.17436 0.0402,-0.0743 0.0775,-0.1651 0.11165,-0.27199 0.0341,-0.10689 0.0852,-0.31406 0.15346,-0.62098 l 0.79057,-3.58113 c 0.0683,-0.31009 0.1024,-0.5596 0.1024,-0.74877 0,-0.14579 -0.0365,-0.24739 -0.10927,-0.30454 -0.073,-0.0574 -0.18839,-0.0907 -0.34661,-0.10001 z" />
    <text
       style="stroke-width:0.264583"
       id="text1561"
       y="146.41682"
       x="164.41846"
       font-size="6.34844px"
       font-family="Arial, Arial_MSFontService, sans-serif"
       fill-opacity="0"
       fill="#000000">𝐼</text>
  </g>
</svg>
