<?xml version="1.0" encoding="UTF-8" standalone="no"?>
<svg
   xmlns:dc="http://purl.org/dc/elements/1.1/"
   xmlns:cc="http://creativecommons.org/ns#"
   xmlns:rdf="http://www.w3.org/1999/02/22-rdf-syntax-ns#"
   xmlns:svg="http://www.w3.org/2000/svg"
   xmlns="http://www.w3.org/2000/svg"
   xmlns:sodipodi="http://sodipodi.sourceforge.net/DTD/sodipodi-0.dtd"
   xmlns:inkscape="http://www.inkscape.org/namespaces/inkscape"
   sodipodi:docname="SEIRV delta Susceptible.svg"
   inkscape:version="1.0 (4035a4fb49, 2020-05-01)"
   id="svg8"
   version="1.1"
   viewBox="0 0 101.7764 23.799536"
   height="23.799536mm"
   width="101.7764mm">
  <defs
     id="defs2">
    <clipPath
       id="clip0">
      <rect
         x="103"
         y="554"
         width="400"
         height="95"
         id="rect833" />
    </clipPath>
  </defs>
  <sodipodi:namedview
     inkscape:window-maximized="0"
     inkscape:window-y="304"
     inkscape:window-x="304"
     inkscape:window-height="1228"
     inkscape:window-width="1481"
     fit-margin-bottom="0"
     fit-margin-right="0"
     fit-margin-left="0"
     fit-margin-top="0"
     showgrid="false"
     inkscape:document-rotation="0"
     inkscape:current-layer="layer1"
     inkscape:document-units="mm"
     inkscape:cy="44.9755"
     inkscape:cx="192.33335"
     inkscape:zoom="0.35"
     inkscape:pageshadow="2"
     inkscape:pageopacity="0.0"
     borderopacity="1.0"
     bordercolor="#666666"
     pagecolor="#ffffff"
     id="base" />
  <metadata
     id="metadata5">
    <rdf:RDF>
      <cc:Work
         rdf:about="">
        <dc:format>image/svg+xml</dc:format>
        <dc:type
           rdf:resource="http://purl.org/dc/dcmitype/StillImage" />
        <dc:title></dc:title>
      </cc:Work>
    </rdf:RDF>
  </metadata>
  <g
     transform="translate(-54.945134,-136.2669)"
     id="layer1"
     inkscape:groupmode="layer"
     inkscape:label="Ebene 1">
    <g
       clip-path="url(#clip0)"
       transform="matrix(0.26458333,0,0,0.26458333,25.871847,-11.648147)"
       id="g906">
      <path
         d="m 119.716,591.308 -6.697,17.579 h 12.234 z m -0.615,-3.884 h 2.601 l 7.418,23.15 v 1.125 h -19.213 v -1.125 z"
         fill-rule="evenodd"
         id="path838" />
      <text
         fill="#000000"
         fill-opacity="0"
         font-family="Arial, Arial_MSFontService, sans-serif"
         font-size="24.2754px"
         x="109.907"
         y="608.66498"
         id="text840">Δ</text>
      <path
         d="m 140.407,587.424 c 0.891,0 1.761,0.047 2.611,0.14 0.849,0.094 1.913,0.305 3.19,0.633 v 4.746 h -1.74 c -0.27,-1.031 -0.609,-1.834 -1.02,-2.408 -0.41,-0.574 -0.89,-0.976 -1.441,-1.204 -0.551,-0.229 -1.266,-0.343 -2.145,-0.343 -0.761,0 -1.444,0.141 -2.047,0.422 -0.604,0.281 -1.081,0.706 -1.433,1.274 -0.352,0.569 -0.527,1.246 -0.527,2.031 0,0.832 0.149,1.535 0.448,2.109 0.299,0.574 0.765,1.107 1.397,1.6 0.633,0.492 1.571,1.043 2.813,1.652 1.5,0.75 2.663,1.447 3.489,2.092 0.826,0.644 1.471,1.38 1.934,2.206 0.463,0.826 0.694,1.79 0.694,2.891 0,1.231 -0.193,2.271 -0.58,3.121 -0.387,0.849 -0.923,1.541 -1.608,2.074 -0.686,0.533 -1.506,0.92 -2.461,1.16 -0.955,0.24 -2.001,0.36 -3.138,0.36 -1.84,0 -3.961,-0.31 -6.363,-0.931 v -4.817 h 1.757 c 0.235,1.031 0.551,1.846 0.95,2.444 0.398,0.597 0.914,1.04 1.547,1.327 0.632,0.287 1.447,0.43 2.443,0.43 1.371,0 2.423,-0.357 3.155,-1.072 0.733,-0.715 1.099,-1.758 1.099,-3.129 0,-0.879 -0.153,-1.617 -0.457,-2.215 -0.305,-0.597 -0.803,-1.16 -1.494,-1.687 -0.692,-0.527 -1.746,-1.143 -3.164,-1.846 -1.372,-0.679 -2.456,-1.345 -3.252,-1.995 -0.797,-0.65 -1.392,-1.356 -1.785,-2.118 -0.392,-0.762 -0.588,-1.594 -0.588,-2.496 0,-1.313 0.307,-2.452 0.922,-3.419 0.616,-0.967 1.518,-1.714 2.707,-2.241 1.19,-0.528 2.552,-0.791 4.087,-0.791 z"
         fill-rule="evenodd"
         id="path842" />
      <text
         fill="#000000"
         fill-opacity="0"
         font-family="Arial, Arial_MSFontService, sans-serif"
         font-size="24.5566px"
         x="132.48"
         y="608.91101"
         id="text844">S</text>
      <path
         d="m 152.907,606.214 h 0.914 v 9.598 c 0,0.516 0.013,0.91 0.038,1.18 0.026,0.271 0.091,0.481 0.197,0.629 0.106,0.148 0.263,0.258 0.47,0.33 0.207,0.072 0.493,0.167 0.857,0.286 v 0.812 h -5.573 v -0.812 c 0.338,-0.119 0.607,-0.212 0.806,-0.28 0.199,-0.067 0.349,-0.171 0.451,-0.311 0.101,-0.139 0.167,-0.345 0.196,-0.615 0.03,-0.271 0.045,-0.665 0.045,-1.181 v -5.98 c 0,-0.296 -0.007,-0.548 -0.019,-0.755 -0.013,-0.207 -0.028,-0.383 -0.045,-0.527 -0.017,-0.203 -0.046,-0.374 -0.089,-0.514 -0.042,-0.14 -0.12,-0.262 -0.234,-0.368 -0.115,-0.106 -0.276,-0.197 -0.483,-0.273 -0.207,-0.076 -0.48,-0.148 -0.819,-0.216 v -0.863 z m -1.688,-5.116 h 2.679 v 2.729 h -2.679 z"
         fill-rule="evenodd"
         id="path846" />
      <text
         fill="#000000"
         fill-opacity="0"
         font-family="Arial, Arial_MSFontService, sans-serif"
         font-size="17.9512px"
         x="149.619"
         y="616.80499"
         id="text848">i</text>
      <path
         d="m 187.485,594.156 6.908,6.697 v 1.125 l -6.908,6.698 -1.037,-0.967 4.026,-5.133 h -22.202 v -2.338 h 22.202 l -4.026,-5.115 z m 10.893,-6.451 h 16.435 v 5.308 h -1.722 c -0.176,-0.574 -0.358,-1.078 -0.545,-1.511 -0.188,-0.434 -0.381,-0.797 -0.58,-1.09 -0.2,-0.293 -0.419,-0.527 -0.659,-0.703 -0.241,-0.176 -0.525,-0.296 -0.853,-0.361 -0.328,-0.064 -0.721,-0.096 -1.178,-0.096 h -5.554 v 9.211 h 3.761 c 0.516,0 0.92,-0.074 1.213,-0.22 0.293,-0.147 0.536,-0.396 0.73,-0.747 0.193,-0.352 0.378,-0.902 0.553,-1.652 h 1.653 v 6.75 h -1.653 c -0.164,-0.704 -0.345,-1.234 -0.545,-1.591 -0.199,-0.358 -0.436,-0.613 -0.711,-0.765 -0.276,-0.152 -0.689,-0.228 -1.24,-0.228 h -3.761 v 10.142 h 5.466 c 0.575,0 1.04,-0.05 1.398,-0.149 0.357,-0.1 0.665,-0.27 0.923,-0.51 0.257,-0.24 0.486,-0.554 0.685,-0.94 0.199,-0.387 0.366,-0.789 0.501,-1.205 0.135,-0.416 0.32,-1.022 0.554,-1.819 h 1.74 l -0.334,6.17 h -16.277 v -0.861 c 0.726,-0.188 1.213,-0.396 1.459,-0.624 0.246,-0.229 0.407,-0.554 0.483,-0.976 0.076,-0.422 0.114,-1.066 0.114,-1.933 v -15.206 c 0,-0.808 -0.029,-1.397 -0.087,-1.766 -0.059,-0.369 -0.156,-0.656 -0.29,-0.862 -0.135,-0.205 -0.314,-0.369 -0.537,-0.492 -0.222,-0.123 -0.603,-0.26 -1.142,-0.413 z"
         fill-rule="evenodd"
         id="path850" />
      <text
         fill="#000000"
         fill-opacity="0"
         font-family="Arial, Arial_MSFontService, sans-serif"
         font-size="23.9941px"
         x="168.272"
         y="608.70001"
         id="text852">→E</text>
      <path
         d="m 229.87,603.894 h 21.656 v 2.338 H 229.87 Z m 0,-7.295 h 21.656 v 2.338 H 229.87 Z"
         fill-rule="evenodd"
         id="path854" />
      <text
         fill="#000000"
         fill-opacity="0"
         font-family="Arial, Arial_MSFontService, sans-serif"
         font-size="9.63281px"
         x="229.87"
         y="605.02802"
         id="text856">=</text>
      <path
         d="m 278.05,559.049 0.474,1.353 c -2.742,0.903 -4.772,2.663 -6.091,5.282 -1.318,2.62 -1.977,5.91 -1.977,9.871 0,4.101 0.659,7.482 1.977,10.142 1.319,2.66 3.332,4.441 6.039,5.344 l -0.422,1.353 c -3.434,-0.902 -6.065,-2.844 -7.893,-5.827 -1.828,-2.982 -2.742,-6.595 -2.742,-10.837 0,-4.23 0.917,-7.842 2.751,-10.837 1.834,-2.994 4.462,-4.942 7.884,-5.844 z"
         fill-rule="evenodd"
         id="path858" />
      <text
         fill="#000000"
         fill-opacity="0"
         font-family="Arial, Arial_MSFontService, sans-serif"
         font-size="33.3457px"
         x="267.41501"
         y="588.22601"
         id="text860">(</text>
      <path
         d="m 291.731,560.174 c 1.078,0 2.077,0.073 2.997,0.219 0.92,0.147 1.937,0.396 3.05,0.747 l -0.984,4.518 h -1.688 c -0.047,-0.996 -0.199,-1.778 -0.457,-2.347 -0.258,-0.568 -0.627,-0.975 -1.107,-1.221 -0.481,-0.246 -1.119,-0.369 -1.916,-0.369 -0.973,0 -1.828,0.199 -2.567,0.597 -0.738,0.399 -1.3,0.941 -1.687,1.626 -0.387,0.686 -0.58,1.45 -0.58,2.294 0,0.879 0.231,1.65 0.694,2.312 0.463,0.662 1.351,1.444 2.663,2.346 1.149,0.797 2.025,1.509 2.628,2.136 0.604,0.627 1.049,1.292 1.336,1.995 0.287,0.703 0.431,1.518 0.431,2.444 0,1.429 -0.343,2.698 -1.028,3.805 -0.686,1.108 -1.653,1.963 -2.901,2.567 -1.248,0.603 -2.669,0.905 -4.263,0.905 -1.078,0 -2.241,-0.088 -3.489,-0.264 -1.248,-0.176 -2.364,-0.398 -3.348,-0.668 l 1.054,-4.834 h 1.688 c 0,1.43 0.331,2.493 0.993,3.191 0.662,0.697 1.684,1.046 3.067,1.046 1.594,0 2.848,-0.434 3.762,-1.301 0.914,-0.867 1.371,-2.074 1.371,-3.621 0,-0.715 -0.126,-1.345 -0.378,-1.89 -0.252,-0.545 -0.633,-1.066 -1.142,-1.564 -0.51,-0.498 -1.246,-1.07 -2.206,-1.714 -0.868,-0.586 -1.588,-1.163 -2.163,-1.732 -0.574,-0.568 -1.031,-1.204 -1.371,-1.907 -0.34,-0.703 -0.509,-1.488 -0.509,-2.355 0,-1.383 0.334,-2.602 1.001,-3.657 0.668,-1.054 1.612,-1.869 2.831,-2.443 1.218,-0.574 2.625,-0.861 4.218,-0.861 z"
         fill-rule="evenodd"
         id="path862" />
      <text
         fill="#000000"
         fill-opacity="0"
         font-family="Arial, Arial_MSFontService, sans-serif"
         font-size="24.5742px"
         x="279.51501"
         y="581.67603"
         id="text864">𝑆</text>
      <path
         d="m 317.57,572.988 h 21.656 v 2.338 H 317.57 Z"
         fill-rule="evenodd"
         id="path866" />
      <text
         fill="#000000"
         fill-opacity="0"
         font-family="Arial, Arial_MSFontService, sans-serif"
         font-size="2.33789px"
         x="317.57001"
         y="575.034"
         id="text868">−</text>
      <path
         d="m 362.203,569.42 c -0.563,0 -1.116,0.178 -1.661,0.536 -0.545,0.357 -1.152,0.949 -1.82,1.775 -0.668,0.826 -1.213,1.673 -1.634,2.54 -0.422,0.867 -0.78,1.975 -1.073,3.323 l -0.158,0.738 c -0.176,0.82 -0.264,1.617 -0.264,2.39 0,0.926 0.203,1.594 0.607,2.004 0.404,0.411 1.075,0.616 2.013,0.616 0.48,0 0.937,-0.079 1.371,-0.238 0.433,-0.158 0.876,-0.419 1.327,-0.782 0.451,-0.363 0.879,-0.841 1.283,-1.433 0.404,-0.591 0.776,-1.321 1.116,-2.188 0.34,-0.867 0.604,-1.796 0.791,-2.786 0.188,-0.99 0.282,-1.937 0.282,-2.839 0,-1.219 -0.173,-2.133 -0.519,-2.742 -0.346,-0.61 -0.899,-0.914 -1.661,-0.914 z m 9.611,-8.965 h 7.277 l -0.193,0.861 c -0.515,0.059 -0.917,0.211 -1.204,0.457 -0.287,0.246 -0.489,0.589 -0.606,1.029 -0.118,0.439 -0.176,1.028 -0.176,1.766 0,0.176 0.017,0.703 0.053,1.582 l 0.492,12.867 v 1.407 h 0.176 l 7.611,-13.729 c 0.445,-0.808 0.779,-1.503 1.002,-2.083 0.222,-0.58 0.334,-1.093 0.334,-1.538 0,-0.984 -0.586,-1.57 -1.758,-1.758 l 0.193,-0.861 h 7.19 l -0.194,0.861 c -0.316,0.047 -0.618,0.167 -0.905,0.361 -0.287,0.193 -0.609,0.515 -0.967,0.966 -0.357,0.452 -0.911,1.322 -1.661,2.611 l -11.25,19.476 h -2.338 l -1.177,-19.599 c -0.047,-0.762 -0.132,-1.415 -0.255,-1.96 -0.123,-0.545 -0.317,-0.97 -0.58,-1.275 -0.264,-0.304 -0.683,-0.498 -1.257,-0.58 z m -12.687,-1.143 h 1.019 l -3.094,12.305 0.229,0.07 c 1.137,-1.523 2.203,-2.625 3.199,-3.304 0.996,-0.68 1.992,-1.02 2.988,-1.02 1.278,0 2.271,0.486 2.98,1.459 0.709,0.973 1.063,2.344 1.063,4.113 0,1.934 -0.389,3.835 -1.169,5.704 -0.779,1.87 -1.86,3.352 -3.243,4.448 -1.383,1.095 -2.929,1.643 -4.64,1.643 -1.559,0 -2.942,-0.381 -4.149,-1.142 l -1.617,1.142 -1.125,-0.281 4.553,-20.092 c 0.269,-1.195 0.404,-2.062 0.404,-2.601 0,-0.493 -0.149,-0.838 -0.448,-1.037 -0.299,-0.2 -0.835,-0.311 -1.609,-0.334 l 0.211,-0.914 z"
         fill-rule="evenodd"
         id="path870" />
      <text
         fill="#000000"
         fill-opacity="0"
         font-family="Arial, Arial_MSFontService, sans-serif"
         font-size="25.418px"
         x="351.56799"
         y="581.55298"
         id="text872">𝑏𝑉</text>
      <path
         d="m 394.233,559.049 c 3.422,0.902 6.05,2.85 7.884,5.844 1.834,2.995 2.751,6.607 2.751,10.837 0,4.242 -0.914,7.855 -2.742,10.837 -1.828,2.983 -4.459,4.925 -7.893,5.827 l -0.421,-1.353 c 2.707,-0.903 4.719,-2.684 6.038,-5.344 1.318,-2.66 1.977,-6.041 1.977,-10.142 0,-3.961 -0.656,-7.251 -1.969,-9.871 -1.312,-2.619 -3.345,-4.379 -6.099,-5.282 z"
         fill-rule="evenodd"
         id="path874" />
      <text
         fill="#000000"
         fill-opacity="0"
         font-family="Arial, Arial_MSFontService, sans-serif"
         font-size="33.3457px"
         x="393.759"
         y="588.22601"
         id="text876">)</text>
      <path
         d="m 328.173,611.785 h 5.608 l 4.64,13.693 c 0.668,1.969 1.184,3.633 1.547,4.992 h 0.193 c 0.094,-0.714 0.308,-1.904 0.642,-3.568 0.334,-1.664 0.642,-3.117 0.923,-4.359 l 1.23,-5.537 c 0.258,-1.161 0.387,-2.104 0.387,-2.83 0,-0.551 -0.138,-0.935 -0.413,-1.152 -0.275,-0.217 -0.712,-0.343 -1.31,-0.378 l 0.194,-0.861 h 6.152 l -0.193,0.861 c -0.446,0.094 -0.765,0.199 -0.958,0.317 -0.194,0.117 -0.366,0.293 -0.519,0.527 -0.152,0.234 -0.31,0.601 -0.474,1.099 -0.164,0.498 -0.37,1.309 -0.616,2.434 l -4.131,18.756 h -2.39 l -5.133,-15.082 c -0.621,-1.805 -1.166,-3.603 -1.635,-5.396 h -0.228 c -0.071,0.597 -0.264,1.737 -0.58,3.418 -0.317,1.682 -0.651,3.326 -1.002,4.931 l -1.547,7.014 c -0.246,1.113 -0.369,2.027 -0.369,2.742 0,0.527 0.132,0.899 0.395,1.116 0.264,0.217 0.706,0.349 1.327,0.396 l -0.193,0.861 h -6.152 l 0.193,-0.861 c 0.445,-0.071 0.779,-0.185 1.002,-0.343 0.223,-0.158 0.41,-0.378 0.562,-0.659 0.153,-0.281 0.293,-0.624 0.422,-1.029 0.129,-0.404 0.323,-1.186 0.58,-2.346 l 2.989,-13.535 c 0.117,-0.504 0.211,-0.985 0.281,-1.442 0.07,-0.457 0.105,-0.92 0.105,-1.388 0,-0.551 -0.137,-0.935 -0.413,-1.152 -0.275,-0.217 -0.712,-0.343 -1.309,-0.378 z"
         fill-rule="evenodd"
         id="path878" />
      <text
         fill="#000000"
         fill-opacity="0"
         font-family="Arial, Arial_MSFontService, sans-serif"
         font-size="23.9941px"
         x="323.56799"
         y="632.78003"
         id="text880">𝑁</text>
      <path
         d="m 264.031,600.699 h 72 72 v 2 h -72 -72 z"
         fill-rule="evenodd"
         id="path882" />
      <path
         d="m 438.097,562.002 c -0.621,0 -1.277,0.023 -1.969,0.07 l -2.25,10.178 h 2.075 c 1.699,0 3.041,-0.229 4.025,-0.686 0.984,-0.457 1.764,-1.207 2.338,-2.25 0.574,-1.043 0.861,-2.168 0.861,-3.375 0,-0.504 -0.047,-0.952 -0.14,-1.344 -0.094,-0.393 -0.217,-0.718 -0.37,-0.976 -0.152,-0.258 -0.345,-0.486 -0.58,-0.686 -0.234,-0.199 -0.527,-0.372 -0.879,-0.518 -0.351,-0.147 -0.758,-0.252 -1.221,-0.317 -0.463,-0.064 -1.093,-0.096 -1.89,-0.096 z m -7.049,-1.547 h 7.823 c 1.242,0 2.255,0.073 3.041,0.22 0.785,0.146 1.456,0.366 2.012,0.659 0.557,0.293 1.023,0.671 1.398,1.134 0.375,0.462 0.656,0.984 0.843,1.564 0.188,0.58 0.282,1.198 0.282,1.855 0,1.804 -0.551,3.339 -1.653,4.605 -1.101,1.266 -2.724,2.227 -4.869,2.883 v 0.193 c 0.563,0.422 1.017,0.926 1.363,1.512 0.345,0.586 0.624,1.4 0.834,2.443 l 0.405,2.039 c 0.129,0.645 0.275,1.225 0.439,1.741 0.164,0.515 0.361,0.925 0.589,1.23 0.229,0.305 0.486,0.533 0.774,0.686 0.287,0.152 0.706,0.275 1.256,0.369 l -0.175,0.861 h -4.87 c -0.375,-1.043 -0.709,-2.285 -1.001,-3.727 l -0.774,-3.726 c -0.129,-0.645 -0.284,-1.187 -0.466,-1.626 -0.181,-0.44 -0.398,-0.779 -0.65,-1.02 -0.252,-0.24 -0.545,-0.398 -0.879,-0.474 -0.334,-0.076 -0.741,-0.114 -1.222,-0.114 h -2.004 l -1.23,5.572 c -0.106,0.457 -0.179,0.82 -0.22,1.09 -0.041,0.269 -0.076,0.553 -0.105,0.852 -0.03,0.299 -0.044,0.566 -0.044,0.8 0,0.363 0.058,0.647 0.176,0.853 0.117,0.205 0.293,0.354 0.527,0.448 0.234,0.094 0.639,0.164 1.213,0.211 l -0.194,0.861 h -7.224 l 0.193,-0.861 c 0.445,-0.071 0.779,-0.185 1.002,-0.343 0.223,-0.158 0.41,-0.378 0.563,-0.659 0.152,-0.281 0.293,-0.624 0.421,-1.029 0.129,-0.404 0.323,-1.186 0.581,-2.346 l 2.988,-13.535 c 0.258,-1.172 0.387,-2.098 0.387,-2.778 0,-0.574 -0.135,-0.972 -0.405,-1.195 -0.269,-0.223 -0.709,-0.352 -1.318,-0.387 z"
         fill-rule="evenodd"
         id="path884" />
      <text
         fill="#000000"
         fill-opacity="0"
         font-family="Arial, Arial_MSFontService, sans-serif"
         font-size="23.9941px"
         x="426.44299"
         y="581.45001"
         id="text886">𝑅</text>
      <path
         d="m 455.349,576.59 c -0.592,0 -1.087,0.155 -1.485,0.463 -0.398,0.309 -0.713,0.762 -0.946,1.359 -0.233,0.597 -0.398,1.324 -0.495,2.183 -0.097,0.86 -0.146,1.835 -0.146,2.927 0,1.261 0.061,2.35 0.184,3.269 0.123,0.918 0.313,1.673 0.571,2.266 0.258,0.592 0.582,1.028 0.971,1.308 0.39,0.279 0.855,0.418 1.397,0.418 0.508,0 0.952,-0.131 1.333,-0.393 0.381,-0.262 0.696,-0.671 0.946,-1.225 0.249,-0.555 0.438,-1.257 0.565,-2.108 0.127,-0.85 0.19,-1.855 0.19,-3.015 0,-1.303 -0.07,-2.425 -0.209,-3.364 -0.14,-0.939 -0.337,-1.712 -0.591,-2.317 -0.254,-0.605 -0.573,-1.051 -0.958,-1.339 -0.385,-0.288 -0.827,-0.432 -1.327,-0.432 z m 0.051,-1.231 c 1.007,0 1.868,0.188 2.583,0.565 0.716,0.376 1.3,0.914 1.752,1.612 0.453,0.698 0.785,1.551 0.997,2.558 0.212,1.007 0.317,2.146 0.317,3.415 0,2.818 -0.499,4.949 -1.498,6.392 -0.998,1.443 -2.446,2.165 -4.341,2.165 -1.879,0 -3.276,-0.682 -4.19,-2.044 -0.914,-1.363 -1.371,-3.428 -1.371,-6.196 0,-1.447 0.142,-2.699 0.425,-3.757 0.284,-1.058 0.682,-1.936 1.194,-2.635 0.512,-0.698 1.119,-1.218 1.821,-1.561 0.703,-0.343 1.473,-0.514 2.311,-0.514 z"
         fill-rule="evenodd"
         id="path888" />
      <text
         fill="#000000"
         fill-opacity="0"
         font-family="Arial, Arial_MSFontService, sans-serif"
         font-size="16.707px"
         x="449.64899"
         y="589.97699"
         id="text890">0</text>
      <path
         d="m 416.64,611.785 h 18.351 l -1.371,6.187 h -1.687 c 0,-1.136 -0.03,-1.989 -0.088,-2.557 -0.059,-0.569 -0.17,-1.002 -0.334,-1.301 -0.164,-0.299 -0.366,-0.504 -0.607,-0.615 -0.24,-0.112 -0.665,-0.167 -1.274,-0.167 h -2.602 l -3.814,17.332 c -0.106,0.457 -0.179,0.82 -0.22,1.09 -0.041,0.269 -0.076,0.553 -0.105,0.852 -0.03,0.299 -0.044,0.566 -0.044,0.8 0,0.363 0.058,0.647 0.176,0.853 0.117,0.205 0.293,0.354 0.527,0.448 0.234,0.094 0.639,0.164 1.213,0.211 l -0.194,0.861 h -7.4 l 0.193,-0.861 c 0.469,-0.071 0.815,-0.164 1.037,-0.282 0.223,-0.117 0.419,-0.298 0.589,-0.544 0.17,-0.247 0.34,-0.633 0.51,-1.161 0.17,-0.527 0.372,-1.324 0.607,-2.39 l 3.761,-17.209 h -2.232 c -0.727,0 -1.307,0.105 -1.74,0.316 -0.434,0.211 -0.868,0.604 -1.301,1.178 -0.434,0.574 -0.961,1.535 -1.582,2.883 h -1.688 z"
         fill-rule="evenodd"
         id="path892" />
      <text
         fill="#000000"
         fill-opacity="0"
         font-family="Arial, Arial_MSFontService, sans-serif"
         font-size="23.9941px"
         x="415.32101"
         y="632.78003"
         id="text894">𝑇</text>
      <path
         d="m 437.815,630.294 h 0.622 l -1.879,8.455 c -0.119,0.499 -0.201,0.897 -0.248,1.194 -0.046,0.296 -0.07,0.562 -0.07,0.799 0,0.322 0.066,0.555 0.197,0.699 0.131,0.143 0.328,0.215 0.59,0.215 0.153,0 0.305,-0.029 0.458,-0.088 0.152,-0.06 0.315,-0.153 0.488,-0.28 0.174,-0.127 0.364,-0.29 0.572,-0.489 0.207,-0.198 0.438,-0.438 0.691,-0.717 l 0.864,0.838 c -0.44,0.449 -0.84,0.827 -1.2,1.136 -0.36,0.309 -0.7,0.561 -1.022,0.756 -0.322,0.194 -0.637,0.334 -0.946,0.419 -0.309,0.084 -0.637,0.127 -0.984,0.127 -0.321,0 -0.611,-0.06 -0.869,-0.178 -0.258,-0.119 -0.481,-0.282 -0.667,-0.489 -0.186,-0.207 -0.33,-0.455 -0.431,-0.743 -0.102,-0.287 -0.153,-0.605 -0.153,-0.952 0,-0.279 0.034,-0.626 0.102,-1.041 0.068,-0.415 0.154,-0.865 0.26,-1.352 0.106,-0.486 0.222,-0.996 0.349,-1.53 0.127,-0.533 0.252,-1.062 0.375,-1.587 0.122,-0.524 0.232,-1.03 0.33,-1.517 0.097,-0.486 0.167,-0.929 0.209,-1.326 0.017,-0.068 0.026,-0.134 0.026,-0.197 0,-0.064 0,-0.121 0,-0.171 -0.017,-0.331 -0.134,-0.572 -0.349,-0.724 -0.216,-0.152 -0.599,-0.237 -1.149,-0.254 l 0.152,-0.863 z m 7.527,-0.127 c 0.626,0 1.111,0.205 1.454,0.616 0.342,0.41 0.514,0.95 0.514,1.618 0,0.17 -0.015,0.347 -0.045,0.534 -0.029,0.186 -0.082,0.364 -0.158,0.533 l 0.177,0.063 c 0.821,-1.125 1.632,-1.967 2.431,-2.526 0.8,-0.559 1.628,-0.838 2.482,-0.838 0.898,0 1.568,0.241 2.013,0.724 0.444,0.482 0.666,1.159 0.666,2.031 0,0.262 -0.038,0.626 -0.114,1.092 -0.076,0.465 -0.174,0.973 -0.292,1.523 -0.119,0.55 -0.246,1.115 -0.381,1.695 -0.135,0.58 -0.262,1.115 -0.381,1.606 -0.118,0.491 -0.216,0.91 -0.292,1.257 -0.076,0.347 -0.114,0.563 -0.114,0.647 0,0.322 0.059,0.555 0.178,0.699 0.118,0.143 0.309,0.215 0.571,0.215 0.161,0 0.319,-0.029 0.476,-0.088 0.157,-0.06 0.319,-0.153 0.489,-0.28 0.169,-0.127 0.355,-0.29 0.558,-0.489 0.203,-0.198 0.432,-0.438 0.686,-0.717 l 0.876,0.838 c -0.415,0.423 -0.796,0.787 -1.143,1.092 -0.347,0.305 -0.683,0.556 -1.009,0.755 -0.326,0.199 -0.65,0.347 -0.971,0.445 -0.322,0.097 -0.665,0.146 -1.028,0.146 -0.305,0 -0.587,-0.06 -0.845,-0.178 -0.258,-0.119 -0.48,-0.282 -0.666,-0.489 -0.186,-0.207 -0.33,-0.453 -0.432,-0.736 -0.101,-0.284 -0.152,-0.595 -0.152,-0.933 0,-0.339 0.036,-0.735 0.108,-1.187 0.072,-0.453 0.18,-0.95 0.323,-1.492 0.153,-0.55 0.295,-1.077 0.426,-1.581 0.131,-0.503 0.245,-0.969 0.343,-1.396 0.097,-0.428 0.173,-0.808 0.228,-1.143 0.055,-0.334 0.083,-0.611 0.083,-0.831 0,-0.525 -0.1,-0.91 -0.299,-1.156 -0.199,-0.245 -0.518,-0.368 -0.958,-0.368 -0.254,0 -0.527,0.066 -0.819,0.197 -0.292,0.131 -0.586,0.313 -0.882,0.546 -0.297,0.233 -0.587,0.508 -0.87,0.825 -0.284,0.318 -0.544,0.656 -0.781,1.016 -0.237,0.359 -0.446,0.736 -0.628,1.13 -0.182,0.393 -0.316,0.785 -0.4,1.174 l -1.422,6.373 h -2.488 l 1.904,-8.277 c 0.11,-0.44 0.19,-0.834 0.241,-1.181 0.051,-0.347 0.076,-0.631 0.076,-0.851 0,-0.617 -0.249,-0.926 -0.749,-0.926 -0.152,0 -0.306,0.031 -0.463,0.095 -0.157,0.063 -0.322,0.159 -0.495,0.286 -0.174,0.126 -0.362,0.287 -0.565,0.482 -0.203,0.195 -0.432,0.423 -0.686,0.686 l -0.876,-0.826 c 0.424,-0.431 0.811,-0.802 1.162,-1.111 0.351,-0.308 0.686,-0.562 1.003,-0.761 0.317,-0.199 0.633,-0.345 0.946,-0.438 0.313,-0.093 0.643,-0.14 0.99,-0.14 z m 25.163,-4.786 c 0.466,0 0.876,0.023 1.231,0.07 0.356,0.046 0.699,0.104 1.029,0.171 l -0.521,2.362 h -1.257 c -0.059,-0.483 -0.203,-0.836 -0.431,-1.061 -0.229,-0.224 -0.533,-0.336 -0.914,-0.336 -0.44,0 -0.811,0.095 -1.111,0.286 -0.301,0.19 -0.563,0.478 -0.787,0.863 -0.224,0.385 -0.417,0.836 -0.578,1.352 -0.161,0.516 -0.271,0.965 -0.33,1.346 h 3.517 l -0.28,1.409 h -3.529 l -2.298,10.88 c -0.398,1.853 -1.043,3.227 -1.936,4.119 -0.893,0.893 -2.084,1.34 -3.574,1.34 -0.389,0 -0.672,-0.026 -0.85,-0.076 0.051,-0.212 0.097,-0.43 0.14,-0.654 0.042,-0.225 0.093,-0.442 0.152,-0.654 0.051,0.017 0.123,0.025 0.216,0.025 0.093,0 0.224,0 0.393,0 0.33,0 0.633,-0.053 0.908,-0.158 0.275,-0.106 0.527,-0.297 0.755,-0.572 0.229,-0.275 0.438,-0.651 0.629,-1.129 0.19,-0.479 0.37,-1.094 0.539,-1.848 l 2.539,-11.273 h -2.183 l 0.228,-0.978 c 0.466,-0.025 0.836,-0.055 1.111,-0.089 0.275,-0.033 0.508,-0.107 0.698,-0.222 0.191,-0.114 0.333,-0.307 0.426,-0.577 0.491,-1.549 1.229,-2.702 2.215,-3.46 0.986,-0.757 2.27,-1.136 3.853,-1.136 z m -33.427,-0.203 h 2.539 l -0.622,2.729 h -2.513 z"
         fill-rule="evenodd"
         id="path896" />
      <text
         fill="#000000"
         fill-opacity="0"
         font-family="Arial, Arial_MSFontService, sans-serif"
         font-size="23.0039px"
         x="433.828"
         y="645.30603"
         id="text898">𝑖𝑛𝑓</text>
      <path
         d="m 414.031,600.699 h 62 v 2 h -62 z"
         fill-rule="evenodd"
         id="path900" />
      <path
         d="m 487.518,587.705 h 7.032 l -0.194,0.861 c -0.445,0.094 -0.764,0.199 -0.958,0.317 -0.193,0.117 -0.366,0.293 -0.518,0.527 -0.153,0.234 -0.311,0.601 -0.475,1.099 -0.164,0.498 -0.369,1.309 -0.615,2.434 l -3.006,13.641 c -0.152,0.691 -0.252,1.239 -0.299,1.643 -0.047,0.405 -0.07,0.771 -0.07,1.099 0,0.527 0.132,0.899 0.395,1.116 0.264,0.217 0.706,0.349 1.327,0.396 l -0.193,0.861 h -7.031 l 0.193,-0.861 c 0.445,-0.071 0.779,-0.185 1.002,-0.343 0.223,-0.158 0.41,-0.378 0.563,-0.659 0.152,-0.281 0.293,-0.624 0.421,-1.029 0.129,-0.404 0.323,-1.186 0.581,-2.346 l 2.988,-13.535 c 0.258,-1.172 0.387,-2.116 0.387,-2.83 0,-0.551 -0.138,-0.935 -0.414,-1.152 -0.275,-0.217 -0.711,-0.343 -1.309,-0.378 z"
         fill-rule="evenodd"
         id="path902" />
      <text
         fill="#000000"
         fill-opacity="0"
         font-family="Arial, Arial_MSFontService, sans-serif"
         font-size="23.9941px"
         x="482.91299"
         y="608.70001"
         id="text904">𝐼</text>
    </g>
  </g>
</svg>
