<?xml version="1.0" encoding="UTF-8" standalone="no"?>
<svg
   xmlns:dc="http://purl.org/dc/elements/1.1/"
   xmlns:cc="http://creativecommons.org/ns#"
   xmlns:rdf="http://www.w3.org/1999/02/22-rdf-syntax-ns#"
   xmlns:svg="http://www.w3.org/2000/svg"
   xmlns="http://www.w3.org/2000/svg"
   xmlns:xlink="http://www.w3.org/1999/xlink"
   xmlns:sodipodi="http://sodipodi.sourceforge.net/DTD/sodipodi-0.dtd"
   xmlns:inkscape="http://www.inkscape.org/namespaces/inkscape"
   inkscape:version="1.0 (4035a4fb49, 2020-05-01)"
   sodipodi:docname="SEIRV next Vaccinated.svg"
   xml:space="preserve"
   enable-background="new 0 0 215.984 37.918"
   viewBox="0 0 203.28 17.143999"
   height="17.143999"
   width="203.28"
   y="0px"
   x="0px"
   id="Ebene_1"
   version="1.1"><metadata
   id="metadata47"><rdf:RDF><cc:Work
       rdf:about=""><dc:format>image/svg+xml</dc:format><dc:type
         rdf:resource="http://purl.org/dc/dcmitype/StillImage" /><dc:title></dc:title></cc:Work></rdf:RDF></metadata><defs
   id="defs45">
	
	
	
	
	
	
	
	
	
	
	
	
	

		<defs
   id="defs27">
			<rect
   y="0"
   x="0"
   height="37.917999"
   width="215.98399"
   id="SVGID_1_" />
		</defs>
		<clipPath
   id="SVGID_2_">
			<use
   height="100%"
   width="100%"
   y="0"
   x="0"
   id="use29"
   overflow="visible"
   xlink:href="#SVGID_1_" />
		</clipPath>
		
	
			
			
		</defs><sodipodi:namedview
   inkscape:current-layer="Ebene_1"
   inkscape:window-maximized="1"
   inkscape:window-y="-11"
   inkscape:window-x="-11"
   inkscape:cy="9.4569996"
   inkscape:cx="107.887"
   inkscape:zoom="5.9078452"
   fit-margin-bottom="0"
   fit-margin-right="0"
   fit-margin-left="0"
   fit-margin-top="0"
   showgrid="false"
   id="namedview43"
   inkscape:window-height="2066"
   inkscape:window-width="3840"
   inkscape:pageshadow="2"
   inkscape:pageopacity="0"
   guidetolerance="10"
   gridtolerance="10"
   objecttolerance="10"
   borderopacity="1"
   bordercolor="#666666"
   pagecolor="#ffffff" />
<path
   fill-rule="evenodd"
   clip-rule="evenodd"
   d="M 0,1.433 H 3.975 V 1.86 C 3.705,1.913 3.502,1.965 3.36,2.04 3.217,2.107 3.112,2.205 3.045,2.34 2.97,2.467 2.94,2.64 2.94,2.858 2.94,3.053 2.962,3.271 3.007,3.503 3.052,3.735 3.12,3.99 3.21,4.283 l 2.055,7.169 2.52,-7.229 C 7.823,4.118 7.86,3.998 7.897,3.878 7.927,3.751 7.957,3.63 7.987,3.518 8.009,3.398 8.032,3.293 8.039,3.21 8.046,3.12 8.054,3.038 8.054,2.962 8.054,2.609 7.971,2.355 7.806,2.19 7.648,2.032 7.371,1.92 6.989,1.86 V 1.433 h 3.689 V 1.86 C 10.438,1.92 10.243,2.003 10.101,2.115 9.951,2.228 9.809,2.407 9.666,2.655 9.523,2.903 9.344,3.293 9.141,3.833 L 5.496,13.567 H 4.342 L 1.38,3.773 C 1.223,3.233 1.088,2.858 0.968,2.633 0.848,2.408 0.72,2.236 0.585,2.123 0.442,2.01 0.248,1.92 0,1.86 Z"
   id="path2" /><polygon
   transform="translate(-0.105,-9.502)"
   fill-rule="evenodd"
   clip-rule="evenodd"
   points="15.412,9.502 15.412,10.004 13.267,15.164 12.509,14.939 13.747,9.502 "
   id="polygon4" /><path
   fill-rule="evenodd"
   clip-rule="evenodd"
   d="m 23.076,9.525 h 10.829 v 1.17 H 23.076 Z m 0,-3.645 H 33.905 V 7.05 H 23.076 Z"
   id="path6" /><path
   fill-rule="evenodd"
   clip-rule="evenodd"
   d="m 40.437,1.433 h 3.975 V 1.86 c -0.27,0.053 -0.473,0.105 -0.615,0.18 -0.143,0.067 -0.248,0.165 -0.315,0.3 -0.075,0.127 -0.105,0.3 -0.105,0.518 0,0.195 0.022,0.413 0.067,0.645 0.045,0.232 0.113,0.487 0.203,0.78 l 2.055,7.169 2.52,-7.229 c 0.038,-0.105 0.075,-0.225 0.112,-0.345 0.03,-0.127 0.06,-0.248 0.09,-0.36 0.023,-0.12 0.045,-0.225 0.053,-0.308 0.007,-0.09 0.015,-0.172 0.015,-0.248 0,-0.353 -0.083,-0.607 -0.248,-0.772 C 48.086,2.032 47.809,1.92 47.427,1.86 V 1.433 h 3.689 V 1.86 c -0.24,0.06 -0.435,0.143 -0.577,0.255 -0.15,0.113 -0.292,0.292 -0.435,0.54 -0.143,0.248 -0.323,0.638 -0.525,1.178 l -3.645,9.734 H 44.779 L 41.817,3.773 C 41.66,3.233 41.525,2.858 41.405,2.633 41.285,2.408 41.157,2.236 41.022,2.123 40.879,2.01 40.685,1.92 40.437,1.86 Z"
   id="path8" /><polygon
   transform="translate(-0.105,-9.502)"
   fill-rule="evenodd"
   clip-rule="evenodd"
   points="62.576,23.429 61.331,23.429 61.331,18.367 56.539,18.367 56.539,17.197 61.331,17.197 61.331,12.134 62.576,12.134 62.576,17.197 67.368,17.197 67.368,18.367 62.576,18.367 "
   id="polygon10" /><path
   fill-rule="evenodd"
   clip-rule="evenodd"
   d="m 77.994,3.232 -3.345,8.79 h 6.112 z M 77.687,1.29 h 1.297 l 3.712,11.572 v 0.563 H 73.09 v -0.563 z"
   id="path12" /><path
   fill-rule="evenodd"
   clip-rule="evenodd"
   d="m 88.269,1.29 c 0.45,0 0.885,0.022 1.305,0.067 0.428,0.053 0.96,0.158 1.598,0.323 v 2.37 h -0.87 C 90.167,3.532 89.995,3.135 89.792,2.85 89.589,2.558 89.35,2.355 89.072,2.242 88.794,2.13 88.434,2.07 87.999,2.07 c -0.382,0 -0.72,0.075 -1.027,0.218 -0.3,0.135 -0.54,0.353 -0.712,0.63 -0.18,0.285 -0.263,0.623 -0.263,1.02 0,0.412 0.075,0.765 0.225,1.05 0.143,0.292 0.382,0.555 0.698,0.802 0.315,0.248 0.78,0.525 1.402,0.825 0.75,0.375 1.334,0.728 1.747,1.05 0.413,0.323 0.735,0.69 0.968,1.103 0.232,0.413 0.345,0.893 0.345,1.447 0,0.615 -0.098,1.133 -0.292,1.561 -0.188,0.42 -0.458,0.765 -0.802,1.034 -0.345,0.263 -0.75,0.458 -1.23,0.578 -0.48,0.12 -0.998,0.18 -1.567,0.18 -0.922,0 -1.98,-0.157 -3.18,-0.465 v -2.407 h 0.877 c 0.112,0.518 0.277,0.922 0.472,1.223 0.203,0.3 0.458,0.517 0.772,0.659 0.314,0.142 0.728,0.218 1.223,0.218 0.69,0 1.215,-0.18 1.575,-0.532 0.368,-0.36 0.555,-0.885 0.555,-1.567 0,-0.443 -0.075,-0.811 -0.233,-1.11 C 89.402,9.287 89.155,9.01 88.81,8.747 88.465,8.484 87.933,8.177 87.227,7.825 86.537,7.48 85.997,7.15 85.6,6.827 85.203,6.497 84.903,6.144 84.708,5.769 84.513,5.387 84.416,4.967 84.416,4.517 c 0,-0.652 0.15,-1.222 0.457,-1.71 0.308,-0.48 0.758,-0.855 1.357,-1.117 0.591,-0.265 1.274,-0.4 2.039,-0.4 z"
   id="path14" /><path
   fill-rule="evenodd"
   clip-rule="evenodd"
   d="m 94.561,10.634 h 0.465 v 4.867 c 0,0.263 0.008,0.466 0.015,0.601 0.015,0.143 0.053,0.247 0.105,0.322 0.053,0.075 0.127,0.128 0.24,0.165 0.105,0.037 0.247,0.083 0.435,0.143 v 0.412 h -2.834 v -0.412 c 0.172,-0.06 0.307,-0.105 0.413,-0.135 0.097,-0.038 0.172,-0.09 0.225,-0.165 0.053,-0.067 0.09,-0.173 0.105,-0.308 0.015,-0.143 0.022,-0.338 0.022,-0.6 v -3.038 c 0,-0.149 -0.007,-0.277 -0.015,-0.382 0,-0.105 -0.008,-0.195 -0.022,-0.271 C 93.707,11.735 93.692,11.645 93.67,11.578 93.648,11.503 93.61,11.443 93.55,11.39 93.497,11.33 93.415,11.285 93.31,11.247 93.205,11.209 93.062,11.172 92.89,11.143 V 10.701 Z M 93.706,8.032 h 1.357 v 1.387 h -1.357 z"
   id="path16" /><path
   fill-rule="evenodd"
   clip-rule="evenodd"
   d="m 111.816,4.657 3.458,3.345 v 0.563 l -3.458,3.353 -0.517,-0.488 2.01,-2.564 h -11.1 v -1.17 h 11.1 l -2.01,-2.558 z m 4.696,-3.224 h 3.975 V 1.86 c -0.271,0.053 -0.473,0.105 -0.615,0.18 -0.143,0.067 -0.247,0.165 -0.314,0.3 -0.075,0.127 -0.105,0.3 -0.105,0.518 0,0.195 0.022,0.413 0.067,0.645 0.045,0.232 0.112,0.487 0.203,0.78 l 2.055,7.169 2.52,-7.229 c 0.037,-0.105 0.075,-0.225 0.112,-0.345 0.03,-0.127 0.061,-0.248 0.09,-0.36 0.022,-0.12 0.045,-0.225 0.053,-0.308 0.008,-0.09 0.015,-0.172 0.015,-0.248 0,-0.353 -0.082,-0.607 -0.247,-0.772 -0.157,-0.158 -0.435,-0.27 -0.817,-0.33 V 1.433 h 3.689 V 1.86 c -0.239,0.06 -0.435,0.143 -0.577,0.255 -0.15,0.113 -0.293,0.292 -0.435,0.54 -0.143,0.248 -0.323,0.638 -0.525,1.178 l -3.645,9.734 h -1.155 l -2.962,-9.794 c -0.157,-0.54 -0.293,-0.915 -0.413,-1.14 -0.119,-0.225 -0.247,-0.397 -0.382,-0.51 C 116.956,2.01 116.761,1.92 116.514,1.86 V 1.433 Z"
   id="path18" /><path
   fill-rule="evenodd"
   clip-rule="evenodd"
   d="m 133.588,9.525 h 10.829 v 1.17 h -10.829 z m 0,-3.645 h 10.829 v 1.17 h -10.829 z"
   id="path20" /><path
   fill-rule="evenodd"
   clip-rule="evenodd"
   d="m 151.691,1.433 h 3.637 l -0.097,0.427 c -0.255,0.03 -0.458,0.105 -0.601,0.232 -0.149,0.12 -0.247,0.292 -0.308,0.51 -0.06,0.225 -0.09,0.517 -0.09,0.885 0,0.09 0.016,0.353 0.03,0.795 l 0.247,6.427 v 0.705 h 0.091 l 3.802,-6.862 c 0.225,-0.405 0.39,-0.75 0.503,-1.042 0.112,-0.292 0.164,-0.547 0.164,-0.772 0,-0.487 -0.292,-0.78 -0.877,-0.877 l 0.098,-0.427 h 3.592 l -0.098,0.427 c -0.157,0.022 -0.307,0.083 -0.449,0.18 -0.143,0.097 -0.308,0.262 -0.487,0.487 -0.181,0.225 -0.45,0.66 -0.825,1.305 l -5.625,9.734 h -1.17 l -0.592,-9.794 c -0.022,-0.383 -0.068,-0.712 -0.128,-0.982 -0.06,-0.27 -0.157,-0.488 -0.285,-0.638 -0.135,-0.15 -0.345,-0.248 -0.63,-0.292 z"
   id="path22" /><polygon
   transform="translate(-0.105,-9.502)"
   fill-rule="evenodd"
   clip-rule="evenodd"
   points="174.047,23.429 172.802,23.429 172.802,18.367 168.01,18.367 168.01,17.197 172.802,17.197 172.802,12.134 174.047,12.134 174.047,17.197 178.839,17.197 178.839,18.367 174.047,18.367 "
   id="polygon24" /><path
   d="m 191.489,11.394 c 0,0.757 0.036,1.495 0.144,2.089 h -1.44 l -0.126,-1.099 h -0.054 c -0.486,0.685 -1.423,1.297 -2.665,1.297 -1.765,0 -2.665,-1.242 -2.665,-2.503 0,-2.106 1.873,-3.259 5.24,-3.241 v -0.18 c 0,-0.72 -0.198,-2.017 -1.981,-2.017 -0.81,0 -1.656,0.252 -2.269,0.648 l -0.359,-1.044 c 0.72,-0.468 1.765,-0.774 2.862,-0.774 2.665,0 3.313,1.818 3.313,3.565 z m -1.53,-2.358 c -1.729,-0.036 -3.691,0.27 -3.691,1.963 0,1.026 0.684,1.512 1.494,1.512 1.135,0 1.854,-0.72 2.106,-1.458 0.055,-0.162 0.091,-0.342 0.091,-0.504 z"
   id="path32" /><path
   d="M 194.168,13.483 V 1.347 h 1.711 l 3.889,6.14 c 0.9,1.422 1.603,2.701 2.179,3.943 l 0.036,-0.018 c -0.144,-1.62 -0.18,-3.097 -0.18,-4.988 V 1.346 h 1.477 v 12.136 h -1.585 l -3.853,-6.158 c -0.847,-1.351 -1.657,-2.737 -2.27,-4.051 l -0.054,0.018 c 0.09,1.53 0.126,2.989 0.126,5.005 v 5.186 h -1.476 z"
   id="path34" />
</svg>
