<?xml version="1.0" encoding="UTF-8" standalone="no"?>
<svg
   xmlns:dc="http://purl.org/dc/elements/1.1/"
   xmlns:cc="http://creativecommons.org/ns#"
   xmlns:rdf="http://www.w3.org/1999/02/22-rdf-syntax-ns#"
   xmlns:svg="http://www.w3.org/2000/svg"
   xmlns="http://www.w3.org/2000/svg"
   xmlns:sodipodi="http://sodipodi.sourceforge.net/DTD/sodipodi-0.dtd"
   xmlns:inkscape="http://www.inkscape.org/namespaces/inkscape"
   inkscape:version="1.0 (4035a4fb49, 2020-05-01)"
   sodipodi:docname="SEIRV next Susceptible.svg"
   xml:space="preserve"
   enable-background="new 0 0 301.613 44.668"
   viewBox="0 0 301.61199 44.668"
   height="44.667999"
   width="301.612"
   y="0px"
   x="0px"
   id="Ebene_1"
   version="1.1"><metadata
   id="metadata55"><rdf:RDF><cc:Work
       rdf:about=""><dc:format>image/svg+xml</dc:format><dc:type
         rdf:resource="http://purl.org/dc/dcmitype/StillImage" /><dc:title></dc:title></cc:Work></rdf:RDF></metadata><defs
   id="defs53" /><sodipodi:namedview
   inkscape:current-layer="Ebene_1"
   inkscape:window-maximized="1"
   inkscape:window-y="-11"
   inkscape:window-x="-11"
   inkscape:cy="22.334"
   inkscape:cx="150.8065"
   inkscape:zoom="4.2305868"
   fit-margin-bottom="0"
   fit-margin-right="0"
   fit-margin-left="0"
   fit-margin-top="0"
   showgrid="false"
   id="namedview51"
   inkscape:window-height="2066"
   inkscape:window-width="3840"
   inkscape:pageshadow="2"
   inkscape:pageopacity="0"
   guidetolerance="10"
   gridtolerance="10"
   objecttolerance="10"
   borderopacity="1"
   bordercolor="#666666"
   pagecolor="#ffffff" />
<path
   id="path2"
   d="m 6.104,14.242 c 0.54,0 1.042,0.038 1.5,0.105 0.465,0.075 0.967,0.203 1.53,0.375 L 8.639,16.979 H 7.792 C 7.77,16.484 7.694,16.094 7.567,15.809 7.44,15.524 7.252,15.322 7.012,15.194 c -0.24,-0.12 -0.555,-0.18 -0.96,-0.18 -0.48,0 -0.908,0.098 -1.283,0.3 -0.367,0.195 -0.645,0.465 -0.84,0.81 -0.195,0.345 -0.292,0.728 -0.292,1.147 0,0.442 0.12,0.825 0.345,1.155 0.233,0.33 0.675,0.72 1.335,1.177 0.578,0.397 1.013,0.75 1.313,1.065 0.3,0.315 0.525,0.645 0.667,0.998 0.142,0.353 0.218,0.757 0.218,1.222 0,0.713 -0.173,1.351 -0.518,1.905 -0.337,0.548 -0.825,0.975 -1.448,1.282 -0.622,0.3 -1.334,0.45 -2.129,0.45 C 2.88,26.525 2.295,26.48 1.672,26.39 1.05,26.309 0.495,26.197 0,26.062 l 0.525,-2.415 h 0.848 c 0,0.712 0.165,1.245 0.495,1.59 0.33,0.353 0.84,0.525 1.53,0.525 0.802,0 1.425,-0.218 1.882,-0.653 0.457,-0.435 0.69,-1.034 0.69,-1.807 0,-0.36 -0.068,-0.676 -0.195,-0.945 C 5.655,22.087 5.46,21.824 5.205,21.577 4.95,21.322 4.582,21.037 4.102,20.714 3.667,20.422 3.307,20.137 3.022,19.852 2.737,19.567 2.504,19.252 2.339,18.899 2.167,18.546 2.084,18.157 2.084,17.722 c 0,-0.69 0.165,-1.305 0.502,-1.83 0.33,-0.525 0.802,-0.938 1.41,-1.223 0.608,-0.284 1.314,-0.427 2.108,-0.427 z"
   clip-rule="evenodd"
   fill-rule="evenodd" />
<polygon
   id="polygon4"
   points="14.167,13.447 12.021,18.607 11.264,18.382 12.501,12.945 14.167,12.945 "
   clip-rule="evenodd"
   fill-rule="evenodd" />
<path
   id="path6"
   d="m 21.936,22.477 h 10.829 v 1.17 H 21.936 Z m 0,-3.652 h 10.829 v 1.17 H 21.936 Z"
   clip-rule="evenodd"
   fill-rule="evenodd" />
<path
   id="path8"
   d="m 45.342,14.242 c 0.54,0 1.042,0.038 1.5,0.105 0.465,0.075 0.968,0.203 1.53,0.375 l -0.495,2.257 h -0.848 c -0.022,-0.495 -0.097,-0.885 -0.225,-1.17 -0.128,-0.285 -0.315,-0.487 -0.555,-0.615 -0.24,-0.12 -0.555,-0.18 -0.96,-0.18 -0.48,0 -0.907,0.098 -1.282,0.3 -0.368,0.195 -0.645,0.465 -0.84,0.81 -0.195,0.345 -0.292,0.728 -0.292,1.147 0,0.442 0.12,0.825 0.345,1.155 0.232,0.33 0.675,0.72 1.335,1.177 0.578,0.397 1.012,0.75 1.313,1.065 0.3,0.315 0.525,0.645 0.667,0.998 0.142,0.353 0.217,0.757 0.217,1.222 0,0.713 -0.172,1.351 -0.518,1.905 -0.337,0.548 -0.825,0.975 -1.447,1.282 -0.623,0.3 -1.335,0.45 -2.13,0.45 -0.54,0 -1.125,-0.045 -1.747,-0.135 -0.623,-0.083 -1.178,-0.195 -1.673,-0.33 l 0.525,-2.415 h 0.847 c 0,0.712 0.165,1.245 0.495,1.59 0.33,0.353 0.84,0.525 1.53,0.525 0.802,0 1.425,-0.218 1.882,-0.653 0.458,-0.435 0.69,-1.034 0.69,-1.807 0,-0.36 -0.067,-0.676 -0.195,-0.945 -0.12,-0.27 -0.315,-0.533 -0.57,-0.78 -0.255,-0.255 -0.623,-0.54 -1.103,-0.863 -0.435,-0.292 -0.795,-0.577 -1.08,-0.862 -0.285,-0.285 -0.518,-0.6 -0.683,-0.953 -0.172,-0.353 -0.255,-0.742 -0.255,-1.177 0,-0.69 0.165,-1.305 0.502,-1.83 0.33,-0.525 0.803,-0.938 1.41,-1.223 0.61,-0.282 1.315,-0.425 2.11,-0.425 z"
   clip-rule="evenodd"
   fill-rule="evenodd" />
<polygon
   id="polygon10"
   points="69.123,21.817 69.123,20.647 58.293,20.647 58.293,21.817 "
   clip-rule="evenodd"
   fill-rule="evenodd" />
<path
   id="path12"
   d="m 79.854,16.185 -3.345,8.79 h 6.112 z m -0.308,-1.943 h 1.297 l 3.712,11.572 v 0.563 h -9.607 v -0.563 z"
   clip-rule="evenodd"
   fill-rule="evenodd" />
<path
   id="path14"
   d="m 90.128,14.242 c 0.45,0 0.885,0.022 1.305,0.067 0.428,0.045 0.96,0.15 1.598,0.315 v 2.377 h -0.87 c -0.135,-0.517 -0.308,-0.922 -0.51,-1.208 -0.203,-0.285 -0.443,-0.487 -0.72,-0.6 -0.277,-0.113 -0.637,-0.173 -1.072,-0.173 -0.382,0 -0.72,0.068 -1.027,0.21 -0.3,0.143 -0.54,0.353 -0.712,0.638 -0.18,0.285 -0.263,0.623 -0.263,1.013 0,0.42 0.075,0.772 0.225,1.057 0.143,0.285 0.382,0.555 0.697,0.803 0.315,0.24 0.78,0.517 1.402,0.825 0.75,0.375 1.335,0.72 1.748,1.042 0.413,0.323 0.735,0.69 0.967,1.103 0.232,0.413 0.345,0.9 0.345,1.448 0,0.614 -0.098,1.132 -0.292,1.56 -0.188,0.428 -0.458,0.772 -0.803,1.035 -0.345,0.27 -0.75,0.465 -1.23,0.585 -0.48,0.12 -0.997,0.18 -1.567,0.18 -0.922,0 -1.979,-0.157 -3.18,-0.465 v -2.407 h 0.877 c 0.113,0.51 0.278,0.922 0.473,1.215 0.203,0.3 0.458,0.525 0.772,0.668 0.315,0.142 0.728,0.217 1.222,0.217 0.69,0 1.215,-0.18 1.575,-0.54 0.367,-0.353 0.555,-0.877 0.555,-1.56 0,-0.442 -0.075,-0.811 -0.232,-1.11 -0.15,-0.3 -0.397,-0.578 -0.742,-0.848 -0.345,-0.263 -0.877,-0.57 -1.583,-0.922 -0.69,-0.337 -1.23,-0.667 -1.627,-0.998 -0.397,-0.323 -0.697,-0.675 -0.893,-1.058 -0.195,-0.382 -0.292,-0.795 -0.292,-1.245 0,-0.66 0.15,-1.23 0.458,-1.71 0.308,-0.488 0.757,-0.855 1.357,-1.125 0.592,-0.261 1.274,-0.389 2.039,-0.389 z"
   clip-rule="evenodd"
   fill-rule="evenodd" />
<path
   id="path16"
   d="m 108.757,17.602 3.458,3.353 v 0.563 l -3.458,3.345 -0.518,-0.48 2.01,-2.564 h -11.1 v -1.17 h 11.1 l -2.01,-2.558 z m 5.564,-3.225 h 8.22 v 2.655 h -0.863 c -0.09,-0.285 -0.18,-0.54 -0.27,-0.75 -0.098,-0.218 -0.195,-0.405 -0.293,-0.547 -0.097,-0.15 -0.21,-0.263 -0.33,-0.353 -0.12,-0.09 -0.263,-0.15 -0.428,-0.18 -0.165,-0.03 -0.36,-0.045 -0.585,-0.045 h -2.782 v 4.605 h 1.882 c 0.263,0 0.465,-0.038 0.607,-0.113 0.15,-0.075 0.27,-0.195 0.368,-0.375 0.097,-0.172 0.188,-0.45 0.277,-0.825 h 0.825 v 3.375 h -0.825 c -0.083,-0.352 -0.172,-0.615 -0.277,-0.795 -0.098,-0.18 -0.218,-0.307 -0.353,-0.382 -0.143,-0.075 -0.345,-0.112 -0.623,-0.112 h -1.882 v 5.069 h 2.737 c 0.285,0 0.518,-0.022 0.698,-0.074 0.18,-0.053 0.33,-0.136 0.465,-0.256 0.127,-0.119 0.24,-0.277 0.337,-0.472 0.105,-0.195 0.188,-0.391 0.255,-0.601 0.067,-0.21 0.158,-0.51 0.277,-0.907 h 0.87 l -0.172,3.082 h -8.137 V 25.95 c 0.368,-0.098 0.607,-0.203 0.728,-0.315 0.127,-0.112 0.21,-0.277 0.248,-0.487 0.038,-0.21 0.053,-0.532 0.053,-0.968 v -7.604 c 0,-0.405 -0.015,-0.698 -0.045,-0.877 -0.022,-0.188 -0.075,-0.33 -0.142,-0.435 -0.068,-0.098 -0.158,-0.18 -0.27,-0.248 -0.105,-0.06 -0.3,-0.127 -0.57,-0.203 z"
   clip-rule="evenodd"
   fill-rule="evenodd" />
<path
   id="path18"
   d="m 129.928,22.477 h 10.829 v 1.17 h -10.829 z m 0,-3.652 h 10.829 v 1.17 h -10.829 z"
   clip-rule="evenodd"
   fill-rule="evenodd" />
<path
   id="path20"
   d="m 153.333,14.242 c 0.54,0 1.042,0.038 1.5,0.105 0.465,0.075 0.968,0.203 1.53,0.375 l -0.495,2.257 h -0.848 c -0.022,-0.495 -0.098,-0.885 -0.225,-1.17 -0.128,-0.285 -0.315,-0.487 -0.556,-0.615 -0.239,-0.12 -0.555,-0.18 -0.96,-0.18 -0.479,0 -0.907,0.098 -1.282,0.3 -0.367,0.195 -0.645,0.465 -0.84,0.81 -0.195,0.345 -0.292,0.728 -0.292,1.147 0,0.442 0.12,0.825 0.345,1.155 0.232,0.33 0.675,0.72 1.335,1.177 0.577,0.397 1.012,0.75 1.313,1.065 0.3,0.315 0.524,0.645 0.667,0.998 0.143,0.353 0.218,0.757 0.218,1.222 0,0.713 -0.173,1.351 -0.518,1.905 -0.338,0.548 -0.825,0.975 -1.447,1.282 -0.622,0.3 -1.335,0.45 -2.13,0.45 -0.54,0 -1.125,-0.045 -1.748,-0.135 -0.623,-0.083 -1.177,-0.195 -1.672,-0.33 l 0.525,-2.415 h 0.848 c 0,0.712 0.165,1.245 0.495,1.59 0.33,0.353 0.84,0.525 1.538,0.525 0.794,0 1.417,-0.218 1.875,-0.653 0.458,-0.435 0.69,-1.034 0.69,-1.807 0,-0.36 -0.067,-0.676 -0.195,-0.945 -0.12,-0.27 -0.314,-0.533 -0.569,-0.78 -0.256,-0.255 -0.623,-0.54 -1.104,-0.863 -0.435,-0.292 -0.794,-0.577 -1.079,-0.862 -0.285,-0.285 -0.518,-0.6 -0.683,-0.953 -0.172,-0.353 -0.255,-0.742 -0.255,-1.177 0,-0.69 0.165,-1.305 0.502,-1.83 0.33,-0.525 0.802,-0.938 1.41,-1.223 0.607,-0.282 1.313,-0.425 2.107,-0.425 z"
   clip-rule="evenodd"
   fill-rule="evenodd" />
<polygon
   id="polygon22"
   points="177.115,21.817 177.115,20.647 166.285,20.647 166.285,21.817 "
   clip-rule="evenodd"
   fill-rule="evenodd" />
<path
   id="path24"
   d="m 193.35,0 0.24,0.675 c -1.372,0.45 -2.385,1.327 -3.045,2.64 -0.659,1.313 -0.989,2.955 -0.989,4.935 0,2.047 0.33,3.742 0.989,5.07 0.66,1.335 1.665,2.22 3.016,2.67 l -0.211,0.683 c -1.717,-0.45 -3.029,-1.425 -3.944,-2.917 -0.915,-1.493 -1.372,-3.292 -1.372,-5.415 0,-2.115 0.457,-3.922 1.38,-5.422 C 190.329,1.425 191.641,0.45 193.35,0 Z"
   clip-rule="evenodd"
   fill-rule="evenodd" />
<path
   id="path26"
   d="m 200.13,0.563 c 0.54,0 1.042,0.038 1.5,0.105 0.465,0.075 0.967,0.203 1.529,0.375 L 202.665,3.3 h -0.847 c -0.022,-0.495 -0.098,-0.885 -0.226,-1.17 -0.127,-0.285 -0.314,-0.488 -0.555,-0.615 -0.24,-0.12 -0.555,-0.18 -0.96,-0.18 -0.48,0 -0.907,0.098 -1.282,0.3 -0.368,0.195 -0.646,0.465 -0.84,0.81 -0.195,0.345 -0.293,0.727 -0.293,1.147 0,0.442 0.12,0.825 0.345,1.155 0.232,0.33 0.676,0.72 1.335,1.177 0.578,0.397 1.013,0.75 1.313,1.065 0.3,0.315 0.525,0.645 0.668,0.998 0.143,0.353 0.217,0.758 0.217,1.223 0,0.712 -0.172,1.35 -0.517,1.905 -0.338,0.547 -0.825,0.975 -1.448,1.283 -0.622,0.3 -1.335,0.45 -2.13,0.45 -0.539,0 -1.124,-0.045 -1.747,-0.135 -0.622,-0.083 -1.178,-0.195 -1.672,-0.33 l 0.524,-2.415 h 0.848 c 0,0.712 0.165,1.245 0.495,1.59 0.33,0.353 0.84,0.525 1.537,0.525 0.795,0 1.418,-0.218 1.875,-0.653 0.457,-0.435 0.689,-1.035 0.689,-1.807 0,-0.36 -0.067,-0.675 -0.194,-0.945 -0.12,-0.27 -0.315,-0.532 -0.57,-0.78 -0.255,-0.255 -0.622,-0.54 -1.103,-0.862 -0.435,-0.292 -0.795,-0.578 -1.08,-0.863 -0.284,-0.285 -0.517,-0.6 -0.682,-0.952 -0.173,-0.353 -0.255,-0.743 -0.255,-1.178 0,-0.69 0.164,-1.305 0.502,-1.83 0.33,-0.525 0.803,-0.937 1.41,-1.222 0.607,-0.285 1.313,-0.428 2.108,-0.428 z"
   clip-rule="evenodd"
   fill-rule="evenodd" />
<polygon
   id="polygon28"
   points="223.911,8.137 223.911,6.967 213.082,6.967 213.082,8.137 "
   clip-rule="evenodd"
   fill-rule="evenodd" />
<path
   id="path30"
   d="m 235.422,5.19 c -0.285,0 -0.555,0.09 -0.84,0.27 -0.27,0.18 -0.57,0.465 -0.9,0.885 -0.329,0.405 -0.614,0.84 -0.824,1.26 -0.21,0.435 -0.391,0.99 -0.525,1.665 l -0.09,0.375 c -0.09,0.405 -0.12,0.81 -0.12,1.2 0,0.45 0.09,0.795 0.3,0.99 0.195,0.21 0.54,0.315 1.005,0.315 0.24,0 0.465,-0.045 0.69,-0.12 0.21,-0.075 0.435,-0.21 0.66,-0.39 0.225,-0.18 0.435,-0.42 0.645,-0.72 0.195,-0.3 0.375,-0.66 0.555,-1.095 0.165,-0.435 0.301,-0.9 0.391,-1.395 0.09,-0.495 0.135,-0.96 0.135,-1.41 0,-0.615 -0.075,-1.065 -0.255,-1.38 -0.166,-0.3 -0.452,-0.45 -0.827,-0.45 z m 4.53,-4.485 h 3.63 l -0.09,0.435 c -0.27,0.03 -0.465,0.105 -0.6,0.225 -0.15,0.12 -0.255,0.3 -0.315,0.51 -0.06,0.225 -0.09,0.51 -0.09,0.885 0,0.09 0.015,0.345 0.03,0.795 l 0.255,6.435 v 0.705 h 0.075 l 3.81,-6.87 c 0.225,-0.405 0.39,-0.75 0.51,-1.035 0.105,-0.3 0.165,-0.555 0.165,-0.78 0,-0.495 -0.3,-0.78 -0.885,-0.87 l 0.104,-0.435 h 3.585 l -0.09,0.435 c -0.165,0.015 -0.315,0.075 -0.45,0.18 -0.149,0.09 -0.314,0.255 -0.495,0.48 -0.18,0.225 -0.449,0.66 -0.824,1.305 l -5.625,9.735 h -1.17 l -0.585,-9.795 c -0.03,-0.39 -0.075,-0.705 -0.135,-0.99 -0.061,-0.27 -0.15,-0.48 -0.285,-0.63 -0.135,-0.15 -0.345,-0.255 -0.63,-0.285 z m -6.075,-0.57 h 0.51 l -1.545,6.15 0.12,0.03 c 0.57,-0.75 1.095,-1.305 1.59,-1.65 0.51,-0.33 1.005,-0.51 1.5,-0.51 0.646,0 1.14,0.24 1.485,0.735 0.359,0.48 0.54,1.17 0.54,2.055 0,0.96 -0.195,1.92 -0.585,2.85 -0.391,0.93 -0.931,1.68 -1.62,2.22 -0.69,0.555 -1.47,0.825 -2.325,0.825 -0.779,0 -1.47,-0.195 -2.069,-0.57 l -0.811,0.57 -0.569,-0.135 2.279,-10.049 c 0.135,-0.6 0.21,-1.035 0.21,-1.305 0,-0.24 -0.075,-0.42 -0.225,-0.51 -0.15,-0.105 -0.42,-0.165 -0.81,-0.165 l 0.104,-0.465 z"
   clip-rule="evenodd"
   fill-rule="evenodd" />
<path
   id="path32"
   d="m 251.471,0 c 1.71,0.45 3.015,1.425 3.93,2.925 0.915,1.5 1.38,3.3 1.38,5.415 0,2.13 -0.45,3.93 -1.365,5.415 -0.914,1.5 -2.234,2.475 -3.944,2.925 l -0.225,-0.69 c 1.364,-0.45 2.369,-1.335 3.029,-2.67 0.66,-1.32 0.99,-3.015 0.99,-5.07 0,-1.98 -0.33,-3.615 -0.99,-4.935 -0.66,-1.305 -1.665,-2.19 -3.045,-2.64 z"
   clip-rule="evenodd"
   fill-rule="evenodd" />
<path
   id="path34"
   d="m 218.399,26.376 h 2.805 l 2.317,6.848 c 0.337,0.99 0.593,1.814 0.772,2.497 h 0.098 c 0.045,-0.359 0.157,-0.952 0.322,-1.785 0.165,-0.832 0.322,-1.56 0.457,-2.175 l 0.615,-2.774 c 0.135,-0.578 0.195,-1.05 0.195,-1.41 0,-0.277 -0.067,-0.473 -0.203,-0.577 -0.143,-0.105 -0.359,-0.173 -0.659,-0.188 l 0.097,-0.436 h 3.075 l -0.09,0.436 c -0.226,0.045 -0.383,0.098 -0.48,0.157 -0.097,0.059 -0.188,0.143 -0.262,0.263 -0.075,0.12 -0.158,0.3 -0.24,0.547 -0.075,0.256 -0.181,0.66 -0.308,1.223 l -2.063,9.375 h -1.192 l -2.572,-7.537 c -0.308,-0.907 -0.577,-1.808 -0.81,-2.7 h -0.12 c -0.03,0.3 -0.128,0.87 -0.285,1.71 -0.157,0.84 -0.33,1.657 -0.503,2.46 l -0.772,3.51 c -0.127,0.555 -0.188,1.013 -0.188,1.372 0,0.263 0.068,0.45 0.195,0.556 0.135,0.112 0.36,0.172 0.668,0.202 l -0.098,0.428 h -3.075 l 0.098,-0.428 c 0.218,-0.037 0.39,-0.098 0.503,-0.173 0.104,-0.082 0.202,-0.188 0.277,-0.329 0.074,-0.143 0.149,-0.315 0.21,-0.518 0.067,-0.203 0.165,-0.593 0.292,-1.17 l 1.492,-6.772 c 0.061,-0.248 0.105,-0.487 0.143,-0.72 0.038,-0.226 0.053,-0.458 0.053,-0.69 0,-0.277 -0.067,-0.473 -0.21,-0.577 -0.135,-0.105 -0.353,-0.173 -0.652,-0.188 z"
   clip-rule="evenodd"
   fill-rule="evenodd" />
<polygon
   id="polygon36"
   points="258.326,21.824 258.326,20.625 186.451,20.625 186.451,21.824 "
   clip-rule="evenodd"
   fill-rule="evenodd" />
<path
   id="path38"
   d="m 273.294,1.485 c -0.3,0 -0.63,0 -0.975,0.03 L 271.195,6.6 h 1.035 c 0.84,0 1.515,-0.12 2.01,-0.345 0.495,-0.225 0.885,-0.6 1.17,-1.125 0.285,-0.525 0.435,-1.08 0.435,-1.68 0,-0.255 -0.029,-0.48 -0.075,-0.675 C 275.725,2.58 275.666,2.415 275.59,2.28 275.515,2.16 275.41,2.04 275.29,1.95 275.185,1.845 275.035,1.755 274.854,1.68 274.674,1.605 274.48,1.56 274.24,1.53 274.014,1.5 273.7,1.485 273.294,1.485 Z m -3.524,-0.78 h 3.914 c 0.631,0 1.125,0.03 1.516,0.105 0.404,0.075 0.734,0.18 1.02,0.33 0.271,0.15 0.51,0.345 0.69,0.57 0.194,0.225 0.33,0.495 0.42,0.78 0.104,0.3 0.149,0.6 0.149,0.93 0,0.9 -0.285,1.665 -0.824,2.31 -0.556,0.63 -1.365,1.11 -2.445,1.44 v 0.09 c 0.285,0.21 0.51,0.465 0.69,0.75 0.165,0.3 0.3,0.705 0.404,1.23 l 0.21,1.02 c 0.061,0.315 0.135,0.615 0.226,0.87 0.075,0.255 0.18,0.465 0.284,0.615 0.12,0.15 0.24,0.27 0.391,0.345 0.149,0.075 0.359,0.135 0.63,0.18 l -0.09,0.435 h -2.43 c -0.195,-0.525 -0.36,-1.14 -0.511,-1.86 L 273.639,8.97 C 273.565,8.655 273.49,8.385 273.4,8.16 273.31,7.935 273.205,7.77 273.07,7.65 272.95,7.53 272.799,7.455 272.634,7.41 272.469,7.38 272.259,7.35 272.02,7.35 h -0.99 l -0.615,2.79 c -0.06,0.225 -0.09,0.42 -0.12,0.555 -0.015,0.135 -0.029,0.27 -0.045,0.42 -0.015,0.15 -0.029,0.285 -0.029,0.405 0,0.18 0.029,0.315 0.09,0.42 0.06,0.105 0.149,0.18 0.27,0.225 0.105,0.045 0.315,0.075 0.601,0.105 l -0.091,0.435 h -3.614 l 0.09,-0.435 c 0.225,-0.03 0.39,-0.09 0.51,-0.165 0.105,-0.09 0.195,-0.195 0.271,-0.33 0.09,-0.15 0.149,-0.315 0.21,-0.525 0.075,-0.195 0.165,-0.585 0.3,-1.17 l 1.485,-6.765 c 0.135,-0.585 0.194,-1.05 0.194,-1.395 0,-0.285 -0.06,-0.48 -0.194,-0.585 -0.136,-0.12 -0.36,-0.18 -0.66,-0.195 z"
   clip-rule="evenodd"
   fill-rule="evenodd" />
<path
   id="path40"
   d="m 281.949,8.7 c -0.3,0 -0.555,0.075 -0.75,0.24 -0.194,0.15 -0.359,0.375 -0.479,0.69 -0.12,0.3 -0.21,0.66 -0.255,1.11 -0.045,0.435 -0.075,0.93 -0.075,1.485 0,0.63 0.03,1.185 0.09,1.65 0.075,0.465 0.165,0.855 0.3,1.155 0.136,0.3 0.3,0.525 0.495,0.66 0.195,0.15 0.436,0.21 0.705,0.21 0.255,0 0.479,-0.06 0.675,-0.195 0.195,-0.135 0.36,-0.345 0.48,-0.615 0.135,-0.285 0.225,-0.645 0.284,-1.08 0.075,-0.435 0.105,-0.945 0.105,-1.53 0,-0.66 -0.045,-1.23 -0.105,-1.71 -0.074,-0.465 -0.18,-0.87 -0.3,-1.17 -0.135,-0.315 -0.3,-0.54 -0.495,-0.675 -0.195,-0.15 -0.42,-0.225 -0.675,-0.225 z m 0.03,-0.63 c 0.51,0 0.945,0.105 1.305,0.285 0.375,0.195 0.66,0.465 0.9,0.825 0.225,0.36 0.39,0.78 0.495,1.305 0.119,0.51 0.165,1.08 0.165,1.725 0,1.44 -0.256,2.52 -0.766,3.255 -0.495,0.72 -1.229,1.095 -2.189,1.095 -0.96,0 -1.665,-0.345 -2.13,-1.035 -0.465,-0.705 -0.705,-1.74 -0.705,-3.15 0,-0.735 0.075,-1.365 0.225,-1.905 0.136,-0.54 0.346,-0.99 0.601,-1.335 0.255,-0.36 0.569,-0.63 0.93,-0.795 0.359,-0.18 0.749,-0.27 1.169,-0.27 z"
   clip-rule="evenodd"
   fill-rule="evenodd" />
<path
   id="path42"
   d="m 262.6,26.384 h 9.18 l -0.69,3.09 h -0.84 c 0,-0.57 -0.015,-0.99 -0.045,-1.275 -0.029,-0.284 -0.075,-0.494 -0.165,-0.645 -0.074,-0.15 -0.18,-0.255 -0.3,-0.315 -0.12,-0.06 -0.33,-0.074 -0.645,-0.074 h -1.29 l -1.905,8.654 c -0.06,0.225 -0.09,0.42 -0.12,0.555 -0.015,0.136 -0.029,0.271 -0.045,0.42 -0.015,0.15 -0.029,0.285 -0.029,0.405 0,0.18 0.029,0.315 0.09,0.42 0.06,0.105 0.149,0.181 0.27,0.226 0.105,0.045 0.315,0.074 0.601,0.104 l -0.091,0.436 h -3.704 l 0.09,-0.436 c 0.24,-0.03 0.42,-0.075 0.524,-0.135 0.105,-0.061 0.211,-0.15 0.301,-0.285 0.074,-0.12 0.165,-0.315 0.255,-0.57 0.075,-0.27 0.18,-0.659 0.3,-1.199 l 1.875,-8.595 h -1.11 c -0.359,0 -0.66,0.045 -0.87,0.149 -0.225,0.105 -0.435,0.3 -0.659,0.585 -0.21,0.285 -0.48,0.766 -0.78,1.44 h -0.854 z"
   clip-rule="evenodd"
   fill-rule="evenodd" />
<path
   id="path44"
   d="m 273.19,35.579 h 0.314 l -0.96,4.305 c -0.06,0.24 -0.104,0.45 -0.12,0.601 -0.029,0.149 -0.045,0.285 -0.045,0.405 0,0.165 0.045,0.284 0.105,0.359 0.075,0.061 0.165,0.105 0.3,0.105 0.075,0 0.15,-0.016 0.24,-0.045 0.075,-0.03 0.149,-0.075 0.239,-0.15 0.091,-0.06 0.181,-0.135 0.285,-0.24 0.105,-0.104 0.226,-0.225 0.36,-0.359 l 0.435,0.42 c -0.225,0.225 -0.42,0.42 -0.614,0.569 -0.181,0.165 -0.346,0.285 -0.511,0.391 -0.165,0.104 -0.33,0.165 -0.479,0.21 -0.165,0.045 -0.33,0.06 -0.495,0.06 -0.165,0 -0.314,-0.03 -0.45,-0.09 -0.135,-0.06 -0.239,-0.135 -0.33,-0.24 -0.104,-0.104 -0.18,-0.225 -0.225,-0.375 -0.06,-0.149 -0.075,-0.314 -0.075,-0.479 0,-0.15 0.016,-0.33 0.045,-0.54 0.03,-0.21 0.075,-0.436 0.136,-0.675 0.06,-0.255 0.119,-0.511 0.18,-0.78 0.06,-0.27 0.12,-0.54 0.194,-0.81 0.061,-0.271 0.105,-0.525 0.165,-0.766 0.046,-0.255 0.075,-0.479 0.105,-0.675 0,-0.03 0.015,-0.075 0.015,-0.104 0,-0.03 0,-0.061 0,-0.091 -0.015,-0.165 -0.074,-0.284 -0.18,-0.359 -0.106,-0.075 -0.3,-0.12 -0.585,-0.135 l 0.075,-0.436 z m 3.93,-0.06 c 0.314,0 0.555,0.104 0.734,0.314 0.181,0.21 0.255,0.48 0.255,0.825 0,0.075 0,0.165 -0.015,0.271 -0.015,0.09 -0.045,0.18 -0.075,0.27 l 0.09,0.03 c 0.405,-0.57 0.825,-1.005 1.23,-1.29 0.405,-0.285 0.825,-0.42 1.26,-0.42 0.45,0 0.795,0.12 1.02,0.375 0.226,0.24 0.346,0.585 0.346,1.02 0,0.136 -0.03,0.315 -0.061,0.556 -0.045,0.239 -0.09,0.494 -0.149,0.779 -0.061,0.271 -0.136,0.57 -0.195,0.855 -0.075,0.3 -0.135,0.569 -0.195,0.825 -0.06,0.239 -0.104,0.449 -0.149,0.63 -0.03,0.18 -0.061,0.285 -0.061,0.33 0,0.165 0.03,0.284 0.09,0.359 0.061,0.061 0.165,0.105 0.301,0.105 0.074,0 0.149,-0.016 0.239,-0.045 0.075,-0.03 0.165,-0.075 0.24,-0.15 0.09,-0.06 0.18,-0.135 0.285,-0.24 0.104,-0.104 0.225,-0.225 0.345,-0.359 l 0.45,0.42 c -0.21,0.21 -0.405,0.404 -0.585,0.555 -0.165,0.15 -0.345,0.285 -0.51,0.39 -0.165,0.091 -0.33,0.165 -0.495,0.226 -0.165,0.045 -0.33,0.06 -0.51,0.06 -0.165,0 -0.301,-0.03 -0.436,-0.09 -0.135,-0.06 -0.24,-0.135 -0.345,-0.24 -0.09,-0.104 -0.165,-0.225 -0.21,-0.375 -0.061,-0.149 -0.075,-0.3 -0.075,-0.479 0,-0.165 0.015,-0.36 0.045,-0.601 0.045,-0.225 0.09,-0.479 0.165,-0.75 0.075,-0.284 0.15,-0.555 0.226,-0.81 0.06,-0.255 0.119,-0.495 0.165,-0.705 0.06,-0.21 0.09,-0.405 0.119,-0.585 0.03,-0.165 0.045,-0.3 0.045,-0.42 0,-0.27 -0.06,-0.465 -0.149,-0.585 -0.105,-0.12 -0.271,-0.18 -0.495,-0.18 -0.12,0 -0.27,0.029 -0.42,0.09 -0.135,0.075 -0.285,0.165 -0.435,0.285 -0.15,0.12 -0.301,0.255 -0.45,0.42 -0.135,0.149 -0.271,0.33 -0.391,0.51 -0.119,0.18 -0.225,0.375 -0.314,0.57 -0.105,0.21 -0.165,0.404 -0.21,0.6 l -0.72,3.24 h -1.26 l 0.959,-4.2 c 0.061,-0.225 0.105,-0.435 0.12,-0.6 0.03,-0.181 0.045,-0.33 0.045,-0.436 0,-0.314 -0.135,-0.479 -0.39,-0.479 -0.075,0 -0.149,0.029 -0.225,0.06 -0.09,0.03 -0.165,0.075 -0.255,0.135 -0.091,0.075 -0.181,0.15 -0.285,0.256 -0.105,0.09 -0.226,0.21 -0.345,0.345 l -0.45,-0.42 c 0.21,-0.226 0.405,-0.405 0.585,-0.57 0.18,-0.15 0.359,-0.285 0.51,-0.375 0.165,-0.104 0.33,-0.18 0.48,-0.225 0.165,-0.047 0.33,-0.077 0.511,-0.077 z m 12.659,-2.43 c 0.239,0 0.449,0.015 0.63,0.029 0.18,0.03 0.345,0.061 0.524,0.091 l -0.27,1.199 h -0.646 c -0.029,-0.239 -0.09,-0.42 -0.21,-0.54 -0.12,-0.104 -0.27,-0.165 -0.465,-0.165 -0.225,0 -0.42,0.045 -0.569,0.15 -0.15,0.09 -0.285,0.24 -0.391,0.435 -0.12,0.195 -0.21,0.42 -0.3,0.69 -0.075,0.255 -0.135,0.479 -0.165,0.675 h 1.785 l -0.135,0.72 h -1.801 l -1.17,5.521 c -0.194,0.944 -0.524,1.635 -0.975,2.085 -0.45,0.465 -1.064,0.689 -1.814,0.689 -0.195,0 -0.346,-0.015 -0.436,-0.045 0.03,-0.104 0.045,-0.21 0.075,-0.33 0.015,-0.12 0.045,-0.225 0.075,-0.33 0.03,0.016 0.06,0.016 0.104,0.016 0.046,0 0.12,0 0.21,0 0.165,0 0.315,-0.03 0.45,-0.091 0.15,-0.045 0.271,-0.149 0.391,-0.284 0.119,-0.136 0.225,-0.33 0.314,-0.57 0.105,-0.24 0.195,-0.555 0.271,-0.945 l 1.289,-5.715 h -1.109 l 0.12,-0.494 c 0.239,-0.016 0.42,-0.03 0.569,-0.046 0.136,-0.015 0.256,-0.06 0.346,-0.119 0.104,-0.061 0.18,-0.15 0.225,-0.285 0.24,-0.795 0.615,-1.38 1.125,-1.755 0.498,-0.391 1.158,-0.586 1.953,-0.586 z m -16.964,-0.105 h 1.29 l -0.315,1.396 h -1.275 z"
   clip-rule="evenodd"
   fill-rule="evenodd" />
<polygon
   id="polygon46"
   points="292.284,21.824 292.284,20.625 261.326,20.625 261.326,21.824 "
   clip-rule="evenodd"
   fill-rule="evenodd" />
<path
   id="path48"
   d="m 298.087,14.385 h 3.525 l -0.105,0.435 c -0.225,0.045 -0.375,0.09 -0.479,0.15 -0.09,0.06 -0.181,0.15 -0.255,0.27 -0.075,0.12 -0.15,0.3 -0.24,0.54 -0.075,0.255 -0.18,0.66 -0.3,1.23 l -1.5,6.81 c -0.09,0.345 -0.135,0.63 -0.15,0.824 -0.029,0.21 -0.045,0.391 -0.045,0.556 0,0.255 0.075,0.449 0.195,0.555 0.135,0.104 0.359,0.165 0.675,0.195 l -0.105,0.435 h -3.509 l 0.09,-0.435 c 0.225,-0.03 0.39,-0.091 0.51,-0.165 0.104,-0.091 0.195,-0.195 0.27,-0.33 0.09,-0.15 0.15,-0.315 0.21,-0.525 0.075,-0.195 0.165,-0.585 0.3,-1.17 l 1.485,-6.765 c 0.135,-0.585 0.195,-1.065 0.195,-1.41 0,-0.285 -0.061,-0.48 -0.195,-0.585 -0.15,-0.105 -0.36,-0.165 -0.66,-0.18 z"
   clip-rule="evenodd"
   fill-rule="evenodd" />
</svg>
