<?xml version="1.0" encoding="UTF-8" standalone="no"?>
<svg
   xmlns:dc="http://purl.org/dc/elements/1.1/"
   xmlns:cc="http://creativecommons.org/ns#"
   xmlns:rdf="http://www.w3.org/1999/02/22-rdf-syntax-ns#"
   xmlns:svg="http://www.w3.org/2000/svg"
   xmlns="http://www.w3.org/2000/svg"
   xmlns:sodipodi="http://sodipodi.sourceforge.net/DTD/sodipodi-0.dtd"
   xmlns:inkscape="http://www.inkscape.org/namespaces/inkscape"
   width="170.85945mm"
   height="23.778858mm"
   viewBox="0 0 170.85945 23.778858"
   version="1.1"
   id="svg1576"
   inkscape:version="1.0 (4035a4fb49, 2020-05-01)"
   sodipodi:docname="SEIR next Infectious.svg">
  <defs
     id="defs1570">
    <clipPath
       id="clip0">
      <rect
         id="rect2139"
         height="94"
         width="662"
         y="466"
         x="156" />
    </clipPath>
  </defs>
  <sodipodi:namedview
     fit-margin-bottom="0"
     fit-margin-right="0"
     fit-margin-left="0"
     fit-margin-top="0"
     id="base"
     pagecolor="#ffffff"
     bordercolor="#666666"
     borderopacity="1.0"
     inkscape:pageopacity="0.0"
     inkscape:pageshadow="2"
     inkscape:zoom="0.35"
     inkscape:cx="331.45543"
     inkscape:cy="115.69707"
     inkscape:document-units="mm"
     inkscape:current-layer="layer1"
     inkscape:document-rotation="0"
     showgrid="false"
     inkscape:window-width="1481"
     inkscape:window-height="1228"
     inkscape:window-x="494"
     inkscape:window-y="494"
     inkscape:window-maximized="0" />
  <metadata
     id="metadata1573">
    <rdf:RDF>
      <cc:Work
         rdf:about="">
        <dc:format>image/svg+xml</dc:format>
        <dc:type
           rdf:resource="http://purl.org/dc/dcmitype/StillImage" />
        <dc:title></dc:title>
      </cc:Work>
    </rdf:RDF>
  </metadata>
  <g
     transform="translate(-18.135752,-117.55515)"
     inkscape:label="Ebene 1"
     inkscape:groupmode="layer"
     id="layer1">
    <path
       d="m 19.354158,124.76504 h 1.86055 l -0.05133,0.22781 c -0.11774,0.0249 -0.202142,0.0529 -0.253471,0.0839 -0.05106,0.031 -0.09684,0.0775 -0.137054,0.13944 -0.04048,0.0622 -0.08228,0.15901 -0.125677,0.29078 -0.04339,0.13176 -0.09763,0.34633 -0.162719,0.64399 l -0.795337,3.60918 c -0.04022,0.18283 -0.06668,0.32782 -0.07911,0.43498 -0.01243,0.10689 -0.01852,0.20373 -0.01852,0.29051 0,0.1397 0.03493,0.23812 0.104511,0.29527 0.06985,0.0574 0.18706,0.0923 0.351366,0.10478 l -0.05133,0.22781 h -1.860285 l 0.05106,-0.22781 c 0.118005,-0.0185 0.206375,-0.0489 0.265113,-0.0907 0.059,-0.0418 0.108479,-0.10002 0.14896,-0.17436 0.04022,-0.0744 0.07752,-0.1651 0.111655,-0.27199 0.03413,-0.10716 0.08519,-0.31407 0.153458,-0.62098 l 0.790575,-3.58114 c 0.06826,-0.31009 0.102394,-0.55959 0.102394,-0.74877 0,-0.14578 -0.03651,-0.24738 -0.109273,-0.3048 -0.07303,-0.0572 -0.188384,-0.0905 -0.346604,-0.10001 z"
       fill-rule="evenodd"
       id="path2144"
       style="stroke-width:0.264583" />
    <text
       fill="#000000"
       fill-opacity="0"
       font-family="Arial, Arial_MSFontService, sans-serif"
       font-size="6.34844px"
       x="18.135752"
       y="130.31998"
       id="text2146"
       style="stroke-width:0.264583">𝐼</text>
    <path
       d="m 22.955666,124.06575 h 0.866775 v 0.26194 l -1.118658,2.69054 -0.392906,-0.11747 z"
       fill-rule="evenodd"
       id="path2148"
       style="stroke-width:0.264583" />
    <text
       fill="#000000"
       fill-opacity="0"
       font-family="Arial, Arial_MSFontService, sans-serif"
       font-size="2.95254px"
       x="22.310877"
       y="126.64941"
       id="text2150"
       style="stroke-width:0.264583">′</text>
    <path
       d="m 27.990687,129.04865 h 5.729817 v 0.61833 h -5.729817 z m 0,-1.93014 h 5.729817 v 0.61833 h -5.729817 z"
       fill-rule="evenodd"
       id="path2152"
       style="stroke-width:0.264583" />
    <text
       fill="#000000"
       fill-opacity="0"
       font-family="Arial, Arial_MSFontService, sans-serif"
       font-size="2.54868px"
       x="27.990686"
       y="129.34842"
       id="text2154"
       style="stroke-width:0.264583">=</text>
    <path
       d="m 37.650095,124.76504 h 1.96268 v 0.22781 c -0.136525,0.0341 -0.23495,0.0683 -0.295275,0.10239 -0.06059,0.0341 -0.10848,0.0767 -0.144198,0.12806 -0.03572,0.0511 -0.06218,0.1278 -0.07911,0.23019 -0.01693,0.10213 -0.02566,0.26035 -0.02566,0.4744 v 4.02299 c 0,0.20769 0.0071,0.35957 0.0209,0.45561 0.01402,0.0963 0.03731,0.17224 0.06985,0.22807 0.03254,0.0558 0.0807,0.10213 0.144198,0.13944 0.0635,0.0373 0.166687,0.0743 0.309298,0.11165 v 0.22781 h -1.96268 v -0.22781 c 0.192352,-0.0497 0.32094,-0.10478 0.386027,-0.1651 0.06509,-0.0606 0.107686,-0.14658 0.127794,-0.25823 0.02037,-0.11166 0.03043,-0.28205 0.03043,-0.51144 v -4.02299 c 0,-0.21405 -0.0079,-0.36989 -0.02328,-0.46752 -0.01561,-0.0976 -0.04127,-0.17357 -0.07673,-0.22781 -0.03572,-0.0542 -0.08308,-0.0976 -0.141817,-0.13044 -0.059,-0.0325 -0.159808,-0.0688 -0.302419,-0.10927 z"
       fill-rule="evenodd"
       id="path2156"
       style="stroke-width:0.264583" />
    <text
       fill="#000000"
       fill-opacity="0"
       font-family="Arial, Arial_MSFontService, sans-serif"
       font-size="6.34844px"
       x="37.650097"
       y="130.31998"
       id="text2158"
       style="stroke-width:0.264583">I</text>
    <path
       d="m 45.540499,125.40216 h 0.6604 v 2.67891 h 2.534709 v 0.61859 h -2.534709 v 2.67891 h -0.6604 v -2.67891 h -2.534708 v -0.61859 h 2.534708 z"
       fill-rule="evenodd"
       id="path2160"
       style="stroke-width:0.264583" />
    <text
       fill="#000000"
       fill-opacity="0"
       font-family="Arial, Arial_MSFontService, sans-serif"
       font-size="5.97638px"
       x="43.005795"
       y="130.63165"
       id="text2162"
       style="stroke-width:0.264583">+</text>
    <path
       d="m 54.405628,125.7186 -1.771914,4.65085 h 3.236912 z m -0.162718,-1.0279 h 0.688181 l 1.962679,6.1251 v 0.29766 h -5.083175 v -0.29766 z"
       fill-rule="evenodd"
       id="path2164"
       style="stroke-width:0.264583" />
    <text
       fill="#000000"
       fill-opacity="0"
       font-family="Arial, Arial_MSFontService, sans-serif"
       font-size="6.42287px"
       x="51.810593"
       y="130.3107"
       id="text2166"
       style="stroke-width:0.264583">Δ</text>
    <path
       d="m 57.824574,124.76504 h 4.348692 v 1.40468 h -0.455877 c -0.04657,-0.15214 -0.09472,-0.28522 -0.144198,-0.40005 -0.04974,-0.11483 -0.100806,-0.21088 -0.153458,-0.2884 -0.05265,-0.0775 -0.110861,-0.13943 -0.174361,-0.186 -0.06376,-0.0466 -0.138906,-0.0783 -0.225689,-0.0953 -0.08678,-0.0172 -0.190765,-0.0257 -0.31168,-0.0257 h -1.469495 v 2.43708 h 0.995098 c 0.136525,0 0.243416,-0.0193 0.320939,-0.0582 0.07752,-0.0386 0.141817,-0.10451 0.193146,-0.19764 0.05106,-0.0929 0.100012,-0.23866 0.146579,-0.43709 h 0.437092 v 1.78593 H 60.89427 c -0.04339,-0.186 -0.09155,-0.32649 -0.144198,-0.42095 -0.05292,-0.0944 -0.115623,-0.16192 -0.188383,-0.2024 -0.07303,-0.0402 -0.182298,-0.0603 -0.328083,-0.0603 h -0.995098 v 2.68341 h 1.446477 c 0.15187,0 0.275166,-0.013 0.369623,-0.0394 0.09446,-0.0265 0.175947,-0.0714 0.24421,-0.13494 0.06826,-0.0635 0.128587,-0.14657 0.18124,-0.2487 0.05292,-0.1024 0.0971,-0.2085 0.132556,-0.31856 0.03572,-0.11007 0.08467,-0.27067 0.146579,-0.48154 h 0.460375 l -0.08837,1.63248 h -4.306623 v -0.22781 c 0.192352,-0.0497 0.32094,-0.10478 0.386027,-0.1651 0.06509,-0.0606 0.107686,-0.14658 0.127794,-0.25823 0.02037,-0.11166 0.03043,-0.28205 0.03043,-0.51144 v -4.02299 c 0,-0.21405 -0.0079,-0.36989 -0.02328,-0.46752 -0.01561,-0.0976 -0.04127,-0.17357 -0.07673,-0.22781 -0.03572,-0.0542 -0.08308,-0.0976 -0.141817,-0.13044 -0.059,-0.0325 -0.159808,-0.0688 -0.302419,-0.10927 z"
       fill-rule="evenodd"
       id="path2168"
       style="stroke-width:0.264583" />
    <text
       fill="#000000"
       fill-opacity="0"
       font-family="Arial, Arial_MSFontService, sans-serif"
       font-size="6.34844px"
       x="57.824577"
       y="130.31998"
       id="text2170"
       style="stroke-width:0.264583">E</text>
    <path
       d="m 69.529741,124.90686 c 0.02805,-0.004 0.05265,-0.003 0.07435,0.005 0.02196,0.008 0.04207,0.0209 0.06059,0.0394 l 3.050911,3.04641 c 0.03731,0.0402 0.06747,0.0799 0.09075,0.11853 0.02328,0.0389 0.03493,0.0923 0.03493,0.1606 0,0.0527 -0.0093,0.0998 -0.02805,0.14182 -0.01852,0.0418 -0.05106,0.0876 -0.09763,0.13705 l -3.050911,3.04642 c -0.01852,0.0185 -0.03863,0.0318 -0.06059,0.0394 -0.0217,0.008 -0.0463,0.009 -0.07435,0.005 -0.02778,-0.005 -0.06112,-0.0201 -0.100013,-0.0466 -0.03863,-0.0262 -0.08281,-0.0643 -0.132556,-0.11404 -0.05265,-0.0526 -0.09366,-0.0984 -0.123031,-0.13705 -0.02963,-0.0389 -0.04815,-0.0736 -0.05583,-0.10478 -0.0079,-0.031 -0.0071,-0.0579 0.0021,-0.0812 0.0095,-0.0233 0.02487,-0.0458 0.04657,-0.0675 0.437092,-0.43709 0.869685,-0.86121 1.297517,-1.27211 0.428096,-0.41064 0.848254,-0.80989 1.260475,-1.19751 h -5.939102 c -0.0217,0 -0.0418,-0.006 -0.06059,-0.0185 -0.01852,-0.0124 -0.03493,-0.032 -0.04868,-0.0582 -0.01402,-0.0264 -0.02487,-0.0619 -0.03254,-0.10689 -0.0079,-0.045 -0.01164,-0.10001 -0.01164,-0.1651 0,-0.0653 0.0037,-0.12038 0.01164,-0.1651 0.0077,-0.045 0.01852,-0.0807 0.03254,-0.10715 0.01376,-0.0262 0.03016,-0.0458 0.04868,-0.058 0.01879,-0.0124 0.03889,-0.0188 0.06059,-0.0188 h 5.939102 c -0.412221,-0.38762 -0.832379,-0.78661 -1.260475,-1.19751 -0.427832,-0.41089 -0.860425,-0.83343 -1.297517,-1.26735 -0.0217,-0.0217 -0.03704,-0.045 -0.04657,-0.0699 -0.0093,-0.0249 -0.01005,-0.0526 -0.0021,-0.0836 0.0077,-0.031 0.02619,-0.0659 0.05583,-0.10477 0.02937,-0.0386 0.07038,-0.0844 0.123031,-0.13706 0.04974,-0.0497 0.09393,-0.0876 0.132556,-0.11403 0.03889,-0.0265 0.07223,-0.0418 0.100013,-0.0466 z"
       fill-rule="evenodd"
       id="path2172"
       style="stroke-width:0.264583" />
    <text
       fill="#000000"
       fill-opacity="0"
       font-family="Arial, Arial_MSFontService, sans-serif"
       font-size="6.74436px"
       x="65.632423"
       y="130.8055"
       id="text2174"
       style="stroke-width:0.264583">→</text>
    <path
       d="m 74.096449,124.76504 h 1.962679 v 0.22781 c -0.136525,0.0341 -0.23495,0.0683 -0.295275,0.10239 -0.06059,0.0341 -0.108479,0.0767 -0.144198,0.12806 -0.03572,0.0511 -0.06218,0.1278 -0.07911,0.23019 -0.01693,0.10213 -0.02566,0.26035 -0.02566,0.4744 v 4.02299 c 0,0.20769 0.0071,0.35957 0.0209,0.45561 0.01402,0.0963 0.03731,0.17224 0.06985,0.22807 0.03254,0.0558 0.0807,0.10213 0.144198,0.13944 0.0635,0.0373 0.166688,0.0743 0.309298,0.11165 v 0.22781 h -1.962679 v -0.22781 c 0.192352,-0.0497 0.32094,-0.10478 0.386027,-0.1651 0.06509,-0.0606 0.107686,-0.14658 0.127794,-0.25823 0.02037,-0.11166 0.03043,-0.28205 0.03043,-0.51144 v -4.02299 c 0,-0.21405 -0.0079,-0.36989 -0.02328,-0.46752 -0.01561,-0.0976 -0.04127,-0.17357 -0.07673,-0.22781 -0.03572,-0.0542 -0.08308,-0.0976 -0.141816,-0.13044 -0.059,-0.0325 -0.159809,-0.0688 -0.302419,-0.10927 z"
       fill-rule="evenodd"
       id="path2176"
       style="stroke-width:0.264583" />
    <text
       fill="#000000"
       fill-opacity="0"
       font-family="Arial, Arial_MSFontService, sans-serif"
       font-size="6.34844px"
       x="74.096451"
       y="130.31998"
       id="text2178"
       style="stroke-width:0.264583">I</text>
    <path
       d="m 79.452145,128.08107 h 5.729816 v 0.61859 h -5.729816 z"
       fill-rule="evenodd"
       id="path2180"
       style="stroke-width:0.264583" />
    <text
       fill="#000000"
       fill-opacity="0"
       font-family="Arial, Arial_MSFontService, sans-serif"
       font-size="0.618567px"
       x="79.452148"
       y="128.62241"
       id="text2182"
       style="stroke-width:0.264583">−</text>
    <path
       d="m 90.851982,125.7186 -1.771914,4.65085 h 3.236912 z m -0.162719,-1.0279 h 0.688182 l 1.962679,6.1251 v 0.29766 h -5.083175 v -0.29766 z"
       fill-rule="evenodd"
       id="path2184"
       style="stroke-width:0.264583" />
    <text
       fill="#000000"
       fill-opacity="0"
       font-family="Arial, Arial_MSFontService, sans-serif"
       font-size="6.42287px"
       x="88.25695"
       y="130.3107"
       id="text2186"
       style="stroke-width:0.264583">Δ</text>
    <path
       d="m 94.270928,124.76504 h 1.962679 v 0.22781 c -0.136525,0.0341 -0.23495,0.0683 -0.295275,0.10239 -0.06059,0.0341 -0.108479,0.0767 -0.144198,0.12806 -0.03572,0.0511 -0.06218,0.1278 -0.07911,0.23019 -0.01693,0.10213 -0.02567,0.26035 -0.02567,0.4744 v 4.02299 c 0,0.20769 0.0071,0.35957 0.0209,0.45561 0.01402,0.0963 0.03731,0.17224 0.06985,0.22807 0.03254,0.0558 0.0807,0.10213 0.144198,0.13944 0.0635,0.0373 0.166688,0.0743 0.309298,0.11165 v 0.22781 h -1.962679 v -0.22781 c 0.192352,-0.0497 0.32094,-0.10478 0.386027,-0.1651 0.06509,-0.0606 0.107685,-0.14658 0.127794,-0.25823 0.02037,-0.11166 0.03043,-0.28205 0.03043,-0.51144 v -4.02299 c 0,-0.21405 -0.0079,-0.36989 -0.02328,-0.46752 -0.01561,-0.0976 -0.04127,-0.17357 -0.07673,-0.22781 -0.03572,-0.0542 -0.08308,-0.0976 -0.141816,-0.13044 -0.059,-0.0325 -0.159809,-0.0688 -0.302419,-0.10927 z"
       fill-rule="evenodd"
       id="path2188"
       style="stroke-width:0.264583" />
    <text
       fill="#000000"
       fill-opacity="0"
       font-family="Arial, Arial_MSFontService, sans-serif"
       font-size="6.34844px"
       x="94.270927"
       y="130.31998"
       id="text2190"
       style="stroke-width:0.264583">I</text>
    <path
       d="m 103.59484,124.90686 c 0.028,-0.004 0.0527,-0.003 0.0743,0.005 0.022,0.008 0.0421,0.0209 0.0606,0.0394 l 3.05091,3.04641 c 0.0373,0.0402 0.0675,0.0799 0.0907,0.11853 0.0233,0.0389 0.0349,0.0923 0.0349,0.1606 0,0.0527 -0.009,0.0998 -0.028,0.14182 -0.0185,0.0418 -0.0511,0.0876 -0.0976,0.13705 l -3.05091,3.04642 c -0.0185,0.0185 -0.0386,0.0318 -0.0606,0.0394 -0.0217,0.008 -0.0463,0.009 -0.0743,0.005 -0.0278,-0.005 -0.0611,-0.0201 -0.10001,-0.0466 -0.0386,-0.0262 -0.0828,-0.0643 -0.13255,-0.11404 -0.0527,-0.0526 -0.0937,-0.0984 -0.12304,-0.13705 -0.0296,-0.0389 -0.0481,-0.0736 -0.0558,-0.10478 -0.008,-0.031 -0.007,-0.0579 0.002,-0.0812 0.01,-0.0233 0.0249,-0.0458 0.0466,-0.0675 0.43709,-0.43709 0.86969,-0.86121 1.29752,-1.27211 0.42809,-0.41064 0.84825,-0.80989 1.26047,-1.19751 h -5.9391 c -0.02169,0 -0.0418,-0.006 -0.06059,-0.0185 -0.01852,-0.0124 -0.03493,-0.032 -0.04868,-0.0582 -0.01402,-0.0264 -0.02487,-0.0619 -0.03254,-0.10689 -0.0079,-0.045 -0.01164,-0.10001 -0.01164,-0.1651 0,-0.0653 0.0037,-0.12038 0.01164,-0.1651 0.0077,-0.045 0.01852,-0.0807 0.03254,-0.10715 0.01376,-0.0262 0.03016,-0.0458 0.04868,-0.058 0.01878,-0.0124 0.03889,-0.0188 0.06059,-0.0188 h 5.9391 c -0.41222,-0.38762 -0.83238,-0.78661 -1.26047,-1.19751 -0.42783,-0.41089 -0.86043,-0.83343 -1.29752,-1.26735 -0.0217,-0.0217 -0.037,-0.045 -0.0466,-0.0699 -0.009,-0.0249 -0.0101,-0.0526 -0.002,-0.0836 0.008,-0.031 0.0262,-0.0659 0.0558,-0.10477 0.0294,-0.0386 0.0704,-0.0844 0.12304,-0.13706 0.0497,-0.0497 0.0939,-0.0876 0.13255,-0.11403 0.0389,-0.0265 0.0722,-0.0418 0.10001,-0.0466 z"
       fill-rule="evenodd"
       id="path2192"
       style="stroke-width:0.264583" />
    <text
       fill="#000000"
       fill-opacity="0"
       font-family="Arial, Arial_MSFontService, sans-serif"
       font-size="6.74436px"
       x="99.697525"
       y="130.8055"
       id="text2194"
       style="stroke-width:0.264583">→</text>
    <path
       d="m 110.25917,125.17435 c -0.27914,0 -0.50535,0.006 -0.67919,0.0185 v 2.76278 h 0.52573 c 0.26961,0 0.48816,-0.0196 0.65564,-0.0582 0.16748,-0.0389 0.32253,-0.11245 0.46514,-0.22093 0.14261,-0.10848 0.25664,-0.25956 0.34184,-0.4535 0.0852,-0.19367 0.12779,-0.4318 0.12779,-0.71384 0,-0.29448 -0.0503,-0.53949 -0.15108,-0.73475 -0.1008,-0.19553 -0.25347,-0.34422 -0.45799,-0.44662 -0.20479,-0.10239 -0.48075,-0.15346 -0.82788,-0.15346 z m -2.09762,-0.40931 h 2.30214 c 0.72549,0 1.26815,0.13177 1.62798,0.39529 0.35957,0.26353 0.53949,0.67284 0.53949,1.22793 0,0.42466 -0.11721,0.78608 -0.35137,1.08374 -0.23389,0.29765 -0.58499,0.52996 -1.0533,0.69744 v 0.0373 c 0.18917,0.0775 0.3511,0.18839 0.48604,0.33258 0.13493,0.1442 0.28442,0.36804 0.44873,0.67205 l 0.41857,0.76279 c 0.12091,0.22304 0.2249,0.3937 0.31168,0.51144 0.0868,0.11774 0.17515,0.2077 0.26511,0.26987 0.09,0.0619 0.20929,0.10531 0.35798,0.13018 v 0.22781 h -1.28825 c -0.11774,-0.16431 -0.2294,-0.34105 -0.3347,-0.53023 -0.10557,-0.18918 -0.20929,-0.38126 -0.31168,-0.57653 l -0.40931,-0.77681 c -0.12409,-0.23575 -0.22543,-0.40931 -0.30454,-0.52097 -0.0791,-0.11165 -0.15213,-0.1897 -0.21854,-0.23468 -0.0667,-0.045 -0.13811,-0.0759 -0.21405,-0.0931 -0.0759,-0.0169 -0.18997,-0.0257 -0.34184,-0.0257 h -0.51171 v 1.58141 c 0,0.22331 0.009,0.38524 0.0257,0.48604 0.0169,0.10081 0.0426,0.17674 0.0767,0.22781 0.0341,0.0513 0.0807,0.0931 0.13943,0.12568 0.059,0.0325 0.15981,0.0691 0.30242,0.10927 v 0.22781 h -1.96268 v -0.22781 c 0.19235,-0.0497 0.32094,-0.10478 0.38603,-0.1651 0.0651,-0.0606 0.10769,-0.14658 0.12779,-0.25823 0.0204,-0.11166 0.0304,-0.28205 0.0304,-0.51144 v -4.02299 c 0,-0.21405 -0.008,-0.36989 -0.0233,-0.46752 -0.0156,-0.0976 -0.0413,-0.17357 -0.0767,-0.22781 -0.0357,-0.0542 -0.0831,-0.0976 -0.14182,-0.13044 -0.059,-0.0325 -0.15981,-0.0688 -0.30242,-0.10927 z"
       fill-rule="evenodd"
       id="path2196"
       style="stroke-width:0.264583" />
    <text
       fill="#000000"
       fill-opacity="0"
       font-family="Arial, Arial_MSFontService, sans-serif"
       font-size="6.34844px"
       x="108.16155"
       y="130.31998"
       id="text2198"
       style="stroke-width:0.264583">R</text>
    <path
       d="m 116.82454,129.04865 h 5.72982 v 0.61833 h -5.72982 z m 0,-1.93014 h 5.72982 v 0.61833 h -5.72982 z"
       fill-rule="evenodd"
       id="path2200"
       style="stroke-width:0.264583" />
    <text
       fill="#000000"
       fill-opacity="0"
       font-family="Arial, Arial_MSFontService, sans-serif"
       font-size="2.54868px"
       x="116.82454"
       y="129.34842"
       id="text2202"
       style="stroke-width:0.264583">=</text>
    <path
       d="m 127.4047,124.76504 h 1.86055 l -0.0513,0.22781 c -0.11774,0.0249 -0.20214,0.0529 -0.25347,0.0839 -0.0511,0.031 -0.0968,0.0775 -0.13706,0.13944 -0.0405,0.0622 -0.0823,0.15901 -0.12567,0.29078 -0.0434,0.13176 -0.0976,0.34633 -0.16272,0.64399 l -0.79534,3.60918 c -0.0402,0.18283 -0.0667,0.32782 -0.0791,0.43498 -0.0124,0.10689 -0.0185,0.20373 -0.0185,0.29051 0,0.1397 0.0349,0.23812 0.10451,0.29527 0.0699,0.0574 0.18706,0.0923 0.35137,0.10478 l -0.0513,0.22781 h -1.86029 l 0.0511,-0.22781 c 0.118,-0.0185 0.20637,-0.0489 0.26511,-0.0907 0.059,-0.0418 0.10848,-0.10002 0.14896,-0.17436 0.0402,-0.0744 0.0775,-0.1651 0.11165,-0.27199 0.0341,-0.10716 0.0852,-0.31407 0.15346,-0.62098 l 0.79058,-3.58114 c 0.0683,-0.31009 0.10239,-0.55959 0.10239,-0.74877 0,-0.14578 -0.0365,-0.24738 -0.10927,-0.3048 -0.073,-0.0572 -0.18839,-0.0905 -0.34661,-0.10001 z"
       fill-rule="evenodd"
       id="path2204"
       style="stroke-width:0.264583" />
    <text
       fill="#000000"
       fill-opacity="0"
       font-family="Arial, Arial_MSFontService, sans-serif"
       font-size="6.34844px"
       x="126.18629"
       y="130.31998"
       id="text2206"
       style="stroke-width:0.264583">𝐼</text>
    <path
       d="m 135.20514,125.40216 h 0.6604 v 2.67891 h 2.53471 v 0.61859 h -2.53471 v 2.67891 h -0.6604 v -2.67891 h -2.5347 v -0.61859 h 2.5347 z"
       fill-rule="evenodd"
       id="path2208"
       style="stroke-width:0.264583" />
    <text
       fill="#000000"
       fill-opacity="0"
       font-family="Arial, Arial_MSFontService, sans-serif"
       font-size="5.97638px"
       x="132.67044"
       y="130.63165"
       id="text2210"
       style="stroke-width:0.264583">+</text>
    <path
       d="m 149.53974,117.55515 h 4.27884 l -0.32094,1.42795 h -0.44635 c -0.0124,-0.26987 -0.0357,-0.47307 -0.0699,-0.60933 -0.0341,-0.13653 -0.0751,-0.23019 -0.1233,-0.28152 -0.0479,-0.0511 -0.1053,-0.0852 -0.17198,-0.10213 -0.0667,-0.0172 -0.16192,-0.0257 -0.28601,-0.0257 h -1.51606 l -0.53023,2.43708 h 0.88821 c 0.22013,0 0.38841,-0.0519 0.50456,-0.15584 0.11642,-0.10399 0.23336,-0.27517 0.3511,-0.51383 h 0.42333 l -0.41857,1.78594 h -0.39528 c 0,-0.24818 -0.0156,-0.41645 -0.0466,-0.50482 -0.031,-0.0884 -0.0767,-0.14394 -0.13705,-0.16722 -0.0606,-0.0233 -0.16987,-0.0349 -0.32809,-0.0349 h -0.93001 l -0.59531,2.6834 h 1.37663 c 0.18282,0 0.32782,-0.0185 0.43471,-0.0558 0.10715,-0.037 0.20769,-0.0976 0.30242,-0.18124 0.0944,-0.0839 0.18917,-0.20082 0.28363,-0.3511 0.0947,-0.15055 0.2069,-0.35428 0.33734,-0.61172 h 0.45112 l -0.40931,1.6092 h -4.12539 l 0.0511,-0.22781 c 0.118,-0.0185 0.20637,-0.0489 0.26511,-0.0907 0.059,-0.0418 0.10848,-0.10001 0.14896,-0.17436 0.0402,-0.0743 0.0775,-0.1651 0.11166,-0.27199 0.0341,-0.10716 0.0852,-0.31406 0.15345,-0.62098 l 0.79058,-3.58113 c 0.0683,-0.31009 0.10239,-0.5596 0.10239,-0.74877 0,-0.14579 -0.0365,-0.24739 -0.10927,-0.3048 -0.073,-0.0572 -0.18838,-0.0905 -0.3466,-0.10002 z"
       fill-rule="evenodd"
       id="path2212"
       style="stroke-width:0.264583" />
    <text
       fill="#000000"
       fill-opacity="0"
       font-family="Arial, Arial_MSFontService, sans-serif"
       font-size="6.34844px"
       x="148.32133"
       y="123.11008"
       id="text2214"
       style="stroke-width:0.264583">𝐸</text>
    <path
       d="m 144.029,131.13621 h 4.85537 l -0.36275,1.63724 h -0.44635 c 0,-0.30083 -0.008,-0.52652 -0.0233,-0.6768 -0.0156,-0.15029 -0.045,-0.26512 -0.0884,-0.34423 -0.0434,-0.0791 -0.0968,-0.13335 -0.16034,-0.16271 -0.0638,-0.0294 -0.17595,-0.0442 -0.33734,-0.0442 h -0.68819 l -1.00938,4.58576 c -0.0278,0.12091 -0.0474,0.21696 -0.0582,0.28839 -0.0109,0.0712 -0.0201,0.14658 -0.0278,0.22543 -0.008,0.0791 -0.0116,0.14975 -0.0116,0.21167 0,0.096 0.0156,0.17145 0.0466,0.22569 0.031,0.0542 0.0775,0.0937 0.13944,0.11853 0.0619,0.0249 0.16907,0.0434 0.32094,0.0558 l -0.0511,0.2278 h -1.95818 l 0.0513,-0.2278 c 0.12383,-0.0185 0.21537,-0.0434 0.27438,-0.0744 0.0587,-0.0312 0.11086,-0.0791 0.15584,-0.1442 0.0447,-0.0651 0.0897,-0.16748 0.13467,-0.30692 0.045,-0.1397 0.0984,-0.35057 0.1606,-0.63262 l 0.99536,-4.55321 h -0.59081 c -0.19209,0 -0.34581,0.0278 -0.46038,0.0836 -0.11483,0.0558 -0.22939,0.15981 -0.34422,0.31168 -0.11483,0.15187 -0.25426,0.40613 -0.41857,0.76279 h -0.44635 z"
       fill-rule="evenodd"
       id="path2216"
       style="stroke-width:0.264583" />
    <text
       fill="#000000"
       fill-opacity="0"
       font-family="Arial, Arial_MSFontService, sans-serif"
       font-size="6.34844px"
       x="143.68028"
       y="136.69115"
       id="text2218"
       style="stroke-width:0.264583">𝑇</text>
    <path
       d="m 149.63155,136.03338 h 0.16457 l -0.49715,2.23705 c -0.0312,0.1323 -0.0532,0.2376 -0.0656,0.31592 -0.0122,0.0783 -0.0182,0.14896 -0.0182,0.21166 0,0.0849 0.0172,0.14658 0.0519,0.18468 0.0349,0.0381 0.0868,0.0572 0.15637,0.0572 0.0402,0 0.0804,-0.008 0.12092,-0.0235 0.0402,-0.0159 0.0833,-0.0405 0.12938,-0.0741 0.0458,-0.0336 0.096,-0.0765 0.15108,-0.12911 0.0548,-0.0527 0.11588,-0.11589 0.18309,-0.18998 l 0.22833,0.22173 c -0.11641,0.11879 -0.22225,0.21907 -0.3175,0.30083 -0.095,0.0815 -0.18521,0.14816 -0.2704,0.19976 -0.0849,0.0516 -0.16854,0.0884 -0.2503,0.11086 -0.0815,0.0222 -0.16827,0.0336 -0.26008,0.0336 -0.0852,0 -0.16193,-0.0156 -0.23019,-0.0471 -0.0683,-0.0312 -0.127,-0.0743 -0.17648,-0.12938 -0.0492,-0.0548 -0.0873,-0.12038 -0.11403,-0.19632 -0.027,-0.0762 -0.0405,-0.16034 -0.0405,-0.25215 0,-0.0738 0.009,-0.16563 0.027,-0.27543 0.018,-0.10954 0.041,-0.22886 0.0688,-0.35771 0.028,-0.12859 0.0587,-0.26353 0.0923,-0.40455 0.0336,-0.14129 0.0667,-0.28125 0.0992,-0.4199 0.0325,-0.1389 0.0616,-0.27278 0.0873,-0.40137 0.0257,-0.12885 0.0442,-0.2458 0.0553,-0.3511 0.005,-0.018 0.007,-0.0352 0.007,-0.0521 0,-0.0167 0,-0.0317 0,-0.0452 -0.004,-0.0873 -0.0352,-0.15134 -0.0923,-0.19156 -0.0572,-0.0402 -0.15848,-0.0627 -0.304,-0.0672 l 0.0402,-0.22834 z m 7.75256,-0.0336 c 0.16324,0 0.31512,0.009 0.45508,0.027 0.13996,0.018 0.28496,0.0458 0.43497,0.0839 l -0.18811,0.82312 h -0.39635 c -0.002,-0.11642 -0.0106,-0.21352 -0.0251,-0.29051 -0.0145,-0.0773 -0.0381,-0.13838 -0.0706,-0.18309 -0.0325,-0.045 -0.0749,-0.0767 -0.12753,-0.0958 -0.0526,-0.0191 -0.11721,-0.0296 -0.19314,-0.032 -0.12092,0 -0.23681,0.027 -0.34767,0.0807 -0.11086,0.0537 -0.21404,0.12806 -0.30903,0.22331 -0.0952,0.0952 -0.18203,0.20664 -0.26035,0.33417 -0.0783,0.12779 -0.14552,0.26537 -0.20161,0.41328 -0.0558,0.14763 -0.099,0.30162 -0.12938,0.46169 -0.0302,0.16034 -0.0452,0.31989 -0.0452,0.4789 0,0.23733 0.0471,0.41804 0.14103,0.5424 0.0942,0.12435 0.23521,0.18626 0.42333,0.18626 0.1053,0 0.20267,-0.01 0.2921,-0.0286 0.0897,-0.0188 0.17701,-0.0508 0.2622,-0.0955 0.0849,-0.045 0.17277,-0.10371 0.26353,-0.17647 0.0907,-0.0728 0.19103,-0.16299 0.30056,-0.27041 0.0426,0.0447 0.0836,0.0892 0.12277,0.13282 0.0392,0.0437 0.0799,0.0878 0.1225,0.13256 -0.24183,0.25082 -0.48366,0.43735 -0.72549,0.55933 -0.24183,0.12197 -0.50165,0.18309 -0.77919,0.18309 -0.34714,0 -0.61304,-0.10134 -0.79799,-0.30401 -0.18468,-0.20267 -0.27702,-0.49212 -0.27702,-0.86836 0,-0.21034 0.0236,-0.41381 0.0707,-0.6096 0.0468,-0.19606 0.11456,-0.38021 0.2032,-0.55245 0.0884,-0.17251 0.1942,-0.32941 0.31723,-0.47043 0.1233,-0.14102 0.26088,-0.26247 0.41328,-0.36433 0.15214,-0.10186 0.31697,-0.18097 0.49371,-0.2368 0.17701,-0.0561 0.36275,-0.0841 0.55775,-0.0841 z m -5.76104,0 c 0.16563,0 0.29395,0.0545 0.3847,0.16298 0.0908,0.10875 0.136,0.25136 0.136,0.42836 0,0.0447 -0.004,0.0918 -0.0116,0.14103 -0.008,0.0492 -0.022,0.0963 -0.0421,0.14102 l 0.0471,0.0169 c 0.21723,-0.29792 0.43154,-0.5207 0.64321,-0.6686 0.21166,-0.14764 0.43047,-0.22172 0.65669,-0.22172 0.23733,0 0.41487,0.064 0.53234,0.19156 0.11748,0.12753 0.17622,0.30665 0.17622,0.53737 0,0.0696 -0.0101,0.16589 -0.0302,0.28892 -0.0201,0.1233 -0.0458,0.25744 -0.0773,0.40296 -0.0312,0.14579 -0.0648,0.29528 -0.10081,0.44847 -0.0357,0.15346 -0.0693,0.29501 -0.10081,0.42492 -0.0312,0.12991 -0.0569,0.24077 -0.0773,0.33258 -0.0201,0.0918 -0.0302,0.14896 -0.0302,0.17145 0,0.0849 0.0156,0.14658 0.0471,0.18468 0.0312,0.0381 0.0817,0.0572 0.15108,0.0572 0.0426,0 0.0847,-0.008 0.12594,-0.0235 0.0415,-0.0159 0.0847,-0.0405 0.12938,-0.0741 0.0447,-0.0336 0.0939,-0.0765 0.1479,-0.12911 0.0537,-0.0527 0.11404,-0.11589 0.18124,-0.18998 l 0.23177,0.22173 c -0.1098,0.11191 -0.21034,0.20822 -0.30215,0.28892 -0.0918,0.0807 -0.18097,0.14737 -0.26723,0.19976 -0.0863,0.0526 -0.17171,0.0918 -0.25691,0.11774 -0.0852,0.0257 -0.17568,0.0386 -0.27199,0.0386 -0.0807,0 -0.15505,-0.0156 -0.22331,-0.0471 -0.0685,-0.0312 -0.12726,-0.0743 -0.17648,-0.12938 -0.0492,-0.0548 -0.0873,-0.11985 -0.1143,-0.19473 -0.0267,-0.0751 -0.0402,-0.15743 -0.0402,-0.24686 0,-0.0897 0.01,-0.1942 0.0286,-0.31406 0.019,-0.11985 0.0476,-0.25135 0.0857,-0.39476 0.0402,-0.14552 0.0778,-0.28495 0.11245,-0.41804 0.0347,-0.13335 0.0648,-0.25638 0.0907,-0.36962 0.0257,-0.11298 0.0458,-0.21378 0.0603,-0.30215 0.0146,-0.0886 0.022,-0.16193 0.022,-0.22014 0,-0.1389 -0.0265,-0.24077 -0.0791,-0.30559 -0.0524,-0.0651 -0.13705,-0.0974 -0.25347,-0.0974 -0.0672,0 -0.13943,0.0172 -0.21669,0.0519 -0.0773,0.0347 -0.15505,0.0828 -0.23336,0.14446 -0.0783,0.0616 -0.15505,0.13441 -0.23019,0.21828 -0.0749,0.0841 -0.14394,0.17357 -0.20664,0.26882 -0.0627,0.0952 -0.11801,0.19473 -0.16616,0.29898 -0.0481,0.10398 -0.0833,0.2077 -0.10583,0.31062 l -0.37624,1.68619 h -0.65828 l 0.50376,-2.18996 c 0.0291,-0.11641 0.0505,-0.22066 0.0638,-0.31247 0.0135,-0.0918 0.0204,-0.16669 0.0204,-0.2249 0,-0.16351 -0.0662,-0.24526 -0.19817,-0.24526 -0.0405,0 -0.0812,0.008 -0.12277,0.0251 -0.0413,0.0169 -0.0849,0.0421 -0.13097,0.0757 -0.0458,0.0336 -0.0958,0.0762 -0.14949,0.12753 -0.0537,0.0516 -0.1143,0.11192 -0.18124,0.18151 l -0.23177,-0.21829 c 0.11192,-0.1143 0.21431,-0.21219 0.30718,-0.29395 0.0929,-0.0817 0.1815,-0.14896 0.26538,-0.20161 0.0841,-0.0526 0.16748,-0.0913 0.25029,-0.11589 0.0828,-0.0246 0.17013,-0.037 0.26194,-0.037 z m -2.18652,-1.32001 h 0.67204 l -0.16483,0.72232 h -0.6649 z"
       fill-rule="evenodd"
       id="path2220"
       style="stroke-width:0.264583" />
    <text
       fill="#000000"
       fill-opacity="0"
       font-family="Arial, Arial_MSFontService, sans-serif"
       font-size="4.81005px"
       x="148.57666"
       y="138.8885"
       id="text2222"
       style="stroke-width:0.264583">𝑖𝑛𝑐</text>
    <path
       d="m 143.48687,128.20304 h 15.61041 v 0.52917 h -15.61041 z"
       fill-rule="evenodd"
       id="path2224"
       style="stroke-width:0.264583" />
    <path
       d="m 164.01033,128.08107 h 5.72982 v 0.61859 h -5.72982 z"
       fill-rule="evenodd"
       id="path2226"
       style="stroke-width:0.264583" />
    <text
       fill="#000000"
       fill-opacity="0"
       font-family="Arial, Arial_MSFontService, sans-serif"
       font-size="0.618567px"
       x="164.01033"
       y="128.62241"
       id="text2228"
       style="stroke-width:0.264583">−</text>
    <path
       d="m 180.26845,117.55515 h 1.86055 l -0.0513,0.2278 c -0.11774,0.0249 -0.20214,0.0529 -0.25347,0.0839 -0.0511,0.031 -0.0968,0.0775 -0.13706,0.13943 -0.0405,0.0622 -0.0823,0.15902 -0.12567,0.29078 -0.0434,0.13176 -0.0976,0.34634 -0.16272,0.644 l -0.79534,3.60918 c -0.0402,0.18282 -0.0667,0.32782 -0.0791,0.43497 -0.0124,0.10689 -0.0185,0.20373 -0.0185,0.29051 0,0.1397 0.0349,0.23813 0.10451,0.29528 0.0699,0.0574 0.18706,0.0923 0.35137,0.10477 l -0.0513,0.22781 h -1.86029 l 0.0511,-0.22781 c 0.118,-0.0185 0.20637,-0.0489 0.26511,-0.0907 0.059,-0.0418 0.10848,-0.10001 0.14896,-0.17436 0.0402,-0.0743 0.0775,-0.1651 0.11165,-0.27199 0.0341,-0.10716 0.0852,-0.31406 0.15346,-0.62098 l 0.79058,-3.58113 c 0.0683,-0.31009 0.10239,-0.5596 0.10239,-0.74877 0,-0.14579 -0.0365,-0.24739 -0.10927,-0.3048 -0.073,-0.0572 -0.18839,-0.0905 -0.34661,-0.10002 z"
       fill-rule="evenodd"
       id="path2230"
       style="stroke-width:0.264583" />
    <text
       fill="#000000"
       fill-opacity="0"
       font-family="Arial, Arial_MSFontService, sans-serif"
       font-size="6.34844px"
       x="179.05003"
       y="123.11008"
       id="text2232"
       style="stroke-width:0.264583">𝐼</text>
    <path
       d="m 173.25223,131.13621 h 4.85537 l -0.36275,1.63724 h -0.44635 c 0,-0.30083 -0.008,-0.52652 -0.0233,-0.6768 -0.0156,-0.15029 -0.045,-0.26512 -0.0884,-0.34423 -0.0434,-0.0791 -0.0968,-0.13335 -0.16061,-0.16271 -0.0635,-0.0294 -0.17594,-0.0442 -0.33708,-0.0442 h -0.68818 l -1.00938,4.58576 c -0.0278,0.12091 -0.0474,0.21696 -0.0582,0.28839 -0.0109,0.0712 -0.0201,0.14658 -0.0278,0.22543 -0.008,0.0791 -0.0116,0.14975 -0.0116,0.21167 0,0.096 0.0156,0.17145 0.0466,0.22569 0.031,0.0542 0.0775,0.0937 0.13944,0.11853 0.0619,0.0249 0.16907,0.0434 0.32094,0.0558 l -0.0511,0.2278 h -1.95818 l 0.0513,-0.2278 c 0.12383,-0.0185 0.21537,-0.0434 0.27437,-0.0744 0.0587,-0.0312 0.11086,-0.0791 0.15584,-0.1442 0.0447,-0.0651 0.0897,-0.16748 0.13468,-0.30692 0.045,-0.1397 0.0984,-0.35057 0.1606,-0.63262 l 0.9951,-4.55321 h -0.59055 c -0.19236,0 -0.34581,0.0278 -0.46038,0.0836 -0.11483,0.0558 -0.22939,0.15981 -0.34422,0.31168 -0.11483,0.15187 -0.25427,0.40613 -0.41857,0.76279 h -0.44662 z"
       fill-rule="evenodd"
       id="path2234"
       style="stroke-width:0.264583" />
    <text
       fill="#000000"
       fill-opacity="0"
       font-family="Arial, Arial_MSFontService, sans-serif"
       font-size="6.34844px"
       x="172.90324"
       y="136.69115"
       id="text2236"
       style="stroke-width:0.264583">𝑇</text>
    <path
       d="m 178.85478,136.03338 h 0.16457 l -0.49715,2.23705 c -0.0315,0.1323 -0.0532,0.2376 -0.0656,0.31592 -0.0122,0.0783 -0.0183,0.14896 -0.0183,0.21166 0,0.0849 0.0172,0.14658 0.0519,0.18468 0.0347,0.0381 0.0868,0.0572 0.15637,0.0572 0.0402,0 0.0804,-0.008 0.12092,-0.0235 0.0402,-0.0159 0.0833,-0.0405 0.12911,-0.0741 0.046,-0.0336 0.0963,-0.0765 0.15134,-0.12911 0.0548,-0.0527 0.11589,-0.11589 0.1831,-0.18998 l 0.22833,0.22173 c -0.11641,0.11879 -0.22225,0.21907 -0.3175,0.30083 -0.095,0.0815 -0.18521,0.14816 -0.2704,0.19976 -0.0849,0.0516 -0.16854,0.0884 -0.2503,0.11086 -0.0815,0.0222 -0.16827,0.0336 -0.26008,0.0336 -0.0852,0 -0.16193,-0.0156 -0.23019,-0.0471 -0.0683,-0.0312 -0.127,-0.0743 -0.17648,-0.12938 -0.0492,-0.0548 -0.0873,-0.12038 -0.11403,-0.19632 -0.027,-0.0762 -0.0405,-0.16034 -0.0405,-0.25215 0,-0.0738 0.009,-0.16563 0.027,-0.27543 0.018,-0.10954 0.0407,-0.22886 0.0688,-0.35771 0.0281,-0.12859 0.0587,-0.26353 0.0923,-0.40455 0.0336,-0.14129 0.0667,-0.28125 0.0992,-0.4199 0.0325,-0.1389 0.0616,-0.27278 0.0873,-0.40137 0.0257,-0.12885 0.0442,-0.2458 0.0553,-0.3511 0.005,-0.018 0.007,-0.0352 0.007,-0.0521 0,-0.0167 0,-0.0317 0,-0.0452 -0.004,-0.0873 -0.0352,-0.15134 -0.0923,-0.19156 -0.0572,-0.0402 -0.15848,-0.0627 -0.304,-0.0672 l 0.0402,-0.22834 z m 1.99152,-0.0336 c 0.16563,0 0.29395,0.0545 0.3847,0.16298 0.0908,0.10875 0.136,0.25136 0.136,0.42836 0,0.0447 -0.004,0.0918 -0.0119,0.14103 -0.008,0.0492 -0.0217,0.0963 -0.0418,0.14102 l 0.0468,0.0169 c 0.21722,-0.29792 0.4318,-0.5207 0.64347,-0.6686 0.2114,-0.14764 0.43047,-0.22172 0.65669,-0.22172 0.23733,0 0.4146,0.064 0.53234,0.19156 0.11748,0.12753 0.17622,0.30665 0.17622,0.53737 0,0.0696 -0.0101,0.16589 -0.0302,0.28892 -0.0201,0.1233 -0.0458,0.25744 -0.0773,0.40296 -0.0312,0.14579 -0.0648,0.29528 -0.1008,0.44847 -0.0357,0.15346 -0.0693,0.29501 -0.10081,0.42492 -0.0312,0.12991 -0.0569,0.24077 -0.0773,0.33258 -0.0201,0.0918 -0.0302,0.14896 -0.0302,0.17145 0,0.0849 0.0156,0.14658 0.0471,0.18468 0.0312,0.0381 0.0817,0.0572 0.15107,0.0572 0.0426,0 0.0847,-0.008 0.12595,-0.0235 0.0415,-0.0159 0.0847,-0.0405 0.12938,-0.0741 0.0447,-0.0336 0.0939,-0.0765 0.1479,-0.12911 0.0537,-0.0527 0.11403,-0.11589 0.18124,-0.18998 l 0.23177,0.22173 c -0.1098,0.11191 -0.2106,0.20822 -0.30242,0.28892 -0.0918,0.0807 -0.18071,0.14737 -0.26696,0.19976 -0.0863,0.0526 -0.17171,0.0918 -0.25691,0.11774 -0.0852,0.0257 -0.17568,0.0386 -0.27199,0.0386 -0.0807,0 -0.15505,-0.0156 -0.22357,-0.0471 -0.0683,-0.0312 -0.127,-0.0743 -0.17622,-0.12938 -0.0492,-0.0548 -0.0873,-0.11985 -0.1143,-0.19473 -0.0267,-0.0751 -0.0402,-0.15743 -0.0402,-0.24686 0,-0.0897 0.01,-0.1942 0.0286,-0.31406 0.019,-0.11985 0.0476,-0.25135 0.0857,-0.39476 0.0402,-0.14552 0.0778,-0.28495 0.11244,-0.41804 0.0347,-0.13335 0.0648,-0.25638 0.0908,-0.36962 0.0257,-0.11298 0.0458,-0.21378 0.0603,-0.30215 0.0146,-0.0886 0.022,-0.16193 0.022,-0.22014 0,-0.1389 -0.0265,-0.24077 -0.0791,-0.30559 -0.0526,-0.0651 -0.13705,-0.0974 -0.25347,-0.0974 -0.0672,0 -0.13944,0.0172 -0.21669,0.0519 -0.0773,0.0347 -0.15505,0.0828 -0.23337,0.14446 -0.0786,0.0616 -0.15504,0.13441 -0.23018,0.21828 -0.0749,0.0841 -0.14394,0.17357 -0.20664,0.26882 -0.0627,0.0952 -0.11801,0.19473 -0.16616,0.29898 -0.0482,0.10398 -0.0833,0.2077 -0.10583,0.31062 l -0.37624,1.68619 h -0.65829 l 0.50377,-2.18996 c 0.0291,-0.11641 0.0505,-0.22066 0.0638,-0.31247 0.0135,-0.0918 0.0204,-0.16669 0.0204,-0.2249 0,-0.16351 -0.0662,-0.24526 -0.19844,-0.24526 -0.0402,0 -0.081,0.008 -0.1225,0.0251 -0.0413,0.0169 -0.0849,0.0421 -0.13097,0.0757 -0.046,0.0336 -0.0958,0.0762 -0.14949,0.12753 -0.0537,0.0516 -0.1143,0.11192 -0.18124,0.18151 l -0.23177,-0.21829 c 0.11191,-0.1143 0.21431,-0.21219 0.30718,-0.29395 0.0929,-0.0817 0.1815,-0.14896 0.26537,-0.20161 0.0839,-0.0526 0.16749,-0.0913 0.2503,-0.11589 0.0828,-0.0246 0.17013,-0.037 0.26194,-0.037 z m 6.65771,-1.2663 c 0.12329,0 0.23177,0.006 0.32596,0.0185 0.0939,0.0124 0.18468,0.0275 0.272,0.0452 l -0.13785,0.62495 h -0.33232 c -0.0159,-0.1278 -0.054,-0.2212 -0.1143,-0.28046 -0.0606,-0.0595 -0.14102,-0.0892 -0.24183,-0.0892 -0.11641,0 -0.21431,0.0251 -0.29395,0.0757 -0.0794,0.0503 -0.14896,0.12647 -0.20823,0.22834 -0.0593,0.10186 -0.11033,0.22119 -0.15293,0.35772 -0.0423,0.13678 -0.0714,0.25532 -0.0873,0.35612 h 0.93054 l -0.0738,0.3728 h -0.93398 l -0.60801,2.87867 c -0.10504,0.49054 -0.27596,0.85381 -0.51223,1.09008 -0.23628,0.23628 -0.55139,0.35428 -0.94536,0.35428 -0.10319,0 -0.17806,-0.007 -0.22516,-0.0201 0.0135,-0.0561 0.0257,-0.11377 0.037,-0.17304 0.0111,-0.0593 0.0246,-0.11694 0.0402,-0.17303 0.0135,0.004 0.0325,0.007 0.0572,0.007 0.0246,0 0.0593,0 0.10398,0 0.0876,0 0.16748,-0.014 0.24024,-0.0421 0.0728,-0.0281 0.13944,-0.0783 0.20003,-0.15108 0.0603,-0.0728 0.11588,-0.17251 0.16616,-0.29898 0.0503,-0.12647 0.0979,-0.28945 0.14261,-0.48869 l 0.67204,-2.98291 h -0.57785 l 0.0603,-0.2585 c 0.1233,-0.007 0.22119,-0.0145 0.29395,-0.0235 0.0728,-0.009 0.13441,-0.0286 0.18495,-0.0587 0.0503,-0.0304 0.0878,-0.0812 0.11245,-0.15293 0.12991,-0.40984 0.32517,-0.7149 0.58605,-0.91546 0.26088,-0.20029 0.60087,-0.30057 1.01944,-0.30057 z m -8.84423,-0.0537 h 0.67204 l -0.16483,0.72232 h -0.6649 z"
       fill-rule="evenodd"
       id="path2238"
       style="stroke-width:0.264583" />
    <text
       fill="#000000"
       fill-opacity="0"
       font-family="Arial, Arial_MSFontService, sans-serif"
       font-size="6.08645px"
       x="177.7999"
       y="140.00557"
       id="text2240"
       style="stroke-width:0.264583">𝑖𝑛𝑓</text>
    <path
       d="m 172.59103,128.20304 h 16.40417 v 0.52917 h -16.40417 z"
       fill-rule="evenodd"
       id="path2242"
       style="stroke-width:0.264583" />
  </g>
</svg>
