<?xml version="1.0" encoding="UTF-8" standalone="no"?>
<svg
   xmlns:dc="http://purl.org/dc/elements/1.1/"
   xmlns:cc="http://creativecommons.org/ns#"
   xmlns:rdf="http://www.w3.org/1999/02/22-rdf-syntax-ns#"
   xmlns:svg="http://www.w3.org/2000/svg"
   xmlns="http://www.w3.org/2000/svg"
   xmlns:sodipodi="http://sodipodi.sourceforge.net/DTD/sodipodi-0.dtd"
   xmlns:inkscape="http://www.inkscape.org/namespaces/inkscape"
   inkscape:version="1.0 (4035a4fb49, 2020-05-01)"
   sodipodi:docname="SEIRV next Exposed.svg"
   xml:space="preserve"
   enable-background="new 0 0 424.266 44.668"
   viewBox="0 0 424.266 44.668999"
   height="44.668999"
   width="424.26599"
   y="0px"
   x="0px"
   id="Ebene_1"
   version="1.1"><metadata
   id="metadata75"><rdf:RDF><cc:Work
       rdf:about=""><dc:format>image/svg+xml</dc:format><dc:type
         rdf:resource="http://purl.org/dc/dcmitype/StillImage" /><dc:title></dc:title></cc:Work></rdf:RDF></metadata><defs
   id="defs73" /><sodipodi:namedview
   inkscape:current-layer="Ebene_1"
   inkscape:window-maximized="0"
   inkscape:window-y="0"
   inkscape:window-x="0"
   inkscape:cy="22.334"
   inkscape:cx="212.133"
   inkscape:zoom="3.0075472"
   fit-margin-bottom="0"
   fit-margin-right="0"
   fit-margin-left="0"
   fit-margin-top="0"
   showgrid="false"
   id="namedview71"
   inkscape:window-height="1858"
   inkscape:window-width="3776"
   inkscape:pageshadow="2"
   inkscape:pageopacity="0"
   guidetolerance="10"
   gridtolerance="10"
   objecttolerance="10"
   borderopacity="1"
   bordercolor="#666666"
   pagecolor="#ffffff" />
<path
   id="path2"
   d="m 2.303,14.384 h 8.084 L 9.78,17.076 H 8.94 C 8.918,16.574 8.873,16.183 8.805,15.929 8.745,15.674 8.662,15.494 8.573,15.397 8.483,15.299 8.378,15.239 8.25,15.202 8.123,15.172 7.942,15.157 7.71,15.157 H 4.845 L 3.84,19.762 h 1.68 c 0.42,0 0.735,-0.098 0.952,-0.292 0.225,-0.203 0.442,-0.525 0.667,-0.975 H 7.934 L 7.146,21.87 h -0.75 c 0,-0.465 -0.03,-0.788 -0.082,-0.953 C 6.254,20.752 6.164,20.647 6.051,20.602 5.938,20.557 5.73,20.534 5.43,20.534 H 3.675 l -1.125,5.07 h 2.603 c 0.345,0 0.623,-0.03 0.817,-0.105 0.203,-0.067 0.397,-0.18 0.578,-0.345 C 6.72,24.997 6.901,24.779 7.08,24.494 7.26,24.209 7.47,23.827 7.718,23.34 H 8.573 L 7.8,26.376 H 0 l 0.098,-0.428 c 0.225,-0.037 0.39,-0.09 0.502,-0.172 0.112,-0.075 0.203,-0.188 0.277,-0.33 0.083,-0.143 0.15,-0.308 0.218,-0.511 0.06,-0.202 0.157,-0.6 0.285,-1.177 L 2.873,16.993 C 3.008,16.408 3.068,15.935 3.068,15.576 3.067,15.299 3,15.112 2.865,15 2.723,14.895 2.505,14.827 2.205,14.812 Z"
   clip-rule="evenodd"
   fill-rule="evenodd" />
<polygon
   id="polygon4"
   points="15.359,13.447 13.214,18.614 12.457,18.389 13.694,12.944 15.359,12.944 "
   clip-rule="evenodd"
   fill-rule="evenodd" />
<path
   id="path6"
   d="m 23.128,22.477 h 10.829 v 1.169 H 23.128 Z m 0,-3.645 h 10.829 v 1.17 H 23.128 Z"
   clip-rule="evenodd"
   fill-rule="evenodd" />
<path
   id="path8"
   d="m 43.219,14.384 h 8.084 l -0.607,2.692 h -0.84 c -0.022,-0.502 -0.067,-0.893 -0.135,-1.147 -0.06,-0.255 -0.143,-0.435 -0.233,-0.532 -0.09,-0.098 -0.195,-0.158 -0.322,-0.195 -0.127,-0.03 -0.308,-0.045 -0.54,-0.045 h -2.865 l -1.005,4.605 h 1.68 c 0.42,0 0.735,-0.098 0.953,-0.292 0.225,-0.203 0.442,-0.525 0.667,-0.975 h 0.795 l -0.788,3.375 h -0.75 c 0,-0.465 -0.03,-0.788 -0.083,-0.953 -0.06,-0.165 -0.15,-0.27 -0.262,-0.315 -0.112,-0.045 -0.323,-0.067 -0.623,-0.067 H 44.59 l -1.125,5.07 h 2.603 c 0.345,0 0.623,-0.03 0.817,-0.105 0.203,-0.067 0.397,-0.18 0.578,-0.345 0.172,-0.157 0.352,-0.375 0.532,-0.66 0.18,-0.285 0.39,-0.667 0.638,-1.154 h 0.854 l -0.772,3.037 h -7.799 l 0.098,-0.428 c 0.225,-0.037 0.39,-0.09 0.502,-0.172 0.112,-0.075 0.203,-0.188 0.277,-0.33 0.083,-0.143 0.15,-0.308 0.218,-0.511 0.06,-0.202 0.157,-0.6 0.285,-1.177 l 1.493,-6.765 c 0.135,-0.585 0.195,-1.058 0.195,-1.417 0,-0.277 -0.067,-0.465 -0.203,-0.577 -0.142,-0.105 -0.36,-0.173 -0.66,-0.188 z"
   clip-rule="evenodd"
   fill-rule="evenodd" />
<polygon
   id="polygon10"
   points="63.723,20.646 68.515,20.646 68.515,21.816 63.723,21.816 63.723,26.878 62.478,26.878 62.478,21.816 57.686,21.816 57.686,20.646 62.478,20.646 62.478,15.584 63.723,15.584 "
   clip-rule="evenodd"
   fill-rule="evenodd" />
<path
   id="path12"
   d="m 79.127,16.184 -3.345,8.79 h 6.112 z m -0.308,-1.942 h 1.297 l 3.712,11.572 v 0.563 h -9.607 v -0.563 z"
   clip-rule="evenodd"
   fill-rule="evenodd" />
<path
   id="path14"
   d="m 89.401,14.242 c 0.45,0 0.885,0.022 1.305,0.067 0.427,0.053 0.96,0.158 1.597,0.323 v 2.37 h -0.87 c -0.135,-0.517 -0.308,-0.915 -0.51,-1.207 -0.203,-0.285 -0.442,-0.488 -0.72,-0.6 -0.278,-0.113 -0.638,-0.172 -1.073,-0.172 -0.382,0 -0.72,0.075 -1.027,0.21 -0.3,0.143 -0.54,0.353 -0.712,0.637 -0.18,0.285 -0.262,0.623 -0.262,1.02 0,0.413 0.075,0.765 0.225,1.05 0.143,0.292 0.383,0.555 0.698,0.803 0.315,0.248 0.78,0.518 1.402,0.825 0.75,0.375 1.335,0.728 1.747,1.05 0.413,0.322 0.735,0.69 0.968,1.103 0.232,0.412 0.345,0.892 0.345,1.439 0,0.615 -0.097,1.141 -0.292,1.561 -0.188,0.427 -0.458,0.772 -0.802,1.042 -0.345,0.263 -0.75,0.458 -1.23,0.578 -0.48,0.119 -0.998,0.18 -1.567,0.18 -0.922,0 -1.98,-0.157 -3.18,-0.465 v -2.408 h 0.877 c 0.112,0.518 0.277,0.923 0.472,1.223 0.203,0.3 0.458,0.518 0.772,0.66 0.314,0.142 0.728,0.218 1.223,0.218 0.69,0 1.215,-0.181 1.575,-0.54 0.368,-0.353 0.555,-0.878 0.555,-1.561 0,-0.442 -0.075,-0.81 -0.232,-1.109 -0.15,-0.3 -0.397,-0.578 -0.743,-0.84 -0.345,-0.263 -0.877,-0.57 -1.583,-0.923 -0.69,-0.345 -1.229,-0.675 -1.627,-0.997 -0.397,-0.33 -0.697,-0.683 -0.892,-1.065 -0.195,-0.375 -0.292,-0.795 -0.292,-1.245 0,-0.653 0.15,-1.223 0.458,-1.71 0.307,-0.48 0.757,-0.855 1.357,-1.118 0.591,-0.264 1.273,-0.399 2.038,-0.399 z"
   clip-rule="evenodd"
   fill-rule="evenodd" />
<path
   id="path16"
   d="m 108.03,17.609 3.457,3.345 v 0.563 l -3.457,3.352 -0.518,-0.487 2.01,-2.565 H 98.423 v -1.17 h 11.099 l -2.01,-2.557 z m 5.564,-3.225 h 8.219 v 2.655 h -0.862 c -0.09,-0.292 -0.18,-0.54 -0.27,-0.757 -0.098,-0.217 -0.195,-0.397 -0.292,-0.547 -0.098,-0.143 -0.21,-0.263 -0.33,-0.353 -0.12,-0.083 -0.262,-0.143 -0.427,-0.18 -0.165,-0.03 -0.36,-0.045 -0.585,-0.045 h -2.782 v 4.605 h 1.882 c 0.262,0 0.465,-0.038 0.607,-0.113 0.15,-0.075 0.27,-0.195 0.367,-0.375 0.098,-0.172 0.188,-0.45 0.278,-0.825 h 0.825 v 3.375 h -0.825 c -0.083,-0.353 -0.173,-0.615 -0.278,-0.795 -0.097,-0.18 -0.217,-0.307 -0.352,-0.382 -0.143,-0.075 -0.345,-0.112 -0.623,-0.112 h -1.882 v 5.07 h 2.737 c 0.285,0 0.517,-0.022 0.697,-0.075 0.18,-0.045 0.33,-0.135 0.465,-0.255 0.127,-0.12 0.24,-0.277 0.337,-0.465 0.105,-0.195 0.188,-0.397 0.255,-0.607 0.067,-0.203 0.157,-0.51 0.277,-0.907 h 0.87 l -0.173,3.082 h -8.137 V 25.95 c 0.368,-0.098 0.607,-0.195 0.728,-0.314 0.127,-0.113 0.21,-0.278 0.248,-0.488 0.037,-0.21 0.052,-0.532 0.052,-0.967 v -7.598 c 0,-0.405 -0.015,-0.697 -0.045,-0.885 -0.022,-0.188 -0.075,-0.33 -0.143,-0.435 -0.067,-0.098 -0.157,-0.18 -0.27,-0.24 -0.105,-0.068 -0.3,-0.135 -0.57,-0.21 v -0.429 z"
   clip-rule="evenodd"
   fill-rule="evenodd" />
<polygon
   id="polygon18"
   points="139.07,21.816 139.07,20.646 128.241,20.646 128.241,21.816 "
   clip-rule="evenodd"
   fill-rule="evenodd" />
<path
   id="path20"
   d="m 149.801,16.184 -3.345,8.79 h 6.112 z m -0.307,-1.942 h 1.305 l 3.705,11.572 v 0.563 h -9.606 v -0.563 z"
   clip-rule="evenodd"
   fill-rule="evenodd" />
<path
   id="path22"
   d="m 156.191,14.384 h 8.22 v 2.655 h -0.863 c -0.09,-0.292 -0.18,-0.54 -0.27,-0.757 -0.097,-0.217 -0.195,-0.397 -0.292,-0.547 -0.097,-0.143 -0.21,-0.263 -0.33,-0.353 -0.12,-0.083 -0.263,-0.143 -0.428,-0.18 -0.165,-0.03 -0.36,-0.045 -0.585,-0.045 h -2.782 v 4.605 h 1.882 c 0.263,0 0.465,-0.038 0.607,-0.113 0.15,-0.075 0.27,-0.195 0.368,-0.375 0.097,-0.172 0.188,-0.45 0.277,-0.825 h 0.825 v 3.375 h -0.825 c -0.083,-0.353 -0.172,-0.615 -0.277,-0.795 -0.098,-0.18 -0.218,-0.307 -0.353,-0.382 -0.143,-0.075 -0.345,-0.112 -0.623,-0.112 h -1.882 v 5.07 h 2.737 c 0.285,0 0.518,-0.022 0.697,-0.075 0.18,-0.045 0.33,-0.135 0.465,-0.255 0.127,-0.12 0.24,-0.277 0.337,-0.465 0.105,-0.195 0.188,-0.397 0.255,-0.607 0.067,-0.203 0.157,-0.51 0.277,-0.907 h 0.87 l -0.172,3.082 h -8.137 V 25.95 c 0.368,-0.098 0.607,-0.195 0.728,-0.314 0.127,-0.113 0.21,-0.278 0.248,-0.488 0.038,-0.21 0.052,-0.532 0.052,-0.967 v -7.598 c 0,-0.405 -0.015,-0.697 -0.045,-0.885 -0.022,-0.188 -0.075,-0.33 -0.143,-0.435 -0.067,-0.098 -0.157,-0.18 -0.27,-0.24 -0.105,-0.068 -0.3,-0.135 -0.57,-0.21 v -0.429 z"
   clip-rule="evenodd"
   fill-rule="evenodd" />
<path
   id="path24"
   d="m 178.209,14.647 c 0.052,-0.008 0.105,0 0.143,0.015 0.037,0.015 0.083,0.038 0.112,0.075 l 5.767,5.752 c 0.067,0.075 0.127,0.15 0.172,0.225 0.045,0.075 0.067,0.173 0.067,0.3 0,0.105 -0.022,0.195 -0.052,0.27 -0.038,0.083 -0.098,0.165 -0.188,0.262 l -5.767,5.752 c -0.03,0.038 -0.075,0.061 -0.112,0.075 -0.038,0.016 -0.09,0.022 -0.143,0.016 -0.053,-0.016 -0.113,-0.045 -0.188,-0.091 -0.075,-0.052 -0.158,-0.119 -0.248,-0.217 -0.105,-0.098 -0.18,-0.188 -0.232,-0.255 -0.06,-0.075 -0.098,-0.143 -0.105,-0.203 -0.015,-0.06 -0.015,-0.112 0,-0.149 0.015,-0.045 0.045,-0.09 0.09,-0.128 0.825,-0.832 1.643,-1.627 2.453,-2.407 0.81,-0.772 1.597,-1.53 2.377,-2.265 h -11.219 c -0.045,0 -0.082,-0.007 -0.112,-0.03 -0.038,-0.022 -0.067,-0.06 -0.098,-0.112 -0.022,-0.053 -0.045,-0.12 -0.06,-0.203 -0.015,-0.083 -0.023,-0.188 -0.023,-0.315 0,-0.12 0.008,-0.225 0.023,-0.308 0.015,-0.083 0.037,-0.15 0.06,-0.203 0.03,-0.052 0.06,-0.09 0.098,-0.112 0.03,-0.022 0.067,-0.03 0.112,-0.03 h 11.219 c -0.78,-0.735 -1.567,-1.493 -2.377,-2.265 -0.81,-0.78 -1.627,-1.575 -2.453,-2.4 -0.045,-0.038 -0.075,-0.083 -0.09,-0.127 -0.015,-0.044 -0.015,-0.098 0,-0.158 0.007,-0.06 0.045,-0.127 0.105,-0.202 0.052,-0.068 0.127,-0.158 0.232,-0.255 0.09,-0.097 0.172,-0.165 0.248,-0.217 0.077,-0.045 0.137,-0.075 0.189,-0.09 z"
   clip-rule="evenodd"
   fill-rule="evenodd" />
<path
   id="path26"
   d="m 186.909,14.384 h 3.712 v 0.428 c -0.263,0.067 -0.442,0.127 -0.563,0.195 -0.113,0.067 -0.203,0.143 -0.27,0.24 -0.067,0.098 -0.12,0.24 -0.15,0.435 -0.03,0.195 -0.045,0.495 -0.045,0.9 v 7.598 c 0,0.397 0.007,0.683 0.037,0.862 0.022,0.18 0.068,0.33 0.127,0.435 0.068,0.105 0.158,0.188 0.278,0.263 0.12,0.067 0.315,0.143 0.585,0.21 v 0.428 h -3.712 V 25.95 c 0.368,-0.098 0.607,-0.195 0.728,-0.314 0.127,-0.113 0.21,-0.278 0.248,-0.488 0.038,-0.21 0.052,-0.532 0.052,-0.967 v -7.598 c 0,-0.405 -0.015,-0.697 -0.045,-0.885 -0.022,-0.188 -0.075,-0.33 -0.143,-0.435 -0.067,-0.098 -0.157,-0.18 -0.27,-0.24 -0.105,-0.068 -0.3,-0.135 -0.57,-0.21 v -0.429 z"
   clip-rule="evenodd"
   fill-rule="evenodd" />
<path
   id="path28"
   d="m 198.075,22.477 h 10.83 v 1.169 h -10.83 z m 0,-3.645 h 10.83 v 1.17 h -10.83 z"
   clip-rule="evenodd"
   fill-rule="evenodd" />
<path
   id="path30"
   d="m 218.167,14.384 h 8.084 l -0.6,2.692 h -0.848 c -0.022,-0.502 -0.067,-0.893 -0.135,-1.147 -0.06,-0.255 -0.143,-0.435 -0.232,-0.532 -0.09,-0.098 -0.195,-0.158 -0.322,-0.195 -0.128,-0.03 -0.308,-0.045 -0.54,-0.045 h -2.865 l -1.005,4.605 h 1.68 c 0.42,0 0.735,-0.098 0.953,-0.292 0.225,-0.203 0.442,-0.525 0.667,-0.975 h 0.795 l -0.787,3.375 h -0.75 c 0,-0.465 -0.03,-0.788 -0.083,-0.953 -0.06,-0.165 -0.149,-0.27 -0.262,-0.315 -0.113,-0.045 -0.323,-0.067 -0.623,-0.067 h -1.755 l -1.125,5.07 h 2.603 c 0.345,0 0.623,-0.03 0.817,-0.105 0.202,-0.067 0.397,-0.18 0.577,-0.345 0.173,-0.157 0.353,-0.375 0.533,-0.66 0.18,-0.285 0.39,-0.667 0.637,-1.154 h 0.855 l -0.772,3.037 h -7.8 l 0.098,-0.428 c 0.226,-0.037 0.391,-0.09 0.503,-0.172 0.112,-0.075 0.202,-0.188 0.277,-0.33 0.082,-0.143 0.149,-0.308 0.218,-0.511 0.06,-0.202 0.157,-0.6 0.284,-1.177 l 1.493,-6.765 c 0.135,-0.585 0.194,-1.058 0.194,-1.417 0,-0.277 -0.067,-0.465 -0.202,-0.577 -0.143,-0.105 -0.36,-0.173 -0.66,-0.188 z"
   clip-rule="evenodd"
   fill-rule="evenodd" />
<polygon
   id="polygon32"
   points="238.669,20.654 243.469,20.654 243.469,21.824 238.669,21.824 238.669,26.878 237.425,26.878 237.425,21.824 232.64,21.824 232.64,20.654 237.425,20.654 237.425,15.584 238.669,15.584 "
   clip-rule="evenodd"
   fill-rule="evenodd" />
<path
   id="path34"
   d="m 259.699,0 0.239,0.675 c -1.364,0.45 -2.385,1.335 -3.045,2.64 -0.659,1.32 -0.989,2.955 -0.989,4.935 0,2.055 0.33,3.75 0.989,5.07 0.66,1.335 1.665,2.235 3.016,2.685 l -0.21,0.675 c -1.71,-0.45 -3.03,-1.425 -3.945,-2.91 -0.915,-1.5 -1.364,-3.3 -1.364,-5.43 0,-2.115 0.449,-3.915 1.38,-5.415 0.913,-1.5 2.219,-2.475 3.929,-2.925 z"
   clip-rule="evenodd"
   fill-rule="evenodd" />
<path
   id="path36"
   d="m 266.478,0.57 c 0.54,0 1.05,0.03 1.5,0.105 0.465,0.075 0.975,0.195 1.529,0.375 l -0.495,2.265 h -0.84 c -0.029,-0.51 -0.104,-0.9 -0.225,-1.185 -0.135,-0.285 -0.315,-0.48 -0.555,-0.6 -0.24,-0.135 -0.556,-0.195 -0.96,-0.195 -0.48,0 -0.915,0.105 -1.29,0.3 -0.36,0.195 -0.646,0.48 -0.84,0.81 -0.195,0.345 -0.285,0.735 -0.285,1.155 0,0.435 0.12,0.825 0.345,1.155 0.226,0.33 0.675,0.72 1.335,1.17 0.57,0.405 1.005,0.75 1.305,1.065 0.301,0.315 0.525,0.645 0.676,1.005 0.135,0.345 0.21,0.75 0.21,1.215 0,0.72 -0.165,1.35 -0.511,1.905 -0.345,0.555 -0.824,0.99 -1.455,1.29 -0.614,0.3 -1.334,0.45 -2.129,0.45 -0.54,0 -1.125,-0.045 -1.74,-0.135 -0.63,-0.09 -1.185,-0.195 -1.68,-0.33 l 0.524,-2.415 h 0.855 c 0,0.705 0.165,1.245 0.495,1.59 0.329,0.345 0.84,0.525 1.529,0.525 0.795,0 1.425,-0.225 1.875,-0.645 0.465,-0.435 0.69,-1.05 0.69,-1.815 0,-0.36 -0.061,-0.675 -0.195,-0.945 -0.12,-0.27 -0.315,-0.54 -0.57,-0.78 -0.255,-0.255 -0.614,-0.54 -1.095,-0.855 -0.435,-0.3 -0.795,-0.585 -1.08,-0.87 -0.285,-0.285 -0.524,-0.6 -0.689,-0.96 -0.165,-0.345 -0.255,-0.735 -0.255,-1.17 0,-0.69 0.165,-1.305 0.494,-1.83 0.346,-0.525 0.811,-0.93 1.426,-1.23 0.601,-0.285 1.306,-0.42 2.101,-0.42 z"
   clip-rule="evenodd"
   fill-rule="evenodd" />
<polygon
   id="polygon38"
   points="290.266,8.145 290.266,6.975 279.437,6.975 279.437,8.145 "
   clip-rule="evenodd"
   fill-rule="evenodd" />
<path
   id="path40"
   d="m 301.77,5.189 c -0.285,0 -0.555,0.09 -0.84,0.27 -0.27,0.18 -0.57,0.465 -0.899,0.885 -0.33,0.42 -0.615,0.84 -0.825,1.275 -0.21,0.435 -0.391,0.975 -0.525,1.65 l -0.09,0.375 c -0.09,0.405 -0.12,0.81 -0.12,1.2 0,0.465 0.09,0.795 0.3,0.99 0.195,0.21 0.54,0.315 1.005,0.315 0.24,0 0.466,-0.045 0.69,-0.12 0.21,-0.075 0.435,-0.21 0.66,-0.39 0.225,-0.18 0.435,-0.42 0.645,-0.72 0.195,-0.285 0.375,-0.66 0.555,-1.095 0.165,-0.435 0.301,-0.9 0.391,-1.395 0.09,-0.495 0.135,-0.96 0.135,-1.41 0,-0.615 -0.075,-1.065 -0.255,-1.38 -0.167,-0.299 -0.452,-0.45 -0.827,-0.45 z m 4.53,-4.484 h 3.629 l -0.09,0.435 c -0.27,0.03 -0.465,0.105 -0.6,0.225 -0.15,0.12 -0.255,0.3 -0.315,0.51 -0.06,0.225 -0.09,0.525 -0.09,0.885 0,0.09 0.016,0.36 0.03,0.795 l 0.255,6.435 v 0.705 h 0.075 l 3.81,-6.87 c 0.225,-0.405 0.39,-0.75 0.51,-1.035 0.105,-0.3 0.165,-0.555 0.165,-0.78 0,-0.48 -0.3,-0.78 -0.885,-0.87 l 0.104,-0.435 h 3.585 l -0.09,0.435 c -0.165,0.015 -0.315,0.075 -0.45,0.18 -0.149,0.09 -0.314,0.255 -0.495,0.48 -0.18,0.225 -0.449,0.66 -0.824,1.305 L 309,12.839 h -1.17 L 307.245,3.045 C 307.215,2.67 307.17,2.34 307.11,2.07 307.049,1.785 306.96,1.575 306.825,1.425 306.69,1.275 306.48,1.185 306.195,1.14 Z m -6.075,-0.57 h 0.51 l -1.545,6.15 0.12,0.045 c 0.57,-0.765 1.096,-1.32 1.59,-1.665 0.511,-0.33 1.005,-0.51 1.5,-0.51 0.646,0 1.14,0.255 1.485,0.735 0.359,0.48 0.54,1.17 0.54,2.055 0,0.975 -0.195,1.92 -0.585,2.85 -0.391,0.945 -0.931,1.68 -1.62,2.22 -0.69,0.555 -1.47,0.825 -2.325,0.825 -0.779,0 -1.47,-0.18 -2.069,-0.57 l -0.811,0.57 -0.569,-0.135 2.279,-10.05 c 0.136,-0.6 0.21,-1.035 0.21,-1.305 0,-0.24 -0.074,-0.405 -0.225,-0.51 -0.151,-0.105 -0.42,-0.15 -0.81,-0.165 l 0.104,-0.465 z"
   clip-rule="evenodd"
   fill-rule="evenodd" />
<path
   id="path42"
   d="m 317.819,0 c 1.71,0.45 3.015,1.425 3.93,2.925 0.915,1.5 1.38,3.3 1.38,5.415 0,2.13 -0.45,3.93 -1.364,5.43 -0.915,1.485 -2.235,2.459 -3.945,2.91 l -0.225,-0.675 c 1.364,-0.45 2.369,-1.35 3.029,-2.685 0.66,-1.32 0.99,-3.015 0.99,-5.07 0,-1.98 -0.33,-3.615 -0.99,-4.935 -0.66,-1.305 -1.665,-2.19 -3.045,-2.64 z"
   clip-rule="evenodd"
   fill-rule="evenodd" />
<path
   id="path44"
   d="m 284.747,26.384 h 2.805 l 2.325,6.854 c 0.329,0.975 0.585,1.814 0.765,2.489 h 0.104 c 0.046,-0.359 0.15,-0.959 0.315,-1.784 0.165,-0.825 0.33,-1.561 0.465,-2.175 l 0.615,-2.775 c 0.135,-0.585 0.194,-1.05 0.194,-1.41 0,-0.285 -0.074,-0.465 -0.21,-0.585 -0.135,-0.104 -0.359,-0.165 -0.659,-0.18 l 0.104,-0.435 h 3.075 l -0.09,0.435 c -0.226,0.045 -0.391,0.09 -0.48,0.15 -0.104,0.06 -0.195,0.149 -0.27,0.27 -0.075,0.12 -0.15,0.3 -0.24,0.555 -0.075,0.24 -0.18,0.646 -0.3,1.215 l -2.07,9.375 h -1.185 l -2.58,-7.545 c -0.3,-0.899 -0.57,-1.8 -0.81,-2.699 h -0.12 c -0.03,0.3 -0.12,0.869 -0.285,1.71 -0.165,0.84 -0.33,1.664 -0.495,2.475 l -0.779,3.495 c -0.12,0.555 -0.181,1.02 -0.181,1.38 0,0.255 0.061,0.45 0.195,0.555 0.135,0.105 0.345,0.18 0.66,0.195 l -0.09,0.435 h -3.075 l 0.09,-0.435 c 0.225,-0.03 0.39,-0.09 0.51,-0.165 0.105,-0.09 0.195,-0.195 0.271,-0.33 0.075,-0.15 0.149,-0.315 0.21,-0.51 0.075,-0.21 0.165,-0.601 0.3,-1.186 l 1.485,-6.765 c 0.06,-0.255 0.104,-0.495 0.149,-0.72 0.03,-0.226 0.045,-0.465 0.045,-0.69 0,-0.285 -0.06,-0.465 -0.21,-0.585 -0.135,-0.104 -0.345,-0.165 -0.645,-0.18 z"
   clip-rule="evenodd"
   fill-rule="evenodd" />
<polygon
   id="polygon46"
   points="324.673,21.824 324.673,20.624 252.799,20.624 252.799,21.824 "
   clip-rule="evenodd"
   fill-rule="evenodd" />
<path
   id="path48"
   d="m 339.642,1.485 c -0.3,0 -0.63,0 -0.975,0.03 L 337.542,6.6 h 1.035 c 0.84,0 1.515,-0.105 2.01,-0.345 0.495,-0.225 0.885,-0.6 1.17,-1.125 0.285,-0.51 0.435,-1.08 0.435,-1.68 0,-0.255 -0.029,-0.48 -0.074,-0.675 -0.046,-0.195 -0.105,-0.36 -0.181,-0.48 -0.075,-0.135 -0.18,-0.255 -0.3,-0.345 -0.105,-0.105 -0.255,-0.195 -0.435,-0.27 -0.181,-0.06 -0.375,-0.12 -0.615,-0.15 -0.225,-0.03 -0.54,-0.045 -0.945,-0.045 z m -3.524,-0.78 h 3.915 c 0.63,0 1.124,0.045 1.515,0.105 0.405,0.075 0.734,0.195 1.02,0.33 0.271,0.15 0.51,0.345 0.69,0.57 0.194,0.24 0.33,0.495 0.42,0.78 0.104,0.3 0.149,0.6 0.149,0.93 0,0.9 -0.284,1.665 -0.824,2.31 -0.556,0.63 -1.365,1.11 -2.445,1.44 v 0.09 c 0.285,0.21 0.51,0.465 0.69,0.765 0.165,0.285 0.3,0.69 0.404,1.215 l 0.21,1.02 c 0.061,0.315 0.136,0.615 0.226,0.87 0.075,0.255 0.18,0.465 0.285,0.615 0.119,0.15 0.239,0.27 0.39,0.345 0.151,0.075 0.36,0.135 0.63,0.18 l -0.09,0.435 h -2.43 c -0.195,-0.525 -0.36,-1.14 -0.511,-1.86 L 339.988,8.97 c -0.075,-0.315 -0.15,-0.585 -0.24,-0.81 -0.09,-0.21 -0.195,-0.39 -0.33,-0.51 -0.12,-0.12 -0.271,-0.195 -0.435,-0.24 -0.165,-0.03 -0.375,-0.045 -0.615,-0.045 h -0.99 l -0.615,2.775 c -0.06,0.24 -0.09,0.42 -0.119,0.555 -0.016,0.135 -0.03,0.27 -0.046,0.42 -0.015,0.15 -0.029,0.285 -0.029,0.405 0,0.18 0.029,0.315 0.09,0.42 0.06,0.105 0.149,0.18 0.27,0.225 0.105,0.045 0.315,0.09 0.601,0.105 l -0.09,0.435 h -3.615 l 0.09,-0.435 c 0.226,-0.03 0.391,-0.09 0.51,-0.165 0.105,-0.09 0.195,-0.195 0.271,-0.33 0.09,-0.15 0.149,-0.315 0.21,-0.51 0.075,-0.21 0.165,-0.6 0.3,-1.185 l 1.485,-6.765 c 0.135,-0.585 0.194,-1.05 0.194,-1.38 0,-0.3 -0.06,-0.495 -0.194,-0.6 -0.136,-0.12 -0.36,-0.18 -0.66,-0.195 z"
   clip-rule="evenodd"
   fill-rule="evenodd" />
<path
   id="path50"
   d="m 348.296,8.7 c -0.3,0 -0.555,0.075 -0.75,0.24 -0.194,0.15 -0.359,0.39 -0.479,0.69 -0.12,0.3 -0.21,0.675 -0.255,1.11 -0.045,0.435 -0.075,0.93 -0.075,1.485 0,0.63 0.03,1.185 0.09,1.65 0.075,0.465 0.165,0.855 0.3,1.155 0.136,0.3 0.3,0.525 0.495,0.66 0.195,0.15 0.436,0.225 0.705,0.225 0.255,0 0.48,-0.075 0.675,-0.21 0.195,-0.135 0.36,-0.345 0.48,-0.615 0.135,-0.285 0.225,-0.645 0.284,-1.08 0.075,-0.42 0.105,-0.93 0.105,-1.53 0,-0.66 -0.045,-1.23 -0.105,-1.71 -0.074,-0.465 -0.18,-0.855 -0.3,-1.17 -0.135,-0.3 -0.3,-0.54 -0.495,-0.675 C 348.777,8.774 348.551,8.7 348.296,8.7 Z m 0.031,-0.631 c 0.51,0 0.945,0.105 1.305,0.3 0.375,0.18 0.66,0.465 0.9,0.81 0.225,0.36 0.39,0.795 0.495,1.305 0.12,0.51 0.165,1.08 0.165,1.725 0,1.44 -0.256,2.52 -0.766,3.255 -0.495,0.72 -1.229,1.095 -2.189,1.095 -0.96,0 -1.665,-0.345 -2.13,-1.035 -0.465,-0.69 -0.705,-1.74 -0.705,-3.15 0,-0.735 0.075,-1.365 0.225,-1.905 0.136,-0.54 0.346,-0.99 0.601,-1.335 0.255,-0.36 0.569,-0.63 0.93,-0.795 0.359,-0.179 0.749,-0.27 1.169,-0.27 z"
   clip-rule="evenodd"
   fill-rule="evenodd" />
<path
   id="path52"
   d="m 328.948,26.384 h 9.18 l -0.689,3.09 h -0.841 c 0,-0.57 -0.015,-0.99 -0.045,-1.275 -0.029,-0.285 -0.074,-0.495 -0.165,-0.645 -0.074,-0.15 -0.18,-0.256 -0.3,-0.315 -0.12,-0.045 -0.33,-0.075 -0.645,-0.075 h -1.29 l -1.905,8.655 c -0.06,0.239 -0.09,0.42 -0.12,0.555 -0.015,0.135 -0.029,0.27 -0.045,0.42 -0.015,0.15 -0.029,0.285 -0.029,0.405 0,0.18 0.029,0.314 0.09,0.42 0.06,0.104 0.149,0.18 0.27,0.225 0.105,0.045 0.315,0.09 0.601,0.105 l -0.091,0.435 h -3.704 l 0.09,-0.435 c 0.24,-0.03 0.42,-0.075 0.525,-0.136 0.104,-0.06 0.21,-0.149 0.3,-0.27 0.075,-0.135 0.165,-0.315 0.255,-0.585 0.075,-0.27 0.18,-0.66 0.3,-1.2 l 1.875,-8.595 h -1.11 c -0.359,0 -0.659,0.045 -0.869,0.15 -0.226,0.104 -0.436,0.3 -0.66,0.585 -0.21,0.3 -0.48,0.78 -0.78,1.455 h -0.854 z"
   clip-rule="evenodd"
   fill-rule="evenodd" />
<path
   id="path54"
   d="m 339.538,35.579 h 0.314 l -0.96,4.305 c -0.06,0.255 -0.104,0.45 -0.12,0.6 -0.029,0.15 -0.045,0.285 -0.045,0.405 0,0.165 0.045,0.285 0.105,0.36 0.075,0.075 0.165,0.104 0.3,0.104 0.075,0 0.15,-0.015 0.24,-0.045 0.075,-0.029 0.149,-0.075 0.24,-0.135 0.09,-0.075 0.18,-0.15 0.284,-0.255 0.105,-0.105 0.226,-0.226 0.36,-0.36 l 0.435,0.42 c -0.225,0.226 -0.42,0.42 -0.614,0.585 -0.181,0.15 -0.346,0.285 -0.511,0.375 -0.164,0.105 -0.329,0.165 -0.479,0.21 -0.165,0.045 -0.33,0.075 -0.495,0.075 -0.165,0 -0.314,-0.03 -0.45,-0.09 -0.135,-0.06 -0.239,-0.15 -0.329,-0.255 -0.105,-0.105 -0.181,-0.225 -0.226,-0.375 -0.06,-0.15 -0.075,-0.315 -0.075,-0.48 0,-0.149 0.016,-0.314 0.045,-0.54 0.03,-0.21 0.075,-0.435 0.136,-0.675 0.06,-0.255 0.12,-0.51 0.18,-0.779 0.06,-0.271 0.12,-0.54 0.195,-0.811 0.06,-0.27 0.104,-0.524 0.165,-0.765 0.045,-0.255 0.074,-0.48 0.104,-0.675 0,-0.03 0.015,-0.075 0.015,-0.105 0,-0.03 0,-0.06 0,-0.075 -0.015,-0.18 -0.074,-0.3 -0.18,-0.375 -0.104,-0.074 -0.3,-0.12 -0.585,-0.135 l 0.075,-0.435 z m 3.929,-0.061 c 0.314,0 0.555,0.105 0.734,0.315 0.181,0.21 0.256,0.48 0.256,0.825 0,0.09 0,0.18 -0.016,0.27 -0.015,0.09 -0.045,0.181 -0.075,0.271 l 0.091,0.029 c 0.404,-0.569 0.824,-1.005 1.229,-1.274 0.405,-0.285 0.825,-0.436 1.26,-0.436 0.45,0 0.795,0.12 1.02,0.375 0.226,0.24 0.346,0.585 0.346,1.021 0,0.135 -0.03,0.33 -0.061,0.555 -0.045,0.24 -0.09,0.495 -0.149,0.78 -0.061,0.285 -0.136,0.57 -0.195,0.854 -0.075,0.301 -0.135,0.57 -0.195,0.825 -0.06,0.24 -0.104,0.45 -0.149,0.63 -0.03,0.181 -0.061,0.285 -0.061,0.33 0,0.165 0.03,0.285 0.091,0.36 0.06,0.075 0.164,0.104 0.3,0.104 0.074,0 0.149,-0.015 0.239,-0.045 0.075,-0.029 0.165,-0.075 0.24,-0.135 0.09,-0.075 0.18,-0.15 0.285,-0.255 0.104,-0.105 0.225,-0.226 0.345,-0.36 l 0.45,0.42 c -0.21,0.21 -0.405,0.405 -0.585,0.556 -0.165,0.149 -0.345,0.284 -0.51,0.39 -0.165,0.09 -0.33,0.165 -0.495,0.225 -0.165,0.045 -0.33,0.075 -0.51,0.075 -0.165,0 -0.3,-0.03 -0.436,-0.09 -0.135,-0.06 -0.239,-0.15 -0.345,-0.255 -0.09,-0.105 -0.165,-0.225 -0.21,-0.375 -0.06,-0.135 -0.075,-0.3 -0.075,-0.465 0,-0.181 0.016,-0.375 0.045,-0.615 0.045,-0.225 0.091,-0.479 0.165,-0.75 0.075,-0.285 0.15,-0.555 0.226,-0.81 0.06,-0.255 0.12,-0.48 0.165,-0.705 0.06,-0.21 0.09,-0.405 0.119,-0.585 0.03,-0.165 0.046,-0.3 0.046,-0.42 0,-0.255 -0.061,-0.45 -0.15,-0.585 -0.105,-0.12 -0.271,-0.181 -0.495,-0.181 -0.12,0 -0.27,0.03 -0.42,0.09 -0.135,0.075 -0.285,0.165 -0.435,0.285 -0.15,0.12 -0.3,0.255 -0.45,0.42 -0.135,0.165 -0.271,0.33 -0.39,0.511 -0.12,0.18 -0.226,0.375 -0.315,0.569 -0.105,0.21 -0.165,0.405 -0.21,0.601 l -0.72,3.239 h -1.26 l 0.96,-4.199 c 0.06,-0.226 0.104,-0.42 0.12,-0.601 0.029,-0.18 0.045,-0.33 0.045,-0.435 0,-0.315 -0.136,-0.465 -0.391,-0.465 -0.075,0 -0.149,0.015 -0.225,0.045 -0.09,0.029 -0.165,0.075 -0.255,0.149 -0.09,0.061 -0.181,0.136 -0.285,0.24 -0.105,0.09 -0.225,0.21 -0.345,0.345 l -0.45,-0.42 c 0.21,-0.21 0.405,-0.404 0.585,-0.555 0.18,-0.165 0.359,-0.3 0.51,-0.39 0.165,-0.105 0.33,-0.181 0.48,-0.226 0.167,-0.042 0.332,-0.072 0.511,-0.072 z m 12.659,-2.43 c 0.239,0 0.449,0.016 0.63,0.045 0.18,0.016 0.345,0.045 0.524,0.075 l -0.27,1.2 h -0.646 c -0.029,-0.24 -0.09,-0.42 -0.21,-0.54 -0.12,-0.105 -0.27,-0.165 -0.465,-0.165 -0.225,0 -0.42,0.045 -0.569,0.15 -0.15,0.09 -0.285,0.239 -0.391,0.435 -0.12,0.195 -0.21,0.42 -0.3,0.69 -0.075,0.255 -0.135,0.479 -0.165,0.675 h 1.785 l -0.135,0.72 h -1.8 l -1.17,5.52 c -0.195,0.945 -0.525,1.635 -0.976,2.101 -0.449,0.449 -1.064,0.675 -1.814,0.675 -0.195,0 -0.345,-0.016 -0.436,-0.045 0.03,-0.105 0.045,-0.21 0.075,-0.33 0.016,-0.105 0.045,-0.226 0.075,-0.33 0.03,0.015 0.06,0.015 0.105,0.015 0.045,0 0.119,0 0.21,0 0.165,0 0.314,-0.029 0.449,-0.075 0.15,-0.06 0.271,-0.149 0.391,-0.3 0.12,-0.135 0.225,-0.33 0.314,-0.569 0.105,-0.24 0.195,-0.556 0.271,-0.945 l 1.289,-5.715 h -1.109 l 0.12,-0.495 c 0.24,-0.015 0.42,-0.03 0.569,-0.045 0.136,-0.015 0.256,-0.06 0.346,-0.12 0.104,-0.06 0.18,-0.149 0.225,-0.285 0.24,-0.795 0.615,-1.38 1.125,-1.755 0.498,-0.391 1.159,-0.587 1.953,-0.587 z m -16.963,-0.104 h 1.29 l -0.315,1.395 h -1.274 z"
   clip-rule="evenodd"
   fill-rule="evenodd" />
<polygon
   id="polygon56"
   points="358.631,21.824 358.631,20.624 327.673,20.624 327.673,21.824 "
   clip-rule="evenodd"
   fill-rule="evenodd" />
<path
   id="path58"
   d="m 364.436,14.384 h 3.524 l -0.105,0.435 c -0.225,0.045 -0.375,0.09 -0.479,0.15 -0.09,0.06 -0.18,0.15 -0.255,0.27 -0.075,0.12 -0.15,0.3 -0.24,0.555 -0.075,0.24 -0.18,0.645 -0.3,1.215 l -1.5,6.81 c -0.09,0.345 -0.135,0.63 -0.15,0.825 -0.029,0.21 -0.045,0.39 -0.045,0.555 0,0.255 0.075,0.45 0.195,0.555 0.135,0.105 0.359,0.181 0.675,0.195 l -0.104,0.436 h -3.51 l 0.09,-0.436 c 0.225,-0.03 0.39,-0.09 0.51,-0.165 0.104,-0.09 0.195,-0.194 0.27,-0.33 0.091,-0.149 0.15,-0.314 0.21,-0.51 0.075,-0.21 0.165,-0.6 0.301,-1.185 l 1.484,-6.765 c 0.135,-0.585 0.195,-1.05 0.195,-1.41 0,-0.285 -0.061,-0.465 -0.195,-0.585 -0.149,-0.105 -0.36,-0.165 -0.66,-0.18 z"
   clip-rule="evenodd"
   fill-rule="evenodd" />
<polygon
   id="polygon60"
   points="389.139,21.824 389.139,20.654 378.309,20.654 378.309,21.824 "
   clip-rule="evenodd"
   fill-rule="evenodd" />
<path
   id="path62"
   d="m 406.192,0.705 h 8.085 l -0.6,2.7 h -0.841 c -0.029,-0.51 -0.074,-0.9 -0.135,-1.155 -0.06,-0.255 -0.149,-0.435 -0.24,-0.525 -0.09,-0.105 -0.194,-0.165 -0.314,-0.195 -0.135,-0.03 -0.315,-0.045 -0.54,-0.045 h -2.864 l -1.006,4.604 h 1.681 c 0.42,0 0.734,-0.105 0.944,-0.3 0.226,-0.195 0.45,-0.525 0.675,-0.975 h 0.795 l -0.795,3.375 h -0.749 c 0,-0.465 -0.03,-0.78 -0.075,-0.945 -0.061,-0.165 -0.15,-0.27 -0.271,-0.315 -0.104,-0.045 -0.314,-0.075 -0.615,-0.075 h -1.754 l -1.125,5.07 h 2.595 c 0.345,0 0.63,-0.03 0.824,-0.105 0.195,-0.06 0.391,-0.18 0.57,-0.345 0.18,-0.15 0.36,-0.375 0.54,-0.66 0.18,-0.285 0.39,-0.66 0.63,-1.155 h 0.854 l -0.765,3.045 h -7.799 l 0.09,-0.435 c 0.225,-0.03 0.39,-0.09 0.51,-0.165 0.104,-0.09 0.195,-0.195 0.27,-0.33 0.091,-0.15 0.15,-0.315 0.21,-0.51 0.075,-0.21 0.165,-0.6 0.301,-1.185 l 1.484,-6.765 c 0.135,-0.585 0.195,-1.05 0.195,-1.41 0,-0.285 -0.061,-0.465 -0.195,-0.585 -0.149,-0.105 -0.359,-0.165 -0.66,-0.18 z"
   clip-rule="evenodd"
   fill-rule="evenodd" />
<path
   id="path64"
   d="m 395.784,26.384 h 9.179 l -0.689,3.09 h -0.841 c 0,-0.57 -0.015,-0.99 -0.045,-1.275 -0.029,-0.285 -0.074,-0.495 -0.164,-0.645 -0.075,-0.15 -0.181,-0.256 -0.301,-0.315 -0.12,-0.045 -0.33,-0.075 -0.645,-0.075 h -1.29 l -1.905,8.655 c -0.06,0.239 -0.09,0.42 -0.119,0.555 -0.016,0.135 -0.03,0.27 -0.045,0.42 -0.016,0.15 -0.03,0.285 -0.03,0.405 0,0.18 0.03,0.314 0.09,0.42 0.06,0.104 0.149,0.18 0.27,0.225 0.105,0.045 0.315,0.09 0.601,0.105 l -0.09,0.435 h -3.705 l 0.09,-0.435 c 0.24,-0.03 0.42,-0.075 0.525,-0.136 0.104,-0.06 0.21,-0.149 0.3,-0.27 0.075,-0.135 0.165,-0.315 0.255,-0.585 0.075,-0.27 0.18,-0.66 0.3,-1.2 l 1.875,-8.595 h -1.11 c -0.359,0 -0.659,0.045 -0.869,0.15 -0.226,0.104 -0.436,0.3 -0.66,0.585 -0.21,0.3 -0.48,0.78 -0.78,1.455 h -0.854 z"
   clip-rule="evenodd"
   fill-rule="evenodd" />
<path
   id="path66"
   d="m 406.373,35.579 h 0.314 l -0.96,4.305 c -0.06,0.255 -0.104,0.45 -0.119,0.6 -0.03,0.15 -0.046,0.285 -0.046,0.405 0,0.165 0.046,0.285 0.105,0.36 0.075,0.075 0.165,0.104 0.3,0.104 0.075,0 0.15,-0.015 0.24,-0.045 0.075,-0.029 0.15,-0.075 0.24,-0.135 0.09,-0.075 0.18,-0.15 0.284,-0.255 0.105,-0.105 0.226,-0.226 0.36,-0.36 l 0.435,0.42 c -0.225,0.226 -0.42,0.42 -0.614,0.585 -0.181,0.15 -0.346,0.285 -0.51,0.375 -0.165,0.105 -0.33,0.165 -0.48,0.21 -0.165,0.045 -0.33,0.075 -0.495,0.075 -0.165,0 -0.314,-0.03 -0.45,-0.09 -0.135,-0.06 -0.239,-0.15 -0.329,-0.255 -0.105,-0.105 -0.181,-0.225 -0.226,-0.375 -0.06,-0.15 -0.075,-0.315 -0.075,-0.48 0,-0.149 0.016,-0.314 0.045,-0.54 0.03,-0.21 0.075,-0.435 0.136,-0.675 0.06,-0.255 0.12,-0.51 0.18,-0.779 0.06,-0.271 0.12,-0.54 0.195,-0.811 0.06,-0.27 0.104,-0.524 0.165,-0.765 0.045,-0.255 0.074,-0.48 0.104,-0.675 0,-0.03 0.016,-0.075 0.016,-0.105 0,-0.03 0,-0.06 0,-0.075 -0.016,-0.18 -0.075,-0.3 -0.181,-0.375 -0.104,-0.074 -0.3,-0.12 -0.585,-0.135 l 0.075,-0.435 z m 14.863,-0.061 c 0.315,0 0.615,0.016 0.886,0.061 0.27,0.03 0.54,0.075 0.824,0.149 l -0.359,1.591 h -0.75 c -0.016,-0.226 -0.03,-0.42 -0.061,-0.57 -0.029,-0.135 -0.074,-0.255 -0.135,-0.345 -0.06,-0.09 -0.135,-0.15 -0.24,-0.181 -0.104,-0.045 -0.225,-0.06 -0.375,-0.06 -0.225,0 -0.449,0.045 -0.659,0.15 -0.21,0.104 -0.42,0.239 -0.601,0.435 -0.18,0.18 -0.345,0.39 -0.495,0.63 -0.149,0.255 -0.284,0.51 -0.39,0.795 -0.104,0.285 -0.195,0.585 -0.24,0.885 -0.06,0.315 -0.09,0.615 -0.09,0.931 0,0.449 0.09,0.795 0.271,1.034 0.18,0.24 0.449,0.36 0.81,0.36 0.195,0 0.39,-0.015 0.555,-0.06 0.181,-0.03 0.346,-0.091 0.511,-0.181 0.165,-0.09 0.329,-0.194 0.51,-0.345 0.165,-0.135 0.359,-0.315 0.569,-0.51 0.09,0.075 0.165,0.165 0.24,0.255 0.075,0.075 0.15,0.165 0.225,0.255 -0.449,0.48 -0.914,0.84 -1.379,1.065 -0.466,0.239 -0.976,0.359 -1.5,0.359 -0.66,0 -1.17,-0.195 -1.53,-0.585 -0.36,-0.39 -0.54,-0.945 -0.54,-1.665 0,-0.404 0.045,-0.795 0.135,-1.17 0.09,-0.375 0.226,-0.734 0.391,-1.064 0.18,-0.33 0.375,-0.63 0.614,-0.9 0.24,-0.27 0.495,-0.51 0.795,-0.705 0.285,-0.194 0.601,-0.345 0.945,-0.45 0.343,-0.103 0.689,-0.164 1.063,-0.164 z m -10.934,0 c 0.314,0 0.555,0.105 0.734,0.315 0.181,0.21 0.256,0.48 0.256,0.825 0,0.09 0,0.18 -0.016,0.27 -0.015,0.09 -0.045,0.181 -0.075,0.271 l 0.091,0.029 c 0.404,-0.569 0.824,-1.005 1.229,-1.274 0.405,-0.285 0.825,-0.436 1.26,-0.436 0.45,0 0.795,0.12 1.02,0.375 0.226,0.24 0.346,0.585 0.346,1.021 0,0.135 -0.03,0.33 -0.061,0.555 -0.045,0.24 -0.09,0.495 -0.149,0.78 -0.061,0.285 -0.136,0.57 -0.195,0.854 -0.075,0.301 -0.135,0.57 -0.195,0.825 -0.06,0.24 -0.104,0.45 -0.149,0.63 -0.03,0.181 -0.061,0.285 -0.061,0.33 0,0.165 0.03,0.285 0.091,0.36 0.06,0.075 0.165,0.104 0.3,0.104 0.074,0 0.149,-0.015 0.239,-0.045 0.075,-0.029 0.165,-0.075 0.24,-0.135 0.09,-0.075 0.181,-0.15 0.285,-0.255 0.104,-0.105 0.225,-0.226 0.345,-0.36 l 0.45,0.42 c -0.21,0.21 -0.405,0.405 -0.585,0.556 -0.165,0.149 -0.345,0.284 -0.51,0.39 -0.165,0.09 -0.33,0.165 -0.495,0.225 -0.165,0.045 -0.33,0.075 -0.51,0.075 -0.165,0 -0.3,-0.03 -0.436,-0.09 -0.135,-0.06 -0.239,-0.15 -0.345,-0.255 -0.09,-0.105 -0.165,-0.225 -0.21,-0.375 -0.06,-0.135 -0.075,-0.3 -0.075,-0.465 0,-0.181 0.016,-0.375 0.045,-0.615 0.045,-0.225 0.091,-0.479 0.165,-0.75 0.075,-0.285 0.15,-0.555 0.226,-0.81 0.06,-0.255 0.12,-0.48 0.165,-0.705 0.06,-0.21 0.09,-0.405 0.12,-0.585 0.029,-0.165 0.045,-0.3 0.045,-0.42 0,-0.255 -0.061,-0.45 -0.15,-0.585 -0.105,-0.12 -0.27,-0.181 -0.495,-0.181 -0.12,0 -0.27,0.03 -0.42,0.09 -0.135,0.075 -0.285,0.165 -0.435,0.285 -0.15,0.12 -0.3,0.255 -0.45,0.42 -0.135,0.165 -0.271,0.33 -0.39,0.511 -0.12,0.18 -0.226,0.375 -0.315,0.569 -0.104,0.21 -0.165,0.405 -0.21,0.601 l -0.72,3.239 h -1.26 l 0.96,-4.199 c 0.06,-0.226 0.104,-0.42 0.12,-0.601 0.029,-0.18 0.045,-0.33 0.045,-0.435 0,-0.315 -0.136,-0.465 -0.391,-0.465 -0.075,0 -0.149,0.015 -0.225,0.045 -0.09,0.029 -0.165,0.075 -0.255,0.149 -0.09,0.061 -0.18,0.136 -0.285,0.24 -0.105,0.09 -0.225,0.21 -0.345,0.345 l -0.45,-0.42 c 0.21,-0.21 0.405,-0.404 0.585,-0.555 0.18,-0.165 0.36,-0.3 0.51,-0.39 0.165,-0.105 0.33,-0.181 0.48,-0.226 0.167,-0.042 0.332,-0.072 0.511,-0.072 z m -4.304,-2.534 h 1.29 l -0.315,1.395 h -1.274 z"
   clip-rule="evenodd"
   fill-rule="evenodd" />
<polygon
   id="polygon68"
   points="424.266,21.824 424.266,20.624 394.508,20.624 394.508,21.824 "
   clip-rule="evenodd"
   fill-rule="evenodd" />
</svg>
