<?xml version="1.0" encoding="UTF-8" standalone="no"?>
<svg
   xmlns:dc="http://purl.org/dc/elements/1.1/"
   xmlns:cc="http://creativecommons.org/ns#"
   xmlns:rdf="http://www.w3.org/1999/02/22-rdf-syntax-ns#"
   xmlns:svg="http://www.w3.org/2000/svg"
   xmlns="http://www.w3.org/2000/svg"
   xmlns:sodipodi="http://sodipodi.sourceforge.net/DTD/sodipodi-0.dtd"
   xmlns:inkscape="http://www.inkscape.org/namespaces/inkscape"
   sodipodi:docname="SEIR delta Exposed.svg"
   inkscape:version="1.0 (4035a4fb49, 2020-05-01)"
   id="svg8"
   version="1.1"
   viewBox="0 0 50.828232 21.934752"
   height="21.934752mm"
   width="50.828232mm">
  <defs
     id="defs2">
    <clipPath
       id="clip0">
      <rect
         x="104"
         y="677"
         width="204"
         height="89"
         id="rect833" />
    </clipPath>
  </defs>
  <sodipodi:namedview
     inkscape:window-maximized="0"
     inkscape:window-y="310"
     inkscape:window-x="897"
     inkscape:window-height="1228"
     inkscape:window-width="1481"
     fit-margin-bottom="0"
     fit-margin-right="0"
     fit-margin-left="0"
     fit-margin-top="0"
     showgrid="false"
     inkscape:document-rotation="0"
     inkscape:current-layer="layer1"
     inkscape:document-units="mm"
     inkscape:cy="-316.39474"
     inkscape:cx="282.61906"
     inkscape:zoom="1.979899"
     inkscape:pageshadow="2"
     inkscape:pageopacity="0.0"
     borderopacity="1.0"
     bordercolor="#666666"
     pagecolor="#ffffff"
     id="base" />
  <metadata
     id="metadata5">
    <rdf:RDF>
      <cc:Work
         rdf:about="">
        <dc:format>image/svg+xml</dc:format>
        <dc:type
           rdf:resource="http://purl.org/dc/dcmitype/StillImage" />
        <dc:title></dc:title>
      </cc:Work>
    </rdf:RDF>
  </metadata>
  <g
     transform="translate(-73.615647,-103.18143)"
     id="layer1"
     inkscape:groupmode="layer"
     inkscape:label="Ebene 1">
    <path
       style="stroke-width:0.264583"
       id="path838"
       fill-rule="evenodd"
       d="m 76.216952,111.34488 -1.771915,4.65085 h 3.236912 z m -0.162719,-1.0279 h 0.688446 l 1.962679,6.1251 v 0.29766 h -5.08344 v -0.29766 z" />
    <text
       style="stroke-width:0.264583"
       id="text840"
       y="115.93699"
       x="73.621918"
       font-size="6.42287px"
       font-family="Arial, Arial_MSFontService, sans-serif"
       fill-opacity="0"
       fill="#000000">Î”</text>
    <path
       style="stroke-width:0.264583"
       id="path842"
       fill-rule="evenodd"
       d="m 79.635897,110.39133 h 4.348692 v 1.40467 h -0.455877 c -0.04657,-0.15187 -0.09446,-0.28522 -0.144198,-0.40005 -0.04948,-0.11457 -0.100806,-0.21087 -0.153458,-0.2884 -0.05265,-0.0775 -0.110861,-0.13943 -0.174361,-0.186 -0.0635,-0.0466 -0.138906,-0.0783 -0.225689,-0.0952 -0.08678,-0.0172 -0.1905,-0.0257 -0.311415,-0.0257 h -1.46976 v 2.43707 h 0.995362 c 0.136261,0 0.243417,-0.0193 0.32094,-0.0582 0.07752,-0.0386 0.141816,-0.10451 0.192881,-0.19764 0.05106,-0.0929 0.100012,-0.23865 0.146579,-0.43709 h 0.437092 v 1.78594 h -0.437092 c -0.04339,-0.18601 -0.09155,-0.32623 -0.144198,-0.42096 -0.05265,-0.0945 -0.115623,-0.16192 -0.188383,-0.20214 -0.07276,-0.0405 -0.182298,-0.0606 -0.327819,-0.0606 h -0.995362 v 2.68367 h 1.446477 c 0.151871,0 0.275166,-0.0132 0.369623,-0.0397 0.09472,-0.0262 0.175948,-0.0712 0.24421,-0.13493 0.06826,-0.0635 0.128588,-0.14632 0.181504,-0.24871 0.05265,-0.1024 0.09684,-0.20849 0.132556,-0.31856 0.03545,-0.11007 0.0844,-0.27067 0.146315,-0.48128 h 0.46064 l -0.08837,1.63222 h -4.306888 v -0.22781 c 0.192352,-0.0495 0.32094,-0.10451 0.386027,-0.1651 0.06509,-0.0603 0.107686,-0.14658 0.128059,-0.25797 0.02011,-0.11165 0.03016,-0.28231 0.03016,-0.5117 v -4.02299 c 0,-0.21405 -0.0077,-0.36989 -0.02328,-0.46752 -0.01561,-0.0976 -0.04101,-0.17357 -0.07673,-0.22781 -0.03572,-0.0542 -0.08308,-0.0976 -0.141817,-0.13017 -0.059,-0.0325 -0.159808,-0.0691 -0.302419,-0.10927 z" />
    <text
       style="stroke-width:0.264583"
       id="text844"
       y="115.94626"
       x="79.635895"
       font-size="6.34844px"
       font-family="Arial, Arial_MSFontService, sans-serif"
       fill-opacity="0"
       fill="#000000">E</text>
    <path
       style="stroke-width:0.264583"
       id="path846"
       fill-rule="evenodd"
       d="m 89.158251,110.53314 c 0.02805,-0.005 0.05292,-0.003 0.07461,0.005 0.0217,0.008 0.0418,0.0209 0.06032,0.0394 l 3.05091,3.04641 c 0.03731,0.0402 0.06747,0.0799 0.09075,0.11853 0.02328,0.0389 0.03493,0.0923 0.03493,0.16061 0,0.0526 -0.0093,0.10001 -0.02778,0.14181 -0.01879,0.0418 -0.05133,0.0876 -0.0979,0.13706 l -3.05091,3.04641 c -0.01852,0.0185 -0.03863,0.0318 -0.06032,0.0397 -0.0217,0.008 -0.04657,0.009 -0.07461,0.004 -0.02778,-0.004 -0.06112,-0.0201 -0.09975,-0.0466 -0.03889,-0.0262 -0.08308,-0.0643 -0.132556,-0.11377 -0.05292,-0.0529 -0.09393,-0.0984 -0.123296,-0.13732 -0.02963,-0.0386 -0.04815,-0.0736 -0.05583,-0.10451 -0.0079,-0.0312 -0.0071,-0.0582 0.0024,-0.0815 0.0093,-0.0233 0.02461,-0.0458 0.0463,-0.0675 0.437356,-0.43709 0.869685,-0.86122 1.297781,-1.27186 0.427831,-0.41089 0.847989,-0.81015 1.26021,-1.19776 h -5.939102 c -0.0217,0 -0.0418,-0.006 -0.06032,-0.0185 -0.01879,-0.0124 -0.03493,-0.0318 -0.04895,-0.0582 -0.01402,-0.0262 -0.02487,-0.0619 -0.03254,-0.10689 -0.0077,-0.045 -0.01164,-0.10002 -0.01164,-0.1651 0,-0.0651 0.004,-0.12013 0.01164,-0.1651 0.0077,-0.045 0.01852,-0.0807 0.03254,-0.10716 0.01402,-0.0262 0.03016,-0.0455 0.04895,-0.0579 0.01852,-0.0124 0.03863,-0.0188 0.06032,-0.0188 h 5.939102 c -0.412221,-0.38735 -0.832379,-0.78661 -1.26021,-1.1975 -0.428096,-0.4109 -0.860425,-0.83318 -1.297781,-1.26736 -0.0217,-0.0217 -0.03704,-0.045 -0.0463,-0.0698 -0.0095,-0.0246 -0.01032,-0.0526 -0.0024,-0.0836 0.0077,-0.031 0.02619,-0.0659 0.05583,-0.10477 0.02937,-0.0386 0.07038,-0.0844 0.123296,-0.13706 0.04948,-0.0497 0.09366,-0.0876 0.132556,-0.11403 0.03863,-0.0262 0.07197,-0.0418 0.09975,-0.0466 z" />
    <text
       style="stroke-width:0.264583"
       id="text848"
       y="116.43203"
       x="85.260941"
       font-size="6.74436px"
       font-family="Arial, Arial_MSFontService, sans-serif"
       fill-opacity="0"
       fill="#000000">â†’</text>
    <path
       style="stroke-width:0.264583"
       id="path850"
       fill-rule="evenodd"
       d="m 93.72496,110.39133 h 1.962679 v 0.22807 c -0.136261,0.0341 -0.23495,0.068 -0.295275,0.10213 -0.06059,0.0341 -0.108479,0.0767 -0.144198,0.12805 -0.03572,0.0511 -0.06191,0.1278 -0.07911,0.23019 -0.01693,0.10239 -0.0254,0.26035 -0.0254,0.4744 v 4.02299 c 0,0.2077 0.0069,0.35957 0.0209,0.45588 0.01376,0.096 0.03704,0.17197 0.06959,0.2278 0.03254,0.0558 0.0807,0.1024 0.144198,0.13944 0.0635,0.0373 0.166687,0.0746 0.309298,0.11165 v 0.22781 H 93.72496 v -0.22781 c 0.192352,-0.0495 0.320939,-0.10451 0.386027,-0.1651 0.06509,-0.0603 0.107685,-0.14658 0.128058,-0.25797 0.02011,-0.11165 0.03016,-0.28231 0.03016,-0.5117 v -4.02299 c 0,-0.21405 -0.0077,-0.36989 -0.02328,-0.46752 -0.01561,-0.0976 -0.04101,-0.17357 -0.07673,-0.22781 -0.03572,-0.0542 -0.08308,-0.0976 -0.141817,-0.13017 -0.059,-0.0325 -0.159808,-0.0691 -0.302418,-0.10927 z" />
    <text
       style="stroke-width:0.264583"
       id="text852"
       y="115.94626"
       x="93.72496"
       font-size="6.34844px"
       font-family="Arial, Arial_MSFontService, sans-serif"
       fill-opacity="0"
       fill="#000000">I</text>
    <path
       style="stroke-width:0.264583"
       id="path854"
       fill-rule="evenodd"
       d="m 99.609822,114.67493 h 5.730078 v 0.6186 h -5.730078 z m 0,-1.93014 h 5.730078 v 0.6186 h -5.730078 z" />
    <text
       style="stroke-width:0.264583"
       id="text856"
       y="114.97497"
       x="99.609825"
       font-size="2.54868px"
       font-family="Arial, Arial_MSFontService, sans-serif"
       fill-opacity="0"
       fill="#000000">=</text>
    <path
       style="stroke-width:0.264583"
       id="path858"
       fill-rule="evenodd"
       d="m 114.89189,103.18143 h 4.27884 l -0.32094,1.42796 h -0.44661 c -0.0124,-0.26988 -0.0357,-0.47281 -0.0699,-0.60934 -0.0339,-0.13652 -0.0752,-0.23019 -0.12304,-0.28125 -0.0482,-0.0513 -0.10556,-0.0855 -0.17224,-0.1024 -0.0667,-0.0172 -0.16192,-0.0257 -0.28601,-0.0257 h -1.51607 l -0.53022,2.43708 h 0.88821 c 0.22013,0 0.3884,-0.0519 0.50456,-0.15584 0.11641,-0.10372 0.23336,-0.27517 0.35136,-0.51382 h 0.42307 l -0.41857,1.78593 h -0.39529 c 0,-0.24818 -0.0156,-0.41619 -0.0466,-0.50456 -0.031,-0.0884 -0.0767,-0.14419 -0.13706,-0.16748 -0.0606,-0.0233 -0.16986,-0.0349 -0.32808,-0.0349 h -0.93001 l -0.59531,2.68367 h 1.37662 c 0.18283,0 0.32782,-0.0188 0.43498,-0.0558 0.10689,-0.0373 0.2077,-0.0976 0.30215,-0.18151 0.0947,-0.0836 0.18918,-0.20081 0.28364,-0.3511 0.0947,-0.15028 0.20716,-0.35427 0.33734,-0.61171 h 0.45111 l -0.40931,1.60919 h -4.12538 l 0.0513,-0.2278 c 0.11774,-0.0185 0.20611,-0.0487 0.26485,-0.0908 0.059,-0.0418 0.10874,-0.10001 0.14896,-0.17436 0.0402,-0.0743 0.0775,-0.1651 0.11165,-0.27199 0.0341,-0.10689 0.0852,-0.31406 0.15346,-0.62098 l 0.79057,-3.58113 c 0.0683,-0.31009 0.1024,-0.55959 0.1024,-0.74877 0,-0.14579 -0.0365,-0.24739 -0.10927,-0.30454 -0.073,-0.0574 -0.18839,-0.0907 -0.34661,-0.10001 z" />
    <text
       style="stroke-width:0.264583"
       id="text860"
       y="108.73636"
       x="113.67322"
       font-size="6.34844px"
       font-family="Arial, Arial_MSFontService, sans-serif"
       fill-opacity="0"
       fill="#000000">ğ¸</text>
    <path
       style="stroke-width:0.264583"
       id="path862"
       fill-rule="evenodd"
       d="m 109.38088,116.76249 h 4.85564 l -0.36275,1.63724 h -0.44661 c 0,-0.30083 -0.008,-0.52625 -0.0233,-0.6768 -0.0153,-0.15028 -0.045,-0.26511 -0.0884,-0.34422 -0.0434,-0.0789 -0.0968,-0.13309 -0.16033,-0.16272 -0.0638,-0.0294 -0.17595,-0.0442 -0.33735,-0.0442 h -0.68818 l -1.00938,4.58576 c -0.0278,0.12092 -0.0471,0.21722 -0.058,0.2884 -0.0108,0.0714 -0.0204,0.14658 -0.028,0.22569 -0.008,0.0788 -0.0117,0.14949 -0.0117,0.2114 0,0.0963 0.0156,0.17145 0.0466,0.22569 0.031,0.0542 0.0775,0.0937 0.13944,0.11853 0.0622,0.0249 0.16906,0.0434 0.32094,0.0558 l -0.0511,0.2278 h -1.95818 l 0.0513,-0.2278 c 0.12409,-0.0185 0.21537,-0.0434 0.27437,-0.0743 0.059,-0.031 0.11086,-0.0791 0.15584,-0.1442 0.045,-0.0651 0.09,-0.16748 0.13494,-0.30691 0.0447,-0.1397 0.0984,-0.35031 0.16034,-0.63262 l 0.99536,-4.55322 h -0.59082 c -0.19208,0 -0.34554,0.028 -0.46037,0.0839 -0.11483,0.0558 -0.22939,0.15954 -0.34422,0.31141 -0.11457,0.15214 -0.25427,0.4064 -0.41857,0.76279 h -0.44636 z" />
    <text
       style="stroke-width:0.264583"
       id="text864"
       y="122.31743"
       x="109.03217"
       font-size="6.34844px"
       font-family="Arial, Arial_MSFontService, sans-serif"
       fill-opacity="0"
       fill="#000000">ğ‘‡</text>
    <path
       style="stroke-width:0.264583"
       id="path866"
       fill-rule="evenodd"
       d="m 114.98344,121.65966 h 0.16457 l -0.49715,2.23732 c -0.0312,0.13203 -0.0532,0.23733 -0.0654,0.31565 -0.0124,0.0783 -0.0185,0.14896 -0.0185,0.21167 0,0.0849 0.0172,0.14658 0.0521,0.18468 0.0347,0.0381 0.0868,0.0571 0.1561,0.0571 0.0402,0 0.0807,-0.008 0.12091,-0.0236 0.0402,-0.0156 0.0834,-0.0402 0.12939,-0.0738 0.0458,-0.0336 0.0963,-0.0767 0.15107,-0.12938 0.0548,-0.0526 0.11589,-0.11589 0.18309,-0.18971 l 0.22834,0.22146 c -0.11642,0.1188 -0.22225,0.21907 -0.3175,0.30083 -0.095,0.0817 -0.18521,0.14817 -0.2704,0.19976 -0.0849,0.0516 -0.16828,0.0884 -0.25004,0.11086 -0.0817,0.0225 -0.16854,0.0336 -0.26035,0.0336 -0.0852,0 -0.16192,-0.0156 -0.23018,-0.0471 -0.0683,-0.0312 -0.127,-0.0744 -0.17622,-0.12939 -0.0495,-0.0548 -0.0873,-0.12012 -0.1143,-0.19632 -0.027,-0.0762 -0.0402,-0.16007 -0.0402,-0.25188 0,-0.0741 0.009,-0.16589 0.0267,-0.27543 0.018,-0.1098 0.041,-0.22913 0.0688,-0.35772 0.028,-0.12885 0.059,-0.26379 0.0926,-0.40481 0.0336,-0.14102 0.0664,-0.28099 0.099,-0.41989 0.0325,-0.13891 0.0617,-0.27279 0.0873,-0.40138 0.0259,-0.12885 0.0442,-0.24579 0.0556,-0.3511 0.004,-0.018 0.007,-0.0352 0.007,-0.0521 0,-0.0167 0,-0.0318 0,-0.0452 -0.004,-0.0873 -0.0352,-0.15107 -0.0923,-0.19155 -0.0572,-0.0402 -0.15849,-0.0627 -0.30401,-0.0672 l 0.0402,-0.22833 z m 7.75255,-0.0333 c 0.16352,0 0.31512,0.009 0.45509,0.0267 0.13996,0.018 0.28495,0.046 0.43497,0.0839 l -0.18812,0.82312 h -0.39634 c -0.002,-0.11641 -0.0106,-0.21325 -0.0251,-0.29051 -0.0145,-0.0773 -0.0381,-0.13838 -0.0706,-0.18309 -0.0323,-0.0447 -0.0749,-0.0767 -0.12753,-0.0958 -0.0526,-0.0191 -0.11695,-0.0296 -0.19315,-0.032 -0.12091,0 -0.2368,0.027 -0.34766,0.0807 -0.11086,0.0537 -0.21378,0.12832 -0.30903,0.22331 -0.0953,0.0953 -0.18204,0.20664 -0.26035,0.33417 -0.0783,0.12779 -0.14552,0.26538 -0.20162,0.41328 -0.0558,0.1479 -0.0989,0.30162 -0.12911,0.46196 -0.0304,0.16007 -0.0455,0.31962 -0.0455,0.47863 0,0.23733 0.0471,0.41804 0.14102,0.5424 0.0942,0.12435 0.23522,0.18653 0.42334,0.18653 0.1053,0 0.20267,-0.01 0.2921,-0.0286 0.0897,-0.019 0.177,-0.0511 0.2622,-0.0958 0.0849,-0.0447 0.17277,-0.10371 0.26352,-0.17647 0.0907,-0.0728 0.19103,-0.16272 0.30057,-0.27041 0.0426,0.045 0.0836,0.0892 0.12277,0.13282 0.0391,0.0437 0.0799,0.0878 0.1225,0.13256 -0.24183,0.25083 -0.48366,0.43736 -0.72549,0.55933 -0.24183,0.12197 -0.50165,0.18309 -0.7792,0.18309 -0.34713,0 -0.61304,-0.10133 -0.79772,-0.304 -0.18494,-0.20268 -0.27728,-0.49213 -0.27728,-0.86837 0,-0.21034 0.0236,-0.41354 0.0706,-0.6096 0.0471,-0.19579 0.11483,-0.3802 0.2032,-0.55245 0.0884,-0.17251 0.19421,-0.32914 0.3175,-0.47043 0.12304,-0.14102 0.26088,-0.26246 0.41302,-0.36433 0.1524,-0.10186 0.31697,-0.18071 0.49371,-0.2368 0.17701,-0.0561 0.36274,-0.0839 0.55774,-0.0839 z m -5.76103,0 c 0.16589,0 0.29395,0.0542 0.3847,0.16272 0.0907,0.10874 0.136,0.25135 0.136,0.42836 0,0.0447 -0.004,0.0918 -0.0117,0.14102 -0.008,0.0492 -0.022,0.0963 -0.0421,0.14102 l 0.0471,0.0169 c 0.21722,-0.29793 0.43154,-0.5207 0.6432,-0.66861 0.21167,-0.14763 0.43048,-0.22145 0.6567,-0.22145 0.23733,0 0.41487,0.0638 0.53234,0.19129 0.11748,0.12779 0.17648,0.30692 0.17648,0.53737 0,0.0696 -0.0103,0.16589 -0.0304,0.28892 -0.0201,0.1233 -0.0458,0.25771 -0.0773,0.40323 -0.0312,0.14552 -0.0648,0.29501 -0.1008,0.4482 -0.0357,0.15346 -0.0693,0.29528 -0.10055,0.42492 -0.0315,0.12992 -0.0572,0.24078 -0.0773,0.33259 -0.0204,0.0918 -0.0304,0.14896 -0.0304,0.17145 0,0.0849 0.0159,0.14658 0.0471,0.18468 0.0315,0.0381 0.0818,0.0571 0.15108,0.0571 0.0426,0 0.0847,-0.008 0.12594,-0.0236 0.0415,-0.0156 0.0847,-0.0402 0.12938,-0.0738 0.0447,-0.0336 0.0942,-0.0767 0.14791,-0.12938 0.0537,-0.0526 0.11403,-0.11589 0.18124,-0.18971 l 0.23177,0.22146 c -0.10954,0.11218 -0.21034,0.20849 -0.30215,0.28892 -0.0918,0.0807 -0.18098,0.14738 -0.26723,0.20003 -0.086,0.0526 -0.17172,0.0918 -0.25691,0.11747 -0.0849,0.0257 -0.17569,0.0386 -0.27199,0.0386 -0.0807,0 -0.15505,-0.0156 -0.22331,-0.0471 -0.0683,-0.0312 -0.12727,-0.0744 -0.17648,-0.12939 -0.0492,-0.0548 -0.0873,-0.11959 -0.11404,-0.19473 -0.027,-0.0749 -0.0405,-0.15716 -0.0405,-0.24686 0,-0.0897 0.01,-0.1942 0.0286,-0.31406 0.019,-0.11985 0.0476,-0.25135 0.0857,-0.39475 0.0402,-0.14552 0.0778,-0.28496 0.11245,-0.41805 0.0347,-0.13335 0.0651,-0.25638 0.0907,-0.36962 0.0257,-0.11298 0.0458,-0.21378 0.0603,-0.30215 0.0145,-0.0886 0.022,-0.16193 0.022,-0.22014 0,-0.1389 -0.0265,-0.24077 -0.0789,-0.30559 -0.0526,-0.0651 -0.13732,-0.0974 -0.25373,-0.0974 -0.0672,0 -0.13944,0.0172 -0.2167,0.0519 -0.0772,0.0349 -0.15504,0.0831 -0.23336,0.14446 -0.0783,0.0617 -0.15504,0.13441 -0.23019,0.21855 -0.0749,0.0839 -0.14366,0.17357 -0.20637,0.26855 -0.0627,0.0953 -0.11827,0.195 -0.16642,0.29898 -0.0482,0.10425 -0.0834,0.2077 -0.10584,0.31062 l -0.37623,1.68619 h -0.65829 l 0.50377,-2.18995 c 0.0291,-0.11642 0.0505,-0.22067 0.064,-0.31248 0.0132,-0.0918 0.0201,-0.16668 0.0201,-0.22489 0,-0.16352 -0.0661,-0.24527 -0.19818,-0.24527 -0.0405,0 -0.0812,0.008 -0.12276,0.0251 -0.0413,0.0169 -0.0849,0.0421 -0.13097,0.0757 -0.0458,0.0336 -0.0958,0.0762 -0.14949,0.12753 -0.0537,0.0516 -0.11404,0.11219 -0.18124,0.18151 l -0.23178,-0.21828 c 0.11192,-0.1143 0.21432,-0.2122 0.30718,-0.29396 0.0931,-0.0817 0.18151,-0.14896 0.26538,-0.20161 0.0841,-0.0526 0.16748,-0.0913 0.2503,-0.11589 0.0828,-0.0246 0.17012,-0.0368 0.26194,-0.0368 z m -2.18626,-1.32027 h 0.67178 l -0.16457,0.72231 h -0.66516 z" />
    <text
       style="stroke-width:0.264583"
       id="text868"
       y="124.51505"
       x="113.92881"
       font-size="4.81005px"
       font-family="Arial, Arial_MSFontService, sans-serif"
       fill-opacity="0"
       fill="#000000">ğ‘–ğ‘›ğ‘</text>
    <path
       style="stroke-width:0.264583"
       id="path870"
       fill-rule="evenodd"
       d="m 108.83346,113.82932 h 7.80521 7.80521 v 0.52917 h -7.80521 -7.80521 z" />
  </g>
</svg>
