<?xml version="1.0" encoding="UTF-8" standalone="no"?>
<svg
   xmlns:dc="http://purl.org/dc/elements/1.1/"
   xmlns:cc="http://creativecommons.org/ns#"
   xmlns:rdf="http://www.w3.org/1999/02/22-rdf-syntax-ns#"
   xmlns:svg="http://www.w3.org/2000/svg"
   xmlns="http://www.w3.org/2000/svg"
   xmlns:sodipodi="http://sodipodi.sourceforge.net/DTD/sodipodi-0.dtd"
   xmlns:inkscape="http://www.inkscape.org/namespaces/inkscape"
   inkscape:export-ydpi="96"
   inkscape:export-xdpi="96"
   inkscape:export-filename="C:\Users\Marcus\Documents\Projekte\CSCorona\Dokumentation\SEIR.png"
   width="760.00653"
   height="236.00626"
   overflow="hidden"
   version="1.1"
   id="svg79"
   sodipodi:docname="SEIR.svg"
   inkscape:version="1.0 (4035a4fb49, 2020-05-01)">
  <metadata
     id="metadata83">
    <rdf:RDF>
      <cc:Work
         rdf:about="">
        <dc:format>image/svg+xml</dc:format>
        <dc:type
           rdf:resource="http://purl.org/dc/dcmitype/StillImage" />
        <dc:title />
      </cc:Work>
    </rdf:RDF>
  </metadata>
  <sodipodi:namedview
     inkscape:document-rotation="0"
     pagecolor="#ffffff"
     bordercolor="#666666"
     borderopacity="1"
     objecttolerance="10"
     gridtolerance="10"
     guidetolerance="10"
     inkscape:pageopacity="0"
     inkscape:pageshadow="2"
     inkscape:window-width="3840"
     inkscape:window-height="2066"
     id="namedview81"
     showgrid="false"
     fit-margin-top="0"
     fit-margin-left="0"
     fit-margin-right="0"
     fit-margin-bottom="0"
     inkscape:zoom="1.3291667"
     inkscape:cx="380.00026"
     inkscape:cy="280"
     inkscape:window-x="-11"
     inkscape:window-y="-11"
     inkscape:window-maximized="1"
     inkscape:current-layer="svg79" />
  <defs
     id="defs5">
    <clipPath
       id="clip0">
      <rect
         x="0"
         y="0"
         width="960"
         height="720"
         id="rect2" />
    </clipPath>
  </defs>
  <path
     id="path9"
     fill="#a6a6a6"
     d="m 74.837255,105.729 0.568,-9.031 1.595,-9.057 2.611,-8.916 3.498,-8.715 4.384,-8.386 5.077,-7.996 5.84,-7.618 6.470005,-7.041 7.036,-6.528 7.488,-5.902 7.936,-5.142 8.326,-4.4494 8.588,-3.499 8.793,-2.676 8.941,-1.5966 9.075,-0.5751 9.074,0.5751 8.93,1.5946 8.793,2.5488 8.594,3.5013 8.323,4.3833 7.933,5.077 7.49,5.777 7.042,6.471 6.406,6.977 5.834,7.483 5.145,7.875 4.324,8.267 3.498,8.587 2.617,8.807 1.501,9.361 -3.291,0.528 -1.484,-9.254 0.048,0.211 -2.563,-8.625 0.055,0.154 -3.438,-8.438 0.067,0.144 -4.25,-8.125 0.081,0.139 -5.062,-7.75 0.081,0.113 -5.75,-7.375 0.086,0.103 -6.312,-6.875 0.1,0.1 -6.938,-6.375 0.11,0.092 -7.375,-5.687 0.12,0.084 -7.813,-5 0.122,0.071 -8.188,-4.313 0.148,0.0689 -8.437,-3.4375 0.165,0.0573 -8.625,-2.5 0.171,0.0399 -8.75,-1.5625 0.187,0.0226 -8.875,-0.5625 h 0.211 l -8.875,0.5625 0.188,-0.0226 -8.75,1.5625 0.192,-0.0463 -8.625,2.625 0.143,-0.0509 -8.437,3.4376 0.157,-0.0736 -8.188,4.3746 0.121,-0.071 -7.813,5.063 0.126,-0.09 -7.375,5.812 0.102,-0.087 -6.938,6.438 0.094,-0.094 -6.375,6.937 0.095,-0.114 -5.750005,7.5 0.085,-0.12 -5,7.875 0.07,-0.122 -4.313,8.25 0.07,-0.151 -3.438,8.563 0.053,-0.153 -2.562,8.75 0.041,-0.179 -1.562,8.875 0.022,-0.184 -0.563,8.937 z m 194.941005,-11.626 -4.215,10.355 -5.755,-9.585 z" />
  <path
     id="path11"
     fill="#a6a6a6"
     d="m 283.83726,105.729 0.568,-9.031 1.595,-9.057 2.611,-8.916 3.498,-8.715 4.384,-8.386 5.077,-7.996 5.84,-7.618 6.47,-7.041 7.036,-6.528 7.488,-5.902 7.936,-5.142 8.326,-4.4494 8.588,-3.499 8.793,-2.676 8.941,-1.5966 9.075,-0.5751 9.074,0.5751 8.93,1.5946 8.793,2.5488 8.594,3.5013 8.323,4.3833 7.933,5.077 7.49,5.777 7.042,6.471 6.406,6.977 5.834,7.483 5.145,7.875 4.324,8.267 3.498,8.587 2.617,8.807 1.501,9.361 -3.291,0.528 -1.484,-9.254 0.048,0.211 -2.563,-8.625 0.055,0.154 -3.438,-8.438 0.067,0.144 -4.25,-8.125 0.081,0.139 -5.062,-7.75 0.081,0.113 -5.75,-7.375 0.086,0.103 -6.312,-6.875 0.1,0.1 -6.938,-6.375 0.11,0.092 -7.375,-5.687 0.12,0.084 -7.813,-5 0.122,0.071 -8.188,-4.313 0.148,0.0689 -8.437,-3.4375 0.165,0.0573 -8.625,-2.5 0.171,0.0399 -8.75,-1.5625 0.187,0.0226 -8.875,-0.5625 h 0.211 l -8.875,0.5625 0.188,-0.0226 -8.75,1.5625 0.192,-0.0463 -8.625,2.625 0.143,-0.0509 -8.437,3.4376 0.157,-0.0736 -8.188,4.3746 0.121,-0.071 -7.813,5.063 0.126,-0.09 -7.375,5.812 0.102,-0.087 -6.938,6.438 0.094,-0.094 -6.375,6.937 0.095,-0.114 -5.75,7.5 0.085,-0.12 -5,7.875 0.07,-0.122 -4.313,8.25 0.07,-0.151 -3.438,8.563 0.053,-0.153 -2.562,8.75 0.041,-0.179 -1.562,8.875 0.022,-0.184 -0.563,8.937 z m 194.941,-11.626 -4.215,10.355 -5.755,-9.585 z" />
  <path
     id="path13"
     fill="#a6a6a6"
     d="m 493.83726,105.729 0.568,-9.031 1.595,-9.057 2.611,-8.916 3.498,-8.715 4.384,-8.386 5.077,-7.996 5.84,-7.618 6.47,-7.041 7.036,-6.528 7.488,-5.902 7.936,-5.142 8.326,-4.4494 8.588,-3.499 8.793,-2.676 8.941,-1.5966 9.075,-0.5751 9.074,0.5751 8.93,1.5946 8.793,2.5488 8.594,3.5013 8.323,4.3833 7.933,5.077 7.49,5.777 7.042,6.471 6.406,6.977 5.834,7.483 5.145,7.875 4.324,8.267 3.498,8.587 2.617,8.807 1.501,9.361 -3.291,0.528 -1.484,-9.254 0.048,0.211 -2.563,-8.625 0.055,0.154 -3.438,-8.438 0.067,0.144 -4.25,-8.125 0.081,0.139 -5.062,-7.75 0.081,0.113 -5.75,-7.375 0.086,0.103 -6.312,-6.875 0.1,0.1 -6.938,-6.375 0.11,0.092 -7.375,-5.687 0.12,0.084 -7.813,-5 0.122,0.071 -8.188,-4.313 0.148,0.0689 -8.437,-3.4375 0.165,0.0573 -8.625,-2.5 0.171,0.0399 -8.75,-1.5625 0.187,0.0226 -8.875,-0.5625 h 0.211 l -8.875,0.5625 0.188,-0.0226 -8.75,1.5625 0.192,-0.0463 -8.625,2.625 0.143,-0.0509 -8.437,3.4376 0.157,-0.0736 -8.188,4.3746 0.121,-0.071 -7.813,5.063 0.126,-0.09 -7.375,5.812 0.102,-0.087 -6.938,6.438 0.094,-0.094 -6.375,6.937 0.095,-0.114 -5.75,7.5 0.085,-0.12 -5,7.875 0.07,-0.122 -4.313,8.25 0.07,-0.151 -3.438,8.563 0.053,-0.153 -2.562,8.75 0.041,-0.179 -1.562,8.875 0.022,-0.184 -0.563,8.937 z m 194.941,-11.626 -4.215,10.355 -5.755,-9.585 z" />
  <rect
     style="stroke:none;opacity:1;stroke-width:0;stroke-miterlimit:4;stroke-dasharray:none"
     id="rect15"
     fill="#ffffff"
     height="29"
     width="70"
     y="0"
     x="136.00026" />
  <text
     id="text23"
     font-size="24px"
     font-weight="400"
     font-family="'Cambria Math', 'Cambria Math_MSFontService', sans-serif"
     x="135.61125"
     y="22.999594">Δ<tspan
   id="tspan17"
   y="22.999594"
   x="149.94456">S</tspan><tspan
   id="tspan19"
   y="22.999594"
   x="167.27797"
   font-family="Calibri, Calibri_MSFontService, sans-serif">→</tspan><tspan
   id="tspan21"
   y="22.999594"
   x="188.94456">E</tspan></text>
  <rect
     style="stroke:none;stroke-width:0;stroke-miterlimit:4;stroke-dasharray:none"
     id="rect25"
     fill="#ffffff"
     height="29"
     width="70"
     y="0"
     x="345.00024" />
  <text
     id="text33"
     font-size="24px"
     font-weight="400"
     font-family="'Cambria Math', 'Cambria Math_MSFontService', sans-serif"
     x="344.64523"
     y="22.999594">Δ<tspan
   id="tspan27"
   y="22.999594"
   x="358.97855">E</tspan><tspan
   id="tspan29"
   y="22.999594"
   x="378.31195"
   font-family="Calibri, Calibri_MSFontService, sans-serif">→</tspan><tspan
   id="tspan31"
   y="22.999594"
   x="399.97855">I</tspan></text>
  <rect
     style="stroke:none;stroke-width:0;stroke-miterlimit:4;stroke-dasharray:none"
     id="rect35"
     fill="#ffffff"
     height="29"
     width="70"
     y="0"
     x="554.00024" />
  <text
     id="text43"
     font-size="24px"
     font-weight="400"
     font-family="'Cambria Math', 'Cambria Math_MSFontService', sans-serif"
     x="553.68024"
     y="22.999594">Δ<tspan
   id="tspan37"
   y="22.999594"
   x="568.01355">I</tspan><tspan
   id="tspan39"
   y="22.999594"
   x="581.34692"
   font-family="Calibri, Calibri_MSFontService, sans-serif">→</tspan><tspan
   id="tspan41"
   y="22.999594"
   x="603.01355">R</tspan></text>
  <path
     id="path45"
     fill-rule="evenodd"
     fill="#87cefa"
     d="m 1.000255,104 c 0,10.34 33.803,18.714 75.5,18.714 41.697005,0 75.500005,-8.374 75.500005,-18.714 l -29.985,112.286 c -2.669,9.995 -3.818,18.714 -45.515005,18.714 -41.697,0 -42.785,-8.724 -45.459,-18.718 z" />
  <path
     id="path47"
     fill-opacity="0.25098"
     fill-rule="evenodd"
     fill="#87cefa"
     d="m 1.000255,103.5 c 0,-10.217 33.803,-18.5 75.5,-18.5 41.698005,0 75.500005,8.283 75.500005,18.5 0,10.221 -33.802,18.5 -75.500005,18.5 -41.697,0 -75.5,-8.279 -75.5,-18.5 z" />
  <path
     id="path49"
     fill-rule="evenodd"
     fill="none"
     stroke-opacity="0.501961"
     stroke-miterlimit="8"
     stroke-width="2.00651"
     stroke="#000000"
     d="m 152.00326,103.753 c 0,10.36 -33.803,18.75 -75.500005,18.75 -41.697,0 -75.5,-8.39 -75.5,-18.75 0,-10.354 33.803,-18.75 75.5,-18.75 41.697005,0 75.500005,8.396 75.500005,18.75 z m 0,0 -29.984,112.504 c -2.669,10.015 -3.819,18.746 -45.516005,18.746 -41.697,0 -42.789,-8.745 -45.463,-18.759 l -30.037,-112.491" />
  <text
     id="text51"
     font-size="118px"
     font-weight="400"
     font-family="Calibri, Calibri_MSFontService, sans-serif"
     x="49.671261"
     y="213">S</text>
  <path
     id="path53"
     fill-rule="evenodd"
     fill="#ffa500"
     d="m 203.00026,104 c 0,10.34 33.803,18.714 75.5,18.714 41.697,0 75.5,-8.374 75.5,-18.714 l -29.985,112.286 c -2.669,9.995 -3.818,18.714 -45.515,18.714 -41.697,0 -42.785,-8.724 -45.459,-18.718 z" />
  <path
     id="path55"
     fill-opacity="0.25098"
     fill-rule="evenodd"
     fill="#ffa500"
     d="m 204.00026,103.5 c 0,-10.217 33.579,-18.5 75,-18.5 41.421,0 75,8.283 75,18.5 0,10.221 -33.579,18.5 -75,18.5 -41.421,0 -75,-8.279 -75,-18.5 z" />
  <path
     id="path57"
     fill-rule="evenodd"
     fill="none"
     stroke-opacity="0.501961"
     stroke-miterlimit="8"
     stroke-width="2.00651"
     stroke="#000000"
     d="m 354.00326,103.753 c 0,10.36 -33.579,18.75 -75,18.75 -41.421,0 -75,-8.39 -75,-18.75 0,-10.354 33.579,-18.75 75,-18.75 41.421,0 75,8.396 75,18.75 z m 0,0 -29.785,112.504 c -2.652,10.015 -3.794,18.746 -45.215,18.746 -41.421,0 -42.506,-8.745 -45.162,-18.759 l -29.838,-112.491" />
  <text
     id="text59"
     font-size="128px"
     font-weight="400"
     font-family="Calibri, Calibri_MSFontService, sans-serif"
     x="246.69225"
     y="218">E</text>
  <path
     id="path61"
     fill-rule="evenodd"
     fill="#ff0000"
     d="m 406.00026,104 c 0,10.34 33.579,18.714 75,18.714 41.421,0 75,-8.374 75,-18.714 l -29.786,112.286 c -2.652,9.995 -3.793,18.714 -45.214,18.714 -41.421,0 -42.502,-8.724 -45.158,-18.718 z" />
  <path
     id="path63"
     fill-opacity="0.25098"
     fill-rule="evenodd"
     fill="#ff0000"
     d="m 406.00026,103.5 c 0,-10.217 33.579,-18.5 75,-18.5 41.421,0 75,8.283 75,18.5 0,10.221 -33.579,18.5 -75,18.5 -41.421,0 -75,-8.279 -75,-18.5 z" />
  <path
     id="path65"
     fill-rule="evenodd"
     fill="none"
     stroke-opacity="0.501961"
     stroke-miterlimit="8"
     stroke-width="2.00651"
     stroke="#000000"
     d="m 556.00326,103.753 c 0,10.36 -33.579,18.75 -75,18.75 -41.421,0 -75,-8.39 -75,-18.75 0,-10.354 33.579,-18.75 75,-18.75 41.421,0 75,8.396 75,18.75 z m 0,0 -29.785,112.504 c -2.652,10.015 -3.794,18.746 -45.215,18.746 -41.421,0 -42.506,-8.745 -45.162,-18.759 l -29.838,-112.491" />
  <text
     id="text67"
     font-size="118px"
     font-weight="400"
     font-family="Calibri, Calibri_MSFontService, sans-serif"
     x="465.10126"
     y="213">I</text>
  <path
     id="path69"
     fill-rule="evenodd"
     fill="#32cd33"
     d="m 608.00026,104 c 0,10.34 33.803,18.714 75.5,18.714 41.697,0 75.5,-8.374 75.5,-18.714 l -29.985,112.286 c -2.669,9.995 -3.818,18.714 -45.515,18.714 -41.697,0 -42.785,-8.724 -45.459,-18.718 z" />
  <path
     id="path71"
     fill-opacity="0.25098"
     fill-rule="evenodd"
     fill="#32cd33"
     d="m 608.00026,103.5 c 0,-10.217 33.803,-18.5 75.5,-18.5 41.698,0 75.5,8.283 75.5,18.5 0,10.221 -33.802,18.5 -75.5,18.5 -41.697,0 -75.5,-8.279 -75.5,-18.5 z" />
  <path
     id="path73"
     fill-rule="evenodd"
     fill="none"
     stroke-opacity="0.501961"
     stroke-miterlimit="8"
     stroke-width="2.00651"
     stroke="#000000"
     d="m 759.00326,103.753 c 0,10.36 -33.803,18.75 -75.5,18.75 -41.697,0 -75.5,-8.39 -75.5,-18.75 0,-10.354 33.803,-18.75 75.5,-18.75 41.697,0 75.5,8.396 75.5,18.75 z m 0,0 -29.984,112.504 c -2.669,10.015 -3.819,18.746 -45.516,18.746 -41.697,0 -42.789,-8.745 -45.463,-18.759 l -30.037,-112.491" />
  <text
     id="text75"
     font-size="118px"
     font-weight="400"
     font-family="Calibri, Calibri_MSFontService, sans-serif"
     x="651.42822"
     y="213">R</text>
</svg>
