<?xml version="1.0" encoding="UTF-8" standalone="no"?>
<svg
   xmlns:dc="http://purl.org/dc/elements/1.1/"
   xmlns:cc="http://creativecommons.org/ns#"
   xmlns:rdf="http://www.w3.org/1999/02/22-rdf-syntax-ns#"
   xmlns:svg="http://www.w3.org/2000/svg"
   xmlns="http://www.w3.org/2000/svg"
   xmlns:sodipodi="http://sodipodi.sourceforge.net/DTD/sodipodi-0.dtd"
   xmlns:inkscape="http://www.inkscape.org/namespaces/inkscape"
   sodipodi:docname="SEIRV next Exposed.svg"
   inkscape:version="1.0 (4035a4fb49, 2020-05-01)"
   id="svg1672"
   version="1.1"
   viewBox="0 0 224.29761 24.150881"
   height="24.150881mm"
   width="224.29761mm">
  <defs
     id="defs1666">
    <clipPath
       id="clip0">
      <rect
         x="156"
         y="321"
         width="867"
         height="96"
         id="rect2235" />
    </clipPath>
  </defs>
  <sodipodi:namedview
     fit-margin-bottom="0"
     fit-margin-right="0"
     fit-margin-left="0"
     fit-margin-top="0"
     inkscape:window-maximized="0"
     inkscape:window-y="380"
     inkscape:window-x="380"
     inkscape:window-height="1228"
     inkscape:window-width="1481"
     showgrid="false"
     inkscape:document-rotation="0"
     inkscape:current-layer="layer1"
     inkscape:document-units="mm"
     inkscape:cy="236.58257"
     inkscape:cx="578.15522"
     inkscape:zoom="0.35"
     inkscape:pageshadow="2"
     inkscape:pageopacity="0.0"
     borderopacity="1.0"
     bordercolor="#666666"
     pagecolor="#ffffff"
     id="base" />
  <metadata
     id="metadata1669">
    <rdf:RDF>
      <cc:Work
         rdf:about="">
        <dc:format>image/svg+xml</dc:format>
        <dc:type
           rdf:resource="http://purl.org/dc/dcmitype/StillImage" />
        <dc:title></dc:title>
      </cc:Work>
    </rdf:RDF>
  </metadata>
  <g
     transform="translate(47.136902,-85.570861)"
     id="layer1"
     inkscape:groupmode="layer"
     inkscape:label="Ebene 1">
    <path
       style="stroke-width:0.264583"
       id="path2240"
       fill-rule="evenodd"
       d="m -45.918493,93.153026 h 4.278842 l -0.32094,1.427692 h -0.446352 c -0.01244,-0.269611 -0.03572,-0.472811 -0.06985,-0.609336 -0.03413,-0.13626 -0.07514,-0.230187 -0.123296,-0.281252 -0.04789,-0.05106 -0.105304,-0.0852 -0.171979,-0.102394 -0.06668,-0.01693 -0.161925,-0.0254 -0.286015,-0.0254 h -1.516062 l -0.530225,2.437077 h 0.888206 c 0.220133,0 0.388408,-0.05212 0.50456,-0.155839 0.116417,-0.103981 0.233363,-0.275167 0.351103,-0.514086 h 0.423333 l -0.418571,1.785938 h -0.395287 c 0,-0.247915 -0.01561,-0.41619 -0.04657,-0.504561 -0.03096,-0.08837 -0.07673,-0.144197 -0.137054,-0.167481 -0.06059,-0.02328 -0.169863,-0.03493 -0.328084,-0.03493 h -0.93001 l -0.595312,2.683669 h 1.376627 c 0.182827,0 0.327818,-0.01852 0.43471,-0.05583 0.107156,-0.03731 0.207962,-0.09763 0.302419,-0.181504 0.09446,-0.08361 0.189177,-0.200554 0.283633,-0.351102 0.09472,-0.150284 0.206904,-0.354277 0.337344,-0.611452 h 0.451114 l -0.40931,1.609195 h -4.125383 l 0.05106,-0.227806 c 0.118004,-0.01879 0.206375,-0.04895 0.265113,-0.09075 0.059,-0.0418 0.108479,-0.100012 0.14896,-0.17436 0.04022,-0.07461 0.07752,-0.1651 0.111654,-0.272257 0.03413,-0.106891 0.0852,-0.313795 0.153459,-0.620712 l 0.790575,-3.5814 c 0.06826,-0.309827 0.102393,-0.559594 0.102393,-0.748771 0,-0.145521 -0.03651,-0.247121 -0.109272,-0.304535 -0.07302,-0.05742 -0.188384,-0.09075 -0.346605,-0.100013 z" />
    <text
       style="stroke-width:0.264583"
       id="text2242"
       y="98.707954"
       x="-47.136898"
       font-size="6.34844px"
       font-family="Arial, Arial_MSFontService, sans-serif"
       fill-opacity="0"
       fill="#000000">𝐸</text>
    <path
       style="stroke-width:0.264583"
       id="path2244"
       fill-rule="evenodd"
       d="m -39.930443,92.453732 h 0.866775 v 0.261938 l -1.118658,2.690548 -0.392907,-0.117475 z" />
    <text
       style="stroke-width:0.264583"
       id="text2246"
       y="95.037125"
       x="-40.575233"
       font-size="2.95254px"
       font-family="Arial, Arial_MSFontService, sans-serif"
       fill-opacity="0"
       fill="#000000">′</text>
    <path
       style="stroke-width:0.264583"
       id="path2248"
       fill-rule="evenodd"
       d="m -34.895422,97.436365 h 5.729816 v 0.618596 h -5.729816 z m 0,-1.930135 h 5.729816 v 0.618596 h -5.729816 z" />
    <text
       style="stroke-width:0.264583"
       id="text2250"
       y="97.736404"
       x="-34.895424"
       font-size="2.54868px"
       font-family="Arial, Arial_MSFontService, sans-serif"
       fill-opacity="0"
       fill="#000000">=</text>
    <path
       style="stroke-width:0.264583"
       id="path2252"
       fill-rule="evenodd"
       d="m -24.315264,93.153026 h 4.278841 l -0.320939,1.427692 h -0.446352 c -0.01244,-0.269611 -0.03572,-0.472811 -0.06985,-0.609336 -0.03413,-0.13626 -0.07514,-0.230187 -0.123296,-0.281252 -0.04789,-0.05106 -0.105304,-0.0852 -0.171979,-0.102394 -0.06668,-0.01693 -0.161925,-0.0254 -0.286015,-0.0254 h -1.516062 l -0.530225,2.437077 h 0.888206 c 0.220133,0 0.388408,-0.05212 0.50456,-0.155839 0.116417,-0.103981 0.233363,-0.275167 0.351102,-0.514086 h 0.423334 l -0.418571,1.785938 h -0.395288 c 0,-0.247915 -0.01561,-0.41619 -0.04657,-0.504561 -0.03096,-0.08837 -0.07673,-0.144197 -0.137054,-0.167481 -0.06059,-0.02328 -0.169863,-0.03493 -0.328084,-0.03493 h -0.93001 l -0.595313,2.683669 h 1.376627 c 0.182828,0 0.327819,-0.01852 0.434711,-0.05583 0.107156,-0.03731 0.207698,-0.09763 0.302419,-0.181504 0.09446,-0.08361 0.189177,-0.200554 0.283633,-0.351102 0.09472,-0.150284 0.206904,-0.354277 0.337344,-0.611452 h 0.451114 l -0.40931,1.609195 h -4.125383 l 0.05106,-0.227806 c 0.118004,-0.01879 0.206375,-0.04895 0.265113,-0.09075 0.059,-0.0418 0.108479,-0.100012 0.14896,-0.17436 0.04022,-0.07461 0.07752,-0.1651 0.111654,-0.272257 0.03413,-0.106891 0.0852,-0.313795 0.153459,-0.620712 l 0.790575,-3.5814 c 0.06826,-0.309827 0.102393,-0.559594 0.102393,-0.748771 0,-0.145521 -0.03651,-0.247121 -0.109273,-0.304535 -0.07302,-0.05742 -0.188383,-0.09075 -0.346604,-0.100013 z" />
    <text
       style="stroke-width:0.264583"
       id="text2254"
       y="98.707954"
       x="-25.533672"
       font-size="6.34844px"
       font-family="Arial, Arial_MSFontService, sans-serif"
       fill-opacity="0"
       fill="#000000">𝐸</text>
    <path
       style="stroke-width:0.264583"
       id="path2256"
       fill-rule="evenodd"
       d="m -14.128277,93.790143 h 0.6604 v 2.678906 h 2.534708 v 0.618596 h -2.534708 v 2.678906 h -0.6604 v -2.678906 h -2.534708 v -0.618596 h 2.534708 z" />
    <text
       style="stroke-width:0.264583"
       id="text2258"
       y="99.019363"
       x="-16.662985"
       font-size="5.97638px"
       font-family="Arial, Arial_MSFontService, sans-serif"
       fill-opacity="0"
       fill="#000000">+</text>
    <path
       style="stroke-width:0.264583"
       id="path2260"
       fill-rule="evenodd"
       d="m -5.2631477,94.10632 -1.7719146,4.650845 h 3.2369125 z m -0.1627188,-1.027907 h 0.6881812 l 1.9626792,6.125369 v 0.297656 H -7.858181 v -0.297656 z" />
    <text
       style="stroke-width:0.264583"
       id="text2262"
       y="98.698433"
       x="-7.8581848"
       font-size="6.42287px"
       font-family="Arial, Arial_MSFontService, sans-serif"
       fill-opacity="0"
       fill="#000000">Δ</text>
    <path
       style="stroke-width:0.264583"
       id="path2264"
       fill-rule="evenodd"
       d="m 0.21161052,93.078413 c 0.23547916,0 0.46566666,0.01244 0.69056249,0.03731 0.22463129,0.02487 0.50614789,0.0807 0.84402079,0.167481 v 1.255712 H 1.2858188 C 1.2146459,94.266128 1.1246876,94.053668 1.0162084,93.901797 0.90746468,93.749926 0.78046468,93.643563 0.63467926,93.583238 0.48889385,93.522649 0.29998135,93.492486 0.0674126,93.492486 c -0.20161249,0 -0.38232291,0.03731 -0.54186666,0.111655 -0.15980833,0.07435 -0.28601458,0.186795 -0.37914791,0.337079 -0.0928687,0.150548 -0.13943541,0.329406 -0.13943541,0.537104 0,0.220133 0.0394229,0.4064 0.11853333,0.558271 0.0791104,0.151871 0.20240625,0.292893 0.36962291,0.423068 0.16748125,0.13044 0.41566041,0.275961 0.74427291,0.437357 0.39687499,0.198437 0.70458541,0.382852 0.92313123,0.553508 0.2185458,0.170392 0.3892021,0.36486 0.5117042,0.583671 0.122502,0.218546 0.1836208,0.473604 0.1836208,0.76491 0,0.325702 -0.051065,0.600869 -0.1534583,0.8255 -0.1023938,0.224896 -0.2442104,0.407723 -0.42545,0.549011 -0.1815042,0.141023 -0.39846252,0.243152 -0.6511396,0.306916 -0.25267708,0.0635 -0.52943125,0.09525 -0.83026249,0.09525 -0.48683333,0 -1.04801461,-0.08202 -1.68354371,-0.246591 v -1.274234 h 0.4651375 c 0.061913,0.272786 0.1455208,0.488421 0.2510896,0.646377 0.1053041,0.158221 0.24182912,0.275167 0.40931036,0.351367 0.16748125,0.07594 0.38285208,0.113771 0.64637708,0.113771 0.36274374,0 0.64108541,-0.09446 0.8347604,-0.283633 0.19393959,-0.189178 0.29077706,-0.465138 0.29077706,-0.827882 0,-0.232568 -0.0402166,-0.427831 -0.12091456,-0.586052 -0.0806979,-0.157956 -0.21246041,-0.306916 -0.39528749,-0.446352 -0.18309167,-0.1397 -0.4619625,-0.302419 -0.83714166,-0.488421 -0.36274374,-0.179916 -0.64955207,-0.355864 -0.86042499,-0.527843 -0.2108729,-0.172244 -0.3683,-0.35904 -0.4720167,-0.560388 -0.1039812,-0.201612 -0.1558395,-0.421746 -0.1558395,-0.6604 0,-0.347398 0.081227,-0.649023 0.2442104,-0.90461 0.1627187,-0.255852 0.4013729,-0.453496 0.71622705,-0.593196 0.31458958,-0.139436 0.67495207,-0.209286 1.08135207,-0.209286 z" />
    <text
       style="stroke-width:0.264583"
       id="text2266"
       y="98.763779"
       x="-1.8860041"
       font-size="6.49727px"
       font-family="Arial, Arial_MSFontService, sans-serif"
       fill-opacity="0"
       fill="#000000">S</text>
    <path
       style="stroke-width:0.264583"
       id="path2268"
       fill-rule="evenodd"
       d="m 10.024212,94.859853 1.828007,1.771915 v 0.297656 L 10.024212,98.701338 9.7498396,98.445751 10.815052,97.087645 H 4.9410375 V 96.469049 H 10.815052 L 9.7498396,95.115705 Z m 2.882107,-1.706827 h 4.348691 v 1.404408 h -0.455877 c -0.04657,-0.151871 -0.09472,-0.285221 -0.144198,-0.399785 -0.04974,-0.114829 -0.100806,-0.210873 -0.153458,-0.288396 -0.05265,-0.07752 -0.11086,-0.1397 -0.17436,-0.186002 -0.06377,-0.04657 -0.138907,-0.07832 -0.22569,-0.09551 -0.08678,-0.01693 -0.190765,-0.0254 -0.311679,-0.0254 h -1.469496 v 2.437077 h 0.995098 c 0.136525,0 0.243417,-0.01958 0.320939,-0.05821 0.07752,-0.03889 0.141817,-0.104775 0.193146,-0.197644 0.05106,-0.09313 0.100013,-0.238918 0.146579,-0.437356 h 0.437092 v 1.785938 h -0.437092 c -0.04366,-0.186003 -0.09154,-0.326232 -0.144197,-0.420688 -0.05292,-0.09472 -0.115623,-0.16219 -0.188384,-0.202406 -0.07302,-0.04022 -0.182298,-0.06059 -0.328083,-0.06059 h -0.995098 v 2.683669 h 1.446477 c 0.151871,0 0.275167,-0.01323 0.369623,-0.03942 0.09446,-0.02646 0.175948,-0.07144 0.24421,-0.134937 0.06826,-0.0635 0.128588,-0.14658 0.18124,-0.248973 0.05292,-0.10213 0.0971,-0.208492 0.132556,-0.318559 0.03572,-0.110066 0.08467,-0.270404 0.146579,-0.481277 h 0.460375 l -0.08837,1.632479 h -4.306623 v -0.227806 c 0.192352,-0.04974 0.320939,-0.104775 0.386027,-0.165364 0.06509,-0.06032 0.107685,-0.146315 0.127794,-0.257969 0.02037,-0.111654 0.03043,-0.282311 0.03043,-0.511704 v -4.02299 c 0,-0.213783 -0.0079,-0.369623 -0.02328,-0.467254 -0.01561,-0.0979 -0.04127,-0.173831 -0.07673,-0.228071 -0.03572,-0.05424 -0.08308,-0.09763 -0.141817,-0.130175 -0.059,-0.03254 -0.159808,-0.06906 -0.302418,-0.109273 z" />
    <text
       style="stroke-width:0.264583"
       id="text2270"
       y="98.707954"
       x="4.9410338"
       font-size="6.34844px"
       font-family="Arial, Arial_MSFontService, sans-serif"
       fill-opacity="0"
       fill="#000000">→E</text>
    <path
       style="stroke-width:0.264583"
       id="path2272"
       fill-rule="evenodd"
       d="m 20.70941,96.469049 h 5.729817 v 0.618596 H 20.70941 Z" />
    <text
       style="stroke-width:0.264583"
       id="text2274"
       y="97.010391"
       x="20.709412"
       font-size="0.618567px"
       font-family="Arial, Arial_MSFontService, sans-serif"
       fill-opacity="0"
       fill="#000000">−</text>
    <path
       style="stroke-width:0.264583"
       id="path2276"
       fill-rule="evenodd"
       d="m 32.109248,94.10632 -1.771915,4.650845 h 3.236913 z m -0.162719,-1.027907 h 0.688181 l 1.962679,6.125369 v 0.297656 h -5.083175 v -0.297656 z" />
    <text
       style="stroke-width:0.264583"
       id="text2278"
       y="98.698433"
       x="29.51421"
       font-size="6.42287px"
       font-family="Arial, Arial_MSFontService, sans-serif"
       fill-opacity="0"
       fill="#000000">Δ</text>
    <path
       style="stroke-width:0.264583"
       id="path2280"
       fill-rule="evenodd"
       d="m 35.528193,93.153026 h 4.348692 v 1.404408 h -0.455877 c -0.04657,-0.151871 -0.09472,-0.285221 -0.144198,-0.399785 -0.04974,-0.114829 -0.100806,-0.210873 -0.153458,-0.288396 -0.05265,-0.07752 -0.110861,-0.1397 -0.174361,-0.186002 -0.06376,-0.04657 -0.138906,-0.07832 -0.225689,-0.09551 -0.08678,-0.01693 -0.190765,-0.0254 -0.311679,-0.0254 h -1.469496 v 2.437077 h 0.995098 c 0.136525,0 0.243416,-0.01958 0.320939,-0.05821 0.07752,-0.03889 0.141817,-0.104775 0.193146,-0.197644 0.05107,-0.09313 0.100013,-0.238918 0.146579,-0.437356 h 0.437092 v 1.785938 h -0.437092 c -0.04366,-0.186003 -0.09155,-0.326232 -0.144198,-0.420688 -0.05292,-0.09472 -0.115623,-0.16219 -0.188383,-0.202406 -0.07302,-0.04022 -0.182298,-0.06059 -0.328083,-0.06059 h -0.995098 v 2.683669 h 1.446477 c 0.151871,0 0.275166,-0.01323 0.369623,-0.03942 0.09446,-0.02646 0.175948,-0.07144 0.24421,-0.134937 0.06826,-0.0635 0.128588,-0.14658 0.18124,-0.248973 0.05292,-0.10213 0.0971,-0.208492 0.132556,-0.318559 0.03572,-0.110066 0.08467,-0.270404 0.146579,-0.481277 h 0.460375 l -0.08837,1.632479 h -4.306623 v -0.227806 c 0.192352,-0.04974 0.32094,-0.104775 0.386027,-0.165364 0.06509,-0.06032 0.107686,-0.146315 0.127794,-0.257969 0.02037,-0.111654 0.03043,-0.282311 0.03043,-0.511704 v -4.02299 c 0,-0.213783 -0.0079,-0.369623 -0.02328,-0.467254 -0.01561,-0.0979 -0.04127,-0.173831 -0.07673,-0.228071 -0.03572,-0.05424 -0.08308,-0.09763 -0.141817,-0.130175 -0.059,-0.03254 -0.159808,-0.06906 -0.302419,-0.109273 z" />
    <text
       style="stroke-width:0.264583"
       id="text2282"
       y="98.707954"
       x="35.528194"
       font-size="6.34844px"
       font-family="Arial, Arial_MSFontService, sans-serif"
       fill-opacity="0"
       fill="#000000">E</text>
    <path
       style="stroke-width:0.264583"
       id="path2284"
       fill-rule="evenodd"
       d="m 47.23336,93.294843 c 0.02805,-0.0048 0.05265,-0.0032 0.07435,0.0045 0.0217,0.0079 0.04207,0.02117 0.06059,0.03969 l 3.050911,3.046148 c 0.03731,0.04048 0.06747,0.0799 0.09075,0.118798 0.02328,0.03863 0.03493,0.09207 0.03493,0.160337 0,0.05265 -0.0093,0.100013 -0.02805,0.141817 -0.01852,0.04207 -0.05106,0.08758 -0.09763,0.137319 L 47.3683,99.989864 c -0.01852,0.01852 -0.03889,0.03175 -0.06059,0.03942 -0.0217,0.008 -0.0463,0.009 -0.07435,0.005 -0.02778,-0.005 -0.06112,-0.0204 -0.100013,-0.04656 -0.03863,-0.02646 -0.08281,-0.06429 -0.132556,-0.114035 -0.05265,-0.05265 -0.09366,-0.09842 -0.123296,-0.137055 -0.02937,-0.03889 -0.04789,-0.07382 -0.05556,-0.104775 -0.0079,-0.03096 -0.0071,-0.05821 0.0021,-0.08149 0.0093,-0.02302 0.02487,-0.04551 0.04657,-0.0672 0.437092,-0.437357 0.869686,-0.861219 1.297517,-1.272117 0.428096,-0.410898 0.847989,-0.810154 1.260475,-1.197504 h -5.939102 c -0.0217,0 -0.0418,-0.0063 -0.06059,-0.01879 -0.01852,-0.01243 -0.03493,-0.03175 -0.04868,-0.05821 -0.01402,-0.02619 -0.02487,-0.06191 -0.03254,-0.106892 -0.0079,-0.04498 -0.01164,-0.100012 -0.01164,-0.1651 0,-0.06509 0.0037,-0.120121 0.01164,-0.1651 0.0077,-0.04498 0.01852,-0.0807 0.03254,-0.106891 0.01376,-0.02646 0.03016,-0.04577 0.04868,-0.05821 0.01879,-0.01243 0.03889,-0.01852 0.06059,-0.01852 h 5.939102 c -0.412486,-0.387614 -0.832379,-0.78687 -1.260475,-1.197768 -0.427831,-0.410634 -0.860425,-0.833173 -1.297517,-1.267354 -0.0217,-0.0217 -0.03731,-0.04498 -0.04657,-0.06959 -0.0093,-0.02487 -0.01006,-0.05265 -0.0021,-0.08387 0.0077,-0.03096 0.02619,-0.06588 0.05556,-0.10451 0.02963,-0.03889 0.07064,-0.08467 0.123296,-0.137319 0.04974,-0.04948 0.09393,-0.08758 0.132556,-0.113771 0.03889,-0.02646 0.07223,-0.04207 0.100013,-0.04657 z" />
    <text
       style="stroke-width:0.264583"
       id="text2286"
       y="99.193459"
       x="43.336048"
       font-size="6.74436px"
       font-family="Arial, Arial_MSFontService, sans-serif"
       fill-opacity="0"
       fill="#000000">→</text>
    <path
       style="stroke-width:0.264583"
       id="path2288"
       fill-rule="evenodd"
       d="m 51.800068,93.153026 h 1.962679 v 0.227806 c -0.136525,0.03413 -0.23495,0.06826 -0.295275,0.102394 -0.06059,0.03413 -0.108479,0.07673 -0.144198,0.127794 -0.03572,0.05106 -0.06218,0.128058 -0.07911,0.230187 -0.01693,0.102394 -0.02566,0.260615 -0.02566,0.474398 v 4.02299 c 0,0.207698 0.0071,0.359833 0.0209,0.455877 0.01402,0.09604 0.03731,0.171979 0.06985,0.227806 0.03254,0.05583 0.0807,0.102394 0.144197,0.1397 0.0635,0.03704 0.166688,0.07435 0.309298,0.111654 v 0.227806 H 51.80007 v -0.227806 c 0.192352,-0.04974 0.32094,-0.104775 0.386027,-0.165364 0.06509,-0.06032 0.107686,-0.146315 0.127794,-0.257969 0.02037,-0.111654 0.03043,-0.282311 0.03043,-0.511704 v -4.02299 c 0,-0.213783 -0.0079,-0.369623 -0.02328,-0.467254 -0.01561,-0.0979 -0.04101,-0.173831 -0.07673,-0.228071 -0.03572,-0.05424 -0.08308,-0.09763 -0.141817,-0.130175 -0.059,-0.03254 -0.159808,-0.06906 -0.302419,-0.109273 z" />
    <text
       style="stroke-width:0.264583"
       id="text2290"
       y="98.707954"
       x="51.800076"
       font-size="6.34844px"
       font-family="Arial, Arial_MSFontService, sans-serif"
       fill-opacity="0"
       fill="#000000">I</text>
    <path
       style="stroke-width:0.264583"
       id="path2292"
       fill-rule="evenodd"
       d="m 57.684931,97.436365 h 5.729816 v 0.618596 h -5.729816 z m 0,-1.930135 h 5.729816 v 0.618596 h -5.729816 z" />
    <text
       style="stroke-width:0.264583"
       id="text2294"
       y="97.736404"
       x="57.684921"
       font-size="2.54868px"
       font-family="Arial, Arial_MSFontService, sans-serif"
       fill-opacity="0"
       fill="#000000">=</text>
    <path
       style="stroke-width:0.264583"
       id="path2296"
       fill-rule="evenodd"
       d="m 68.265089,93.153026 h 4.278841 l -0.320939,1.427692 h -0.446352 c -0.01244,-0.269611 -0.03572,-0.472811 -0.06985,-0.609336 -0.03413,-0.13626 -0.07514,-0.230187 -0.123296,-0.281252 -0.04789,-0.05106 -0.105304,-0.0852 -0.171979,-0.102394 -0.06668,-0.01693 -0.161925,-0.0254 -0.286015,-0.0254 h -1.516062 l -0.530225,2.437077 h 0.888206 c 0.220133,0 0.388408,-0.05212 0.50456,-0.155839 0.116417,-0.103981 0.233363,-0.275167 0.351102,-0.514086 h 0.423334 l -0.418571,1.785938 h -0.395288 c 0,-0.247915 -0.01561,-0.41619 -0.04657,-0.504561 -0.03096,-0.08837 -0.07673,-0.144197 -0.137054,-0.167481 -0.06059,-0.02328 -0.169863,-0.03493 -0.328084,-0.03493 h -0.93001 l -0.595313,2.683669 h 1.376627 c 0.182828,0 0.327819,-0.01852 0.434711,-0.05583 0.107156,-0.03731 0.207962,-0.09763 0.302419,-0.181504 0.09446,-0.08361 0.189177,-0.200554 0.283633,-0.351102 0.09472,-0.150284 0.206904,-0.354277 0.337344,-0.611452 h 0.451114 l -0.40931,1.609195 h -4.125383 l 0.05106,-0.227806 c 0.118004,-0.01879 0.206375,-0.04895 0.265113,-0.09075 0.059,-0.0418 0.108479,-0.100012 0.14896,-0.17436 0.04022,-0.07461 0.07752,-0.1651 0.111654,-0.272257 0.03413,-0.106891 0.0852,-0.313795 0.153459,-0.620712 l 0.790575,-3.5814 c 0.06826,-0.309827 0.102393,-0.559594 0.102393,-0.748771 0,-0.145521 -0.03651,-0.247121 -0.109273,-0.304535 -0.07303,-0.05742 -0.188383,-0.09075 -0.346604,-0.100013 z" />
    <text
       style="stroke-width:0.264583"
       id="text2298"
       y="98.707954"
       x="67.046692"
       font-size="6.34844px"
       font-family="Arial, Arial_MSFontService, sans-serif"
       fill-opacity="0"
       fill="#000000">𝐸</text>
    <path
       style="stroke-width:0.264583"
       id="path2300"
       fill-rule="evenodd"
       d="m 78.452076,93.790143 h 0.6604 v 2.678906 h 2.534708 v 0.618596 h -2.534708 v 2.678906 h -0.6604 v -2.678906 h -2.534708 v -0.618596 h 2.534708 z" />
    <text
       style="stroke-width:0.264583"
       id="text2302"
       y="99.019363"
       x="75.917366"
       font-size="5.97638px"
       font-family="Arial, Arial_MSFontService, sans-serif"
       fill-opacity="0"
       fill="#000000">+</text>
    <path
       style="stroke-width:0.264583"
       id="path2304"
       fill-rule="evenodd"
       d="m 90.252493,85.570861 0.125412,0.358246 c -0.725487,0.238654 -1.262591,0.704586 -1.611312,1.397529 -0.348986,0.692944 -0.523346,1.563423 -0.523346,2.611438 0,1.085321 0.17436,1.979877 0.523346,2.683669 0.348721,0.703791 0.881327,1.175014 1.597554,1.413933 l -0.111654,0.357981 c -0.908579,-0.238654 -1.604698,-0.752739 -2.088357,-1.541727 -0.483658,-0.788987 -0.725487,-1.744927 -0.725487,-2.867289 0,-1.119188 0.242623,-2.075127 0.727869,-2.86729 0.485246,-0.792162 1.180571,-1.307571 2.085975,-1.54649 z" />
    <text
       style="stroke-width:0.264583"
       id="text2306"
       y="93.290871"
       x="87.438644"
       font-size="8.82272px"
       font-family="Arial, Arial_MSFontService, sans-serif"
       fill-opacity="0"
       fill="#000000">(</text>
    <path
       style="stroke-width:0.264583"
       id="path2308"
       fill-rule="evenodd"
       d="m 93.872522,85.868518 c 0.285221,0 0.549539,0.01958 0.792956,0.05821 0.243417,0.03889 0.512233,0.104775 0.806715,0.197644 l -0.26035,1.195387 h -0.446352 c -0.01244,-0.263525 -0.05292,-0.470693 -0.12118,-0.620977 -0.068,-0.150283 -0.165629,-0.257969 -0.292893,-0.323321 -0.127,-0.06509 -0.296069,-0.09763 -0.506942,-0.09763 -0.25744,0 -0.483658,0.05292 -0.678921,0.158221 -0.195527,0.105304 -0.344223,0.248708 -0.446616,0.430212 -0.102394,0.18124 -0.153459,0.383646 -0.153459,0.606955 0,0.232568 0.06138,0.436298 0.183621,0.611452 0.122502,0.175418 0.357452,0.382323 0.704585,0.620977 0.304007,0.210873 0.535782,0.399256 0.695325,0.56515 0.159809,0.165893 0.277548,0.341841 0.353484,0.527843 0.07594,0.186003 0.114035,0.401638 0.114035,0.646378 0,0.378354 -0.09075,0.71411 -0.271992,1.007004 -0.181504,0.292893 -0.437356,0.519377 -0.767556,0.678921 -0.3302,0.159808 -0.706173,0.239712 -1.127654,0.239712 -0.285485,0 -0.593196,-0.02328 -0.923396,-0.06985 -0.3302,-0.04657 -0.625475,-0.105304 -0.885825,-0.176742 l 0.278871,-1.278995 h 0.446617 c 0,0.378354 0.08758,0.659606 0.262731,0.84402 0.175154,0.18468 0.445823,0.276755 0.811477,0.276755 0.421746,0 0.753533,-0.114565 0.995363,-0.343959 0.241829,-0.229658 0.362743,-0.54901 0.362743,-0.958321 0,-0.188912 -0.03334,-0.3556 -0.100012,-0.499798 -0.06668,-0.144197 -0.167217,-0.28231 -0.302154,-0.414072 -0.134938,-0.131763 -0.329407,-0.28284 -0.583671,-0.453232 -0.229394,-0.155045 -0.420158,-0.307975 -0.572029,-0.458258 -0.152136,-0.150283 -0.27305,-0.318558 -0.362744,-0.50456 -0.08996,-0.186002 -0.134938,-0.3937 -0.134938,-0.623359 0,-0.365654 0.08837,-0.688181 0.265113,-0.967316 0.176742,-0.279136 0.426244,-0.494507 0.748771,-0.646377 0.322527,-0.151871 0.694531,-0.228071 1.116277,-0.228071 z" />
    <text
       style="stroke-width:0.264583"
       id="text2310"
       y="91.557854"
       x="90.640114"
       font-size="6.50192px"
       font-family="Arial, Arial_MSFontService, sans-serif"
       fill-opacity="0"
       fill="#000000">𝑆</text>
    <path
       style="stroke-width:0.264583"
       id="path2312"
       fill-rule="evenodd"
       d="m 100.70883,89.259153 h 5.72981 v 0.618596 h -5.72981 z" />
    <text
       style="stroke-width:0.264583"
       id="text2314"
       y="89.800491"
       x="100.70883"
       font-size="0.618567px"
       font-family="Arial, Arial_MSFontService, sans-serif"
       fill-opacity="0"
       fill="#000000">−</text>
    <path
       style="stroke-width:0.264583"
       id="path2316"
       fill-rule="evenodd"
       d="m 112.51797,88.31512 c -0.14869,0 -0.29527,0.0471 -0.43947,0.141816 -0.1442,0.09446 -0.30453,0.25109 -0.48128,0.469636 -0.17674,0.218546 -0.32094,0.442648 -0.43259,0.672041 -0.11165,0.229394 -0.20638,0.522553 -0.28363,0.878946 l -0.0421,0.195527 c -0.0463,0.216959 -0.0696,0.427832 -0.0696,0.632355 0,0.245004 0.0534,0.421745 0.16034,0.530225 0.10689,0.108479 0.28443,0.162718 0.53261,0.162718 0.127,0 0.24791,-0.0209 0.36274,-0.06271 0.11456,-0.0418 0.23177,-0.11086 0.3511,-0.206904 0.11933,-0.09604 0.23257,-0.222515 0.33946,-0.379148 0.10716,-0.156633 0.20558,-0.349515 0.29528,-0.578908 0.09,-0.229394 0.15981,-0.475192 0.20928,-0.73713 0.0497,-0.262202 0.0746,-0.512497 0.0746,-0.751152 0,-0.322527 -0.0458,-0.564356 -0.13732,-0.725487 -0.0915,-0.161396 -0.23786,-0.241829 -0.43948,-0.241829 z m 2.54291,-2.37199 h 1.92564 l -0.0513,0.227806 c -0.13626,0.01561 -0.24262,0.05583 -0.31856,0.120915 -0.0759,0.06509 -0.12938,0.15584 -0.16033,0.271992 -0.031,0.116416 -0.0466,0.272256 -0.0466,0.467518 0,0.04657 0.005,0.186003 0.014,0.418571 l 0.13018,3.404394 v 0.372004 h 0.0466 l 2.01375,-3.6322 c 0.11774,-0.214048 0.20611,-0.397669 0.26511,-0.551127 0.059,-0.153458 0.0884,-0.289189 0.0884,-0.406929 0,-0.260615 -0.15504,-0.415396 -0.46514,-0.465138 l 0.0513,-0.227806 h 1.90209 l -0.0511,0.227806 c -0.0839,0.01244 -0.16378,0.04419 -0.23971,0.09525 -0.0759,0.05133 -0.16114,0.136525 -0.25559,0.255853 -0.0947,0.119327 -0.2413,0.349514 -0.43974,0.690827 l -2.97656,5.153025 h -0.61833 l -0.31168,-5.185834 c -0.0124,-0.201348 -0.0349,-0.374385 -0.0675,-0.518318 -0.0325,-0.144198 -0.0839,-0.256646 -0.15346,-0.337344 -0.0699,-0.0807 -0.18071,-0.131763 -0.33258,-0.153459 z m -3.35676,-0.302419 h 0.26961 l -0.81836,3.255698 0.0603,0.01852 c 0.30084,-0.40296 0.58288,-0.694531 0.84641,-0.874448 0.26352,-0.179652 0.52731,-0.26961 0.79084,-0.26961 0.33787,0 0.6006,0.128587 0.78819,0.386027 0.18759,0.25744 0.28152,0.620183 0.28152,1.088231 0,0.511704 -0.10319,1.014677 -0.3093,1.509183 -0.20638,0.494507 -0.49239,0.886884 -0.85831,1.176867 -0.36565,0.289719 -0.77496,0.434711 -1.22767,0.434711 -0.41248,0 -0.7784,-0.100807 -1.09775,-0.302155 l -0.42783,0.302155 -0.29766,-0.07435 1.20465,-5.316009 c 0.0714,-0.316177 0.10689,-0.54557 0.10689,-0.688445 0,-0.130175 -0.0394,-0.221457 -0.11853,-0.274373 -0.0791,-0.05265 -0.22093,-0.08202 -0.42545,-0.08837 l 0.0558,-0.241829 z" />
    <text
       style="stroke-width:0.264583"
       id="text2318"
       y="91.525307"
       x="109.70413"
       font-size="6.72518px"
       font-family="Arial, Arial_MSFontService, sans-serif"
       fill-opacity="0"
       fill="#000000">𝑏𝑉</text>
    <path
       style="stroke-width:0.264583"
       id="path2320"
       fill-rule="evenodd"
       d="m 120.99284,85.570861 c 0.90514,0.238919 1.60047,0.754328 2.08571,1.54649 0.48525,0.792163 0.72787,1.748102 0.72787,2.86729 0,1.122362 -0.24183,2.078302 -0.72549,2.867289 -0.48365,0.788988 -1.17977,1.303073 -2.08809,1.541727 l -0.11165,-0.357981 c 0.71623,-0.238919 1.24857,-0.710142 1.59755,-1.413933 0.34872,-0.703792 0.52308,-1.598348 0.52308,-2.683669 0,-1.048015 -0.17356,-1.918494 -0.5207,-2.611438 -0.34739,-0.692943 -0.88529,-1.158875 -1.61395,-1.397529 z" />
    <text
       style="stroke-width:0.264583"
       id="text2322"
       y="93.290871"
       x="120.86716"
       font-size="8.82272px"
       font-family="Arial, Arial_MSFontService, sans-serif"
       fill-opacity="0"
       fill="#000000">)</text>
    <path
       style="stroke-width:0.264583"
       id="path2324"
       fill-rule="evenodd"
       d="m 103.5142,99.524193 h 1.48379 l 1.22766,3.622937 c 0.17674,0.52097 0.31327,0.96123 0.40931,1.3208 h 0.0513 c 0.0246,-0.18918 0.0812,-0.50376 0.1696,-0.94403 0.0884,-0.44027 0.16986,-0.82471 0.24421,-1.15358 l 0.32544,-1.465 c 0.0683,-0.30692 0.10239,-0.55642 0.10239,-0.74877 0,-0.14552 -0.0362,-0.247124 -0.10927,-0.304539 -0.0728,-0.05741 -0.18838,-0.09075 -0.34634,-0.100012 l 0.0511,-0.227806 h 1.62772 l -0.0511,0.227806 c -0.11774,0.02487 -0.20241,0.05265 -0.25347,0.08361 -0.0511,0.03122 -0.0968,0.07752 -0.13732,0.1397 -0.0402,0.06191 -0.082,0.158751 -0.12542,0.290511 -0.0434,0.13176 -0.0976,0.3466 -0.16298,0.64426 l -1.09273,4.96252 h -0.63262 l -1.3581,-3.99044 c -0.16431,-0.47757 -0.30851,-0.95356 -0.4326,-1.42796 h -0.0603 c -0.0185,0.15822 -0.0699,0.45985 -0.15346,0.90461 -0.0839,0.44503 -0.17224,0.87974 -0.26511,1.30466 l -0.40931,1.85579 c -0.0651,0.29448 -0.0976,0.53631 -0.0976,0.72549 0,0.13943 0.0349,0.23786 0.10451,0.29527 0.0699,0.0574 0.18679,0.0923 0.35136,0.10451 l -0.0513,0.22807 h -1.62771 l 0.0511,-0.22807 c 0.11774,-0.0185 0.20611,-0.0487 0.26511,-0.0905 0.059,-0.0418 0.10848,-0.10002 0.14896,-0.17436 0.0402,-0.0746 0.0775,-0.1651 0.11166,-0.27226 0.0339,-0.10689 0.0852,-0.3138 0.15346,-0.62071 l 0.79057,-3.5814 c 0.031,-0.13335 0.0558,-0.26035 0.0743,-0.38127 0.0185,-0.12091 0.0281,-0.24341 0.0281,-0.3675 0,-0.14552 -0.0365,-0.247122 -0.10928,-0.304537 -0.073,-0.05741 -0.18838,-0.09075 -0.3466,-0.100012 z" />
    <text
       style="stroke-width:0.264583"
       id="text2326"
       y="105.07912"
       x="102.2958"
       font-size="6.34844px"
       font-family="Arial, Arial_MSFontService, sans-serif"
       fill-opacity="0"
       fill="#000000">𝑁</text>
    <path
       style="stroke-width:0.264583"
       id="path2328"
       fill-rule="evenodd"
       d="m 86.672945,96.591022 h 38.099995 v 0.529166 H 86.672945 Z" />
    <path
       style="stroke-width:0.264583"
       id="path2330"
       fill-rule="evenodd"
       d="m 132.59826,86.352441 c -0.16431,0 -0.33787,0.0061 -0.5207,0.01852 l -0.59531,2.69293 h 0.54874 c 0.44953,0 0.8046,-0.06059 1.06495,-0.181505 0.26062,-0.120914 0.46673,-0.319352 0.6186,-0.595312 0.15187,-0.27596 0.2278,-0.573617 0.2278,-0.892969 0,-0.13335 -0.0122,-0.251883 -0.037,-0.355864 -0.0249,-0.103717 -0.0574,-0.189707 -0.0976,-0.257969 -0.0405,-0.06826 -0.0915,-0.128852 -0.15346,-0.181504 -0.0622,-0.05265 -0.1397,-0.09843 -0.23257,-0.137054 -0.0931,-0.03889 -0.20081,-0.06668 -0.32332,-0.08387 -0.1225,-0.01693 -0.28919,-0.0254 -0.50006,-0.0254 z m -1.86505,-0.409311 h 2.06984 c 0.32861,0 0.5969,0.01932 0.8046,0.05794 0.20769,0.03889 0.38523,0.0971 0.53234,0.174625 0.14737,0.07752 0.27067,0.177271 0.36989,0.299773 0.0992,0.122502 0.17356,0.260614 0.2233,0.414073 0.0495,0.153458 0.0744,0.316971 0.0744,0.490537 0,0.477573 -0.14578,0.883709 -0.43709,1.218671 -0.29157,0.334698 -0.72099,0.588963 -1.28852,0.762794 v 0.05106 c 0.14896,0.111655 0.26908,0.245005 0.36063,0.40005 0.0913,0.155046 0.1651,0.370417 0.22092,0.646377 l 0.1069,0.539486 c 0.0341,0.170656 0.0728,0.324114 0.11615,0.460375 0.0437,0.136525 0.0955,0.245004 0.15584,0.325702 0.0606,0.0807 0.12885,0.141023 0.20478,0.18124 0.0759,0.04048 0.1868,0.07303 0.33259,0.0979 l -0.0466,0.227807 h -1.28826 c -0.0992,-0.275961 -0.18759,-0.604573 -0.26511,-0.986102 L 132.775,90.319603 c -0.0341,-0.170656 -0.0751,-0.31406 -0.12329,-0.430212 -0.0479,-0.116417 -0.10531,-0.206375 -0.17198,-0.269875 -0.0667,-0.0635 -0.1442,-0.105305 -0.23257,-0.125413 -0.0884,-0.02037 -0.19606,-0.03043 -0.32332,-0.03043 h -0.52996 l -0.3257,1.474523 c -0.0278,0.120914 -0.0474,0.216958 -0.0582,0.288131 -0.0109,0.07144 -0.0201,0.146579 -0.0278,0.22569 -0.008,0.07911 -0.0117,0.149489 -0.0117,0.211666 0,0.09604 0.0156,0.171186 0.0466,0.225425 0.031,0.05424 0.0775,0.09393 0.13944,0.118798 0.0619,0.02461 0.16907,0.04339 0.32094,0.05583 l -0.0511,0.227807 h -1.91161 l 0.0511,-0.227807 c 0.11801,-0.01879 0.20638,-0.04895 0.26511,-0.09075 0.059,-0.0418 0.10848,-0.100012 0.14896,-0.17436 0.0402,-0.07461 0.0775,-0.1651 0.11166,-0.272256 0.0341,-0.106892 0.0852,-0.313796 0.15346,-0.620713 l 0.79057,-3.5814 c 0.0683,-0.309827 0.1024,-0.554831 0.1024,-0.734748 0,-0.151871 -0.0357,-0.257439 -0.10716,-0.316177 -0.0712,-0.059 -0.18759,-0.09313 -0.34872,-0.102394 z" />
    <text
       style="stroke-width:0.264583"
       id="text2332"
       y="91.498055"
       x="129.5148"
       font-size="6.34844px"
       font-family="Arial, Arial_MSFontService, sans-serif"
       fill-opacity="0"
       fill="#000000">𝑅</text>
    <path
       style="stroke-width:0.264583"
       id="path2334"
       fill-rule="evenodd"
       d="m 137.16285,90.212182 c -0.15663,0 -0.2876,0.04075 -0.3929,0.122502 -0.10531,0.08176 -0.18865,0.201613 -0.2503,0.359569 -0.0617,0.157692 -0.1053,0.350308 -0.13097,0.577585 -0.0257,0.227278 -0.0386,0.485511 -0.0386,0.774171 0,0.333904 0.0161,0.622036 0.0487,0.865188 0.0325,0.242887 0.0828,0.442648 0.15107,0.599546 0.0685,0.156633 0.15399,0.271991 0.25718,0.34581 0.10292,0.07408 0.22595,0.11086 0.36936,0.11086 0.1344,0 0.25188,-0.03466 0.35269,-0.103981 0.1008,-0.06959 0.18415,-0.177535 0.25029,-0.324114 0.0662,-0.146844 0.11589,-0.332582 0.14949,-0.557742 0.0336,-0.224896 0.0503,-0.490802 0.0503,-0.797719 0,-0.344752 -0.0183,-0.641614 -0.0553,-0.890058 -0.037,-0.248708 -0.0892,-0.452967 -0.1561,-0.61304 -0.0672,-0.160073 -0.15187,-0.278341 -0.25374,-0.354541 -0.10186,-0.07594 -0.21881,-0.114036 -0.3511,-0.114036 z m 0.0135,-0.325966 c 0.26643,0 0.4945,0.05001 0.68368,0.149489 0.18918,0.09975 0.34369,0.241829 0.46355,0.426773 0.11959,0.184679 0.2077,0.410369 0.26352,0.676804 0.0561,0.266436 0.0841,0.567531 0.0841,0.903552 0,0.745596 -0.13229,1.309423 -0.39634,1.691217 -0.26432,0.381794 -0.64717,0.572558 -1.14882,0.572558 -0.49716,0 -0.86678,-0.180181 -1.10861,-0.540808 -0.24183,-0.360363 -0.36274,-0.906727 -0.36274,-1.639094 0,-0.382852 0.0376,-0.714375 0.11245,-0.994304 0.0751,-0.279929 0.18044,-0.512233 0.31591,-0.696912 0.13546,-0.18468 0.29607,-0.322528 0.48207,-0.413015 0.18574,-0.09075 0.38947,-0.13626 0.61119,-0.13626 z" />
    <text
       style="stroke-width:0.264583"
       id="text2336"
       y="93.754158"
       x="135.65472"
       font-size="4.42039px"
       font-family="Arial, Arial_MSFontService, sans-serif"
       fill-opacity="0"
       fill="#000000">0</text>
    <path
       style="stroke-width:0.264583"
       id="path2338"
       fill-rule="evenodd"
       d="m 126.9211,99.524193 h 4.85537 l -0.36275,1.636977 h -0.44635 c 0,-0.30083 -0.008,-0.52626 -0.0233,-0.67654 -0.0156,-0.15055 -0.045,-0.26511 -0.0884,-0.34422 -0.0434,-0.0791 -0.0968,-0.13335 -0.16061,-0.162722 -0.0635,-0.02963 -0.17594,-0.04418 -0.33708,-0.04418 h -0.68818 l -1.00938,4.585752 c -0.0278,0.12092 -0.0474,0.21696 -0.0582,0.28813 -0.0109,0.0714 -0.0201,0.14658 -0.0278,0.22569 -0.008,0.0791 -0.0116,0.14949 -0.0116,0.21167 0,0.096 0.0156,0.17118 0.0466,0.22542 0.031,0.0542 0.0775,0.0939 0.13944,0.1188 0.0619,0.0246 0.16907,0.0434 0.32094,0.0556 l -0.0511,0.22807 h -1.95818 l 0.0513,-0.22807 c 0.12383,-0.0185 0.21537,-0.0434 0.27437,-0.0743 0.0587,-0.031 0.11086,-0.0791 0.15584,-0.1442 0.0447,-0.0651 0.0897,-0.16722 0.13468,-0.30692 0.045,-0.13943 0.0984,-0.35031 0.1606,-0.63235 l 0.9951,-4.553212 h -0.59055 c -0.19236,0 -0.34581,0.02778 -0.46038,0.08361 -0.11483,0.0558 -0.22939,0.15955 -0.34422,0.31168 -0.11483,0.15187 -0.25427,0.40614 -0.41857,0.76279 h -0.44662 z" />
    <text
       style="stroke-width:0.264583"
       id="text2340"
       y="105.07912"
       x="126.57211"
       font-size="6.34844px"
       font-family="Arial, Arial_MSFontService, sans-serif"
       fill-opacity="0"
       fill="#000000">𝑇</text>
    <path
       style="stroke-width:0.264583"
       id="path2342"
       fill-rule="evenodd"
       d="m 132.52365,104.42137 h 0.16457 l -0.49715,2.23705 c -0.0315,0.13202 -0.0532,0.23733 -0.0656,0.31565 -0.0122,0.0786 -0.0183,0.14896 -0.0183,0.21166 0,0.0852 0.0172,0.14658 0.0519,0.18468 0.0347,0.0381 0.0868,0.0571 0.15637,0.0571 0.0402,0 0.0804,-0.008 0.12092,-0.0236 0.0402,-0.0156 0.0833,-0.0402 0.12911,-0.0738 0.046,-0.0336 0.0963,-0.0767 0.15134,-0.12938 0.0548,-0.0526 0.11589,-0.11588 0.1831,-0.1897 l 0.22833,0.22172 c -0.11642,0.11853 -0.22225,0.21881 -0.3175,0.30056 -0.095,0.0818 -0.18521,0.14844 -0.2704,0.19976 -0.0849,0.0516 -0.16854,0.0886 -0.2503,0.11087 -0.0815,0.0225 -0.16827,0.0336 -0.26008,0.0336 -0.0852,0 -0.16193,-0.0156 -0.23019,-0.0468 -0.0683,-0.0315 -0.127,-0.0746 -0.17648,-0.12939 -0.0492,-0.055 -0.0873,-0.12038 -0.11403,-0.19658 -0.027,-0.0762 -0.0405,-0.16007 -0.0405,-0.25188 0,-0.0738 0.009,-0.16563 0.027,-0.27544 0.018,-0.1098 0.0407,-0.22886 0.0688,-0.35771 0.0281,-0.12885 0.0587,-0.26379 0.0923,-0.40481 0.0336,-0.14103 0.0667,-0.28099 0.0992,-0.4199 0.0325,-0.1389 0.0616,-0.27252 0.0873,-0.40137 0.0257,-0.12885 0.0442,-0.2458 0.0553,-0.3511 0.005,-0.0177 0.007,-0.0352 0.007,-0.0519 0,-0.0169 0,-0.032 0,-0.0455 -0.004,-0.0873 -0.0352,-0.15108 -0.0923,-0.19129 -0.0572,-0.0405 -0.15848,-0.0627 -0.304,-0.0672 l 0.0402,-0.22833 z m 1.99152,-0.0336 c 0.16563,0 0.29395,0.0542 0.3847,0.16299 0.0905,0.10848 0.136,0.25135 0.136,0.42809 0,0.045 -0.004,0.0918 -0.0119,0.14103 -0.008,0.0495 -0.0217,0.0963 -0.0418,0.14128 l 0.0468,0.0167 c 0.21722,-0.29765 0.4318,-0.5207 0.64346,-0.66834 0.21141,-0.1479 0.43048,-0.22172 0.6567,-0.22172 0.23733,0 0.4146,0.0638 0.53234,0.19156 0.11748,0.12753 0.17621,0.30665 0.17621,0.53737 0,0.0693 -0.0101,0.16563 -0.0302,0.28893 -0.0201,0.12303 -0.0458,0.25743 -0.0773,0.40296 -0.0312,0.14552 -0.0648,0.29501 -0.1008,0.44846 -0.0357,0.15346 -0.0693,0.29501 -0.10081,0.42493 -0.0312,0.12991 -0.0569,0.24077 -0.0773,0.33258 -0.0201,0.0918 -0.0302,0.14869 -0.0302,0.17118 0,0.0852 0.0156,0.14658 0.0471,0.18468 0.0312,0.0381 0.0817,0.0571 0.15107,0.0571 0.0426,0 0.0847,-0.008 0.12595,-0.0236 0.0415,-0.0156 0.0847,-0.0402 0.12938,-0.0738 0.0447,-0.0336 0.0939,-0.0767 0.1479,-0.12938 0.0537,-0.0526 0.11403,-0.11588 0.18124,-0.1897 l 0.23177,0.22172 c -0.1098,0.11192 -0.21061,0.20822 -0.30242,0.28892 -0.0918,0.0804 -0.18071,0.14711 -0.26696,0.19976 -0.0863,0.0527 -0.17171,0.0918 -0.25691,0.11748 -0.0852,0.0259 -0.17568,0.0386 -0.27199,0.0386 -0.0807,0 -0.15505,-0.0156 -0.22358,-0.0468 -0.0683,-0.0315 -0.127,-0.0746 -0.17621,-0.12939 -0.0492,-0.055 -0.0873,-0.11985 -0.1143,-0.19473 -0.0267,-0.0751 -0.0402,-0.15743 -0.0402,-0.24712 0,-0.0894 0.01,-0.1942 0.0286,-0.31406 0.019,-0.11959 0.0476,-0.25135 0.0857,-0.39449 0.0402,-0.14552 0.0778,-0.28496 0.11244,-0.41831 0.0347,-0.13309 0.0648,-0.25638 0.0908,-0.36936 0.0257,-0.11324 0.0458,-0.21405 0.0603,-0.30242 0.0146,-0.0884 0.022,-0.16166 0.022,-0.21987 0,-0.1389 -0.0265,-0.24077 -0.0791,-0.30585 -0.0526,-0.0648 -0.13705,-0.0974 -0.25347,-0.0974 -0.0672,0 -0.13944,0.0175 -0.21669,0.0521 -0.0773,0.0347 -0.15505,0.0828 -0.23337,0.14446 -0.0786,0.0617 -0.15504,0.13441 -0.23018,0.21829 -0.0749,0.0839 -0.14394,0.17356 -0.20664,0.26881 -0.0627,0.095 -0.11801,0.19474 -0.16616,0.29872 -0.0482,0.10424 -0.0833,0.2077 -0.10584,0.31088 l -0.37623,1.68619 h -0.65829 l 0.50377,-2.19022 c 0.0291,-0.11642 0.0505,-0.2204 0.0638,-0.31221 0.0135,-0.0918 0.0204,-0.16695 0.0204,-0.22516 0,-0.16351 -0.0662,-0.24527 -0.19844,-0.24527 -0.0402,0 -0.081,0.008 -0.1225,0.0254 -0.0413,0.0167 -0.0849,0.0418 -0.13097,0.0754 -0.046,0.0336 -0.0958,0.0762 -0.14949,0.12779 -0.0537,0.0513 -0.1143,0.11192 -0.18124,0.18124 l -0.23177,-0.21828 c 0.11191,-0.1143 0.21431,-0.21219 0.30718,-0.29395 0.0929,-0.0818 0.1815,-0.14896 0.26537,-0.20135 0.0839,-0.0526 0.16749,-0.0913 0.2503,-0.11589 0.0828,-0.0249 0.17013,-0.037 0.26194,-0.037 z m 6.65771,-1.26629 c 0.12329,0 0.23177,0.006 0.32596,0.0185 0.0939,0.0122 0.18468,0.0273 0.272,0.0452 l -0.13785,0.62468 h -0.33232 c -0.0159,-0.12753 -0.054,-0.22092 -0.1143,-0.28046 -0.0606,-0.0593 -0.14102,-0.0889 -0.24183,-0.0889 -0.11641,0 -0.21431,0.0251 -0.29395,0.0754 -0.0794,0.0505 -0.14896,0.12674 -0.20823,0.2286 -0.0593,0.10187 -0.11033,0.22119 -0.15293,0.35772 -0.0423,0.13652 -0.0714,0.25532 -0.0873,0.35613 h 0.93054 l -0.0738,0.37279 h -0.93398 l -0.60801,2.87867 c -0.10504,0.49027 -0.27596,0.85355 -0.51223,1.08982 -0.23628,0.23627 -0.55139,0.35454 -0.94536,0.35454 -0.10319,0 -0.17806,-0.007 -0.22516,-0.0204 0.0135,-0.0558 0.0257,-0.11351 0.037,-0.17277 0.0111,-0.0595 0.0246,-0.11721 0.0402,-0.17304 0.0135,0.005 0.0325,0.007 0.0572,0.007 0.0246,0 0.0593,0 0.10398,0 0.0876,0 0.16748,-0.014 0.24024,-0.0421 0.0728,-0.0278 0.13944,-0.0783 0.20003,-0.15107 0.0603,-0.0728 0.11562,-0.17251 0.16616,-0.29898 0.0503,-0.12647 0.0979,-0.28946 0.14261,-0.48869 l 0.67204,-2.98265 h -0.57785 l 0.0603,-0.25876 c 0.1233,-0.007 0.22119,-0.0145 0.29395,-0.0236 0.0728,-0.009 0.13441,-0.0286 0.18495,-0.0587 0.0503,-0.0302 0.0878,-0.0812 0.11245,-0.15293 0.12991,-0.40958 0.32517,-0.71491 0.58605,-0.9152 0.26088,-0.20029 0.6006,-0.30056 1.01944,-0.30056 z m -8.84423,-0.0537 h 0.67204 l -0.16483,0.72204 h -0.6649 z" />
    <text
       style="stroke-width:0.264583"
       id="text2344"
       y="108.3933"
       x="131.46877"
       font-size="6.08645px"
       font-family="Arial, Arial_MSFontService, sans-serif"
       fill-opacity="0"
       fill="#000000">𝑖𝑛𝑓</text>
    <path
       style="stroke-width:0.264583"
       id="path2346"
       fill-rule="evenodd"
       d="m 126.36044,96.591022 h 16.40417 v 0.529166 h -16.40417 z" />
    <path
       style="stroke-width:0.264583"
       id="path2348"
       fill-rule="evenodd"
       d="m 145.67423,93.153026 h 1.86055 l -0.0513,0.227806 c -0.11774,0.02487 -0.20214,0.05265 -0.25347,0.08361 -0.0511,0.03122 -0.0968,0.07752 -0.13705,0.1397 -0.0405,0.06191 -0.0823,0.15875 -0.12568,0.290512 -0.0434,0.131763 -0.0976,0.346604 -0.16272,0.64426 l -0.79533,3.609182 c -0.0402,0.182827 -0.0667,0.327818 -0.0791,0.43471 -0.0124,0.106892 -0.0185,0.203994 -0.0185,0.290777 0,0.139436 0.0349,0.237861 0.10452,0.295275 0.0699,0.05741 0.18679,0.09234 0.35136,0.104775 l -0.0513,0.227806 h -1.86028 l 0.0511,-0.227806 c 0.11801,-0.01879 0.20638,-0.04895 0.26511,-0.09075 0.059,-0.0418 0.10848,-0.100012 0.14896,-0.17436 0.0402,-0.07461 0.0775,-0.1651 0.11166,-0.272257 0.0341,-0.106891 0.0852,-0.313795 0.15346,-0.620712 l 0.79057,-3.5814 c 0.0683,-0.309827 0.1024,-0.559594 0.1024,-0.748771 0,-0.145521 -0.0365,-0.247121 -0.10928,-0.304535 -0.073,-0.05742 -0.18838,-0.09075 -0.3466,-0.100013 z" />
    <text
       style="stroke-width:0.264583"
       id="text2350"
       y="98.707954"
       x="144.45583"
       font-size="6.34844px"
       font-family="Arial, Arial_MSFontService, sans-serif"
       fill-opacity="0"
       fill="#000000">𝐼</text>
    <path
       style="stroke-width:0.264583"
       id="path2352"
       fill-rule="evenodd"
       d="m 153.05664,96.469049 h 5.72981 v 0.618596 h -5.72981 z" />
    <text
       style="stroke-width:0.264583"
       id="text2354"
       y="97.010391"
       x="153.05664"
       font-size="0.618567px"
       font-family="Arial, Arial_MSFontService, sans-serif"
       fill-opacity="0"
       fill="#000000">−</text>
    <path
       style="stroke-width:0.264583"
       id="path2356"
       fill-rule="evenodd"
       d="m 167.80928,85.94313 h 4.27884 l -0.32094,1.427692 h -0.44635 c -0.0124,-0.269611 -0.0357,-0.472811 -0.0699,-0.609336 -0.0341,-0.13626 -0.0752,-0.230187 -0.1233,-0.281252 -0.0479,-0.05106 -0.1053,-0.08519 -0.17198,-0.102393 -0.0667,-0.01693 -0.16192,-0.0254 -0.28601,-0.0254 h -1.51607 l -0.53022,2.437077 h 0.8882 c 0.22014,0 0.38841,-0.05212 0.50456,-0.15584 0.11642,-0.103981 0.23337,-0.275167 0.35111,-0.514085 h 0.42333 l -0.41857,1.785937 h -0.39529 c 0,-0.247914 -0.0156,-0.416189 -0.0466,-0.50456 -0.031,-0.08837 -0.0767,-0.144198 -0.13706,-0.167481 -0.0606,-0.02328 -0.16986,-0.03493 -0.32808,-0.03493 h -0.93001 l -0.59532,2.683668 h 1.37663 c 0.18283,0 0.32782,-0.01852 0.43471,-0.05583 0.10716,-0.03731 0.20796,-0.09763 0.30242,-0.181504 0.0945,-0.08361 0.18918,-0.200554 0.28363,-0.351102 0.0947,-0.150283 0.20691,-0.354277 0.33735,-0.611452 h 0.45111 l -0.40931,1.609196 h -4.12538 l 0.0511,-0.227807 c 0.11801,-0.01879 0.20638,-0.04895 0.26512,-0.09075 0.059,-0.0418 0.10848,-0.100012 0.14896,-0.17436 0.0402,-0.07461 0.0775,-0.1651 0.11165,-0.272256 0.0341,-0.106892 0.0852,-0.313796 0.15346,-0.620713 l 0.79057,-3.5814 c 0.0683,-0.309827 0.1024,-0.559594 0.1024,-0.748771 0,-0.14552 -0.0365,-0.24712 -0.10928,-0.304535 -0.073,-0.05742 -0.18838,-0.09075 -0.3466,-0.100013 z" />
    <text
       style="stroke-width:0.264583"
       id="text2358"
       y="91.498055"
       x="166.59087"
       font-size="6.34844px"
       font-family="Arial, Arial_MSFontService, sans-serif"
       fill-opacity="0"
       fill="#000000">𝐸</text>
    <path
       style="stroke-width:0.264583"
       id="path2360"
       fill-rule="evenodd"
       d="m 162.29853,99.524193 h 4.85537 l -0.36274,1.636977 h -0.44635 c 0,-0.30083 -0.008,-0.52626 -0.0233,-0.67654 -0.0156,-0.15055 -0.045,-0.26511 -0.0884,-0.34422 -0.0434,-0.0791 -0.0968,-0.13335 -0.16034,-0.162722 -0.0638,-0.02963 -0.17621,-0.04418 -0.33734,-0.04418 h -0.68818 l -1.00939,4.585752 c -0.0278,0.12092 -0.0474,0.21696 -0.0582,0.28813 -0.0109,0.0714 -0.0201,0.14658 -0.0278,0.22569 -0.008,0.0791 -0.0116,0.14949 -0.0116,0.21167 0,0.096 0.0156,0.17118 0.0466,0.22542 0.031,0.0542 0.0775,0.0939 0.13944,0.1188 0.0619,0.0246 0.16906,0.0434 0.32093,0.0556 l -0.0511,0.22807 h -1.95818 l 0.0513,-0.22807 c 0.12382,-0.0185 0.21537,-0.0434 0.27437,-0.0743 0.0587,-0.031 0.11086,-0.0791 0.15584,-0.1442 0.0447,-0.0651 0.0897,-0.16722 0.13467,-0.30692 0.045,-0.13943 0.0984,-0.35031 0.16061,-0.63235 l 0.99509,-4.553212 h -0.59055 c -0.19235,0 -0.34581,0.02778 -0.46037,0.08361 -0.11483,0.0558 -0.2294,0.15955 -0.34422,0.31168 -0.11483,0.15187 -0.25427,0.40614 -0.41858,0.76279 h -0.44635 z" />
    <text
       style="stroke-width:0.264583"
       id="text2362"
       y="105.07912"
       x="161.94981"
       font-size="6.34844px"
       font-family="Arial, Arial_MSFontService, sans-serif"
       fill-opacity="0"
       fill="#000000">𝑇</text>
    <path
       style="stroke-width:0.264583"
       id="path2364"
       fill-rule="evenodd"
       d="m 167.90109,104.42137 h 0.16457 l -0.49716,2.23705 c -0.0315,0.13202 -0.0532,0.23733 -0.0656,0.31565 -0.0122,0.0786 -0.0183,0.14896 -0.0183,0.21166 0,0.0852 0.0172,0.14658 0.0519,0.18468 0.0349,0.0381 0.0868,0.0571 0.15637,0.0571 0.0402,0 0.0804,-0.008 0.12091,-0.0236 0.0402,-0.0156 0.0833,-0.0402 0.12912,-0.0738 0.046,-0.0336 0.0963,-0.0767 0.15134,-0.12938 0.0548,-0.0526 0.11589,-0.11588 0.18309,-0.1897 l 0.22834,0.22172 c -0.11642,0.11853 -0.22225,0.21881 -0.3175,0.30056 -0.095,0.0818 -0.18521,0.14844 -0.27041,0.19976 -0.0849,0.0516 -0.16854,0.0886 -0.25029,0.11087 -0.0815,0.0225 -0.16828,0.0336 -0.26009,0.0336 -0.0852,0 -0.16192,-0.0156 -0.23018,-0.0468 -0.0683,-0.0315 -0.127,-0.0746 -0.17648,-0.12939 -0.0492,-0.055 -0.0873,-0.12038 -0.11404,-0.19658 -0.027,-0.0762 -0.0405,-0.16007 -0.0405,-0.25188 0,-0.0738 0.009,-0.16563 0.027,-0.27544 0.018,-0.1098 0.041,-0.22886 0.0688,-0.35771 0.0281,-0.12885 0.0587,-0.26379 0.0923,-0.40481 0.0336,-0.14103 0.0667,-0.28099 0.0992,-0.4199 0.0325,-0.1389 0.0616,-0.27252 0.0873,-0.40137 0.0257,-0.12885 0.0442,-0.2458 0.0553,-0.3511 0.005,-0.0177 0.007,-0.0352 0.007,-0.0519 0,-0.0169 0,-0.032 0,-0.0455 -0.005,-0.0873 -0.0352,-0.15108 -0.0923,-0.19129 -0.0571,-0.0405 -0.15849,-0.0627 -0.30401,-0.0672 l 0.0402,-0.22833 z m 7.75149,-0.0336 c 0.16404,0 0.31486,0.009 0.45509,0.0267 0.14023,0.018 0.28575,0.046 0.43656,0.0841 l -0.18786,0.82286 h -0.39687 c -0.003,-0.11642 -0.0106,-0.21326 -0.0265,-0.29051 -0.0132,-0.0773 -0.037,-0.13838 -0.0688,-0.1831 -0.0344,-0.0447 -0.0767,-0.0767 -0.12965,-0.0958 -0.0503,-0.019 -0.11641,-0.0296 -0.19314,-0.0318 -0.11906,0 -0.23548,0.0267 -0.34661,0.0804 -0.11112,0.054 -0.21431,0.12832 -0.30956,0.22357 -0.0952,0.095 -0.17992,0.20638 -0.25929,0.33417 -0.0794,0.12753 -0.14552,0.26538 -0.20108,0.41301 -0.0556,0.14791 -0.10055,0.30189 -0.12965,0.46197 -0.0317,0.16007 -0.045,0.31961 -0.045,0.47863 0,0.23733 0.045,0.4183 0.14023,0.54239 0.0952,0.12436 0.23548,0.18653 0.42333,0.18653 0.10584,0 0.20373,-0.01 0.29105,-0.0286 0.09,-0.0191 0.17727,-0.0508 0.26193,-0.0958 0.0873,-0.0447 0.17463,-0.10345 0.26459,-0.17621 0.09,-0.0728 0.1905,-0.16299 0.30162,-0.27041 0.0423,0.0447 0.082,0.0889 0.12171,0.13256 0.0397,0.0437 0.0794,0.0878 0.12171,0.13282 -0.24077,0.25083 -0.48154,0.43709 -0.72496,0.55907 -0.24077,0.12223 -0.50006,0.18309 -0.77788,0.18309 -0.34925,0 -0.61383,-0.10134 -0.79904,-0.30401 -0.18521,-0.20267 -0.27675,-0.49186 -0.27675,-0.8681 0,-0.21061 0.0228,-0.41381 0.0704,-0.60986 0.0476,-0.19579 0.11377,-0.37994 0.20373,-0.55245 0.0873,-0.17251 0.19314,-0.32914 0.3175,-0.47017 0.12171,-0.14102 0.25929,-0.26273 0.41275,-0.36459 0.15346,-0.10187 0.3175,-0.18071 0.49477,-0.2368 0.17462,-0.0558 0.36248,-0.0839 0.55562,-0.0839 z m -5.75998,0 c 0.16563,0 0.29396,0.0542 0.38471,0.16299 0.0908,0.10848 0.13599,0.25135 0.13599,0.42809 0,0.045 -0.004,0.0918 -0.0119,0.14103 -0.008,0.0495 -0.0217,0.0963 -0.0418,0.14128 l 0.0471,0.0167 c 0.21722,-0.29765 0.43154,-0.5207 0.6432,-0.66834 0.2114,-0.1479 0.43048,-0.22172 0.6567,-0.22172 0.23733,0 0.4146,0.0638 0.53234,0.19156 0.11747,0.12753 0.17621,0.30665 0.17621,0.53737 0,0.0693 -0.0101,0.16563 -0.0302,0.28893 -0.0201,0.12303 -0.0458,0.25743 -0.0773,0.40296 -0.0312,0.14552 -0.0648,0.29501 -0.10081,0.44846 -0.0357,0.15346 -0.0693,0.29501 -0.1008,0.42493 -0.0312,0.12991 -0.0569,0.24077 -0.0773,0.33258 -0.0201,0.0918 -0.0302,0.14869 -0.0302,0.17118 0,0.0852 0.0156,0.14658 0.0471,0.18468 0.0312,0.0381 0.0818,0.0571 0.15108,0.0571 0.0426,0 0.0847,-0.008 0.12594,-0.0236 0.0415,-0.0156 0.0847,-0.0402 0.12938,-0.0738 0.0447,-0.0336 0.0939,-0.0767 0.14791,-0.12938 0.0537,-0.0526 0.11403,-0.11588 0.18124,-0.1897 l 0.23177,0.22172 c -0.1098,0.11192 -0.21061,0.20822 -0.30215,0.28892 -0.0918,0.0804 -0.18098,0.14711 -0.26723,0.19976 -0.0863,0.0527 -0.17172,0.0918 -0.25691,0.11748 -0.0852,0.0259 -0.17569,0.0386 -0.272,0.0386 -0.0807,0 -0.15504,-0.0156 -0.22357,-0.0468 -0.0683,-0.0315 -0.127,-0.0746 -0.17621,-0.12939 -0.0492,-0.055 -0.0873,-0.11985 -0.1143,-0.19473 -0.0267,-0.0751 -0.0402,-0.15743 -0.0402,-0.24712 0,-0.0894 0.01,-0.1942 0.0286,-0.31406 0.019,-0.11959 0.0476,-0.25135 0.0857,-0.39449 0.0402,-0.14552 0.0778,-0.28496 0.11245,-0.41831 0.0347,-0.13309 0.0648,-0.25638 0.0908,-0.36936 0.0257,-0.11324 0.0458,-0.21405 0.0603,-0.30242 0.0146,-0.0884 0.022,-0.16166 0.022,-0.21987 0,-0.1389 -0.0265,-0.24077 -0.0791,-0.30585 -0.0526,-0.0648 -0.13706,-0.0974 -0.25347,-0.0974 -0.0672,0 -0.13944,0.0175 -0.2167,0.0521 -0.0773,0.0347 -0.15504,0.0828 -0.23336,0.14446 -0.0783,0.0617 -0.15505,0.13441 -0.23019,0.21829 -0.0749,0.0839 -0.14393,0.17356 -0.20664,0.26881 -0.0627,0.095 -0.118,0.19474 -0.16615,0.29872 -0.0482,0.10424 -0.0834,0.2077 -0.10584,0.31088 l -0.37624,1.68619 h -0.65828 l 0.50377,-2.19022 c 0.0291,-0.11642 0.0505,-0.2204 0.0638,-0.31221 0.0135,-0.0918 0.0204,-0.16695 0.0204,-0.22516 0,-0.16351 -0.0661,-0.24527 -0.19818,-0.24527 -0.0405,0 -0.0812,0.008 -0.12276,0.0254 -0.0413,0.0167 -0.0849,0.0418 -0.13097,0.0754 -0.046,0.0336 -0.0958,0.0762 -0.14949,0.12779 -0.0537,0.0513 -0.1143,0.11192 -0.18124,0.18124 l -0.23178,-0.21828 c 0.11192,-0.1143 0.21432,-0.21219 0.30718,-0.29395 0.0929,-0.0818 0.18151,-0.14896 0.26538,-0.20135 0.0839,-0.0526 0.16748,-0.0913 0.2503,-0.11589 0.0828,-0.0249 0.17012,-0.037 0.26193,-0.037 z m -2.18651,-1.32 h 0.67204 l -0.16484,0.72204 h -0.66489 z" />
    <text
       style="stroke-width:0.264583"
       id="text2366"
       y="107.27648"
       x="166.84619"
       font-size="4.81005px"
       font-family="Arial, Arial_MSFontService, sans-serif"
       fill-opacity="0"
       fill="#000000">𝑖𝑛𝑐</text>
    <path
       style="stroke-width:0.264583"
       id="path2368"
       fill-rule="evenodd"
       d="m 161.55003,96.591022 h 15.61068 v 0.529166 h -15.61068 z" />
  </g>
</svg>
