<?xml version="1.0" encoding="UTF-8" standalone="no"?>
<svg
   xmlns:dc="http://purl.org/dc/elements/1.1/"
   xmlns:cc="http://creativecommons.org/ns#"
   xmlns:rdf="http://www.w3.org/1999/02/22-rdf-syntax-ns#"
   xmlns:svg="http://www.w3.org/2000/svg"
   xmlns="http://www.w3.org/2000/svg"
   xmlns:sodipodi="http://sodipodi.sourceforge.net/DTD/sodipodi-0.dtd"
   xmlns:inkscape="http://www.inkscape.org/namespaces/inkscape"
   sodipodi:docname="SEIR delta Infectious.svg"
   inkscape:version="1.0 (4035a4fb49, 2020-05-01)"
   id="svg923"
   version="1.1"
   viewBox="0 0 53.953228 23.778605"
   height="23.778605mm"
   width="53.953228mm">
  <defs
     id="defs917">
    <clipPath
       id="clip0">
      <rect
         x="103"
         y="796"
         width="224"
         height="94"
         id="rect1486" />
    </clipPath>
  </defs>
  <sodipodi:namedview
     inkscape:window-maximized="0"
     inkscape:window-y="380"
     inkscape:window-x="380"
     inkscape:window-height="1228"
     inkscape:window-width="1481"
     fit-margin-bottom="0"
     fit-margin-right="0"
     fit-margin-left="0"
     fit-margin-top="0"
     showgrid="false"
     inkscape:document-rotation="0"
     inkscape:current-layer="layer1"
     inkscape:document-units="mm"
     inkscape:cy="61.278375"
     inkscape:cx="133.38743"
     inkscape:zoom="0.35"
     inkscape:pageshadow="2"
     inkscape:pageopacity="0.0"
     borderopacity="1.0"
     bordercolor="#666666"
     pagecolor="#ffffff"
     id="base" />
  <metadata
     id="metadata920">
    <rdf:RDF>
      <cc:Work
         rdf:about="">
        <dc:format>image/svg+xml</dc:format>
        <dc:type
           rdf:resource="http://purl.org/dc/dcmitype/StillImage" />
        <dc:title></dc:title>
      </cc:Work>
    </rdf:RDF>
  </metadata>
  <g
     transform="translate(-70.541244,-131.95343)"
     id="layer1"
     inkscape:groupmode="layer"
     inkscape:label="Ebene 1">
    <path
       style="stroke-width:0.264583"
       id="path1491"
       fill-rule="evenodd"
       d="m 73.142815,140.11662 -1.771914,4.65085 h 3.236912 z m -0.162719,-1.02764 h 0.688182 l 1.962679,6.12511 v 0.29765 h -5.08344 v -0.29765 z" />
    <text
       style="stroke-width:0.264583"
       id="text1493"
       y="144.70872"
       x="70.547516"
       font-size="6.42287px"
       font-family="Arial, Arial_MSFontService, sans-serif"
       fill-opacity="0"
       fill="#000000">Î”</text>
    <path
       style="stroke-width:0.264583"
       id="path1495"
       fill-rule="evenodd"
       d="m 76.561761,139.16333 h 1.962679 v 0.22781 c -0.136525,0.0341 -0.23495,0.0683 -0.295275,0.10239 -0.06059,0.0341 -0.108744,0.0767 -0.144198,0.12779 -0.03572,0.0513 -0.06218,0.12806 -0.07911,0.23019 -0.0172,0.1024 -0.02567,0.26062 -0.02567,0.4744 v 4.02299 c 0,0.20796 0.0071,0.35983 0.0209,0.45588 0.01402,0.096 0.03731,0.17198 0.06985,0.2278 0.03254,0.0558 0.0807,0.1024 0.144198,0.1397 0.0635,0.037 0.166688,0.0744 0.309298,0.11166 v 0.2278 h -1.962679 v -0.2278 c 0.192087,-0.0497 0.320939,-0.10478 0.386027,-0.1651 0.06509,-0.0606 0.107685,-0.14658 0.127794,-0.25824 0.02011,-0.11165 0.03016,-0.28204 0.03016,-0.5117 v -4.02299 c 0,-0.21378 -0.0077,-0.36962 -0.02302,-0.46725 -0.01561,-0.0976 -0.04127,-0.17384 -0.07673,-0.22808 -0.03572,-0.0542 -0.08308,-0.0976 -0.142081,-0.13017 -0.05874,-0.0325 -0.159544,-0.0691 -0.302154,-0.10927 z" />
    <text
       style="stroke-width:0.264583"
       id="text1497"
       y="144.71826"
       x="76.56176"
       font-size="6.34844px"
       font-family="Arial, Arial_MSFontService, sans-serif"
       fill-opacity="0"
       fill="#000000">I</text>
    <path
       style="stroke-width:0.264583"
       id="path1499"
       fill-rule="evenodd"
       d="m 85.819532,139.30515 c 0.02805,-0.005 0.05265,-0.003 0.07435,0.004 0.0217,0.008 0.04207,0.0212 0.06059,0.0397 l 3.05091,3.04641 c 0.03731,0.0402 0.06747,0.0796 0.09075,0.11854 0.02328,0.0386 0.03493,0.0921 0.03493,0.16034 0,0.0526 -0.0093,0.10001 -0.02805,0.14181 -0.01852,0.0421 -0.05106,0.0876 -0.09763,0.13732 l -3.05091,3.04641 c -0.01852,0.0185 -0.03889,0.0318 -0.06059,0.0394 -0.0217,0.008 -0.0463,0.009 -0.07435,0.005 -0.02778,-0.005 -0.06112,-0.0204 -0.100013,-0.0466 -0.03863,-0.0265 -0.08281,-0.0643 -0.132556,-0.11403 -0.05265,-0.0527 -0.09366,-0.0984 -0.123296,-0.13706 -0.02937,-0.0389 -0.04789,-0.0738 -0.05583,-0.10477 -0.0077,-0.031 -0.0069,-0.0582 0.0024,-0.0815 0.0093,-0.023 0.02487,-0.0455 0.04657,-0.0672 0.437092,-0.43735 0.869685,-0.86122 1.297517,-1.27211 0.427831,-0.4109 0.847989,-0.81016 1.260474,-1.19751 h -5.939102 c -0.02169,0 -0.04207,-0.006 -0.06059,-0.0188 -0.01852,-0.0124 -0.03493,-0.0317 -0.04868,-0.058 -0.01402,-0.0265 -0.02487,-0.0622 -0.03254,-0.10715 -0.0079,-0.045 -0.01164,-0.10002 -0.01164,-0.1651 0,-0.0651 0.0037,-0.12013 0.01164,-0.1651 0.0077,-0.045 0.01852,-0.0804 0.03254,-0.1069 0.01376,-0.0265 0.03016,-0.0458 0.04868,-0.0582 0.01852,-0.0124 0.03889,-0.0185 0.06059,-0.0185 h 5.939102 c -0.412485,-0.38761 -0.832643,-0.78687 -1.260474,-1.1975 -0.427832,-0.4109 -0.860425,-0.83344 -1.297517,-1.26762 -0.0217,-0.0217 -0.03731,-0.0447 -0.04657,-0.0696 -0.0093,-0.0249 -0.01005,-0.0527 -0.0024,-0.0839 0.0079,-0.031 0.02646,-0.0659 0.05583,-0.10451 0.02963,-0.0389 0.07064,-0.0844 0.123296,-0.13732 0.04974,-0.0495 0.09393,-0.0876 0.132556,-0.11377 0.03889,-0.0265 0.07223,-0.0421 0.100013,-0.0466 z" />
    <text
       style="stroke-width:0.264583"
       id="text1501"
       y="145.20377"
       x="81.922218"
       font-size="6.74436px"
       font-family="Arial, Arial_MSFontService, sans-serif"
       fill-opacity="0"
       fill="#000000">â†’</text>
    <path
       style="stroke-width:0.264583"
       id="path1503"
       fill-rule="evenodd"
       d="m 92.483857,139.57264 c -0.279136,0 -0.505619,0.006 -0.679186,0.0185 v 2.76252 h 0.525463 c 0.269875,0 0.48842,-0.0193 0.655902,-0.058 0.167481,-0.0389 0.322527,-0.11245 0.465137,-0.22092 0.142611,-0.10848 0.256646,-0.25983 0.341842,-0.4535 0.0852,-0.19394 0.127794,-0.4318 0.127794,-0.71385 0,-0.29474 -0.05027,-0.53975 -0.151078,-0.73501 -0.100806,-0.19526 -0.25347,-0.34422 -0.458258,-0.44635 -0.204523,-0.10239 -0.480483,-0.15346 -0.827616,-0.15346 z m -2.097617,-0.40931 h 2.302139 c 0.725488,0 1.268148,0.13176 1.627717,0.39529 0.359833,0.26352 0.539485,0.67283 0.539485,1.22793 0,0.42466 -0.116945,0.78581 -0.351102,1.08347 -0.234156,0.29765 -0.585258,0.53022 -1.053306,0.6977 v 0.0373 c 0.189177,0.0775 0.351102,0.18812 0.48604,0.33232 0.134673,0.14419 0.284427,0.3683 0.448733,0.67204 l 0.418571,0.76279 c 0.120914,0.22331 0.224896,0.39397 0.311679,0.51171 0.08678,0.11774 0.175154,0.20769 0.265113,0.26961 0.08996,0.0622 0.209285,0.10557 0.357981,0.13044 v 0.2278 h -1.288256 c -0.11774,-0.1643 -0.229394,-0.34105 -0.334963,-0.53022 -0.105304,-0.18918 -0.209285,-0.38127 -0.311415,-0.57679 l -0.40931,-0.77656 c -0.124089,-0.23574 -0.225689,-0.40931 -0.3048,-0.52096 -0.07885,-0.11165 -0.151871,-0.18997 -0.218546,-0.23495 -0.06668,-0.045 -0.137848,-0.0759 -0.213783,-0.0929 -0.07593,-0.0172 -0.189971,-0.0257 -0.341842,-0.0257 h -0.511704 v 1.58141 c 0,0.22304 0.0085,0.38523 0.02567,0.48604 0.01693,0.10054 0.0426,0.17674 0.07673,0.22781 0.03413,0.0511 0.0807,0.0929 0.139435,0.12541 0.059,0.0328 0.159809,0.0691 0.302419,0.10954 v 0.2278 H 90.38624 v -0.2278 c 0.192087,-0.0497 0.320939,-0.10478 0.386027,-0.1651 0.06509,-0.0606 0.107685,-0.14658 0.127794,-0.25824 0.02011,-0.11165 0.03016,-0.28204 0.03016,-0.5117 v -4.02299 c 0,-0.21378 -0.0077,-0.36962 -0.02302,-0.46725 -0.01561,-0.0976 -0.04127,-0.17384 -0.07673,-0.22808 -0.03572,-0.0542 -0.08308,-0.0976 -0.142081,-0.13017 -0.05874,-0.0325 -0.159544,-0.0691 -0.302154,-0.10927 z" />
    <text
       style="stroke-width:0.264583"
       id="text1505"
       y="144.71826"
       x="90.386238"
       font-size="6.34844px"
       font-family="Arial, Arial_MSFontService, sans-serif"
       fill-opacity="0"
       fill="#000000">R</text>
    <path
       style="stroke-width:0.264583"
       id="path1507"
       fill-rule="evenodd"
       d="m 99.049227,143.44667 h 5.729813 v 0.6186 h -5.729813 z m 0,-1.93014 h 5.729813 v 0.6186 h -5.729813 z" />
    <text
       style="stroke-width:0.264583"
       id="text1509"
       y="143.7467"
       x="99.049225"
       font-size="2.54868px"
       font-family="Arial, Arial_MSFontService, sans-serif"
       fill-opacity="0"
       fill="#000000">=</text>
    <path
       style="stroke-width:0.264583"
       id="path1511"
       fill-rule="evenodd"
       d="m 115.83651,131.95343 h 1.86055 l -0.0513,0.22781 c -0.11774,0.0249 -0.20214,0.0526 -0.25347,0.0836 -0.0511,0.0312 -0.0968,0.0775 -0.13705,0.1397 -0.0405,0.0619 -0.0823,0.15875 -0.12568,0.29051 -0.0434,0.13203 -0.0976,0.34661 -0.16272,0.64426 l -0.79534,3.60918 c -0.0402,0.18283 -0.0667,0.32782 -0.0791,0.43471 -0.0124,0.10716 -0.0185,0.204 -0.0185,0.29078 0,0.13944 0.0349,0.23786 0.10451,0.29528 0.0699,0.0574 0.1868,0.0923 0.3511,0.10477 l -0.0511,0.22781 h -1.86029 l 0.0511,-0.22781 c 0.11774,-0.0188 0.20611,-0.0489 0.26511,-0.0907 0.059,-0.0418 0.10848,-0.10001 0.14896,-0.17436 0.0402,-0.0746 0.0775,-0.1651 0.11166,-0.27226 0.0339,-0.10689 0.0852,-0.31379 0.15345,-0.62071 l 0.79058,-3.5814 c 0.0683,-0.30983 0.10239,-0.55959 0.10239,-0.74877 0,-0.14552 -0.0365,-0.24712 -0.10953,-0.30454 -0.0728,-0.0574 -0.18812,-0.0908 -0.34634,-0.10001 z" />
    <text
       style="stroke-width:0.264583"
       id="text1513"
       y="137.50836"
       x="114.6181"
       font-size="6.34844px"
       font-family="Arial, Arial_MSFontService, sans-serif"
       fill-opacity="0"
       fill="#000000">ğ¼</text>
    <path
       style="stroke-width:0.264583"
       id="path1515"
       fill-rule="evenodd"
       d="m 108.82029,145.5345 h 4.85537 l -0.36275,1.63697 h -0.44635 c 0,-0.30056 -0.008,-0.52625 -0.0233,-0.67654 -0.0156,-0.15054 -0.045,-0.26511 -0.0884,-0.34422 -0.0434,-0.0791 -0.0968,-0.13335 -0.1606,-0.16272 -0.0635,-0.0296 -0.17595,-0.0442 -0.33708,-0.0442 h -0.68845 l -1.00912,4.58576 c -0.028,0.12091 -0.0474,0.21695 -0.0582,0.28839 -0.0109,0.0712 -0.0201,0.14632 -0.0278,0.22543 -0.008,0.0791 -0.0116,0.14949 -0.0116,0.21166 0,0.096 0.0153,0.17119 0.0466,0.22543 0.031,0.0542 0.0775,0.0939 0.13943,0.1188 0.0619,0.0246 0.16907,0.0434 0.32094,0.0558 l -0.0513,0.22781 h -1.95791 l 0.0511,-0.22781 c 0.12409,-0.0188 0.21564,-0.0434 0.27464,-0.0746 0.0587,-0.031 0.11059,-0.0788 0.15557,-0.1442 0.045,-0.0651 0.09,-0.16721 0.13494,-0.30691 0.045,-0.13944 0.0984,-0.35031 0.1606,-0.63236 l 0.9951,-4.55321 h -0.59055 c -0.19235,0 -0.34581,0.0278 -0.46038,0.0836 -0.11482,0.0558 -0.22965,0.1598 -0.34422,0.31167 -0.11483,0.15188 -0.25426,0.40614 -0.41857,0.7628 h -0.44662 z" />
    <text
       style="stroke-width:0.264583"
       id="text1517"
       y="151.08943"
       x="108.47131"
       font-size="6.34844px"
       font-family="Arial, Arial_MSFontService, sans-serif"
       fill-opacity="0"
       fill="#000000">ğ‘‡</text>
    <path
       style="stroke-width:0.264583"
       id="path1519"
       fill-rule="evenodd"
       d="m 114.42284,150.43167 h 0.16457 l -0.49715,2.23705 c -0.0315,0.13203 -0.0532,0.23733 -0.0656,0.31565 -0.0122,0.0786 -0.0185,0.14896 -0.0185,0.21167 0,0.0852 0.0175,0.14684 0.0521,0.18468 0.0347,0.0381 0.0868,0.0572 0.1561,0.0572 0.0405,0 0.0807,-0.008 0.12118,-0.0236 0.0402,-0.0156 0.0833,-0.0402 0.12912,-0.0738 0.046,-0.0336 0.0963,-0.0767 0.15134,-0.12938 0.0548,-0.0526 0.11588,-0.11589 0.18282,-0.18971 l 0.2286,0.22172 c -0.11641,0.11854 -0.22225,0.21881 -0.3175,0.30057 -0.0952,0.0818 -0.1852,0.14843 -0.2704,0.20002 -0.0852,0.0513 -0.16854,0.0884 -0.2503,0.1106 -0.0817,0.0225 -0.16854,0.0336 -0.26035,0.0336 -0.0849,0 -0.16166,-0.0156 -0.22992,-0.0468 -0.0683,-0.0315 -0.12726,-0.0746 -0.17648,-0.12938 -0.0492,-0.0548 -0.0873,-0.12039 -0.11403,-0.19659 -0.027,-0.0762 -0.0405,-0.16007 -0.0405,-0.25188 0,-0.0738 0.009,-0.16563 0.027,-0.27543 0.018,-0.1098 0.0407,-0.22887 0.0688,-0.35772 0.028,-0.12885 0.0587,-0.26379 0.0923,-0.40481 0.0336,-0.14102 0.0667,-0.28099 0.0992,-0.41989 0.0323,-0.13865 0.0614,-0.27252 0.0873,-0.40138 0.0257,-0.12858 0.0442,-0.24579 0.0553,-0.35083 0.004,-0.018 0.007,-0.0355 0.007,-0.0521 0,-0.0169 0,-0.032 0,-0.0455 -0.004,-0.0873 -0.0355,-0.15107 -0.0923,-0.19129 -0.0572,-0.0405 -0.15849,-0.0627 -0.30401,-0.0672 l 0.0402,-0.22834 z m 1.99152,-0.0336 c 0.16563,0 0.29395,0.0542 0.3847,0.16298 0.0905,0.10848 0.136,0.25136 0.136,0.4281 0,0.045 -0.004,0.0918 -0.0119,0.14128 -0.008,0.0492 -0.0217,0.0963 -0.0418,0.14103 l 0.0468,0.0167 c 0.21722,-0.29766 0.4318,-0.5207 0.6432,-0.66834 0.21167,-0.1479 0.43074,-0.22172 0.6567,-0.22172 0.23759,0 0.41487,0.0638 0.53261,0.19156 0.11747,0.12753 0.17621,0.30665 0.17621,0.53736 0,0.0693 -0.0101,0.16563 -0.0302,0.28893 -0.0201,0.12303 -0.046,0.25744 -0.0773,0.40296 -0.0315,0.14552 -0.0651,0.29501 -0.10081,0.44847 -0.0357,0.15346 -0.0693,0.29501 -0.10081,0.42492 -0.0312,0.12991 -0.0571,0.24077 -0.0772,0.33258 -0.0201,0.0918 -0.0302,0.14896 -0.0302,0.17119 0,0.0852 0.0156,0.14684 0.0471,0.18468 0.0312,0.0381 0.0818,0.0572 0.15108,0.0572 0.0426,0 0.0844,-0.008 0.12594,-0.0236 0.0415,-0.0156 0.0844,-0.0402 0.12938,-0.0738 0.0447,-0.0336 0.0939,-0.0767 0.14764,-0.12938 0.0537,-0.0526 0.1143,-0.11589 0.1815,-0.18971 l 0.23178,0.22172 c -0.10981,0.11192 -0.21061,0.20823 -0.30242,0.28893 -0.0918,0.0804 -0.18071,0.14711 -0.26697,0.19976 -0.0862,0.0526 -0.17198,0.0918 -0.25691,0.11747 -0.0852,0.0259 -0.17595,0.0386 -0.27199,0.0386 -0.0807,0 -0.15531,-0.0156 -0.22357,-0.0468 -0.0683,-0.0315 -0.127,-0.0746 -0.17621,-0.12938 -0.0492,-0.0548 -0.0873,-0.11986 -0.1143,-0.19473 -0.0267,-0.0751 -0.0402,-0.15743 -0.0402,-0.24712 0,-0.0894 0.01,-0.19421 0.0286,-0.31407 0.0191,-0.11959 0.0476,-0.25135 0.0855,-0.39449 0.0405,-0.14552 0.0781,-0.28496 0.11272,-0.41831 0.0347,-0.13308 0.0648,-0.25638 0.0907,-0.36935 0.0257,-0.11325 0.0458,-0.21405 0.0603,-0.30242 0.0146,-0.0884 0.022,-0.16166 0.022,-0.21987 0,-0.13891 -0.0264,-0.24077 -0.0791,-0.30586 -0.0526,-0.0648 -0.13705,-0.0974 -0.25347,-0.0974 -0.0672,0 -0.13943,0.0175 -0.21669,0.0521 -0.0773,0.0347 -0.15505,0.0828 -0.23336,0.14446 -0.0786,0.0616 -0.15531,0.13441 -0.23019,0.21828 -0.0751,0.0839 -0.14393,0.17357 -0.20664,0.26882 -0.0627,0.095 -0.118,0.19473 -0.16616,0.29898 -0.0481,0.10398 -0.0836,0.20769 -0.10583,0.31062 l -0.37624,1.68619 h -0.65828 l 0.50376,-2.18996 c 0.0291,-0.11668 0.0503,-0.22066 0.0638,-0.31247 0.0135,-0.0918 0.0201,-0.16695 0.0201,-0.22516 0,-0.16352 -0.0659,-0.24501 -0.19818,-0.24501 -0.0402,0 -0.081,0.008 -0.1225,0.0251 -0.0415,0.0167 -0.0852,0.0418 -0.13097,0.0754 -0.046,0.0336 -0.0958,0.0762 -0.14949,0.1278 -0.0537,0.0513 -0.1143,0.11192 -0.1815,0.18124 l -0.23178,-0.21828 c 0.11219,-0.11404 0.21458,-0.2122 0.30745,-0.29396 0.0929,-0.0817 0.1815,-0.14869 0.26538,-0.20134 0.0839,-0.0527 0.16748,-0.0913 0.25029,-0.11589 0.0828,-0.0246 0.17013,-0.037 0.26194,-0.037 z m 6.65771,-1.2663 c 0.1233,0 0.23178,0.006 0.3257,0.0185 0.0942,0.0122 0.18495,0.0272 0.27226,0.0452 l -0.13785,0.62468 h -0.33258 c -0.0156,-0.12753 -0.0537,-0.22093 -0.11404,-0.28046 -0.0606,-0.0593 -0.14102,-0.0889 -0.24182,-0.0889 -0.11642,0 -0.21458,0.0251 -0.29396,0.0757 -0.0796,0.0503 -0.14896,0.12647 -0.20822,0.22834 -0.0593,0.10186 -0.11034,0.22119 -0.15293,0.35771 -0.0426,0.13653 -0.0717,0.25533 -0.0873,0.35613 h 0.93054 l -0.0741,0.3728 h -0.93371 l -0.60802,2.87867 c -0.1053,0.49027 -0.27596,0.85354 -0.51223,1.08981 -0.23627,0.23628 -0.55139,0.35455 -0.94562,0.35455 -0.10292,0 -0.1778,-0.007 -0.2249,-0.0204 0.0135,-0.0558 0.0257,-0.1135 0.0371,-0.17277 0.0111,-0.0595 0.0246,-0.11721 0.0402,-0.17304 0.0135,0.005 0.0326,0.007 0.0571,0.007 0.0246,0 0.0593,0 0.10398,0 0.0873,0 0.16748,-0.014 0.24024,-0.0418 0.0728,-0.028 0.13944,-0.0786 0.19977,-0.15134 0.0606,-0.0728 0.11588,-0.17224 0.16642,-0.29898 0.0503,-0.12647 0.0979,-0.28945 0.14261,-0.48868 l 0.67178,-2.98265 h -0.57759 l 0.0603,-0.25876 c 0.12329,-0.007 0.22119,-0.0146 0.29395,-0.0236 0.0728,-0.009 0.13441,-0.0286 0.18468,-0.0587 0.0505,-0.0302 0.0881,-0.0812 0.11271,-0.15266 0.12991,-0.40984 0.32517,-0.71491 0.58605,-0.91546 0.26088,-0.20029 0.60061,-0.30057 1.01944,-0.30057 z m -8.84423,-0.0537 h 0.67178 l -0.16457,0.72205 h -0.6649 z" />
    <text
       style="stroke-width:0.264583"
       id="text1521"
       y="154.40359"
       x="113.36795"
       font-size="6.08645px"
       font-family="Arial, Arial_MSFontService, sans-serif"
       fill-opacity="0"
       fill="#000000">ğ‘–ğ‘›ğ‘“</text>
    <path
       style="stroke-width:0.264583"
       id="path1523"
       fill-rule="evenodd"
       d="m 108.0903,142.60133 h 8.20209 8.20208 v 0.52916 h -8.20208 -8.20209 z" />
  </g>
</svg>
