<?xml version="1.0" encoding="UTF-8" standalone="no"?>
<svg
   xmlns:dc="http://purl.org/dc/elements/1.1/"
   xmlns:cc="http://creativecommons.org/ns#"
   xmlns:rdf="http://www.w3.org/1999/02/22-rdf-syntax-ns#"
   xmlns:svg="http://www.w3.org/2000/svg"
   xmlns="http://www.w3.org/2000/svg"
   xmlns:sodipodi="http://sodipodi.sourceforge.net/DTD/sodipodi-0.dtd"
   xmlns:inkscape="http://www.inkscape.org/namespaces/inkscape"
   sodipodi:docname="SV.svg"
   inkscape:version="1.0 (4035a4fb49, 2020-05-01)"
   id="svg8"
   version="1.1"
   viewBox="0 0 98.956787 60.592163"
   height="60.592163mm"
   width="98.956787mm">
  <defs
     id="defs2">
    <clipPath
       id="clip0">
      <rect
         x="449"
         y="410"
         width="387"
         height="292"
         id="rect833" />
    </clipPath>
  </defs>
  <sodipodi:namedview
     inkscape:window-maximized="1"
     inkscape:window-y="-11"
     inkscape:window-x="-11"
     inkscape:window-height="2066"
     inkscape:window-width="3840"
     fit-margin-bottom="0"
     fit-margin-right="0"
     fit-margin-left="0"
     fit-margin-top="0"
     showgrid="false"
     inkscape:document-rotation="0"
     inkscape:current-layer="layer1"
     inkscape:document-units="mm"
     inkscape:cy="79.953835"
     inkscape:cx="195.90374"
     inkscape:zoom="3.959798"
     inkscape:pageshadow="2"
     inkscape:pageopacity="0.0"
     borderopacity="1.0"
     bordercolor="#666666"
     pagecolor="#ffffff"
     id="base" />
  <metadata
     id="metadata5">
    <rdf:RDF>
      <cc:Work
         rdf:about="">
        <dc:format>image/svg+xml</dc:format>
        <dc:type
           rdf:resource="http://purl.org/dc/dcmitype/StillImage" />
        <dc:title></dc:title>
      </cc:Work>
    </rdf:RDF>
  </metadata>
  <g
     transform="translate(-56.354942,-117.87058)"
     id="layer1"
     inkscape:groupmode="layer"
     inkscape:label="Ebene 1">
    <path
       style="stroke-width:0.264583"
       id="path838"
       fill-rule="evenodd"
       fill="#87cefa"
       d="m 94.984109,125.54347 c 0,4.13491 13.385801,7.484 29.897921,7.484 16.51211,0 29.89791,-3.34909 29.89791,-7.484 l -11.87397,44.90349 c -1.05701,3.99733 -1.51183,7.48401 -18.02394,7.48401 -16.51212,0 -16.94286,-3.4888 -18.00173,-7.48559 z" />
    <path
       style="stroke-width:0.264583"
       id="path840"
       fill-rule="evenodd"
       fill="#22a9fe"
       d="m 103.18619,154.97863 c 0,3.21363 14.29914,3.12843 21.531,3.11758 7.23212,-0.0111 21.79479,0.16246 21.86067,-3.18399 l -3.78196,15.78451 c -1.05251,4.00526 -1.50521,7.49882 -17.94668,7.49882 -16.44174,0 -16.87063,-3.49567 -17.92499,-7.50041 z" />
    <path
       style="stroke-width:0.264583"
       id="path842"
       fill-opacity="0.25098"
       fill-rule="evenodd"
       fill="#87cefa"
       d="m 94.984109,125.67576 c 0,-4.16428 13.385801,-7.54062 29.897921,-7.54062 16.51211,0 29.89791,3.37634 29.89791,7.54062 0,4.16639 -13.3858,7.54063 -29.89791,7.54063 -16.51212,0 -29.897921,-3.37424 -29.897921,-7.54063 z" />
    <path
       id="path844"
       fill-rule="evenodd"
       fill="none"
       stroke-opacity="0.501961"
       stroke-miterlimit="8"
       stroke-width="0.796332"
       stroke="#000000"
       d="m 154.91356,125.74323 c 0,4.12962 -13.3858,7.47448 -29.89792,7.47448 -16.51212,0 -29.897916,-3.34486 -29.897916,-7.47448 0,-4.12777 13.385796,-7.47448 29.897916,-7.47448 16.51212,0 29.89792,3.34671 29.89792,7.47448 z m 0,0 -11.87371,44.84846 c -1.05701,3.9923 -1.51209,7.47289 -18.02421,7.47289 -16.51212,0 -16.94471,-3.48615 -18.00357,-7.47792 L 95.117724,125.74323" />
    <text
       style="stroke-width:0.264583"
       y="155.1768"
       x="119.3861"
       id="text848"
       font-size="31.75px"
       font-weight="400"
       font-family="Calibri, Calibri_MSFontService, sans-serif">S<tspan
   style="stroke-width:0.0700043"
   id="tspan846"
   y="175.02055"
   x="120.68855"
   font-size="21.1667px">V</tspan></text>
    <path
       style="stroke-width:0.264583"
       id="path850"
       fill="#a6a6a6"
       d="m 99.250926,143.53318 -1.207538,0.39455 -1.174582,0.56924 -1.112847,0.67556 -1.068276,0.79114 -0.977438,0.90821 -0.90949,0.98362 -1.546883,2.19331 -1.145811,2.42149 -0.420039,1.27196 -0.285859,1.28071 -0.171998,1.30583 -0.03339,1.29561 0.110984,1.29397 0.24726,1.26249 0.401787,1.22664 0.548158,1.16302 0.681247,1.12221 0.797384,1.02815 0.890778,0.98117 0.999815,0.89159 2.164274,1.51564 2.400282,1.1336 1.271711,0.41994 1.309985,0.2924 1.61416,0.0657 0.0538,-1.32182 -1.5549,-0.0633 0.11718,0.0153 -1.21999,-0.2723 0.0633,0.0175 -1.202031,-0.39695 0.07506,0.03 -2.312808,-1.09227 0.09696,0.0563 -2.08636,-1.4611 0.06081,0.0481 -0.944783,-0.84251 0.04949,0.049 -0.850091,-0.93636 0.03294,0.0392 -0.758533,-0.97802 0.04276,0.0621 -0.643589,-1.06017 0.0329,0.0613 -0.515806,-1.09442 0.03028,0.0761 -0.376328,-1.14891 0.02053,0.0788 -0.232571,-1.18743 0.0099,0.0706 -0.104788,-1.22167 0.0022,0.0736 0.03156,-1.22396 -0.0055,0.0693 0.16362,-1.24223 -0.0102,0.0577 0.272298,-1.21999 -0.01749,0.0633 0.396949,-1.20203 -0.0302,0.0755 1.103959,-2.33307 -0.05733,0.0983 1.488764,-2.1109 -0.05488,0.0678 0.862766,-0.93309 -0.03544,0.0355 0.932086,-0.86606 -0.05657,0.047 1.014244,-0.75112 -0.05042,0.0339 1.060176,-0.64359 -0.05477,0.0298 1.10611,-0.53606 -0.08304,0.0335 1.164882,-0.38061 z m 2.880834,27.8503 3.8299,-2.24063 -4.09049,-1.71949 z" />
    <rect
       style="stroke-width:0.264583"
       id="rect852"
       fill="#ffffff"
       height="11.377083"
       width="32.279167"
       y="150.94347"
       x="56.354942" />
    <text
       style="display:inline;stroke-width:0.264583"
       y="159.9393"
       x="56.484325"
       id="text858"
       font-size="9.525px"
       font-weight="400"
       font-family="'Cambria Math', 'Cambria Math_MSFontService', sans-serif">ΔS<tspan
   style="stroke-width:0.0700043"
   id="tspan854"
   y="162.05597"
   x="66.684013"
   font-size="6.35px">v</tspan><tspan
   style="stroke-width:0.0700043"
   id="tspan856"
   y="159.9393"
   x="72.041824"
   font-family="Calibri, Calibri_MSFontService, sans-serif">→</tspan>V</text>
    <path
       d="m 94.984109,125.54347 c 0,4.13491 13.385801,7.484 29.897921,7.484 16.51211,0 29.89791,-3.34909 29.89791,-7.484 l -11.87397,44.90349 c -1.05701,3.99733 -1.51183,7.48401 -18.02394,7.48401 -16.51212,0 -16.94286,-3.4888 -18.00173,-7.48559 z"
       fill="#87cefa"
       fill-rule="evenodd"
       id="path893"
       style="stroke-width:0.264583" />
    <path
       d="m 103.18619,154.97863 c 0,3.21363 14.29914,3.12843 21.531,3.11758 7.23212,-0.0111 21.79479,0.16246 21.86067,-3.18399 l -3.78196,15.78451 c -1.05251,4.00526 -1.50521,7.49882 -17.94668,7.49882 -16.44174,0 -16.87063,-3.49567 -17.92499,-7.50041 z"
       fill="#22a9fe"
       fill-rule="evenodd"
       id="path895"
       style="stroke-width:0.264583" />
    <path
       d="m 94.984109,125.67576 c 0,-4.16428 13.385801,-7.54062 29.897921,-7.54062 16.51211,0 29.89791,3.37634 29.89791,7.54062 0,4.16639 -13.3858,7.54063 -29.89791,7.54063 -16.51212,0 -29.897921,-3.37424 -29.897921,-7.54063 z"
       fill="#87cefa"
       fill-rule="evenodd"
       fill-opacity="0.25098"
       id="path897"
       style="stroke-width:0.264583" />
    <path
       d="m 154.91356,125.74323 c 0,4.12962 -13.3858,7.47448 -29.89792,7.47448 -16.51212,0 -29.897916,-3.34486 -29.897916,-7.47448 0,-4.12777 13.385796,-7.47448 29.897916,-7.47448 16.51212,0 29.89792,3.34671 29.89792,7.47448 z m 0,0 -11.87371,44.84846 c -1.05701,3.9923 -1.51209,7.47289 -18.02421,7.47289 -16.51212,0 -16.94471,-3.48615 -18.00357,-7.47792 L 95.117724,125.74323"
       stroke="#000000"
       stroke-width="0.796332"
       stroke-miterlimit="8"
       stroke-opacity="0.501961"
       fill="none"
       fill-rule="evenodd"
       id="path899" />
    <text
       font-family="Calibri, Calibri_MSFontService, sans-serif"
       font-weight="400"
       font-size="31.75px"
       id="text903"
       x="119.3861"
       y="155.1768"
       style="stroke-width:0.264583">S<tspan
   font-size="21.1667px"
   x="120.68855"
   y="175.02055"
   id="tspan901"
   style="stroke-width:0.0700043">V</tspan></text>
    <path
       d="m 99.250926,143.53318 -1.207538,0.39455 -1.174582,0.56924 -1.112847,0.67556 -1.068276,0.79114 -0.977438,0.90821 -0.90949,0.98362 -1.546883,2.19331 -1.145811,2.42149 -0.420039,1.27196 -0.285859,1.28071 -0.171998,1.30583 -0.03339,1.29561 0.110984,1.29397 0.24726,1.26249 0.401787,1.22664 0.548158,1.16302 0.681247,1.12221 0.797384,1.02815 0.890778,0.98117 0.999815,0.89159 2.164274,1.51564 2.400282,1.1336 1.271711,0.41994 1.309985,0.2924 1.61416,0.0657 0.0538,-1.32182 -1.5549,-0.0633 0.11718,0.0153 -1.21999,-0.2723 0.0633,0.0175 -1.202031,-0.39695 0.07506,0.03 -2.312808,-1.09227 0.09696,0.0563 -2.08636,-1.4611 0.06081,0.0481 -0.944783,-0.84251 0.04949,0.049 -0.850091,-0.93636 0.03294,0.0392 -0.758533,-0.97802 0.04276,0.0621 -0.643589,-1.06017 0.0329,0.0613 -0.515806,-1.09442 0.03028,0.0761 -0.376328,-1.14891 0.02053,0.0788 -0.232571,-1.18743 0.0099,0.0706 -0.104788,-1.22167 0.0022,0.0736 0.03156,-1.22396 -0.0055,0.0693 0.16362,-1.24223 -0.0102,0.0577 0.272298,-1.21999 -0.01749,0.0633 0.396949,-1.20203 -0.0302,0.0755 1.103959,-2.33307 -0.05733,0.0983 1.488764,-2.1109 -0.05488,0.0678 0.862766,-0.93309 -0.03544,0.0355 0.932086,-0.86606 -0.05657,0.047 1.014244,-0.75112 -0.05042,0.0339 1.060176,-0.64359 -0.05477,0.0298 1.10611,-0.53606 -0.08304,0.0335 1.164882,-0.38061 z m 2.880834,27.8503 3.8299,-2.24063 -4.09049,-1.71949 z"
       fill="#a6a6a6"
       id="path905"
       style="stroke-width:0.264583" />
    <rect
       x="56.354942"
       y="150.94347"
       width="32.279167"
       height="11.377083"
       fill="#ffffff"
       id="rect907"
       style="stroke-width:0.264583" />
    <text
       font-family="'Cambria Math', 'Cambria Math_MSFontService', sans-serif"
       font-weight="400"
       font-size="9.525px"
       id="text913"
       x="56.484325"
       y="159.9393"
       style="stroke-width:0.264583">ΔS<tspan
   font-size="6.35px"
   x="66.684013"
   y="162.05597"
   id="tspan909"
   style="stroke-width:0.0700043">v</tspan><tspan
   font-family="Calibri, Calibri_MSFontService, sans-serif"
   x="72.041824"
   y="159.9393"
   id="tspan911"
   style="stroke-width:0.0700043">→</tspan>V</text>
  </g>
</svg>
